G04 #@! TF.GenerationSoftware,KiCad,Pcbnew,(5.1.6)-1*
G04 #@! TF.CreationDate,2020-07-06T23:29:03+03:00*
G04 #@! TF.ProjectId,GD5434,47443534-3334-42e6-9b69-6361645f7063,rev?*
G04 #@! TF.SameCoordinates,Original*
G04 #@! TF.FileFunction,Soldermask,Bot*
G04 #@! TF.FilePolarity,Negative*
%FSLAX46Y46*%
G04 Gerber Fmt 4.6, Leading zero omitted, Abs format (unit mm)*
G04 Created by KiCad (PCBNEW (5.1.6)-1) date 2020-07-06 23:29:03*
%MOMM*%
%LPD*%
G01*
G04 APERTURE LIST*
%ADD10C,0.010000*%
%ADD11C,0.100000*%
G04 APERTURE END LIST*
D10*
G36*
X91195099Y-47231718D02*
G01*
X90934306Y-47323326D01*
X90900744Y-47339217D01*
X90673558Y-47479248D01*
X90483831Y-47655336D01*
X90332077Y-47860865D01*
X90218811Y-48089218D01*
X90144546Y-48333779D01*
X90109797Y-48587932D01*
X90115078Y-48845060D01*
X90160902Y-49098548D01*
X90247783Y-49341779D01*
X90376236Y-49568136D01*
X90546775Y-49771004D01*
X90701568Y-49902995D01*
X90911466Y-50026578D01*
X91146796Y-50112099D01*
X91392453Y-50156070D01*
X91633332Y-50155002D01*
X91729273Y-50140319D01*
X91973739Y-50062795D01*
X92200717Y-49936422D01*
X92403604Y-49767734D01*
X92575794Y-49563266D01*
X92710683Y-49329555D01*
X92799628Y-49081144D01*
X92829014Y-48913959D01*
X92841768Y-48720233D01*
X92837798Y-48523366D01*
X92817016Y-48346758D01*
X92802700Y-48282164D01*
X92710087Y-48025120D01*
X92577963Y-47791014D01*
X92413190Y-47589850D01*
X92222631Y-47431637D01*
X92216739Y-47427758D01*
X91967248Y-47294558D01*
X91712914Y-47217424D01*
X91455083Y-47196447D01*
X91195099Y-47231718D01*
G37*
X91195099Y-47231718D02*
X90934306Y-47323326D01*
X90900744Y-47339217D01*
X90673558Y-47479248D01*
X90483831Y-47655336D01*
X90332077Y-47860865D01*
X90218811Y-48089218D01*
X90144546Y-48333779D01*
X90109797Y-48587932D01*
X90115078Y-48845060D01*
X90160902Y-49098548D01*
X90247783Y-49341779D01*
X90376236Y-49568136D01*
X90546775Y-49771004D01*
X90701568Y-49902995D01*
X90911466Y-50026578D01*
X91146796Y-50112099D01*
X91392453Y-50156070D01*
X91633332Y-50155002D01*
X91729273Y-50140319D01*
X91973739Y-50062795D01*
X92200717Y-49936422D01*
X92403604Y-49767734D01*
X92575794Y-49563266D01*
X92710683Y-49329555D01*
X92799628Y-49081144D01*
X92829014Y-48913959D01*
X92841768Y-48720233D01*
X92837798Y-48523366D01*
X92817016Y-48346758D01*
X92802700Y-48282164D01*
X92710087Y-48025120D01*
X92577963Y-47791014D01*
X92413190Y-47589850D01*
X92222631Y-47431637D01*
X92216739Y-47427758D01*
X91967248Y-47294558D01*
X91712914Y-47217424D01*
X91455083Y-47196447D01*
X91195099Y-47231718D01*
G36*
X94394999Y-50921859D02*
G01*
X94201485Y-50927460D01*
X94047437Y-50939098D01*
X93924383Y-50958755D01*
X93823854Y-50988412D01*
X93737378Y-51030050D01*
X93656486Y-51085651D01*
X93572707Y-51157197D01*
X93555256Y-51173226D01*
X93406795Y-51336467D01*
X93315207Y-51491686D01*
X93244849Y-51707669D01*
X93207370Y-51965771D01*
X93202250Y-52262604D01*
X93228973Y-52594783D01*
X93287017Y-52958921D01*
X93375865Y-53351634D01*
X93494998Y-53769535D01*
X93643896Y-54209239D01*
X93789807Y-54588551D01*
X93924481Y-54916756D01*
X94053170Y-55221779D01*
X94173907Y-55499339D01*
X94284723Y-55745156D01*
X94383650Y-55954951D01*
X94468721Y-56124444D01*
X94537968Y-56249353D01*
X94587130Y-56322611D01*
X94642971Y-56391561D01*
X94722308Y-56266167D01*
X94789147Y-56149616D01*
X94873258Y-55983796D01*
X94975021Y-55767888D01*
X95094815Y-55501068D01*
X95233020Y-55182518D01*
X95341382Y-54927218D01*
X95455564Y-54653491D01*
X95549927Y-54420345D01*
X95628244Y-54217083D01*
X95694288Y-54033008D01*
X95751835Y-53857423D01*
X95804656Y-53679631D01*
X95856526Y-53488936D01*
X95877914Y-53406411D01*
X95948964Y-53112654D01*
X96000739Y-52857022D01*
X96035318Y-52625389D01*
X96054780Y-52403632D01*
X96061207Y-52177625D01*
X96061222Y-52161440D01*
X96052728Y-51910328D01*
X96025262Y-51703466D01*
X95975309Y-51530816D01*
X95899354Y-51382341D01*
X95793881Y-51248005D01*
X95713503Y-51168674D01*
X95626835Y-51094211D01*
X95543408Y-51036088D01*
X95454689Y-50992338D01*
X95352145Y-50960994D01*
X95227241Y-50940087D01*
X95071444Y-50927651D01*
X94876221Y-50921716D01*
X94636448Y-50920314D01*
X94394999Y-50921859D01*
G37*
X94394999Y-50921859D02*
X94201485Y-50927460D01*
X94047437Y-50939098D01*
X93924383Y-50958755D01*
X93823854Y-50988412D01*
X93737378Y-51030050D01*
X93656486Y-51085651D01*
X93572707Y-51157197D01*
X93555256Y-51173226D01*
X93406795Y-51336467D01*
X93315207Y-51491686D01*
X93244849Y-51707669D01*
X93207370Y-51965771D01*
X93202250Y-52262604D01*
X93228973Y-52594783D01*
X93287017Y-52958921D01*
X93375865Y-53351634D01*
X93494998Y-53769535D01*
X93643896Y-54209239D01*
X93789807Y-54588551D01*
X93924481Y-54916756D01*
X94053170Y-55221779D01*
X94173907Y-55499339D01*
X94284723Y-55745156D01*
X94383650Y-55954951D01*
X94468721Y-56124444D01*
X94537968Y-56249353D01*
X94587130Y-56322611D01*
X94642971Y-56391561D01*
X94722308Y-56266167D01*
X94789147Y-56149616D01*
X94873258Y-55983796D01*
X94975021Y-55767888D01*
X95094815Y-55501068D01*
X95233020Y-55182518D01*
X95341382Y-54927218D01*
X95455564Y-54653491D01*
X95549927Y-54420345D01*
X95628244Y-54217083D01*
X95694288Y-54033008D01*
X95751835Y-53857423D01*
X95804656Y-53679631D01*
X95856526Y-53488936D01*
X95877914Y-53406411D01*
X95948964Y-53112654D01*
X96000739Y-52857022D01*
X96035318Y-52625389D01*
X96054780Y-52403632D01*
X96061207Y-52177625D01*
X96061222Y-52161440D01*
X96052728Y-51910328D01*
X96025262Y-51703466D01*
X95975309Y-51530816D01*
X95899354Y-51382341D01*
X95793881Y-51248005D01*
X95713503Y-51168674D01*
X95626835Y-51094211D01*
X95543408Y-51036088D01*
X95454689Y-50992338D01*
X95352145Y-50960994D01*
X95227241Y-50940087D01*
X95071444Y-50927651D01*
X94876221Y-50921716D01*
X94636448Y-50920314D01*
X94394999Y-50921859D01*
G36*
X97476614Y-47236402D02*
G01*
X97240289Y-47323398D01*
X97022434Y-47454023D01*
X96829143Y-47624006D01*
X96666509Y-47829074D01*
X96540624Y-48064957D01*
X96471773Y-48267946D01*
X96443250Y-48430976D01*
X96430797Y-48623562D01*
X96434450Y-48821882D01*
X96454242Y-49002115D01*
X96470585Y-49079483D01*
X96563232Y-49337228D01*
X96696488Y-49567650D01*
X96864327Y-49766622D01*
X97060720Y-49930015D01*
X97279643Y-50053700D01*
X97515068Y-50133551D01*
X97760969Y-50165438D01*
X98011319Y-50145235D01*
X98023115Y-50142930D01*
X98284905Y-50062460D01*
X98523249Y-49933392D01*
X98732638Y-49760649D01*
X98907564Y-49549149D01*
X99042519Y-49303815D01*
X99085197Y-49194073D01*
X99115588Y-49096624D01*
X99135198Y-49004302D01*
X99146114Y-48900150D01*
X99150422Y-48767210D01*
X99150686Y-48661884D01*
X99148673Y-48508796D01*
X99142427Y-48395728D01*
X99129557Y-48306282D01*
X99107674Y-48224064D01*
X99074384Y-48132679D01*
X99072986Y-48129121D01*
X98942863Y-47867209D01*
X98775350Y-47643106D01*
X98574564Y-47460275D01*
X98344623Y-47322177D01*
X98089645Y-47232275D01*
X97980303Y-47210385D01*
X97725316Y-47197307D01*
X97476614Y-47236402D01*
G37*
X97476614Y-47236402D02*
X97240289Y-47323398D01*
X97022434Y-47454023D01*
X96829143Y-47624006D01*
X96666509Y-47829074D01*
X96540624Y-48064957D01*
X96471773Y-48267946D01*
X96443250Y-48430976D01*
X96430797Y-48623562D01*
X96434450Y-48821882D01*
X96454242Y-49002115D01*
X96470585Y-49079483D01*
X96563232Y-49337228D01*
X96696488Y-49567650D01*
X96864327Y-49766622D01*
X97060720Y-49930015D01*
X97279643Y-50053700D01*
X97515068Y-50133551D01*
X97760969Y-50165438D01*
X98011319Y-50145235D01*
X98023115Y-50142930D01*
X98284905Y-50062460D01*
X98523249Y-49933392D01*
X98732638Y-49760649D01*
X98907564Y-49549149D01*
X99042519Y-49303815D01*
X99085197Y-49194073D01*
X99115588Y-49096624D01*
X99135198Y-49004302D01*
X99146114Y-48900150D01*
X99150422Y-48767210D01*
X99150686Y-48661884D01*
X99148673Y-48508796D01*
X99142427Y-48395728D01*
X99129557Y-48306282D01*
X99107674Y-48224064D01*
X99074384Y-48132679D01*
X99072986Y-48129121D01*
X98942863Y-47867209D01*
X98775350Y-47643106D01*
X98574564Y-47460275D01*
X98344623Y-47322177D01*
X98089645Y-47232275D01*
X97980303Y-47210385D01*
X97725316Y-47197307D01*
X97476614Y-47236402D01*
D11*
G36*
X110186700Y-114038380D02*
G01*
X108305100Y-114038380D01*
X108305100Y-106316780D01*
X110186700Y-106316780D01*
X110186700Y-114038380D01*
G37*
G36*
X77166700Y-114038380D02*
G01*
X75285100Y-114038380D01*
X75285100Y-106316780D01*
X77166700Y-106316780D01*
X77166700Y-114038380D01*
G37*
G36*
X79706700Y-114038380D02*
G01*
X77825100Y-114038380D01*
X77825100Y-106316780D01*
X79706700Y-106316780D01*
X79706700Y-114038380D01*
G37*
G36*
X82246700Y-114038380D02*
G01*
X80365100Y-114038380D01*
X80365100Y-106316780D01*
X82246700Y-106316780D01*
X82246700Y-114038380D01*
G37*
G36*
X84786700Y-114038380D02*
G01*
X82905100Y-114038380D01*
X82905100Y-106316780D01*
X84786700Y-106316780D01*
X84786700Y-114038380D01*
G37*
G36*
X87326700Y-114038380D02*
G01*
X85445100Y-114038380D01*
X85445100Y-106316780D01*
X87326700Y-106316780D01*
X87326700Y-114038380D01*
G37*
G36*
X89866700Y-114038380D02*
G01*
X87985100Y-114038380D01*
X87985100Y-106316780D01*
X89866700Y-106316780D01*
X89866700Y-114038380D01*
G37*
G36*
X92406700Y-114038380D02*
G01*
X90525100Y-114038380D01*
X90525100Y-106316780D01*
X92406700Y-106316780D01*
X92406700Y-114038380D01*
G37*
G36*
X94946700Y-114038380D02*
G01*
X93065100Y-114038380D01*
X93065100Y-106316780D01*
X94946700Y-106316780D01*
X94946700Y-114038380D01*
G37*
G36*
X97486700Y-114038380D02*
G01*
X95605100Y-114038380D01*
X95605100Y-106316780D01*
X97486700Y-106316780D01*
X97486700Y-114038380D01*
G37*
G36*
X100026700Y-114038380D02*
G01*
X98145100Y-114038380D01*
X98145100Y-106316780D01*
X100026700Y-106316780D01*
X100026700Y-114038380D01*
G37*
G36*
X102566700Y-114038380D02*
G01*
X100685100Y-114038380D01*
X100685100Y-106316780D01*
X102566700Y-106316780D01*
X102566700Y-114038380D01*
G37*
G36*
X105106700Y-114038380D02*
G01*
X103225100Y-114038380D01*
X103225100Y-106316780D01*
X105106700Y-106316780D01*
X105106700Y-114038380D01*
G37*
G36*
X148286700Y-114038380D02*
G01*
X146405100Y-114038380D01*
X146405100Y-106316780D01*
X148286700Y-106316780D01*
X148286700Y-114038380D01*
G37*
G36*
X112726700Y-114038380D02*
G01*
X110845100Y-114038380D01*
X110845100Y-106316780D01*
X112726700Y-106316780D01*
X112726700Y-114038380D01*
G37*
G36*
X115266700Y-114038380D02*
G01*
X113385100Y-114038380D01*
X113385100Y-106316780D01*
X115266700Y-106316780D01*
X115266700Y-114038380D01*
G37*
G36*
X117806700Y-114038380D02*
G01*
X115925100Y-114038380D01*
X115925100Y-106316780D01*
X117806700Y-106316780D01*
X117806700Y-114038380D01*
G37*
G36*
X120346700Y-114038380D02*
G01*
X118465100Y-114038380D01*
X118465100Y-106316780D01*
X120346700Y-106316780D01*
X120346700Y-114038380D01*
G37*
G36*
X130506700Y-114038380D02*
G01*
X128625100Y-114038380D01*
X128625100Y-106316780D01*
X130506700Y-106316780D01*
X130506700Y-114038380D01*
G37*
G36*
X133046700Y-114038380D02*
G01*
X131165100Y-114038380D01*
X131165100Y-106316780D01*
X133046700Y-106316780D01*
X133046700Y-114038380D01*
G37*
G36*
X135586700Y-114038380D02*
G01*
X133705100Y-114038380D01*
X133705100Y-106316780D01*
X135586700Y-106316780D01*
X135586700Y-114038380D01*
G37*
G36*
X138126700Y-114038380D02*
G01*
X136245100Y-114038380D01*
X136245100Y-106316780D01*
X138126700Y-106316780D01*
X138126700Y-114038380D01*
G37*
G36*
X140666700Y-114038380D02*
G01*
X138785100Y-114038380D01*
X138785100Y-106316780D01*
X140666700Y-106316780D01*
X140666700Y-114038380D01*
G37*
G36*
X143206700Y-114038380D02*
G01*
X141325100Y-114038380D01*
X141325100Y-106316780D01*
X143206700Y-106316780D01*
X143206700Y-114038380D01*
G37*
G36*
X178766700Y-114038380D02*
G01*
X176885100Y-114038380D01*
X176885100Y-106316780D01*
X178766700Y-106316780D01*
X178766700Y-114038380D01*
G37*
G36*
X206706700Y-114038380D02*
G01*
X204825100Y-114038380D01*
X204825100Y-106316780D01*
X206706700Y-106316780D01*
X206706700Y-114038380D01*
G37*
G36*
X150826700Y-114038380D02*
G01*
X148945100Y-114038380D01*
X148945100Y-106316780D01*
X150826700Y-106316780D01*
X150826700Y-114038380D01*
G37*
G36*
X153366700Y-114038380D02*
G01*
X151485100Y-114038380D01*
X151485100Y-106316780D01*
X153366700Y-106316780D01*
X153366700Y-114038380D01*
G37*
G36*
X155906700Y-114038380D02*
G01*
X154025100Y-114038380D01*
X154025100Y-106316780D01*
X155906700Y-106316780D01*
X155906700Y-114038380D01*
G37*
G36*
X158446700Y-114038380D02*
G01*
X156565100Y-114038380D01*
X156565100Y-106316780D01*
X158446700Y-106316780D01*
X158446700Y-114038380D01*
G37*
G36*
X160986700Y-114038380D02*
G01*
X159105100Y-114038380D01*
X159105100Y-106316780D01*
X160986700Y-106316780D01*
X160986700Y-114038380D01*
G37*
G36*
X163526700Y-114038380D02*
G01*
X161645100Y-114038380D01*
X161645100Y-106316780D01*
X163526700Y-106316780D01*
X163526700Y-114038380D01*
G37*
G36*
X166066700Y-114038380D02*
G01*
X164185100Y-114038380D01*
X164185100Y-106316780D01*
X166066700Y-106316780D01*
X166066700Y-114038380D01*
G37*
G36*
X168606700Y-114038380D02*
G01*
X166725100Y-114038380D01*
X166725100Y-106316780D01*
X168606700Y-106316780D01*
X168606700Y-114038380D01*
G37*
G36*
X171146700Y-114038380D02*
G01*
X169265100Y-114038380D01*
X169265100Y-106316780D01*
X171146700Y-106316780D01*
X171146700Y-114038380D01*
G37*
G36*
X173686700Y-114038380D02*
G01*
X171805100Y-114038380D01*
X171805100Y-106316780D01*
X173686700Y-106316780D01*
X173686700Y-114038380D01*
G37*
G36*
X176226700Y-114038380D02*
G01*
X174345100Y-114038380D01*
X174345100Y-106316780D01*
X176226700Y-106316780D01*
X176226700Y-114038380D01*
G37*
G36*
X181306700Y-114038380D02*
G01*
X179425100Y-114038380D01*
X179425100Y-106316780D01*
X181306700Y-106316780D01*
X181306700Y-114038380D01*
G37*
G36*
X145746700Y-114038380D02*
G01*
X143865100Y-114038380D01*
X143865100Y-106316780D01*
X145746700Y-106316780D01*
X145746700Y-114038380D01*
G37*
G36*
X107646700Y-114038380D02*
G01*
X105765100Y-114038380D01*
X105765100Y-106316780D01*
X107646700Y-106316780D01*
X107646700Y-114038380D01*
G37*
G36*
X204166700Y-114038380D02*
G01*
X202285100Y-114038380D01*
X202285100Y-106316780D01*
X204166700Y-106316780D01*
X204166700Y-114038380D01*
G37*
G36*
X201626700Y-114038380D02*
G01*
X199745100Y-114038380D01*
X199745100Y-106316780D01*
X201626700Y-106316780D01*
X201626700Y-114038380D01*
G37*
G36*
X199086700Y-114038380D02*
G01*
X197205100Y-114038380D01*
X197205100Y-106316780D01*
X199086700Y-106316780D01*
X199086700Y-114038380D01*
G37*
G36*
X196546700Y-114038380D02*
G01*
X194665100Y-114038380D01*
X194665100Y-106316780D01*
X196546700Y-106316780D01*
X196546700Y-114038380D01*
G37*
G36*
X194006700Y-114038380D02*
G01*
X192125100Y-114038380D01*
X192125100Y-106316780D01*
X194006700Y-106316780D01*
X194006700Y-114038380D01*
G37*
G36*
X191466700Y-114038380D02*
G01*
X189585100Y-114038380D01*
X189585100Y-106316780D01*
X191466700Y-106316780D01*
X191466700Y-114038380D01*
G37*
G36*
X188926700Y-114038380D02*
G01*
X187045100Y-114038380D01*
X187045100Y-106316780D01*
X188926700Y-106316780D01*
X188926700Y-114038380D01*
G37*
G36*
X186386700Y-114038380D02*
G01*
X184505100Y-114038380D01*
X184505100Y-106316780D01*
X186386700Y-106316780D01*
X186386700Y-114038380D01*
G37*
G36*
X183846700Y-114038380D02*
G01*
X181965100Y-114038380D01*
X181965100Y-106316780D01*
X183846700Y-106316780D01*
X183846700Y-114038380D01*
G37*
G36*
X190844034Y-101160537D02*
G01*
X191007969Y-101228441D01*
X191155507Y-101327023D01*
X191280977Y-101452493D01*
X191379559Y-101600031D01*
X191447463Y-101763966D01*
X191482080Y-101937999D01*
X191482080Y-102115441D01*
X191447463Y-102289474D01*
X191379559Y-102453409D01*
X191280977Y-102600947D01*
X191155507Y-102726417D01*
X191007969Y-102824999D01*
X190844034Y-102892903D01*
X190670001Y-102927520D01*
X190492559Y-102927520D01*
X190318526Y-102892903D01*
X190154591Y-102824999D01*
X190007053Y-102726417D01*
X189881583Y-102600947D01*
X189783001Y-102453409D01*
X189715097Y-102289474D01*
X189680480Y-102115441D01*
X189680480Y-101937999D01*
X189715097Y-101763966D01*
X189783001Y-101600031D01*
X189881583Y-101452493D01*
X190007053Y-101327023D01*
X190154591Y-101228441D01*
X190318526Y-101160537D01*
X190492559Y-101125920D01*
X190670001Y-101125920D01*
X190844034Y-101160537D01*
G37*
G36*
X187150874Y-101160537D02*
G01*
X187314809Y-101228441D01*
X187462347Y-101327023D01*
X187587817Y-101452493D01*
X187686399Y-101600031D01*
X187754303Y-101763966D01*
X187788920Y-101937999D01*
X187788920Y-102115441D01*
X187754303Y-102289474D01*
X187686399Y-102453409D01*
X187587817Y-102600947D01*
X187462347Y-102726417D01*
X187314809Y-102824999D01*
X187150874Y-102892903D01*
X186976841Y-102927520D01*
X186799399Y-102927520D01*
X186625366Y-102892903D01*
X186461431Y-102824999D01*
X186313893Y-102726417D01*
X186188423Y-102600947D01*
X186089841Y-102453409D01*
X186021937Y-102289474D01*
X185987320Y-102115441D01*
X185987320Y-101937999D01*
X186021937Y-101763966D01*
X186089841Y-101600031D01*
X186188423Y-101452493D01*
X186313893Y-101327023D01*
X186461431Y-101228441D01*
X186625366Y-101160537D01*
X186799399Y-101125920D01*
X186976841Y-101125920D01*
X187150874Y-101160537D01*
G37*
G36*
X211647289Y-100813395D02*
G01*
X211802125Y-100877531D01*
X211941474Y-100970640D01*
X212059980Y-101089146D01*
X212153089Y-101228495D01*
X212217225Y-101383331D01*
X212249920Y-101547703D01*
X212249920Y-101715297D01*
X212217225Y-101879669D01*
X212153089Y-102034505D01*
X212059980Y-102173854D01*
X211941474Y-102292360D01*
X211802125Y-102385469D01*
X211647289Y-102449605D01*
X211482917Y-102482300D01*
X211315323Y-102482300D01*
X211150951Y-102449605D01*
X210996115Y-102385469D01*
X210856766Y-102292360D01*
X210738260Y-102173854D01*
X210645151Y-102034505D01*
X210581015Y-101879669D01*
X210548320Y-101715297D01*
X210548320Y-101547703D01*
X210581015Y-101383331D01*
X210645151Y-101228495D01*
X210738260Y-101089146D01*
X210856766Y-100970640D01*
X210996115Y-100877531D01*
X211150951Y-100813395D01*
X211315323Y-100780700D01*
X211482917Y-100780700D01*
X211647289Y-100813395D01*
G37*
G36*
X123751609Y-99826855D02*
G01*
X123906445Y-99890991D01*
X124045794Y-99984100D01*
X124164300Y-100102606D01*
X124257409Y-100241955D01*
X124321545Y-100396791D01*
X124354240Y-100561163D01*
X124354240Y-100728757D01*
X124321545Y-100893129D01*
X124257409Y-101047965D01*
X124164300Y-101187314D01*
X124045794Y-101305820D01*
X123906445Y-101398929D01*
X123751609Y-101463065D01*
X123587237Y-101495760D01*
X123419643Y-101495760D01*
X123255271Y-101463065D01*
X123100435Y-101398929D01*
X122961086Y-101305820D01*
X122842580Y-101187314D01*
X122749471Y-101047965D01*
X122685335Y-100893129D01*
X122652640Y-100728757D01*
X122652640Y-100561163D01*
X122685335Y-100396791D01*
X122749471Y-100241955D01*
X122842580Y-100102606D01*
X122961086Y-99984100D01*
X123100435Y-99890991D01*
X123255271Y-99826855D01*
X123419643Y-99794160D01*
X123587237Y-99794160D01*
X123751609Y-99826855D01*
G37*
G36*
X122354240Y-101495760D02*
G01*
X120652640Y-101495760D01*
X120652640Y-99794160D01*
X122354240Y-99794160D01*
X122354240Y-101495760D01*
G37*
G36*
X175830600Y-100844720D02*
G01*
X174029000Y-100844720D01*
X174029000Y-99043120D01*
X175830600Y-99043120D01*
X175830600Y-100844720D01*
G37*
G36*
X177732554Y-99077737D02*
G01*
X177896489Y-99145641D01*
X178044027Y-99244223D01*
X178169497Y-99369693D01*
X178268079Y-99517231D01*
X178335983Y-99681166D01*
X178370600Y-99855199D01*
X178370600Y-100032641D01*
X178335983Y-100206674D01*
X178268079Y-100370609D01*
X178169497Y-100518147D01*
X178044027Y-100643617D01*
X177896489Y-100742199D01*
X177732554Y-100810103D01*
X177558521Y-100844720D01*
X177381079Y-100844720D01*
X177207046Y-100810103D01*
X177043111Y-100742199D01*
X176895573Y-100643617D01*
X176770103Y-100518147D01*
X176671521Y-100370609D01*
X176603617Y-100206674D01*
X176569000Y-100032641D01*
X176569000Y-99855199D01*
X176603617Y-99681166D01*
X176671521Y-99517231D01*
X176770103Y-99369693D01*
X176895573Y-99244223D01*
X177043111Y-99145641D01*
X177207046Y-99077737D01*
X177381079Y-99043120D01*
X177558521Y-99043120D01*
X177732554Y-99077737D01*
G37*
G36*
X180272554Y-99077737D02*
G01*
X180436489Y-99145641D01*
X180584027Y-99244223D01*
X180709497Y-99369693D01*
X180808079Y-99517231D01*
X180875983Y-99681166D01*
X180910600Y-99855199D01*
X180910600Y-100032641D01*
X180875983Y-100206674D01*
X180808079Y-100370609D01*
X180709497Y-100518147D01*
X180584027Y-100643617D01*
X180436489Y-100742199D01*
X180272554Y-100810103D01*
X180098521Y-100844720D01*
X179921079Y-100844720D01*
X179747046Y-100810103D01*
X179583111Y-100742199D01*
X179435573Y-100643617D01*
X179310103Y-100518147D01*
X179211521Y-100370609D01*
X179143617Y-100206674D01*
X179109000Y-100032641D01*
X179109000Y-99855199D01*
X179143617Y-99681166D01*
X179211521Y-99517231D01*
X179310103Y-99369693D01*
X179435573Y-99244223D01*
X179583111Y-99145641D01*
X179747046Y-99077737D01*
X179921079Y-99043120D01*
X180098521Y-99043120D01*
X180272554Y-99077737D01*
G37*
G36*
X212249920Y-100482300D02*
G01*
X210548320Y-100482300D01*
X210548320Y-98780700D01*
X212249920Y-98780700D01*
X212249920Y-100482300D01*
G37*
G36*
X191482080Y-100387520D02*
G01*
X189680480Y-100387520D01*
X189680480Y-98585920D01*
X191482080Y-98585920D01*
X191482080Y-100387520D01*
G37*
G36*
X187788920Y-100387520D02*
G01*
X185987320Y-100387520D01*
X185987320Y-98585920D01*
X187788920Y-98585920D01*
X187788920Y-100387520D01*
G37*
G36*
X78017889Y-95122775D02*
G01*
X78172725Y-95186911D01*
X78312074Y-95280020D01*
X78430580Y-95398526D01*
X78523689Y-95537875D01*
X78587825Y-95692711D01*
X78620520Y-95857083D01*
X78620520Y-96024677D01*
X78587825Y-96189049D01*
X78523689Y-96343885D01*
X78430580Y-96483234D01*
X78312074Y-96601740D01*
X78172725Y-96694849D01*
X78017889Y-96758985D01*
X77853517Y-96791680D01*
X77685923Y-96791680D01*
X77521551Y-96758985D01*
X77366715Y-96694849D01*
X77227366Y-96601740D01*
X77108860Y-96483234D01*
X77015751Y-96343885D01*
X76951615Y-96189049D01*
X76918920Y-96024677D01*
X76918920Y-95857083D01*
X76951615Y-95692711D01*
X77015751Y-95537875D01*
X77108860Y-95398526D01*
X77227366Y-95280020D01*
X77366715Y-95186911D01*
X77521551Y-95122775D01*
X77685923Y-95090080D01*
X77853517Y-95090080D01*
X78017889Y-95122775D01*
G37*
G36*
X186127407Y-93572403D02*
G01*
X186266082Y-93629844D01*
X186390887Y-93713236D01*
X186497024Y-93819373D01*
X186580416Y-93944178D01*
X186637857Y-94082853D01*
X186667140Y-94230070D01*
X186667140Y-94380170D01*
X186637857Y-94527387D01*
X186580416Y-94666062D01*
X186497024Y-94790867D01*
X186390887Y-94897004D01*
X186266082Y-94980396D01*
X186127407Y-95037837D01*
X185980190Y-95067120D01*
X185830090Y-95067120D01*
X185682873Y-95037837D01*
X185544198Y-94980396D01*
X185419393Y-94897004D01*
X185313256Y-94790867D01*
X185229864Y-94666062D01*
X185172423Y-94527387D01*
X185143140Y-94380170D01*
X185143140Y-94230070D01*
X185172423Y-94082853D01*
X185229864Y-93944178D01*
X185313256Y-93819373D01*
X185419393Y-93713236D01*
X185544198Y-93629844D01*
X185682873Y-93572403D01*
X185830090Y-93543120D01*
X185980190Y-93543120D01*
X186127407Y-93572403D01*
G37*
G36*
X183587407Y-93572403D02*
G01*
X183726082Y-93629844D01*
X183850887Y-93713236D01*
X183957024Y-93819373D01*
X184040416Y-93944178D01*
X184097857Y-94082853D01*
X184127140Y-94230070D01*
X184127140Y-94380170D01*
X184097857Y-94527387D01*
X184040416Y-94666062D01*
X183957024Y-94790867D01*
X183850887Y-94897004D01*
X183726082Y-94980396D01*
X183587407Y-95037837D01*
X183440190Y-95067120D01*
X183290090Y-95067120D01*
X183142873Y-95037837D01*
X183004198Y-94980396D01*
X182879393Y-94897004D01*
X182773256Y-94790867D01*
X182689864Y-94666062D01*
X182632423Y-94527387D01*
X182603140Y-94380170D01*
X182603140Y-94230070D01*
X182632423Y-94082853D01*
X182689864Y-93944178D01*
X182773256Y-93819373D01*
X182879393Y-93713236D01*
X183004198Y-93629844D01*
X183142873Y-93572403D01*
X183290090Y-93543120D01*
X183440190Y-93543120D01*
X183587407Y-93572403D01*
G37*
G36*
X181047407Y-93572403D02*
G01*
X181186082Y-93629844D01*
X181310887Y-93713236D01*
X181417024Y-93819373D01*
X181500416Y-93944178D01*
X181557857Y-94082853D01*
X181587140Y-94230070D01*
X181587140Y-94380170D01*
X181557857Y-94527387D01*
X181500416Y-94666062D01*
X181417024Y-94790867D01*
X181310887Y-94897004D01*
X181186082Y-94980396D01*
X181047407Y-95037837D01*
X180900190Y-95067120D01*
X180750090Y-95067120D01*
X180602873Y-95037837D01*
X180464198Y-94980396D01*
X180339393Y-94897004D01*
X180233256Y-94790867D01*
X180149864Y-94666062D01*
X180092423Y-94527387D01*
X180063140Y-94380170D01*
X180063140Y-94230070D01*
X180092423Y-94082853D01*
X180149864Y-93944178D01*
X180233256Y-93819373D01*
X180339393Y-93713236D01*
X180464198Y-93629844D01*
X180602873Y-93572403D01*
X180750090Y-93543120D01*
X180900190Y-93543120D01*
X181047407Y-93572403D01*
G37*
G36*
X175967407Y-93572403D02*
G01*
X176106082Y-93629844D01*
X176230887Y-93713236D01*
X176337024Y-93819373D01*
X176420416Y-93944178D01*
X176477857Y-94082853D01*
X176507140Y-94230070D01*
X176507140Y-94380170D01*
X176477857Y-94527387D01*
X176420416Y-94666062D01*
X176337024Y-94790867D01*
X176230887Y-94897004D01*
X176106082Y-94980396D01*
X175967407Y-95037837D01*
X175820190Y-95067120D01*
X175670090Y-95067120D01*
X175522873Y-95037837D01*
X175384198Y-94980396D01*
X175259393Y-94897004D01*
X175153256Y-94790867D01*
X175069864Y-94666062D01*
X175012423Y-94527387D01*
X174983140Y-94380170D01*
X174983140Y-94230070D01*
X175012423Y-94082853D01*
X175069864Y-93944178D01*
X175153256Y-93819373D01*
X175259393Y-93713236D01*
X175384198Y-93629844D01*
X175522873Y-93572403D01*
X175670090Y-93543120D01*
X175820190Y-93543120D01*
X175967407Y-93572403D01*
G37*
G36*
X178507407Y-93572403D02*
G01*
X178646082Y-93629844D01*
X178770887Y-93713236D01*
X178877024Y-93819373D01*
X178960416Y-93944178D01*
X179017857Y-94082853D01*
X179047140Y-94230070D01*
X179047140Y-94380170D01*
X179017857Y-94527387D01*
X178960416Y-94666062D01*
X178877024Y-94790867D01*
X178770887Y-94897004D01*
X178646082Y-94980396D01*
X178507407Y-95037837D01*
X178360190Y-95067120D01*
X178210090Y-95067120D01*
X178062873Y-95037837D01*
X177924198Y-94980396D01*
X177799393Y-94897004D01*
X177693256Y-94790867D01*
X177609864Y-94666062D01*
X177552423Y-94527387D01*
X177523140Y-94380170D01*
X177523140Y-94230070D01*
X177552423Y-94082853D01*
X177609864Y-93944178D01*
X177693256Y-93819373D01*
X177799393Y-93713236D01*
X177924198Y-93629844D01*
X178062873Y-93572403D01*
X178210090Y-93543120D01*
X178360190Y-93543120D01*
X178507407Y-93572403D01*
G37*
G36*
X78620520Y-94791680D02*
G01*
X76918920Y-94791680D01*
X76918920Y-93090080D01*
X78620520Y-93090080D01*
X78620520Y-94791680D01*
G37*
G36*
X175967407Y-91032403D02*
G01*
X176106082Y-91089844D01*
X176230887Y-91173236D01*
X176337024Y-91279373D01*
X176420416Y-91404178D01*
X176477857Y-91542853D01*
X176507140Y-91690070D01*
X176507140Y-91840170D01*
X176477857Y-91987387D01*
X176420416Y-92126062D01*
X176337024Y-92250867D01*
X176230887Y-92357004D01*
X176106082Y-92440396D01*
X175967407Y-92497837D01*
X175820190Y-92527120D01*
X175670090Y-92527120D01*
X175522873Y-92497837D01*
X175384198Y-92440396D01*
X175259393Y-92357004D01*
X175153256Y-92250867D01*
X175069864Y-92126062D01*
X175012423Y-91987387D01*
X174983140Y-91840170D01*
X174983140Y-91690070D01*
X175012423Y-91542853D01*
X175069864Y-91404178D01*
X175153256Y-91279373D01*
X175259393Y-91173236D01*
X175384198Y-91089844D01*
X175522873Y-91032403D01*
X175670090Y-91003120D01*
X175820190Y-91003120D01*
X175967407Y-91032403D01*
G37*
G36*
X186127407Y-91032403D02*
G01*
X186266082Y-91089844D01*
X186390887Y-91173236D01*
X186497024Y-91279373D01*
X186580416Y-91404178D01*
X186637857Y-91542853D01*
X186667140Y-91690070D01*
X186667140Y-91840170D01*
X186637857Y-91987387D01*
X186580416Y-92126062D01*
X186497024Y-92250867D01*
X186390887Y-92357004D01*
X186266082Y-92440396D01*
X186127407Y-92497837D01*
X185980190Y-92527120D01*
X185830090Y-92527120D01*
X185682873Y-92497837D01*
X185544198Y-92440396D01*
X185419393Y-92357004D01*
X185313256Y-92250867D01*
X185229864Y-92126062D01*
X185172423Y-91987387D01*
X185143140Y-91840170D01*
X185143140Y-91690070D01*
X185172423Y-91542853D01*
X185229864Y-91404178D01*
X185313256Y-91279373D01*
X185419393Y-91173236D01*
X185544198Y-91089844D01*
X185682873Y-91032403D01*
X185830090Y-91003120D01*
X185980190Y-91003120D01*
X186127407Y-91032403D01*
G37*
G36*
X178507407Y-91032403D02*
G01*
X178646082Y-91089844D01*
X178770887Y-91173236D01*
X178877024Y-91279373D01*
X178960416Y-91404178D01*
X179017857Y-91542853D01*
X179047140Y-91690070D01*
X179047140Y-91840170D01*
X179017857Y-91987387D01*
X178960416Y-92126062D01*
X178877024Y-92250867D01*
X178770887Y-92357004D01*
X178646082Y-92440396D01*
X178507407Y-92497837D01*
X178360190Y-92527120D01*
X178210090Y-92527120D01*
X178062873Y-92497837D01*
X177924198Y-92440396D01*
X177799393Y-92357004D01*
X177693256Y-92250867D01*
X177609864Y-92126062D01*
X177552423Y-91987387D01*
X177523140Y-91840170D01*
X177523140Y-91690070D01*
X177552423Y-91542853D01*
X177609864Y-91404178D01*
X177693256Y-91279373D01*
X177799393Y-91173236D01*
X177924198Y-91089844D01*
X178062873Y-91032403D01*
X178210090Y-91003120D01*
X178360190Y-91003120D01*
X178507407Y-91032403D01*
G37*
G36*
X181047407Y-91032403D02*
G01*
X181186082Y-91089844D01*
X181310887Y-91173236D01*
X181417024Y-91279373D01*
X181500416Y-91404178D01*
X181557857Y-91542853D01*
X181587140Y-91690070D01*
X181587140Y-91840170D01*
X181557857Y-91987387D01*
X181500416Y-92126062D01*
X181417024Y-92250867D01*
X181310887Y-92357004D01*
X181186082Y-92440396D01*
X181047407Y-92497837D01*
X180900190Y-92527120D01*
X180750090Y-92527120D01*
X180602873Y-92497837D01*
X180464198Y-92440396D01*
X180339393Y-92357004D01*
X180233256Y-92250867D01*
X180149864Y-92126062D01*
X180092423Y-91987387D01*
X180063140Y-91840170D01*
X180063140Y-91690070D01*
X180092423Y-91542853D01*
X180149864Y-91404178D01*
X180233256Y-91279373D01*
X180339393Y-91173236D01*
X180464198Y-91089844D01*
X180602873Y-91032403D01*
X180750090Y-91003120D01*
X180900190Y-91003120D01*
X181047407Y-91032403D01*
G37*
G36*
X183587407Y-91032403D02*
G01*
X183726082Y-91089844D01*
X183850887Y-91173236D01*
X183957024Y-91279373D01*
X184040416Y-91404178D01*
X184097857Y-91542853D01*
X184127140Y-91690070D01*
X184127140Y-91840170D01*
X184097857Y-91987387D01*
X184040416Y-92126062D01*
X183957024Y-92250867D01*
X183850887Y-92357004D01*
X183726082Y-92440396D01*
X183587407Y-92497837D01*
X183440190Y-92527120D01*
X183290090Y-92527120D01*
X183142873Y-92497837D01*
X183004198Y-92440396D01*
X182879393Y-92357004D01*
X182773256Y-92250867D01*
X182689864Y-92126062D01*
X182632423Y-91987387D01*
X182603140Y-91840170D01*
X182603140Y-91690070D01*
X182632423Y-91542853D01*
X182689864Y-91404178D01*
X182773256Y-91279373D01*
X182879393Y-91173236D01*
X183004198Y-91089844D01*
X183142873Y-91032403D01*
X183290090Y-91003120D01*
X183440190Y-91003120D01*
X183587407Y-91032403D01*
G37*
G36*
X173427407Y-91032403D02*
G01*
X173566082Y-91089844D01*
X173690887Y-91173236D01*
X173797024Y-91279373D01*
X173880416Y-91404178D01*
X173937857Y-91542853D01*
X173967140Y-91690070D01*
X173967140Y-91840170D01*
X173937857Y-91987387D01*
X173880416Y-92126062D01*
X173797024Y-92250867D01*
X173690887Y-92357004D01*
X173566082Y-92440396D01*
X173427407Y-92497837D01*
X173280190Y-92527120D01*
X173130090Y-92527120D01*
X172982873Y-92497837D01*
X172844198Y-92440396D01*
X172719393Y-92357004D01*
X172613256Y-92250867D01*
X172529864Y-92126062D01*
X172472423Y-91987387D01*
X172443140Y-91840170D01*
X172443140Y-91690070D01*
X172472423Y-91542853D01*
X172529864Y-91404178D01*
X172613256Y-91279373D01*
X172719393Y-91173236D01*
X172844198Y-91089844D01*
X172982873Y-91032403D01*
X173130090Y-91003120D01*
X173280190Y-91003120D01*
X173427407Y-91032403D01*
G37*
G36*
X188667407Y-91032403D02*
G01*
X188806082Y-91089844D01*
X188930887Y-91173236D01*
X189037024Y-91279373D01*
X189120416Y-91404178D01*
X189177857Y-91542853D01*
X189207140Y-91690070D01*
X189207140Y-91840170D01*
X189177857Y-91987387D01*
X189120416Y-92126062D01*
X189037024Y-92250867D01*
X188930887Y-92357004D01*
X188806082Y-92440396D01*
X188667407Y-92497837D01*
X188520190Y-92527120D01*
X188370090Y-92527120D01*
X188222873Y-92497837D01*
X188084198Y-92440396D01*
X187959393Y-92357004D01*
X187853256Y-92250867D01*
X187769864Y-92126062D01*
X187712423Y-91987387D01*
X187683140Y-91840170D01*
X187683140Y-91690070D01*
X187712423Y-91542853D01*
X187769864Y-91404178D01*
X187853256Y-91279373D01*
X187959393Y-91173236D01*
X188084198Y-91089844D01*
X188222873Y-91032403D01*
X188370090Y-91003120D01*
X188520190Y-91003120D01*
X188667407Y-91032403D01*
G37*
G36*
X175967407Y-88492403D02*
G01*
X176106082Y-88549844D01*
X176230887Y-88633236D01*
X176337024Y-88739373D01*
X176420416Y-88864178D01*
X176477857Y-89002853D01*
X176507140Y-89150070D01*
X176507140Y-89300170D01*
X176477857Y-89447387D01*
X176420416Y-89586062D01*
X176337024Y-89710867D01*
X176230887Y-89817004D01*
X176106082Y-89900396D01*
X175967407Y-89957837D01*
X175820190Y-89987120D01*
X175670090Y-89987120D01*
X175522873Y-89957837D01*
X175384198Y-89900396D01*
X175259393Y-89817004D01*
X175153256Y-89710867D01*
X175069864Y-89586062D01*
X175012423Y-89447387D01*
X174983140Y-89300170D01*
X174983140Y-89150070D01*
X175012423Y-89002853D01*
X175069864Y-88864178D01*
X175153256Y-88739373D01*
X175259393Y-88633236D01*
X175384198Y-88549844D01*
X175522873Y-88492403D01*
X175670090Y-88463120D01*
X175820190Y-88463120D01*
X175967407Y-88492403D01*
G37*
G36*
X188667407Y-88492403D02*
G01*
X188806082Y-88549844D01*
X188930887Y-88633236D01*
X189037024Y-88739373D01*
X189120416Y-88864178D01*
X189177857Y-89002853D01*
X189207140Y-89150070D01*
X189207140Y-89300170D01*
X189177857Y-89447387D01*
X189120416Y-89586062D01*
X189037024Y-89710867D01*
X188930887Y-89817004D01*
X188806082Y-89900396D01*
X188667407Y-89957837D01*
X188520190Y-89987120D01*
X188370090Y-89987120D01*
X188222873Y-89957837D01*
X188084198Y-89900396D01*
X187959393Y-89817004D01*
X187853256Y-89710867D01*
X187769864Y-89586062D01*
X187712423Y-89447387D01*
X187683140Y-89300170D01*
X187683140Y-89150070D01*
X187712423Y-89002853D01*
X187769864Y-88864178D01*
X187853256Y-88739373D01*
X187959393Y-88633236D01*
X188084198Y-88549844D01*
X188222873Y-88492403D01*
X188370090Y-88463120D01*
X188520190Y-88463120D01*
X188667407Y-88492403D01*
G37*
G36*
X186127407Y-88492403D02*
G01*
X186266082Y-88549844D01*
X186390887Y-88633236D01*
X186497024Y-88739373D01*
X186580416Y-88864178D01*
X186637857Y-89002853D01*
X186667140Y-89150070D01*
X186667140Y-89300170D01*
X186637857Y-89447387D01*
X186580416Y-89586062D01*
X186497024Y-89710867D01*
X186390887Y-89817004D01*
X186266082Y-89900396D01*
X186127407Y-89957837D01*
X185980190Y-89987120D01*
X185830090Y-89987120D01*
X185682873Y-89957837D01*
X185544198Y-89900396D01*
X185419393Y-89817004D01*
X185313256Y-89710867D01*
X185229864Y-89586062D01*
X185172423Y-89447387D01*
X185143140Y-89300170D01*
X185143140Y-89150070D01*
X185172423Y-89002853D01*
X185229864Y-88864178D01*
X185313256Y-88739373D01*
X185419393Y-88633236D01*
X185544198Y-88549844D01*
X185682873Y-88492403D01*
X185830090Y-88463120D01*
X185980190Y-88463120D01*
X186127407Y-88492403D01*
G37*
G36*
X173427407Y-88492403D02*
G01*
X173566082Y-88549844D01*
X173690887Y-88633236D01*
X173797024Y-88739373D01*
X173880416Y-88864178D01*
X173937857Y-89002853D01*
X173967140Y-89150070D01*
X173967140Y-89300170D01*
X173937857Y-89447387D01*
X173880416Y-89586062D01*
X173797024Y-89710867D01*
X173690887Y-89817004D01*
X173566082Y-89900396D01*
X173427407Y-89957837D01*
X173280190Y-89987120D01*
X173130090Y-89987120D01*
X172982873Y-89957837D01*
X172844198Y-89900396D01*
X172719393Y-89817004D01*
X172613256Y-89710867D01*
X172529864Y-89586062D01*
X172472423Y-89447387D01*
X172443140Y-89300170D01*
X172443140Y-89150070D01*
X172472423Y-89002853D01*
X172529864Y-88864178D01*
X172613256Y-88739373D01*
X172719393Y-88633236D01*
X172844198Y-88549844D01*
X172982873Y-88492403D01*
X173130090Y-88463120D01*
X173280190Y-88463120D01*
X173427407Y-88492403D01*
G37*
G36*
X176507140Y-87447120D02*
G01*
X174983140Y-87447120D01*
X174983140Y-85923120D01*
X176507140Y-85923120D01*
X176507140Y-87447120D01*
G37*
G36*
X188667407Y-85952403D02*
G01*
X188806082Y-86009844D01*
X188930887Y-86093236D01*
X189037024Y-86199373D01*
X189120416Y-86324178D01*
X189177857Y-86462853D01*
X189207140Y-86610070D01*
X189207140Y-86760170D01*
X189177857Y-86907387D01*
X189120416Y-87046062D01*
X189037024Y-87170867D01*
X188930887Y-87277004D01*
X188806082Y-87360396D01*
X188667407Y-87417837D01*
X188520190Y-87447120D01*
X188370090Y-87447120D01*
X188222873Y-87417837D01*
X188084198Y-87360396D01*
X187959393Y-87277004D01*
X187853256Y-87170867D01*
X187769864Y-87046062D01*
X187712423Y-86907387D01*
X187683140Y-86760170D01*
X187683140Y-86610070D01*
X187712423Y-86462853D01*
X187769864Y-86324178D01*
X187853256Y-86199373D01*
X187959393Y-86093236D01*
X188084198Y-86009844D01*
X188222873Y-85952403D01*
X188370090Y-85923120D01*
X188520190Y-85923120D01*
X188667407Y-85952403D01*
G37*
G36*
X186127407Y-85952403D02*
G01*
X186266082Y-86009844D01*
X186390887Y-86093236D01*
X186497024Y-86199373D01*
X186580416Y-86324178D01*
X186637857Y-86462853D01*
X186667140Y-86610070D01*
X186667140Y-86760170D01*
X186637857Y-86907387D01*
X186580416Y-87046062D01*
X186497024Y-87170867D01*
X186390887Y-87277004D01*
X186266082Y-87360396D01*
X186127407Y-87417837D01*
X185980190Y-87447120D01*
X185830090Y-87447120D01*
X185682873Y-87417837D01*
X185544198Y-87360396D01*
X185419393Y-87277004D01*
X185313256Y-87170867D01*
X185229864Y-87046062D01*
X185172423Y-86907387D01*
X185143140Y-86760170D01*
X185143140Y-86610070D01*
X185172423Y-86462853D01*
X185229864Y-86324178D01*
X185313256Y-86199373D01*
X185419393Y-86093236D01*
X185544198Y-86009844D01*
X185682873Y-85952403D01*
X185830090Y-85923120D01*
X185980190Y-85923120D01*
X186127407Y-85952403D01*
G37*
G36*
X173427407Y-85952403D02*
G01*
X173566082Y-86009844D01*
X173690887Y-86093236D01*
X173797024Y-86199373D01*
X173880416Y-86324178D01*
X173937857Y-86462853D01*
X173967140Y-86610070D01*
X173967140Y-86760170D01*
X173937857Y-86907387D01*
X173880416Y-87046062D01*
X173797024Y-87170867D01*
X173690887Y-87277004D01*
X173566082Y-87360396D01*
X173427407Y-87417837D01*
X173280190Y-87447120D01*
X173130090Y-87447120D01*
X172982873Y-87417837D01*
X172844198Y-87360396D01*
X172719393Y-87277004D01*
X172613256Y-87170867D01*
X172529864Y-87046062D01*
X172472423Y-86907387D01*
X172443140Y-86760170D01*
X172443140Y-86610070D01*
X172472423Y-86462853D01*
X172529864Y-86324178D01*
X172613256Y-86199373D01*
X172719393Y-86093236D01*
X172844198Y-86009844D01*
X172982873Y-85952403D01*
X173130090Y-85923120D01*
X173280190Y-85923120D01*
X173427407Y-85952403D01*
G37*
G36*
X175967407Y-83412403D02*
G01*
X176106082Y-83469844D01*
X176230887Y-83553236D01*
X176337024Y-83659373D01*
X176420416Y-83784178D01*
X176477857Y-83922853D01*
X176507140Y-84070070D01*
X176507140Y-84220170D01*
X176477857Y-84367387D01*
X176420416Y-84506062D01*
X176337024Y-84630867D01*
X176230887Y-84737004D01*
X176106082Y-84820396D01*
X175967407Y-84877837D01*
X175820190Y-84907120D01*
X175670090Y-84907120D01*
X175522873Y-84877837D01*
X175384198Y-84820396D01*
X175259393Y-84737004D01*
X175153256Y-84630867D01*
X175069864Y-84506062D01*
X175012423Y-84367387D01*
X174983140Y-84220170D01*
X174983140Y-84070070D01*
X175012423Y-83922853D01*
X175069864Y-83784178D01*
X175153256Y-83659373D01*
X175259393Y-83553236D01*
X175384198Y-83469844D01*
X175522873Y-83412403D01*
X175670090Y-83383120D01*
X175820190Y-83383120D01*
X175967407Y-83412403D01*
G37*
G36*
X188667407Y-83412403D02*
G01*
X188806082Y-83469844D01*
X188930887Y-83553236D01*
X189037024Y-83659373D01*
X189120416Y-83784178D01*
X189177857Y-83922853D01*
X189207140Y-84070070D01*
X189207140Y-84220170D01*
X189177857Y-84367387D01*
X189120416Y-84506062D01*
X189037024Y-84630867D01*
X188930887Y-84737004D01*
X188806082Y-84820396D01*
X188667407Y-84877837D01*
X188520190Y-84907120D01*
X188370090Y-84907120D01*
X188222873Y-84877837D01*
X188084198Y-84820396D01*
X187959393Y-84737004D01*
X187853256Y-84630867D01*
X187769864Y-84506062D01*
X187712423Y-84367387D01*
X187683140Y-84220170D01*
X187683140Y-84070070D01*
X187712423Y-83922853D01*
X187769864Y-83784178D01*
X187853256Y-83659373D01*
X187959393Y-83553236D01*
X188084198Y-83469844D01*
X188222873Y-83412403D01*
X188370090Y-83383120D01*
X188520190Y-83383120D01*
X188667407Y-83412403D01*
G37*
G36*
X173427407Y-83412403D02*
G01*
X173566082Y-83469844D01*
X173690887Y-83553236D01*
X173797024Y-83659373D01*
X173880416Y-83784178D01*
X173937857Y-83922853D01*
X173967140Y-84070070D01*
X173967140Y-84220170D01*
X173937857Y-84367387D01*
X173880416Y-84506062D01*
X173797024Y-84630867D01*
X173690887Y-84737004D01*
X173566082Y-84820396D01*
X173427407Y-84877837D01*
X173280190Y-84907120D01*
X173130090Y-84907120D01*
X172982873Y-84877837D01*
X172844198Y-84820396D01*
X172719393Y-84737004D01*
X172613256Y-84630867D01*
X172529864Y-84506062D01*
X172472423Y-84367387D01*
X172443140Y-84220170D01*
X172443140Y-84070070D01*
X172472423Y-83922853D01*
X172529864Y-83784178D01*
X172613256Y-83659373D01*
X172719393Y-83553236D01*
X172844198Y-83469844D01*
X172982873Y-83412403D01*
X173130090Y-83383120D01*
X173280190Y-83383120D01*
X173427407Y-83412403D01*
G37*
G36*
X178507407Y-83412403D02*
G01*
X178646082Y-83469844D01*
X178770887Y-83553236D01*
X178877024Y-83659373D01*
X178960416Y-83784178D01*
X179017857Y-83922853D01*
X179047140Y-84070070D01*
X179047140Y-84220170D01*
X179017857Y-84367387D01*
X178960416Y-84506062D01*
X178877024Y-84630867D01*
X178770887Y-84737004D01*
X178646082Y-84820396D01*
X178507407Y-84877837D01*
X178360190Y-84907120D01*
X178210090Y-84907120D01*
X178062873Y-84877837D01*
X177924198Y-84820396D01*
X177799393Y-84737004D01*
X177693256Y-84630867D01*
X177609864Y-84506062D01*
X177552423Y-84367387D01*
X177523140Y-84220170D01*
X177523140Y-84070070D01*
X177552423Y-83922853D01*
X177609864Y-83784178D01*
X177693256Y-83659373D01*
X177799393Y-83553236D01*
X177924198Y-83469844D01*
X178062873Y-83412403D01*
X178210090Y-83383120D01*
X178360190Y-83383120D01*
X178507407Y-83412403D01*
G37*
G36*
X181047407Y-83412403D02*
G01*
X181186082Y-83469844D01*
X181310887Y-83553236D01*
X181417024Y-83659373D01*
X181500416Y-83784178D01*
X181557857Y-83922853D01*
X181587140Y-84070070D01*
X181587140Y-84220170D01*
X181557857Y-84367387D01*
X181500416Y-84506062D01*
X181417024Y-84630867D01*
X181310887Y-84737004D01*
X181186082Y-84820396D01*
X181047407Y-84877837D01*
X180900190Y-84907120D01*
X180750090Y-84907120D01*
X180602873Y-84877837D01*
X180464198Y-84820396D01*
X180339393Y-84737004D01*
X180233256Y-84630867D01*
X180149864Y-84506062D01*
X180092423Y-84367387D01*
X180063140Y-84220170D01*
X180063140Y-84070070D01*
X180092423Y-83922853D01*
X180149864Y-83784178D01*
X180233256Y-83659373D01*
X180339393Y-83553236D01*
X180464198Y-83469844D01*
X180602873Y-83412403D01*
X180750090Y-83383120D01*
X180900190Y-83383120D01*
X181047407Y-83412403D01*
G37*
G36*
X183587407Y-83412403D02*
G01*
X183726082Y-83469844D01*
X183850887Y-83553236D01*
X183957024Y-83659373D01*
X184040416Y-83784178D01*
X184097857Y-83922853D01*
X184127140Y-84070070D01*
X184127140Y-84220170D01*
X184097857Y-84367387D01*
X184040416Y-84506062D01*
X183957024Y-84630867D01*
X183850887Y-84737004D01*
X183726082Y-84820396D01*
X183587407Y-84877837D01*
X183440190Y-84907120D01*
X183290090Y-84907120D01*
X183142873Y-84877837D01*
X183004198Y-84820396D01*
X182879393Y-84737004D01*
X182773256Y-84630867D01*
X182689864Y-84506062D01*
X182632423Y-84367387D01*
X182603140Y-84220170D01*
X182603140Y-84070070D01*
X182632423Y-83922853D01*
X182689864Y-83784178D01*
X182773256Y-83659373D01*
X182879393Y-83553236D01*
X183004198Y-83469844D01*
X183142873Y-83412403D01*
X183290090Y-83383120D01*
X183440190Y-83383120D01*
X183587407Y-83412403D01*
G37*
G36*
X186127407Y-83412403D02*
G01*
X186266082Y-83469844D01*
X186390887Y-83553236D01*
X186497024Y-83659373D01*
X186580416Y-83784178D01*
X186637857Y-83922853D01*
X186667140Y-84070070D01*
X186667140Y-84220170D01*
X186637857Y-84367387D01*
X186580416Y-84506062D01*
X186497024Y-84630867D01*
X186390887Y-84737004D01*
X186266082Y-84820396D01*
X186127407Y-84877837D01*
X185980190Y-84907120D01*
X185830090Y-84907120D01*
X185682873Y-84877837D01*
X185544198Y-84820396D01*
X185419393Y-84737004D01*
X185313256Y-84630867D01*
X185229864Y-84506062D01*
X185172423Y-84367387D01*
X185143140Y-84220170D01*
X185143140Y-84070070D01*
X185172423Y-83922853D01*
X185229864Y-83784178D01*
X185313256Y-83659373D01*
X185419393Y-83553236D01*
X185544198Y-83469844D01*
X185682873Y-83412403D01*
X185830090Y-83383120D01*
X185980190Y-83383120D01*
X186127407Y-83412403D01*
G37*
G36*
X183587407Y-80872403D02*
G01*
X183726082Y-80929844D01*
X183850887Y-81013236D01*
X183957024Y-81119373D01*
X184040416Y-81244178D01*
X184097857Y-81382853D01*
X184127140Y-81530070D01*
X184127140Y-81680170D01*
X184097857Y-81827387D01*
X184040416Y-81966062D01*
X183957024Y-82090867D01*
X183850887Y-82197004D01*
X183726082Y-82280396D01*
X183587407Y-82337837D01*
X183440190Y-82367120D01*
X183290090Y-82367120D01*
X183142873Y-82337837D01*
X183004198Y-82280396D01*
X182879393Y-82197004D01*
X182773256Y-82090867D01*
X182689864Y-81966062D01*
X182632423Y-81827387D01*
X182603140Y-81680170D01*
X182603140Y-81530070D01*
X182632423Y-81382853D01*
X182689864Y-81244178D01*
X182773256Y-81119373D01*
X182879393Y-81013236D01*
X183004198Y-80929844D01*
X183142873Y-80872403D01*
X183290090Y-80843120D01*
X183440190Y-80843120D01*
X183587407Y-80872403D01*
G37*
G36*
X175967407Y-80872403D02*
G01*
X176106082Y-80929844D01*
X176230887Y-81013236D01*
X176337024Y-81119373D01*
X176420416Y-81244178D01*
X176477857Y-81382853D01*
X176507140Y-81530070D01*
X176507140Y-81680170D01*
X176477857Y-81827387D01*
X176420416Y-81966062D01*
X176337024Y-82090867D01*
X176230887Y-82197004D01*
X176106082Y-82280396D01*
X175967407Y-82337837D01*
X175820190Y-82367120D01*
X175670090Y-82367120D01*
X175522873Y-82337837D01*
X175384198Y-82280396D01*
X175259393Y-82197004D01*
X175153256Y-82090867D01*
X175069864Y-81966062D01*
X175012423Y-81827387D01*
X174983140Y-81680170D01*
X174983140Y-81530070D01*
X175012423Y-81382853D01*
X175069864Y-81244178D01*
X175153256Y-81119373D01*
X175259393Y-81013236D01*
X175384198Y-80929844D01*
X175522873Y-80872403D01*
X175670090Y-80843120D01*
X175820190Y-80843120D01*
X175967407Y-80872403D01*
G37*
G36*
X178507407Y-80872403D02*
G01*
X178646082Y-80929844D01*
X178770887Y-81013236D01*
X178877024Y-81119373D01*
X178960416Y-81244178D01*
X179017857Y-81382853D01*
X179047140Y-81530070D01*
X179047140Y-81680170D01*
X179017857Y-81827387D01*
X178960416Y-81966062D01*
X178877024Y-82090867D01*
X178770887Y-82197004D01*
X178646082Y-82280396D01*
X178507407Y-82337837D01*
X178360190Y-82367120D01*
X178210090Y-82367120D01*
X178062873Y-82337837D01*
X177924198Y-82280396D01*
X177799393Y-82197004D01*
X177693256Y-82090867D01*
X177609864Y-81966062D01*
X177552423Y-81827387D01*
X177523140Y-81680170D01*
X177523140Y-81530070D01*
X177552423Y-81382853D01*
X177609864Y-81244178D01*
X177693256Y-81119373D01*
X177799393Y-81013236D01*
X177924198Y-80929844D01*
X178062873Y-80872403D01*
X178210090Y-80843120D01*
X178360190Y-80843120D01*
X178507407Y-80872403D01*
G37*
G36*
X181047407Y-80872403D02*
G01*
X181186082Y-80929844D01*
X181310887Y-81013236D01*
X181417024Y-81119373D01*
X181500416Y-81244178D01*
X181557857Y-81382853D01*
X181587140Y-81530070D01*
X181587140Y-81680170D01*
X181557857Y-81827387D01*
X181500416Y-81966062D01*
X181417024Y-82090867D01*
X181310887Y-82197004D01*
X181186082Y-82280396D01*
X181047407Y-82337837D01*
X180900190Y-82367120D01*
X180750090Y-82367120D01*
X180602873Y-82337837D01*
X180464198Y-82280396D01*
X180339393Y-82197004D01*
X180233256Y-82090867D01*
X180149864Y-81966062D01*
X180092423Y-81827387D01*
X180063140Y-81680170D01*
X180063140Y-81530070D01*
X180092423Y-81382853D01*
X180149864Y-81244178D01*
X180233256Y-81119373D01*
X180339393Y-81013236D01*
X180464198Y-80929844D01*
X180602873Y-80872403D01*
X180750090Y-80843120D01*
X180900190Y-80843120D01*
X181047407Y-80872403D01*
G37*
G36*
X186127407Y-80872403D02*
G01*
X186266082Y-80929844D01*
X186390887Y-81013236D01*
X186497024Y-81119373D01*
X186580416Y-81244178D01*
X186637857Y-81382853D01*
X186667140Y-81530070D01*
X186667140Y-81680170D01*
X186637857Y-81827387D01*
X186580416Y-81966062D01*
X186497024Y-82090867D01*
X186390887Y-82197004D01*
X186266082Y-82280396D01*
X186127407Y-82337837D01*
X185980190Y-82367120D01*
X185830090Y-82367120D01*
X185682873Y-82337837D01*
X185544198Y-82280396D01*
X185419393Y-82197004D01*
X185313256Y-82090867D01*
X185229864Y-81966062D01*
X185172423Y-81827387D01*
X185143140Y-81680170D01*
X185143140Y-81530070D01*
X185172423Y-81382853D01*
X185229864Y-81244178D01*
X185313256Y-81119373D01*
X185419393Y-81013236D01*
X185544198Y-80929844D01*
X185682873Y-80872403D01*
X185830090Y-80843120D01*
X185980190Y-80843120D01*
X186127407Y-80872403D01*
G37*
G36*
X220969096Y-74334691D02*
G01*
X221177264Y-74420917D01*
X221342322Y-74489286D01*
X221678207Y-74713718D01*
X221963862Y-74999373D01*
X222188294Y-75335258D01*
X222256663Y-75500316D01*
X222342889Y-75708484D01*
X222421700Y-76104694D01*
X222421700Y-76508666D01*
X222342889Y-76904876D01*
X222256663Y-77113044D01*
X222188294Y-77278102D01*
X221963862Y-77613987D01*
X221678207Y-77899642D01*
X221342322Y-78124074D01*
X221177264Y-78192443D01*
X220969096Y-78278669D01*
X220572886Y-78357480D01*
X220168914Y-78357480D01*
X219772704Y-78278669D01*
X219564536Y-78192443D01*
X219399478Y-78124074D01*
X219063593Y-77899642D01*
X218777938Y-77613987D01*
X218553506Y-77278102D01*
X218485137Y-77113044D01*
X218398911Y-76904876D01*
X218320100Y-76508666D01*
X218320100Y-76104694D01*
X218398911Y-75708484D01*
X218485137Y-75500316D01*
X218553506Y-75335258D01*
X218777938Y-74999373D01*
X219063593Y-74713718D01*
X219399478Y-74489286D01*
X219564536Y-74420917D01*
X219772704Y-74334691D01*
X220168914Y-74255880D01*
X220572886Y-74255880D01*
X220969096Y-74334691D01*
G37*
G36*
X223159069Y-67833575D02*
G01*
X223313905Y-67897711D01*
X223453254Y-67990820D01*
X223571760Y-68109326D01*
X223664869Y-68248675D01*
X223729005Y-68403511D01*
X223761700Y-68567883D01*
X223761700Y-68735477D01*
X223729005Y-68899849D01*
X223664869Y-69054685D01*
X223571760Y-69194034D01*
X223453254Y-69312540D01*
X223313905Y-69405649D01*
X223159069Y-69469785D01*
X222994697Y-69502480D01*
X222827103Y-69502480D01*
X222662731Y-69469785D01*
X222507895Y-69405649D01*
X222368546Y-69312540D01*
X222250040Y-69194034D01*
X222156931Y-69054685D01*
X222092795Y-68899849D01*
X222060100Y-68735477D01*
X222060100Y-68567883D01*
X222092795Y-68403511D01*
X222156931Y-68248675D01*
X222250040Y-68109326D01*
X222368546Y-67990820D01*
X222507895Y-67897711D01*
X222662731Y-67833575D01*
X222827103Y-67800880D01*
X222994697Y-67800880D01*
X223159069Y-67833575D01*
G37*
G36*
X218079069Y-67833575D02*
G01*
X218233905Y-67897711D01*
X218373254Y-67990820D01*
X218491760Y-68109326D01*
X218584869Y-68248675D01*
X218649005Y-68403511D01*
X218681700Y-68567883D01*
X218681700Y-68735477D01*
X218649005Y-68899849D01*
X218584869Y-69054685D01*
X218491760Y-69194034D01*
X218373254Y-69312540D01*
X218233905Y-69405649D01*
X218079069Y-69469785D01*
X217914697Y-69502480D01*
X217747103Y-69502480D01*
X217582731Y-69469785D01*
X217427895Y-69405649D01*
X217288546Y-69312540D01*
X217170040Y-69194034D01*
X217076931Y-69054685D01*
X217012795Y-68899849D01*
X216980100Y-68735477D01*
X216980100Y-68567883D01*
X217012795Y-68403511D01*
X217076931Y-68248675D01*
X217170040Y-68109326D01*
X217288546Y-67990820D01*
X217427895Y-67897711D01*
X217582731Y-67833575D01*
X217747103Y-67800880D01*
X217914697Y-67800880D01*
X218079069Y-67833575D01*
G37*
G36*
X220619069Y-66688575D02*
G01*
X220773905Y-66752711D01*
X220913254Y-66845820D01*
X221031760Y-66964326D01*
X221124869Y-67103675D01*
X221189005Y-67258511D01*
X221221700Y-67422883D01*
X221221700Y-67590477D01*
X221189005Y-67754849D01*
X221124869Y-67909685D01*
X221031760Y-68049034D01*
X220913254Y-68167540D01*
X220773905Y-68260649D01*
X220619069Y-68324785D01*
X220454697Y-68357480D01*
X220287103Y-68357480D01*
X220122731Y-68324785D01*
X219967895Y-68260649D01*
X219828546Y-68167540D01*
X219710040Y-68049034D01*
X219616931Y-67909685D01*
X219552795Y-67754849D01*
X219520100Y-67590477D01*
X219520100Y-67422883D01*
X219552795Y-67258511D01*
X219616931Y-67103675D01*
X219710040Y-66964326D01*
X219828546Y-66845820D01*
X219967895Y-66752711D01*
X220122731Y-66688575D01*
X220287103Y-66655880D01*
X220454697Y-66655880D01*
X220619069Y-66688575D01*
G37*
G36*
X223159069Y-65543575D02*
G01*
X223313905Y-65607711D01*
X223453254Y-65700820D01*
X223571760Y-65819326D01*
X223664869Y-65958675D01*
X223729005Y-66113511D01*
X223761700Y-66277883D01*
X223761700Y-66445477D01*
X223729005Y-66609849D01*
X223664869Y-66764685D01*
X223571760Y-66904034D01*
X223453254Y-67022540D01*
X223313905Y-67115649D01*
X223159069Y-67179785D01*
X222994697Y-67212480D01*
X222827103Y-67212480D01*
X222662731Y-67179785D01*
X222507895Y-67115649D01*
X222368546Y-67022540D01*
X222250040Y-66904034D01*
X222156931Y-66764685D01*
X222092795Y-66609849D01*
X222060100Y-66445477D01*
X222060100Y-66277883D01*
X222092795Y-66113511D01*
X222156931Y-65958675D01*
X222250040Y-65819326D01*
X222368546Y-65700820D01*
X222507895Y-65607711D01*
X222662731Y-65543575D01*
X222827103Y-65510880D01*
X222994697Y-65510880D01*
X223159069Y-65543575D01*
G37*
G36*
X218079069Y-65543575D02*
G01*
X218233905Y-65607711D01*
X218373254Y-65700820D01*
X218491760Y-65819326D01*
X218584869Y-65958675D01*
X218649005Y-66113511D01*
X218681700Y-66277883D01*
X218681700Y-66445477D01*
X218649005Y-66609849D01*
X218584869Y-66764685D01*
X218491760Y-66904034D01*
X218373254Y-67022540D01*
X218233905Y-67115649D01*
X218079069Y-67179785D01*
X217914697Y-67212480D01*
X217747103Y-67212480D01*
X217582731Y-67179785D01*
X217427895Y-67115649D01*
X217288546Y-67022540D01*
X217170040Y-66904034D01*
X217076931Y-66764685D01*
X217012795Y-66609849D01*
X216980100Y-66445477D01*
X216980100Y-66277883D01*
X217012795Y-66113511D01*
X217076931Y-65958675D01*
X217170040Y-65819326D01*
X217288546Y-65700820D01*
X217427895Y-65607711D01*
X217582731Y-65543575D01*
X217747103Y-65510880D01*
X217914697Y-65510880D01*
X218079069Y-65543575D01*
G37*
G36*
X220619069Y-64398575D02*
G01*
X220773905Y-64462711D01*
X220913254Y-64555820D01*
X221031760Y-64674326D01*
X221124869Y-64813675D01*
X221189005Y-64968511D01*
X221221700Y-65132883D01*
X221221700Y-65300477D01*
X221189005Y-65464849D01*
X221124869Y-65619685D01*
X221031760Y-65759034D01*
X220913254Y-65877540D01*
X220773905Y-65970649D01*
X220619069Y-66034785D01*
X220454697Y-66067480D01*
X220287103Y-66067480D01*
X220122731Y-66034785D01*
X219967895Y-65970649D01*
X219828546Y-65877540D01*
X219710040Y-65759034D01*
X219616931Y-65619685D01*
X219552795Y-65464849D01*
X219520100Y-65300477D01*
X219520100Y-65132883D01*
X219552795Y-64968511D01*
X219616931Y-64813675D01*
X219710040Y-64674326D01*
X219828546Y-64555820D01*
X219967895Y-64462711D01*
X220122731Y-64398575D01*
X220287103Y-64365880D01*
X220454697Y-64365880D01*
X220619069Y-64398575D01*
G37*
G36*
X223159069Y-63253575D02*
G01*
X223313905Y-63317711D01*
X223453254Y-63410820D01*
X223571760Y-63529326D01*
X223664869Y-63668675D01*
X223729005Y-63823511D01*
X223761700Y-63987883D01*
X223761700Y-64155477D01*
X223729005Y-64319849D01*
X223664869Y-64474685D01*
X223571760Y-64614034D01*
X223453254Y-64732540D01*
X223313905Y-64825649D01*
X223159069Y-64889785D01*
X222994697Y-64922480D01*
X222827103Y-64922480D01*
X222662731Y-64889785D01*
X222507895Y-64825649D01*
X222368546Y-64732540D01*
X222250040Y-64614034D01*
X222156931Y-64474685D01*
X222092795Y-64319849D01*
X222060100Y-64155477D01*
X222060100Y-63987883D01*
X222092795Y-63823511D01*
X222156931Y-63668675D01*
X222250040Y-63529326D01*
X222368546Y-63410820D01*
X222507895Y-63317711D01*
X222662731Y-63253575D01*
X222827103Y-63220880D01*
X222994697Y-63220880D01*
X223159069Y-63253575D01*
G37*
G36*
X218079069Y-63253575D02*
G01*
X218233905Y-63317711D01*
X218373254Y-63410820D01*
X218491760Y-63529326D01*
X218584869Y-63668675D01*
X218649005Y-63823511D01*
X218681700Y-63987883D01*
X218681700Y-64155477D01*
X218649005Y-64319849D01*
X218584869Y-64474685D01*
X218491760Y-64614034D01*
X218373254Y-64732540D01*
X218233905Y-64825649D01*
X218079069Y-64889785D01*
X217914697Y-64922480D01*
X217747103Y-64922480D01*
X217582731Y-64889785D01*
X217427895Y-64825649D01*
X217288546Y-64732540D01*
X217170040Y-64614034D01*
X217076931Y-64474685D01*
X217012795Y-64319849D01*
X216980100Y-64155477D01*
X216980100Y-63987883D01*
X217012795Y-63823511D01*
X217076931Y-63668675D01*
X217170040Y-63529326D01*
X217288546Y-63410820D01*
X217427895Y-63317711D01*
X217582731Y-63253575D01*
X217747103Y-63220880D01*
X217914697Y-63220880D01*
X218079069Y-63253575D01*
G37*
G36*
X220619069Y-62108575D02*
G01*
X220773905Y-62172711D01*
X220913254Y-62265820D01*
X221031760Y-62384326D01*
X221124869Y-62523675D01*
X221189005Y-62678511D01*
X221221700Y-62842883D01*
X221221700Y-63010477D01*
X221189005Y-63174849D01*
X221124869Y-63329685D01*
X221031760Y-63469034D01*
X220913254Y-63587540D01*
X220773905Y-63680649D01*
X220619069Y-63744785D01*
X220454697Y-63777480D01*
X220287103Y-63777480D01*
X220122731Y-63744785D01*
X219967895Y-63680649D01*
X219828546Y-63587540D01*
X219710040Y-63469034D01*
X219616931Y-63329685D01*
X219552795Y-63174849D01*
X219520100Y-63010477D01*
X219520100Y-62842883D01*
X219552795Y-62678511D01*
X219616931Y-62523675D01*
X219710040Y-62384326D01*
X219828546Y-62265820D01*
X219967895Y-62172711D01*
X220122731Y-62108575D01*
X220287103Y-62075880D01*
X220454697Y-62075880D01*
X220619069Y-62108575D01*
G37*
G36*
X218079069Y-60963575D02*
G01*
X218233905Y-61027711D01*
X218373254Y-61120820D01*
X218491760Y-61239326D01*
X218584869Y-61378675D01*
X218649005Y-61533511D01*
X218681700Y-61697883D01*
X218681700Y-61865477D01*
X218649005Y-62029849D01*
X218584869Y-62184685D01*
X218491760Y-62324034D01*
X218373254Y-62442540D01*
X218233905Y-62535649D01*
X218079069Y-62599785D01*
X217914697Y-62632480D01*
X217747103Y-62632480D01*
X217582731Y-62599785D01*
X217427895Y-62535649D01*
X217288546Y-62442540D01*
X217170040Y-62324034D01*
X217076931Y-62184685D01*
X217012795Y-62029849D01*
X216980100Y-61865477D01*
X216980100Y-61697883D01*
X217012795Y-61533511D01*
X217076931Y-61378675D01*
X217170040Y-61239326D01*
X217288546Y-61120820D01*
X217427895Y-61027711D01*
X217582731Y-60963575D01*
X217747103Y-60930880D01*
X217914697Y-60930880D01*
X218079069Y-60963575D01*
G37*
G36*
X223159069Y-60963575D02*
G01*
X223313905Y-61027711D01*
X223453254Y-61120820D01*
X223571760Y-61239326D01*
X223664869Y-61378675D01*
X223729005Y-61533511D01*
X223761700Y-61697883D01*
X223761700Y-61865477D01*
X223729005Y-62029849D01*
X223664869Y-62184685D01*
X223571760Y-62324034D01*
X223453254Y-62442540D01*
X223313905Y-62535649D01*
X223159069Y-62599785D01*
X222994697Y-62632480D01*
X222827103Y-62632480D01*
X222662731Y-62599785D01*
X222507895Y-62535649D01*
X222368546Y-62442540D01*
X222250040Y-62324034D01*
X222156931Y-62184685D01*
X222092795Y-62029849D01*
X222060100Y-61865477D01*
X222060100Y-61697883D01*
X222092795Y-61533511D01*
X222156931Y-61378675D01*
X222250040Y-61239326D01*
X222368546Y-61120820D01*
X222507895Y-61027711D01*
X222662731Y-60963575D01*
X222827103Y-60930880D01*
X222994697Y-60930880D01*
X223159069Y-60963575D01*
G37*
G36*
X220619069Y-59818575D02*
G01*
X220773905Y-59882711D01*
X220913254Y-59975820D01*
X221031760Y-60094326D01*
X221124869Y-60233675D01*
X221189005Y-60388511D01*
X221221700Y-60552883D01*
X221221700Y-60720477D01*
X221189005Y-60884849D01*
X221124869Y-61039685D01*
X221031760Y-61179034D01*
X220913254Y-61297540D01*
X220773905Y-61390649D01*
X220619069Y-61454785D01*
X220454697Y-61487480D01*
X220287103Y-61487480D01*
X220122731Y-61454785D01*
X219967895Y-61390649D01*
X219828546Y-61297540D01*
X219710040Y-61179034D01*
X219616931Y-61039685D01*
X219552795Y-60884849D01*
X219520100Y-60720477D01*
X219520100Y-60552883D01*
X219552795Y-60388511D01*
X219616931Y-60233675D01*
X219710040Y-60094326D01*
X219828546Y-59975820D01*
X219967895Y-59882711D01*
X220122731Y-59818575D01*
X220287103Y-59785880D01*
X220454697Y-59785880D01*
X220619069Y-59818575D01*
G37*
G36*
X218681700Y-60342480D02*
G01*
X216980100Y-60342480D01*
X216980100Y-58640880D01*
X218681700Y-58640880D01*
X218681700Y-60342480D01*
G37*
G36*
X223159069Y-58673575D02*
G01*
X223313905Y-58737711D01*
X223453254Y-58830820D01*
X223571760Y-58949326D01*
X223664869Y-59088675D01*
X223729005Y-59243511D01*
X223761700Y-59407883D01*
X223761700Y-59575477D01*
X223729005Y-59739849D01*
X223664869Y-59894685D01*
X223571760Y-60034034D01*
X223453254Y-60152540D01*
X223313905Y-60245649D01*
X223159069Y-60309785D01*
X222994697Y-60342480D01*
X222827103Y-60342480D01*
X222662731Y-60309785D01*
X222507895Y-60245649D01*
X222368546Y-60152540D01*
X222250040Y-60034034D01*
X222156931Y-59894685D01*
X222092795Y-59739849D01*
X222060100Y-59575477D01*
X222060100Y-59407883D01*
X222092795Y-59243511D01*
X222156931Y-59088675D01*
X222250040Y-58949326D01*
X222368546Y-58830820D01*
X222507895Y-58737711D01*
X222662731Y-58673575D01*
X222827103Y-58640880D01*
X222994697Y-58640880D01*
X223159069Y-58673575D01*
G37*
G36*
X220619069Y-57528575D02*
G01*
X220773905Y-57592711D01*
X220913254Y-57685820D01*
X221031760Y-57804326D01*
X221124869Y-57943675D01*
X221189005Y-58098511D01*
X221221700Y-58262883D01*
X221221700Y-58430477D01*
X221189005Y-58594849D01*
X221124869Y-58749685D01*
X221031760Y-58889034D01*
X220913254Y-59007540D01*
X220773905Y-59100649D01*
X220619069Y-59164785D01*
X220454697Y-59197480D01*
X220287103Y-59197480D01*
X220122731Y-59164785D01*
X219967895Y-59100649D01*
X219828546Y-59007540D01*
X219710040Y-58889034D01*
X219616931Y-58749685D01*
X219552795Y-58594849D01*
X219520100Y-58430477D01*
X219520100Y-58262883D01*
X219552795Y-58098511D01*
X219616931Y-57943675D01*
X219710040Y-57804326D01*
X219828546Y-57685820D01*
X219967895Y-57592711D01*
X220122731Y-57528575D01*
X220287103Y-57495880D01*
X220454697Y-57495880D01*
X220619069Y-57528575D01*
G37*
G36*
X220969096Y-49334691D02*
G01*
X221177264Y-49420917D01*
X221342322Y-49489286D01*
X221678207Y-49713718D01*
X221963862Y-49999373D01*
X222188294Y-50335258D01*
X222256663Y-50500316D01*
X222342889Y-50708484D01*
X222421700Y-51104694D01*
X222421700Y-51508666D01*
X222342889Y-51904876D01*
X222256663Y-52113044D01*
X222188294Y-52278102D01*
X221963862Y-52613987D01*
X221678207Y-52899642D01*
X221342322Y-53124074D01*
X221177264Y-53192443D01*
X220969096Y-53278669D01*
X220572886Y-53357480D01*
X220168914Y-53357480D01*
X219772704Y-53278669D01*
X219564536Y-53192443D01*
X219399478Y-53124074D01*
X219063593Y-52899642D01*
X218777938Y-52613987D01*
X218553506Y-52278102D01*
X218485137Y-52113044D01*
X218398911Y-51904876D01*
X218320100Y-51508666D01*
X218320100Y-51104694D01*
X218398911Y-50708484D01*
X218485137Y-50500316D01*
X218553506Y-50335258D01*
X218777938Y-49999373D01*
X219063593Y-49713718D01*
X219399478Y-49489286D01*
X219564536Y-49420917D01*
X219772704Y-49334691D01*
X220168914Y-49255880D01*
X220572886Y-49255880D01*
X220969096Y-49334691D01*
G37*
G36*
X168945581Y-34218460D02*
G01*
X169054447Y-34263554D01*
X169111995Y-34287391D01*
X169236682Y-34370705D01*
X169261756Y-34387459D01*
X169389121Y-34514824D01*
X169389122Y-34514826D01*
X169489189Y-34664585D01*
X169513026Y-34722133D01*
X169558120Y-34830999D01*
X169593260Y-35007659D01*
X169593260Y-35187781D01*
X169558120Y-35364441D01*
X169513026Y-35473307D01*
X169489189Y-35530855D01*
X169405875Y-35655542D01*
X169389121Y-35680616D01*
X169261756Y-35807981D01*
X169236682Y-35824735D01*
X169111995Y-35908049D01*
X169054447Y-35931886D01*
X168945581Y-35976980D01*
X168768921Y-36012120D01*
X168588799Y-36012120D01*
X168412139Y-35976980D01*
X168303273Y-35931886D01*
X168245725Y-35908049D01*
X168121038Y-35824735D01*
X168095964Y-35807981D01*
X167968599Y-35680616D01*
X167951845Y-35655542D01*
X167868531Y-35530855D01*
X167844694Y-35473307D01*
X167799600Y-35364441D01*
X167764460Y-35187781D01*
X167764460Y-35007659D01*
X167799600Y-34830999D01*
X167844694Y-34722133D01*
X167868531Y-34664585D01*
X167968598Y-34514826D01*
X167968599Y-34514824D01*
X168095964Y-34387459D01*
X168121038Y-34370705D01*
X168245725Y-34287391D01*
X168303273Y-34263554D01*
X168412139Y-34218460D01*
X168588799Y-34183320D01*
X168768921Y-34183320D01*
X168945581Y-34218460D01*
G37*
G36*
X174025581Y-34218460D02*
G01*
X174134447Y-34263554D01*
X174191995Y-34287391D01*
X174316682Y-34370705D01*
X174341756Y-34387459D01*
X174469121Y-34514824D01*
X174469122Y-34514826D01*
X174569189Y-34664585D01*
X174593026Y-34722133D01*
X174638120Y-34830999D01*
X174673260Y-35007659D01*
X174673260Y-35187781D01*
X174638120Y-35364441D01*
X174593026Y-35473307D01*
X174569189Y-35530855D01*
X174485875Y-35655542D01*
X174469121Y-35680616D01*
X174341756Y-35807981D01*
X174316682Y-35824735D01*
X174191995Y-35908049D01*
X174134447Y-35931886D01*
X174025581Y-35976980D01*
X173848921Y-36012120D01*
X173668799Y-36012120D01*
X173492139Y-35976980D01*
X173383273Y-35931886D01*
X173325725Y-35908049D01*
X173201038Y-35824735D01*
X173175964Y-35807981D01*
X173048599Y-35680616D01*
X173031845Y-35655542D01*
X172948531Y-35530855D01*
X172924694Y-35473307D01*
X172879600Y-35364441D01*
X172844460Y-35187781D01*
X172844460Y-35007659D01*
X172879600Y-34830999D01*
X172924694Y-34722133D01*
X172948531Y-34664585D01*
X173048598Y-34514826D01*
X173048599Y-34514824D01*
X173175964Y-34387459D01*
X173201038Y-34370705D01*
X173325725Y-34287391D01*
X173383273Y-34263554D01*
X173492139Y-34218460D01*
X173668799Y-34183320D01*
X173848921Y-34183320D01*
X174025581Y-34218460D01*
G37*
G36*
X171485581Y-34218460D02*
G01*
X171594447Y-34263554D01*
X171651995Y-34287391D01*
X171776682Y-34370705D01*
X171801756Y-34387459D01*
X171929121Y-34514824D01*
X171929122Y-34514826D01*
X172029189Y-34664585D01*
X172053026Y-34722133D01*
X172098120Y-34830999D01*
X172133260Y-35007659D01*
X172133260Y-35187781D01*
X172098120Y-35364441D01*
X172053026Y-35473307D01*
X172029189Y-35530855D01*
X171945875Y-35655542D01*
X171929121Y-35680616D01*
X171801756Y-35807981D01*
X171776682Y-35824735D01*
X171651995Y-35908049D01*
X171594447Y-35931886D01*
X171485581Y-35976980D01*
X171308921Y-36012120D01*
X171128799Y-36012120D01*
X170952139Y-35976980D01*
X170843273Y-35931886D01*
X170785725Y-35908049D01*
X170661038Y-35824735D01*
X170635964Y-35807981D01*
X170508599Y-35680616D01*
X170491845Y-35655542D01*
X170408531Y-35530855D01*
X170384694Y-35473307D01*
X170339600Y-35364441D01*
X170304460Y-35187781D01*
X170304460Y-35007659D01*
X170339600Y-34830999D01*
X170384694Y-34722133D01*
X170408531Y-34664585D01*
X170508598Y-34514826D01*
X170508599Y-34514824D01*
X170635964Y-34387459D01*
X170661038Y-34370705D01*
X170785725Y-34287391D01*
X170843273Y-34263554D01*
X170952139Y-34218460D01*
X171128799Y-34183320D01*
X171308921Y-34183320D01*
X171485581Y-34218460D01*
G37*
G36*
X143545581Y-34218460D02*
G01*
X143654447Y-34263554D01*
X143711995Y-34287391D01*
X143836682Y-34370705D01*
X143861756Y-34387459D01*
X143989121Y-34514824D01*
X143989122Y-34514826D01*
X144089189Y-34664585D01*
X144113026Y-34722133D01*
X144158120Y-34830999D01*
X144193260Y-35007659D01*
X144193260Y-35187781D01*
X144158120Y-35364441D01*
X144113026Y-35473307D01*
X144089189Y-35530855D01*
X144005875Y-35655542D01*
X143989121Y-35680616D01*
X143861756Y-35807981D01*
X143836682Y-35824735D01*
X143711995Y-35908049D01*
X143654447Y-35931886D01*
X143545581Y-35976980D01*
X143368921Y-36012120D01*
X143188799Y-36012120D01*
X143012139Y-35976980D01*
X142903273Y-35931886D01*
X142845725Y-35908049D01*
X142721038Y-35824735D01*
X142695964Y-35807981D01*
X142568599Y-35680616D01*
X142551845Y-35655542D01*
X142468531Y-35530855D01*
X142444694Y-35473307D01*
X142399600Y-35364441D01*
X142364460Y-35187781D01*
X142364460Y-35007659D01*
X142399600Y-34830999D01*
X142444694Y-34722133D01*
X142468531Y-34664585D01*
X142568598Y-34514826D01*
X142568599Y-34514824D01*
X142695964Y-34387459D01*
X142721038Y-34370705D01*
X142845725Y-34287391D01*
X142903273Y-34263554D01*
X143012139Y-34218460D01*
X143188799Y-34183320D01*
X143368921Y-34183320D01*
X143545581Y-34218460D01*
G37*
G36*
X146085581Y-34218460D02*
G01*
X146194447Y-34263554D01*
X146251995Y-34287391D01*
X146376682Y-34370705D01*
X146401756Y-34387459D01*
X146529121Y-34514824D01*
X146529122Y-34514826D01*
X146629189Y-34664585D01*
X146653026Y-34722133D01*
X146698120Y-34830999D01*
X146733260Y-35007659D01*
X146733260Y-35187781D01*
X146698120Y-35364441D01*
X146653026Y-35473307D01*
X146629189Y-35530855D01*
X146545875Y-35655542D01*
X146529121Y-35680616D01*
X146401756Y-35807981D01*
X146376682Y-35824735D01*
X146251995Y-35908049D01*
X146194447Y-35931886D01*
X146085581Y-35976980D01*
X145908921Y-36012120D01*
X145728799Y-36012120D01*
X145552139Y-35976980D01*
X145443273Y-35931886D01*
X145385725Y-35908049D01*
X145261038Y-35824735D01*
X145235964Y-35807981D01*
X145108599Y-35680616D01*
X145091845Y-35655542D01*
X145008531Y-35530855D01*
X144984694Y-35473307D01*
X144939600Y-35364441D01*
X144904460Y-35187781D01*
X144904460Y-35007659D01*
X144939600Y-34830999D01*
X144984694Y-34722133D01*
X145008531Y-34664585D01*
X145108598Y-34514826D01*
X145108599Y-34514824D01*
X145235964Y-34387459D01*
X145261038Y-34370705D01*
X145385725Y-34287391D01*
X145443273Y-34263554D01*
X145552139Y-34218460D01*
X145728799Y-34183320D01*
X145908921Y-34183320D01*
X146085581Y-34218460D01*
G37*
G36*
X148625581Y-34218460D02*
G01*
X148734447Y-34263554D01*
X148791995Y-34287391D01*
X148916682Y-34370705D01*
X148941756Y-34387459D01*
X149069121Y-34514824D01*
X149069122Y-34514826D01*
X149169189Y-34664585D01*
X149193026Y-34722133D01*
X149238120Y-34830999D01*
X149273260Y-35007659D01*
X149273260Y-35187781D01*
X149238120Y-35364441D01*
X149193026Y-35473307D01*
X149169189Y-35530855D01*
X149085875Y-35655542D01*
X149069121Y-35680616D01*
X148941756Y-35807981D01*
X148916682Y-35824735D01*
X148791995Y-35908049D01*
X148734447Y-35931886D01*
X148625581Y-35976980D01*
X148448921Y-36012120D01*
X148268799Y-36012120D01*
X148092139Y-35976980D01*
X147983273Y-35931886D01*
X147925725Y-35908049D01*
X147801038Y-35824735D01*
X147775964Y-35807981D01*
X147648599Y-35680616D01*
X147631845Y-35655542D01*
X147548531Y-35530855D01*
X147524694Y-35473307D01*
X147479600Y-35364441D01*
X147444460Y-35187781D01*
X147444460Y-35007659D01*
X147479600Y-34830999D01*
X147524694Y-34722133D01*
X147548531Y-34664585D01*
X147648598Y-34514826D01*
X147648599Y-34514824D01*
X147775964Y-34387459D01*
X147801038Y-34370705D01*
X147925725Y-34287391D01*
X147983273Y-34263554D01*
X148092139Y-34218460D01*
X148268799Y-34183320D01*
X148448921Y-34183320D01*
X148625581Y-34218460D01*
G37*
G36*
X166405581Y-34218460D02*
G01*
X166514447Y-34263554D01*
X166571995Y-34287391D01*
X166696682Y-34370705D01*
X166721756Y-34387459D01*
X166849121Y-34514824D01*
X166849122Y-34514826D01*
X166949189Y-34664585D01*
X166973026Y-34722133D01*
X167018120Y-34830999D01*
X167053260Y-35007659D01*
X167053260Y-35187781D01*
X167018120Y-35364441D01*
X166973026Y-35473307D01*
X166949189Y-35530855D01*
X166865875Y-35655542D01*
X166849121Y-35680616D01*
X166721756Y-35807981D01*
X166696682Y-35824735D01*
X166571995Y-35908049D01*
X166514447Y-35931886D01*
X166405581Y-35976980D01*
X166228921Y-36012120D01*
X166048799Y-36012120D01*
X165872139Y-35976980D01*
X165763273Y-35931886D01*
X165705725Y-35908049D01*
X165581038Y-35824735D01*
X165555964Y-35807981D01*
X165428599Y-35680616D01*
X165411845Y-35655542D01*
X165328531Y-35530855D01*
X165304694Y-35473307D01*
X165259600Y-35364441D01*
X165224460Y-35187781D01*
X165224460Y-35007659D01*
X165259600Y-34830999D01*
X165304694Y-34722133D01*
X165328531Y-34664585D01*
X165428598Y-34514826D01*
X165428599Y-34514824D01*
X165555964Y-34387459D01*
X165581038Y-34370705D01*
X165705725Y-34287391D01*
X165763273Y-34263554D01*
X165872139Y-34218460D01*
X166048799Y-34183320D01*
X166228921Y-34183320D01*
X166405581Y-34218460D01*
G37*
G36*
X163865581Y-34218460D02*
G01*
X163974447Y-34263554D01*
X164031995Y-34287391D01*
X164156682Y-34370705D01*
X164181756Y-34387459D01*
X164309121Y-34514824D01*
X164309122Y-34514826D01*
X164409189Y-34664585D01*
X164433026Y-34722133D01*
X164478120Y-34830999D01*
X164513260Y-35007659D01*
X164513260Y-35187781D01*
X164478120Y-35364441D01*
X164433026Y-35473307D01*
X164409189Y-35530855D01*
X164325875Y-35655542D01*
X164309121Y-35680616D01*
X164181756Y-35807981D01*
X164156682Y-35824735D01*
X164031995Y-35908049D01*
X163974447Y-35931886D01*
X163865581Y-35976980D01*
X163688921Y-36012120D01*
X163508799Y-36012120D01*
X163332139Y-35976980D01*
X163223273Y-35931886D01*
X163165725Y-35908049D01*
X163041038Y-35824735D01*
X163015964Y-35807981D01*
X162888599Y-35680616D01*
X162871845Y-35655542D01*
X162788531Y-35530855D01*
X162764694Y-35473307D01*
X162719600Y-35364441D01*
X162684460Y-35187781D01*
X162684460Y-35007659D01*
X162719600Y-34830999D01*
X162764694Y-34722133D01*
X162788531Y-34664585D01*
X162888598Y-34514826D01*
X162888599Y-34514824D01*
X163015964Y-34387459D01*
X163041038Y-34370705D01*
X163165725Y-34287391D01*
X163223273Y-34263554D01*
X163332139Y-34218460D01*
X163508799Y-34183320D01*
X163688921Y-34183320D01*
X163865581Y-34218460D01*
G37*
G36*
X161325581Y-34218460D02*
G01*
X161434447Y-34263554D01*
X161491995Y-34287391D01*
X161616682Y-34370705D01*
X161641756Y-34387459D01*
X161769121Y-34514824D01*
X161769122Y-34514826D01*
X161869189Y-34664585D01*
X161893026Y-34722133D01*
X161938120Y-34830999D01*
X161973260Y-35007659D01*
X161973260Y-35187781D01*
X161938120Y-35364441D01*
X161893026Y-35473307D01*
X161869189Y-35530855D01*
X161785875Y-35655542D01*
X161769121Y-35680616D01*
X161641756Y-35807981D01*
X161616682Y-35824735D01*
X161491995Y-35908049D01*
X161434447Y-35931886D01*
X161325581Y-35976980D01*
X161148921Y-36012120D01*
X160968799Y-36012120D01*
X160792139Y-35976980D01*
X160683273Y-35931886D01*
X160625725Y-35908049D01*
X160501038Y-35824735D01*
X160475964Y-35807981D01*
X160348599Y-35680616D01*
X160331845Y-35655542D01*
X160248531Y-35530855D01*
X160224694Y-35473307D01*
X160179600Y-35364441D01*
X160144460Y-35187781D01*
X160144460Y-35007659D01*
X160179600Y-34830999D01*
X160224694Y-34722133D01*
X160248531Y-34664585D01*
X160348598Y-34514826D01*
X160348599Y-34514824D01*
X160475964Y-34387459D01*
X160501038Y-34370705D01*
X160625725Y-34287391D01*
X160683273Y-34263554D01*
X160792139Y-34218460D01*
X160968799Y-34183320D01*
X161148921Y-34183320D01*
X161325581Y-34218460D01*
G37*
G36*
X153705581Y-34218460D02*
G01*
X153814447Y-34263554D01*
X153871995Y-34287391D01*
X153996682Y-34370705D01*
X154021756Y-34387459D01*
X154149121Y-34514824D01*
X154149122Y-34514826D01*
X154249189Y-34664585D01*
X154273026Y-34722133D01*
X154318120Y-34830999D01*
X154353260Y-35007659D01*
X154353260Y-35187781D01*
X154318120Y-35364441D01*
X154273026Y-35473307D01*
X154249189Y-35530855D01*
X154165875Y-35655542D01*
X154149121Y-35680616D01*
X154021756Y-35807981D01*
X153996682Y-35824735D01*
X153871995Y-35908049D01*
X153814447Y-35931886D01*
X153705581Y-35976980D01*
X153528921Y-36012120D01*
X153348799Y-36012120D01*
X153172139Y-35976980D01*
X153063273Y-35931886D01*
X153005725Y-35908049D01*
X152881038Y-35824735D01*
X152855964Y-35807981D01*
X152728599Y-35680616D01*
X152711845Y-35655542D01*
X152628531Y-35530855D01*
X152604694Y-35473307D01*
X152559600Y-35364441D01*
X152524460Y-35187781D01*
X152524460Y-35007659D01*
X152559600Y-34830999D01*
X152604694Y-34722133D01*
X152628531Y-34664585D01*
X152728598Y-34514826D01*
X152728599Y-34514824D01*
X152855964Y-34387459D01*
X152881038Y-34370705D01*
X153005725Y-34287391D01*
X153063273Y-34263554D01*
X153172139Y-34218460D01*
X153348799Y-34183320D01*
X153528921Y-34183320D01*
X153705581Y-34218460D01*
G37*
G36*
X156245581Y-34218460D02*
G01*
X156354447Y-34263554D01*
X156411995Y-34287391D01*
X156536682Y-34370705D01*
X156561756Y-34387459D01*
X156689121Y-34514824D01*
X156689122Y-34514826D01*
X156789189Y-34664585D01*
X156813026Y-34722133D01*
X156858120Y-34830999D01*
X156893260Y-35007659D01*
X156893260Y-35187781D01*
X156858120Y-35364441D01*
X156813026Y-35473307D01*
X156789189Y-35530855D01*
X156705875Y-35655542D01*
X156689121Y-35680616D01*
X156561756Y-35807981D01*
X156536682Y-35824735D01*
X156411995Y-35908049D01*
X156354447Y-35931886D01*
X156245581Y-35976980D01*
X156068921Y-36012120D01*
X155888799Y-36012120D01*
X155712139Y-35976980D01*
X155603273Y-35931886D01*
X155545725Y-35908049D01*
X155421038Y-35824735D01*
X155395964Y-35807981D01*
X155268599Y-35680616D01*
X155251845Y-35655542D01*
X155168531Y-35530855D01*
X155144694Y-35473307D01*
X155099600Y-35364441D01*
X155064460Y-35187781D01*
X155064460Y-35007659D01*
X155099600Y-34830999D01*
X155144694Y-34722133D01*
X155168531Y-34664585D01*
X155268598Y-34514826D01*
X155268599Y-34514824D01*
X155395964Y-34387459D01*
X155421038Y-34370705D01*
X155545725Y-34287391D01*
X155603273Y-34263554D01*
X155712139Y-34218460D01*
X155888799Y-34183320D01*
X156068921Y-34183320D01*
X156245581Y-34218460D01*
G37*
G36*
X158785581Y-34218460D02*
G01*
X158894447Y-34263554D01*
X158951995Y-34287391D01*
X159076682Y-34370705D01*
X159101756Y-34387459D01*
X159229121Y-34514824D01*
X159229122Y-34514826D01*
X159329189Y-34664585D01*
X159353026Y-34722133D01*
X159398120Y-34830999D01*
X159433260Y-35007659D01*
X159433260Y-35187781D01*
X159398120Y-35364441D01*
X159353026Y-35473307D01*
X159329189Y-35530855D01*
X159245875Y-35655542D01*
X159229121Y-35680616D01*
X159101756Y-35807981D01*
X159076682Y-35824735D01*
X158951995Y-35908049D01*
X158894447Y-35931886D01*
X158785581Y-35976980D01*
X158608921Y-36012120D01*
X158428799Y-36012120D01*
X158252139Y-35976980D01*
X158143273Y-35931886D01*
X158085725Y-35908049D01*
X157961038Y-35824735D01*
X157935964Y-35807981D01*
X157808599Y-35680616D01*
X157791845Y-35655542D01*
X157708531Y-35530855D01*
X157684694Y-35473307D01*
X157639600Y-35364441D01*
X157604460Y-35187781D01*
X157604460Y-35007659D01*
X157639600Y-34830999D01*
X157684694Y-34722133D01*
X157708531Y-34664585D01*
X157808598Y-34514826D01*
X157808599Y-34514824D01*
X157935964Y-34387459D01*
X157961038Y-34370705D01*
X158085725Y-34287391D01*
X158143273Y-34263554D01*
X158252139Y-34218460D01*
X158428799Y-34183320D01*
X158608921Y-34183320D01*
X158785581Y-34218460D01*
G37*
G36*
X151165581Y-34218460D02*
G01*
X151274447Y-34263554D01*
X151331995Y-34287391D01*
X151456682Y-34370705D01*
X151481756Y-34387459D01*
X151609121Y-34514824D01*
X151609122Y-34514826D01*
X151709189Y-34664585D01*
X151733026Y-34722133D01*
X151778120Y-34830999D01*
X151813260Y-35007659D01*
X151813260Y-35187781D01*
X151778120Y-35364441D01*
X151733026Y-35473307D01*
X151709189Y-35530855D01*
X151625875Y-35655542D01*
X151609121Y-35680616D01*
X151481756Y-35807981D01*
X151456682Y-35824735D01*
X151331995Y-35908049D01*
X151274447Y-35931886D01*
X151165581Y-35976980D01*
X150988921Y-36012120D01*
X150808799Y-36012120D01*
X150632139Y-35976980D01*
X150523273Y-35931886D01*
X150465725Y-35908049D01*
X150341038Y-35824735D01*
X150315964Y-35807981D01*
X150188599Y-35680616D01*
X150171845Y-35655542D01*
X150088531Y-35530855D01*
X150064694Y-35473307D01*
X150019600Y-35364441D01*
X149984460Y-35187781D01*
X149984460Y-35007659D01*
X150019600Y-34830999D01*
X150064694Y-34722133D01*
X150088531Y-34664585D01*
X150188598Y-34514826D01*
X150188599Y-34514824D01*
X150315964Y-34387459D01*
X150341038Y-34370705D01*
X150465725Y-34287391D01*
X150523273Y-34263554D01*
X150632139Y-34218460D01*
X150808799Y-34183320D01*
X150988921Y-34183320D01*
X151165581Y-34218460D01*
G37*
G36*
X153705581Y-31678460D02*
G01*
X153814447Y-31723554D01*
X153871995Y-31747391D01*
X153996682Y-31830705D01*
X154021756Y-31847459D01*
X154149121Y-31974824D01*
X154149122Y-31974826D01*
X154249189Y-32124585D01*
X154273026Y-32182133D01*
X154318120Y-32290999D01*
X154353260Y-32467659D01*
X154353260Y-32647781D01*
X154318120Y-32824441D01*
X154273026Y-32933307D01*
X154249189Y-32990855D01*
X154165875Y-33115542D01*
X154149121Y-33140616D01*
X154021756Y-33267981D01*
X153996682Y-33284735D01*
X153871995Y-33368049D01*
X153814447Y-33391886D01*
X153705581Y-33436980D01*
X153528921Y-33472120D01*
X153348799Y-33472120D01*
X153172139Y-33436980D01*
X153063273Y-33391886D01*
X153005725Y-33368049D01*
X152881038Y-33284735D01*
X152855964Y-33267981D01*
X152728599Y-33140616D01*
X152711845Y-33115542D01*
X152628531Y-32990855D01*
X152604694Y-32933307D01*
X152559600Y-32824441D01*
X152524460Y-32647781D01*
X152524460Y-32467659D01*
X152559600Y-32290999D01*
X152604694Y-32182133D01*
X152628531Y-32124585D01*
X152728598Y-31974826D01*
X152728599Y-31974824D01*
X152855964Y-31847459D01*
X152881038Y-31830705D01*
X153005725Y-31747391D01*
X153063273Y-31723554D01*
X153172139Y-31678460D01*
X153348799Y-31643320D01*
X153528921Y-31643320D01*
X153705581Y-31678460D01*
G37*
G36*
X151165581Y-31678460D02*
G01*
X151274447Y-31723554D01*
X151331995Y-31747391D01*
X151456682Y-31830705D01*
X151481756Y-31847459D01*
X151609121Y-31974824D01*
X151609122Y-31974826D01*
X151709189Y-32124585D01*
X151733026Y-32182133D01*
X151778120Y-32290999D01*
X151813260Y-32467659D01*
X151813260Y-32647781D01*
X151778120Y-32824441D01*
X151733026Y-32933307D01*
X151709189Y-32990855D01*
X151625875Y-33115542D01*
X151609121Y-33140616D01*
X151481756Y-33267981D01*
X151456682Y-33284735D01*
X151331995Y-33368049D01*
X151274447Y-33391886D01*
X151165581Y-33436980D01*
X150988921Y-33472120D01*
X150808799Y-33472120D01*
X150632139Y-33436980D01*
X150523273Y-33391886D01*
X150465725Y-33368049D01*
X150341038Y-33284735D01*
X150315964Y-33267981D01*
X150188599Y-33140616D01*
X150171845Y-33115542D01*
X150088531Y-32990855D01*
X150064694Y-32933307D01*
X150019600Y-32824441D01*
X149984460Y-32647781D01*
X149984460Y-32467659D01*
X150019600Y-32290999D01*
X150064694Y-32182133D01*
X150088531Y-32124585D01*
X150188598Y-31974826D01*
X150188599Y-31974824D01*
X150315964Y-31847459D01*
X150341038Y-31830705D01*
X150465725Y-31747391D01*
X150523273Y-31723554D01*
X150632139Y-31678460D01*
X150808799Y-31643320D01*
X150988921Y-31643320D01*
X151165581Y-31678460D01*
G37*
G36*
X148625581Y-31678460D02*
G01*
X148734447Y-31723554D01*
X148791995Y-31747391D01*
X148916682Y-31830705D01*
X148941756Y-31847459D01*
X149069121Y-31974824D01*
X149069122Y-31974826D01*
X149169189Y-32124585D01*
X149193026Y-32182133D01*
X149238120Y-32290999D01*
X149273260Y-32467659D01*
X149273260Y-32647781D01*
X149238120Y-32824441D01*
X149193026Y-32933307D01*
X149169189Y-32990855D01*
X149085875Y-33115542D01*
X149069121Y-33140616D01*
X148941756Y-33267981D01*
X148916682Y-33284735D01*
X148791995Y-33368049D01*
X148734447Y-33391886D01*
X148625581Y-33436980D01*
X148448921Y-33472120D01*
X148268799Y-33472120D01*
X148092139Y-33436980D01*
X147983273Y-33391886D01*
X147925725Y-33368049D01*
X147801038Y-33284735D01*
X147775964Y-33267981D01*
X147648599Y-33140616D01*
X147631845Y-33115542D01*
X147548531Y-32990855D01*
X147524694Y-32933307D01*
X147479600Y-32824441D01*
X147444460Y-32647781D01*
X147444460Y-32467659D01*
X147479600Y-32290999D01*
X147524694Y-32182133D01*
X147548531Y-32124585D01*
X147648598Y-31974826D01*
X147648599Y-31974824D01*
X147775964Y-31847459D01*
X147801038Y-31830705D01*
X147925725Y-31747391D01*
X147983273Y-31723554D01*
X148092139Y-31678460D01*
X148268799Y-31643320D01*
X148448921Y-31643320D01*
X148625581Y-31678460D01*
G37*
G36*
X146085581Y-31678460D02*
G01*
X146194447Y-31723554D01*
X146251995Y-31747391D01*
X146376682Y-31830705D01*
X146401756Y-31847459D01*
X146529121Y-31974824D01*
X146529122Y-31974826D01*
X146629189Y-32124585D01*
X146653026Y-32182133D01*
X146698120Y-32290999D01*
X146733260Y-32467659D01*
X146733260Y-32647781D01*
X146698120Y-32824441D01*
X146653026Y-32933307D01*
X146629189Y-32990855D01*
X146545875Y-33115542D01*
X146529121Y-33140616D01*
X146401756Y-33267981D01*
X146376682Y-33284735D01*
X146251995Y-33368049D01*
X146194447Y-33391886D01*
X146085581Y-33436980D01*
X145908921Y-33472120D01*
X145728799Y-33472120D01*
X145552139Y-33436980D01*
X145443273Y-33391886D01*
X145385725Y-33368049D01*
X145261038Y-33284735D01*
X145235964Y-33267981D01*
X145108599Y-33140616D01*
X145091845Y-33115542D01*
X145008531Y-32990855D01*
X144984694Y-32933307D01*
X144939600Y-32824441D01*
X144904460Y-32647781D01*
X144904460Y-32467659D01*
X144939600Y-32290999D01*
X144984694Y-32182133D01*
X145008531Y-32124585D01*
X145108598Y-31974826D01*
X145108599Y-31974824D01*
X145235964Y-31847459D01*
X145261038Y-31830705D01*
X145385725Y-31747391D01*
X145443273Y-31723554D01*
X145552139Y-31678460D01*
X145728799Y-31643320D01*
X145908921Y-31643320D01*
X146085581Y-31678460D01*
G37*
G36*
X143545581Y-31678460D02*
G01*
X143654447Y-31723554D01*
X143711995Y-31747391D01*
X143836682Y-31830705D01*
X143861756Y-31847459D01*
X143989121Y-31974824D01*
X143989122Y-31974826D01*
X144089189Y-32124585D01*
X144113026Y-32182133D01*
X144158120Y-32290999D01*
X144193260Y-32467659D01*
X144193260Y-32647781D01*
X144158120Y-32824441D01*
X144113026Y-32933307D01*
X144089189Y-32990855D01*
X144005875Y-33115542D01*
X143989121Y-33140616D01*
X143861756Y-33267981D01*
X143836682Y-33284735D01*
X143711995Y-33368049D01*
X143654447Y-33391886D01*
X143545581Y-33436980D01*
X143368921Y-33472120D01*
X143188799Y-33472120D01*
X143012139Y-33436980D01*
X142903273Y-33391886D01*
X142845725Y-33368049D01*
X142721038Y-33284735D01*
X142695964Y-33267981D01*
X142568599Y-33140616D01*
X142551845Y-33115542D01*
X142468531Y-32990855D01*
X142444694Y-32933307D01*
X142399600Y-32824441D01*
X142364460Y-32647781D01*
X142364460Y-32467659D01*
X142399600Y-32290999D01*
X142444694Y-32182133D01*
X142468531Y-32124585D01*
X142568598Y-31974826D01*
X142568599Y-31974824D01*
X142695964Y-31847459D01*
X142721038Y-31830705D01*
X142845725Y-31747391D01*
X142903273Y-31723554D01*
X143012139Y-31678460D01*
X143188799Y-31643320D01*
X143368921Y-31643320D01*
X143545581Y-31678460D01*
G37*
G36*
X158785581Y-31678460D02*
G01*
X158894447Y-31723554D01*
X158951995Y-31747391D01*
X159076682Y-31830705D01*
X159101756Y-31847459D01*
X159229121Y-31974824D01*
X159229122Y-31974826D01*
X159329189Y-32124585D01*
X159353026Y-32182133D01*
X159398120Y-32290999D01*
X159433260Y-32467659D01*
X159433260Y-32647781D01*
X159398120Y-32824441D01*
X159353026Y-32933307D01*
X159329189Y-32990855D01*
X159245875Y-33115542D01*
X159229121Y-33140616D01*
X159101756Y-33267981D01*
X159076682Y-33284735D01*
X158951995Y-33368049D01*
X158894447Y-33391886D01*
X158785581Y-33436980D01*
X158608921Y-33472120D01*
X158428799Y-33472120D01*
X158252139Y-33436980D01*
X158143273Y-33391886D01*
X158085725Y-33368049D01*
X157961038Y-33284735D01*
X157935964Y-33267981D01*
X157808599Y-33140616D01*
X157791845Y-33115542D01*
X157708531Y-32990855D01*
X157684694Y-32933307D01*
X157639600Y-32824441D01*
X157604460Y-32647781D01*
X157604460Y-32467659D01*
X157639600Y-32290999D01*
X157684694Y-32182133D01*
X157708531Y-32124585D01*
X157808598Y-31974826D01*
X157808599Y-31974824D01*
X157935964Y-31847459D01*
X157961038Y-31830705D01*
X158085725Y-31747391D01*
X158143273Y-31723554D01*
X158252139Y-31678460D01*
X158428799Y-31643320D01*
X158608921Y-31643320D01*
X158785581Y-31678460D01*
G37*
G36*
X161325581Y-31678460D02*
G01*
X161434447Y-31723554D01*
X161491995Y-31747391D01*
X161616682Y-31830705D01*
X161641756Y-31847459D01*
X161769121Y-31974824D01*
X161769122Y-31974826D01*
X161869189Y-32124585D01*
X161893026Y-32182133D01*
X161938120Y-32290999D01*
X161973260Y-32467659D01*
X161973260Y-32647781D01*
X161938120Y-32824441D01*
X161893026Y-32933307D01*
X161869189Y-32990855D01*
X161785875Y-33115542D01*
X161769121Y-33140616D01*
X161641756Y-33267981D01*
X161616682Y-33284735D01*
X161491995Y-33368049D01*
X161434447Y-33391886D01*
X161325581Y-33436980D01*
X161148921Y-33472120D01*
X160968799Y-33472120D01*
X160792139Y-33436980D01*
X160683273Y-33391886D01*
X160625725Y-33368049D01*
X160501038Y-33284735D01*
X160475964Y-33267981D01*
X160348599Y-33140616D01*
X160331845Y-33115542D01*
X160248531Y-32990855D01*
X160224694Y-32933307D01*
X160179600Y-32824441D01*
X160144460Y-32647781D01*
X160144460Y-32467659D01*
X160179600Y-32290999D01*
X160224694Y-32182133D01*
X160248531Y-32124585D01*
X160348598Y-31974826D01*
X160348599Y-31974824D01*
X160475964Y-31847459D01*
X160501038Y-31830705D01*
X160625725Y-31747391D01*
X160683273Y-31723554D01*
X160792139Y-31678460D01*
X160968799Y-31643320D01*
X161148921Y-31643320D01*
X161325581Y-31678460D01*
G37*
G36*
X174673260Y-33472120D02*
G01*
X172844460Y-33472120D01*
X172844460Y-31643320D01*
X174673260Y-31643320D01*
X174673260Y-33472120D01*
G37*
G36*
X163865581Y-31678460D02*
G01*
X163974447Y-31723554D01*
X164031995Y-31747391D01*
X164156682Y-31830705D01*
X164181756Y-31847459D01*
X164309121Y-31974824D01*
X164309122Y-31974826D01*
X164409189Y-32124585D01*
X164433026Y-32182133D01*
X164478120Y-32290999D01*
X164513260Y-32467659D01*
X164513260Y-32647781D01*
X164478120Y-32824441D01*
X164433026Y-32933307D01*
X164409189Y-32990855D01*
X164325875Y-33115542D01*
X164309121Y-33140616D01*
X164181756Y-33267981D01*
X164156682Y-33284735D01*
X164031995Y-33368049D01*
X163974447Y-33391886D01*
X163865581Y-33436980D01*
X163688921Y-33472120D01*
X163508799Y-33472120D01*
X163332139Y-33436980D01*
X163223273Y-33391886D01*
X163165725Y-33368049D01*
X163041038Y-33284735D01*
X163015964Y-33267981D01*
X162888599Y-33140616D01*
X162871845Y-33115542D01*
X162788531Y-32990855D01*
X162764694Y-32933307D01*
X162719600Y-32824441D01*
X162684460Y-32647781D01*
X162684460Y-32467659D01*
X162719600Y-32290999D01*
X162764694Y-32182133D01*
X162788531Y-32124585D01*
X162888598Y-31974826D01*
X162888599Y-31974824D01*
X163015964Y-31847459D01*
X163041038Y-31830705D01*
X163165725Y-31747391D01*
X163223273Y-31723554D01*
X163332139Y-31678460D01*
X163508799Y-31643320D01*
X163688921Y-31643320D01*
X163865581Y-31678460D01*
G37*
G36*
X166405581Y-31678460D02*
G01*
X166514447Y-31723554D01*
X166571995Y-31747391D01*
X166696682Y-31830705D01*
X166721756Y-31847459D01*
X166849121Y-31974824D01*
X166849122Y-31974826D01*
X166949189Y-32124585D01*
X166973026Y-32182133D01*
X167018120Y-32290999D01*
X167053260Y-32467659D01*
X167053260Y-32647781D01*
X167018120Y-32824441D01*
X166973026Y-32933307D01*
X166949189Y-32990855D01*
X166865875Y-33115542D01*
X166849121Y-33140616D01*
X166721756Y-33267981D01*
X166696682Y-33284735D01*
X166571995Y-33368049D01*
X166514447Y-33391886D01*
X166405581Y-33436980D01*
X166228921Y-33472120D01*
X166048799Y-33472120D01*
X165872139Y-33436980D01*
X165763273Y-33391886D01*
X165705725Y-33368049D01*
X165581038Y-33284735D01*
X165555964Y-33267981D01*
X165428599Y-33140616D01*
X165411845Y-33115542D01*
X165328531Y-32990855D01*
X165304694Y-32933307D01*
X165259600Y-32824441D01*
X165224460Y-32647781D01*
X165224460Y-32467659D01*
X165259600Y-32290999D01*
X165304694Y-32182133D01*
X165328531Y-32124585D01*
X165428598Y-31974826D01*
X165428599Y-31974824D01*
X165555964Y-31847459D01*
X165581038Y-31830705D01*
X165705725Y-31747391D01*
X165763273Y-31723554D01*
X165872139Y-31678460D01*
X166048799Y-31643320D01*
X166228921Y-31643320D01*
X166405581Y-31678460D01*
G37*
G36*
X156245581Y-31678460D02*
G01*
X156354447Y-31723554D01*
X156411995Y-31747391D01*
X156536682Y-31830705D01*
X156561756Y-31847459D01*
X156689121Y-31974824D01*
X156689122Y-31974826D01*
X156789189Y-32124585D01*
X156813026Y-32182133D01*
X156858120Y-32290999D01*
X156893260Y-32467659D01*
X156893260Y-32647781D01*
X156858120Y-32824441D01*
X156813026Y-32933307D01*
X156789189Y-32990855D01*
X156705875Y-33115542D01*
X156689121Y-33140616D01*
X156561756Y-33267981D01*
X156536682Y-33284735D01*
X156411995Y-33368049D01*
X156354447Y-33391886D01*
X156245581Y-33436980D01*
X156068921Y-33472120D01*
X155888799Y-33472120D01*
X155712139Y-33436980D01*
X155603273Y-33391886D01*
X155545725Y-33368049D01*
X155421038Y-33284735D01*
X155395964Y-33267981D01*
X155268599Y-33140616D01*
X155251845Y-33115542D01*
X155168531Y-32990855D01*
X155144694Y-32933307D01*
X155099600Y-32824441D01*
X155064460Y-32647781D01*
X155064460Y-32467659D01*
X155099600Y-32290999D01*
X155144694Y-32182133D01*
X155168531Y-32124585D01*
X155268598Y-31974826D01*
X155268599Y-31974824D01*
X155395964Y-31847459D01*
X155421038Y-31830705D01*
X155545725Y-31747391D01*
X155603273Y-31723554D01*
X155712139Y-31678460D01*
X155888799Y-31643320D01*
X156068921Y-31643320D01*
X156245581Y-31678460D01*
G37*
G36*
X168945581Y-31678460D02*
G01*
X169054447Y-31723554D01*
X169111995Y-31747391D01*
X169236682Y-31830705D01*
X169261756Y-31847459D01*
X169389121Y-31974824D01*
X169389122Y-31974826D01*
X169489189Y-32124585D01*
X169513026Y-32182133D01*
X169558120Y-32290999D01*
X169593260Y-32467659D01*
X169593260Y-32647781D01*
X169558120Y-32824441D01*
X169513026Y-32933307D01*
X169489189Y-32990855D01*
X169405875Y-33115542D01*
X169389121Y-33140616D01*
X169261756Y-33267981D01*
X169236682Y-33284735D01*
X169111995Y-33368049D01*
X169054447Y-33391886D01*
X168945581Y-33436980D01*
X168768921Y-33472120D01*
X168588799Y-33472120D01*
X168412139Y-33436980D01*
X168303273Y-33391886D01*
X168245725Y-33368049D01*
X168121038Y-33284735D01*
X168095964Y-33267981D01*
X167968599Y-33140616D01*
X167951845Y-33115542D01*
X167868531Y-32990855D01*
X167844694Y-32933307D01*
X167799600Y-32824441D01*
X167764460Y-32647781D01*
X167764460Y-32467659D01*
X167799600Y-32290999D01*
X167844694Y-32182133D01*
X167868531Y-32124585D01*
X167968598Y-31974826D01*
X167968599Y-31974824D01*
X168095964Y-31847459D01*
X168121038Y-31830705D01*
X168245725Y-31747391D01*
X168303273Y-31723554D01*
X168412139Y-31678460D01*
X168588799Y-31643320D01*
X168768921Y-31643320D01*
X168945581Y-31678460D01*
G37*
G36*
X171485581Y-31678460D02*
G01*
X171594447Y-31723554D01*
X171651995Y-31747391D01*
X171776682Y-31830705D01*
X171801756Y-31847459D01*
X171929121Y-31974824D01*
X171929122Y-31974826D01*
X172029189Y-32124585D01*
X172053026Y-32182133D01*
X172098120Y-32290999D01*
X172133260Y-32467659D01*
X172133260Y-32647781D01*
X172098120Y-32824441D01*
X172053026Y-32933307D01*
X172029189Y-32990855D01*
X171945875Y-33115542D01*
X171929121Y-33140616D01*
X171801756Y-33267981D01*
X171776682Y-33284735D01*
X171651995Y-33368049D01*
X171594447Y-33391886D01*
X171485581Y-33436980D01*
X171308921Y-33472120D01*
X171128799Y-33472120D01*
X170952139Y-33436980D01*
X170843273Y-33391886D01*
X170785725Y-33368049D01*
X170661038Y-33284735D01*
X170635964Y-33267981D01*
X170508599Y-33140616D01*
X170491845Y-33115542D01*
X170408531Y-32990855D01*
X170384694Y-32933307D01*
X170339600Y-32824441D01*
X170304460Y-32647781D01*
X170304460Y-32467659D01*
X170339600Y-32290999D01*
X170384694Y-32182133D01*
X170408531Y-32124585D01*
X170508598Y-31974826D01*
X170508599Y-31974824D01*
X170635964Y-31847459D01*
X170661038Y-31830705D01*
X170785725Y-31747391D01*
X170843273Y-31723554D01*
X170952139Y-31678460D01*
X171128799Y-31643320D01*
X171308921Y-31643320D01*
X171485581Y-31678460D01*
G37*
M02*
