%TF.GenerationSoftware,KiCad,Pcbnew,(5.1.6)-1*%
%TF.CreationDate,2020-07-21T14:46:33+03:00*%
%TF.ProjectId,GD5434,47443534-3334-42e6-9b69-6361645f7063,rev?*%
%TF.SameCoordinates,Original*%
%TF.FileFunction,Soldermask,Bot*%
%TF.FilePolarity,Negative*%
%FSLAX46Y46*%
G04 Gerber Fmt 4.6, Leading zero omitted, Abs format (unit mm)*
G04 Created by KiCad (PCBNEW (5.1.6)-1) date 2020-07-21 14:46:33*
%MOMM*%
%LPD*%
G01*
G04 APERTURE LIST*
%TA.AperFunction,Profile*%
%ADD10C,0.381000*%
%TD*%
%ADD11C,0.155000*%
G04 APERTURE END LIST*
D10*
X73675240Y-113670080D02*
G75*
G03*
X74310240Y-114305080I635000J0D01*
G01*
X73675740Y-28658820D02*
X73675740Y-113670080D01*
X121318520Y-114303740D02*
G75*
G03*
X121953520Y-113668740I0J635000D01*
G01*
X74310740Y-114305080D02*
X121318520Y-114303740D01*
X121953520Y-106123740D02*
X121953520Y-113668740D01*
X127025900Y-106123740D02*
X121953520Y-106123740D01*
X127025900Y-106123740D02*
X127025900Y-113670080D01*
X208305900Y-106125080D02*
X208305900Y-113670080D01*
X76213838Y-26111208D02*
X228625900Y-26111208D01*
X207670900Y-114305080D02*
G75*
G03*
X208305900Y-113670080I0J635000D01*
G01*
X127660900Y-114305080D02*
X207670900Y-114305080D01*
X231165900Y-28651208D02*
G75*
G03*
X228625900Y-26111208I-2540000J0D01*
G01*
X228625900Y-106125080D02*
X208305900Y-106125080D01*
X231165900Y-103585080D02*
X231165900Y-28651208D01*
X228625900Y-106125080D02*
G75*
G03*
X231165900Y-103585080I0J2540000D01*
G01*
X127025900Y-113670080D02*
G75*
G03*
X127660900Y-114305080I635000J0D01*
G01*
X76213838Y-26111209D02*
G75*
G03*
X73675740Y-28658820I6982J-2545071D01*
G01*
D11*
%TO.C,REF\u002A\u002A*%
G36*
X91195099Y-47231718D02*
G01*
X90934306Y-47323326D01*
X90900744Y-47339217D01*
X90673558Y-47479248D01*
X90483831Y-47655336D01*
X90332077Y-47860865D01*
X90218811Y-48089218D01*
X90144546Y-48333779D01*
X90109797Y-48587932D01*
X90115078Y-48845060D01*
X90160902Y-49098548D01*
X90247783Y-49341779D01*
X90376236Y-49568136D01*
X90546775Y-49771004D01*
X90701568Y-49902995D01*
X90911466Y-50026578D01*
X91146796Y-50112099D01*
X91392453Y-50156070D01*
X91633332Y-50155002D01*
X91729273Y-50140319D01*
X91973739Y-50062795D01*
X92200717Y-49936422D01*
X92403604Y-49767734D01*
X92575794Y-49563266D01*
X92710683Y-49329555D01*
X92799628Y-49081144D01*
X92829014Y-48913959D01*
X92841768Y-48720233D01*
X92837798Y-48523366D01*
X92817016Y-48346758D01*
X92802700Y-48282164D01*
X92710087Y-48025120D01*
X92577963Y-47791014D01*
X92413190Y-47589850D01*
X92222631Y-47431637D01*
X92216739Y-47427758D01*
X91967248Y-47294558D01*
X91712914Y-47217424D01*
X91455083Y-47196447D01*
X91195099Y-47231718D01*
G37*
X91195099Y-47231718D02*
X90934306Y-47323326D01*
X90900744Y-47339217D01*
X90673558Y-47479248D01*
X90483831Y-47655336D01*
X90332077Y-47860865D01*
X90218811Y-48089218D01*
X90144546Y-48333779D01*
X90109797Y-48587932D01*
X90115078Y-48845060D01*
X90160902Y-49098548D01*
X90247783Y-49341779D01*
X90376236Y-49568136D01*
X90546775Y-49771004D01*
X90701568Y-49902995D01*
X90911466Y-50026578D01*
X91146796Y-50112099D01*
X91392453Y-50156070D01*
X91633332Y-50155002D01*
X91729273Y-50140319D01*
X91973739Y-50062795D01*
X92200717Y-49936422D01*
X92403604Y-49767734D01*
X92575794Y-49563266D01*
X92710683Y-49329555D01*
X92799628Y-49081144D01*
X92829014Y-48913959D01*
X92841768Y-48720233D01*
X92837798Y-48523366D01*
X92817016Y-48346758D01*
X92802700Y-48282164D01*
X92710087Y-48025120D01*
X92577963Y-47791014D01*
X92413190Y-47589850D01*
X92222631Y-47431637D01*
X92216739Y-47427758D01*
X91967248Y-47294558D01*
X91712914Y-47217424D01*
X91455083Y-47196447D01*
X91195099Y-47231718D01*
G36*
X94394999Y-50921859D02*
G01*
X94201485Y-50927460D01*
X94047437Y-50939098D01*
X93924383Y-50958755D01*
X93823854Y-50988412D01*
X93737378Y-51030050D01*
X93656486Y-51085651D01*
X93572707Y-51157197D01*
X93555256Y-51173226D01*
X93406795Y-51336467D01*
X93315207Y-51491686D01*
X93244849Y-51707669D01*
X93207370Y-51965771D01*
X93202250Y-52262604D01*
X93228973Y-52594783D01*
X93287017Y-52958921D01*
X93375865Y-53351634D01*
X93494998Y-53769535D01*
X93643896Y-54209239D01*
X93789807Y-54588551D01*
X93924481Y-54916756D01*
X94053170Y-55221779D01*
X94173907Y-55499339D01*
X94284723Y-55745156D01*
X94383650Y-55954951D01*
X94468721Y-56124444D01*
X94537968Y-56249353D01*
X94587130Y-56322611D01*
X94642971Y-56391561D01*
X94722308Y-56266167D01*
X94789147Y-56149616D01*
X94873258Y-55983796D01*
X94975021Y-55767888D01*
X95094815Y-55501068D01*
X95233020Y-55182518D01*
X95341382Y-54927218D01*
X95455564Y-54653491D01*
X95549927Y-54420345D01*
X95628244Y-54217083D01*
X95694288Y-54033008D01*
X95751835Y-53857423D01*
X95804656Y-53679631D01*
X95856526Y-53488936D01*
X95877914Y-53406411D01*
X95948964Y-53112654D01*
X96000739Y-52857022D01*
X96035318Y-52625389D01*
X96054780Y-52403632D01*
X96061207Y-52177625D01*
X96061222Y-52161440D01*
X96052728Y-51910328D01*
X96025262Y-51703466D01*
X95975309Y-51530816D01*
X95899354Y-51382341D01*
X95793881Y-51248005D01*
X95713503Y-51168674D01*
X95626835Y-51094211D01*
X95543408Y-51036088D01*
X95454689Y-50992338D01*
X95352145Y-50960994D01*
X95227241Y-50940087D01*
X95071444Y-50927651D01*
X94876221Y-50921716D01*
X94636448Y-50920314D01*
X94394999Y-50921859D01*
G37*
X94394999Y-50921859D02*
X94201485Y-50927460D01*
X94047437Y-50939098D01*
X93924383Y-50958755D01*
X93823854Y-50988412D01*
X93737378Y-51030050D01*
X93656486Y-51085651D01*
X93572707Y-51157197D01*
X93555256Y-51173226D01*
X93406795Y-51336467D01*
X93315207Y-51491686D01*
X93244849Y-51707669D01*
X93207370Y-51965771D01*
X93202250Y-52262604D01*
X93228973Y-52594783D01*
X93287017Y-52958921D01*
X93375865Y-53351634D01*
X93494998Y-53769535D01*
X93643896Y-54209239D01*
X93789807Y-54588551D01*
X93924481Y-54916756D01*
X94053170Y-55221779D01*
X94173907Y-55499339D01*
X94284723Y-55745156D01*
X94383650Y-55954951D01*
X94468721Y-56124444D01*
X94537968Y-56249353D01*
X94587130Y-56322611D01*
X94642971Y-56391561D01*
X94722308Y-56266167D01*
X94789147Y-56149616D01*
X94873258Y-55983796D01*
X94975021Y-55767888D01*
X95094815Y-55501068D01*
X95233020Y-55182518D01*
X95341382Y-54927218D01*
X95455564Y-54653491D01*
X95549927Y-54420345D01*
X95628244Y-54217083D01*
X95694288Y-54033008D01*
X95751835Y-53857423D01*
X95804656Y-53679631D01*
X95856526Y-53488936D01*
X95877914Y-53406411D01*
X95948964Y-53112654D01*
X96000739Y-52857022D01*
X96035318Y-52625389D01*
X96054780Y-52403632D01*
X96061207Y-52177625D01*
X96061222Y-52161440D01*
X96052728Y-51910328D01*
X96025262Y-51703466D01*
X95975309Y-51530816D01*
X95899354Y-51382341D01*
X95793881Y-51248005D01*
X95713503Y-51168674D01*
X95626835Y-51094211D01*
X95543408Y-51036088D01*
X95454689Y-50992338D01*
X95352145Y-50960994D01*
X95227241Y-50940087D01*
X95071444Y-50927651D01*
X94876221Y-50921716D01*
X94636448Y-50920314D01*
X94394999Y-50921859D01*
G36*
X97476614Y-47236402D02*
G01*
X97240289Y-47323398D01*
X97022434Y-47454023D01*
X96829143Y-47624006D01*
X96666509Y-47829074D01*
X96540624Y-48064957D01*
X96471773Y-48267946D01*
X96443250Y-48430976D01*
X96430797Y-48623562D01*
X96434450Y-48821882D01*
X96454242Y-49002115D01*
X96470585Y-49079483D01*
X96563232Y-49337228D01*
X96696488Y-49567650D01*
X96864327Y-49766622D01*
X97060720Y-49930015D01*
X97279643Y-50053700D01*
X97515068Y-50133551D01*
X97760969Y-50165438D01*
X98011319Y-50145235D01*
X98023115Y-50142930D01*
X98284905Y-50062460D01*
X98523249Y-49933392D01*
X98732638Y-49760649D01*
X98907564Y-49549149D01*
X99042519Y-49303815D01*
X99085197Y-49194073D01*
X99115588Y-49096624D01*
X99135198Y-49004302D01*
X99146114Y-48900150D01*
X99150422Y-48767210D01*
X99150686Y-48661884D01*
X99148673Y-48508796D01*
X99142427Y-48395728D01*
X99129557Y-48306282D01*
X99107674Y-48224064D01*
X99074384Y-48132679D01*
X99072986Y-48129121D01*
X98942863Y-47867209D01*
X98775350Y-47643106D01*
X98574564Y-47460275D01*
X98344623Y-47322177D01*
X98089645Y-47232275D01*
X97980303Y-47210385D01*
X97725316Y-47197307D01*
X97476614Y-47236402D01*
G37*
X97476614Y-47236402D02*
X97240289Y-47323398D01*
X97022434Y-47454023D01*
X96829143Y-47624006D01*
X96666509Y-47829074D01*
X96540624Y-48064957D01*
X96471773Y-48267946D01*
X96443250Y-48430976D01*
X96430797Y-48623562D01*
X96434450Y-48821882D01*
X96454242Y-49002115D01*
X96470585Y-49079483D01*
X96563232Y-49337228D01*
X96696488Y-49567650D01*
X96864327Y-49766622D01*
X97060720Y-49930015D01*
X97279643Y-50053700D01*
X97515068Y-50133551D01*
X97760969Y-50165438D01*
X98011319Y-50145235D01*
X98023115Y-50142930D01*
X98284905Y-50062460D01*
X98523249Y-49933392D01*
X98732638Y-49760649D01*
X98907564Y-49549149D01*
X99042519Y-49303815D01*
X99085197Y-49194073D01*
X99115588Y-49096624D01*
X99135198Y-49004302D01*
X99146114Y-48900150D01*
X99150422Y-48767210D01*
X99150686Y-48661884D01*
X99148673Y-48508796D01*
X99142427Y-48395728D01*
X99129557Y-48306282D01*
X99107674Y-48224064D01*
X99074384Y-48132679D01*
X99072986Y-48129121D01*
X98942863Y-47867209D01*
X98775350Y-47643106D01*
X98574564Y-47460275D01*
X98344623Y-47322177D01*
X98089645Y-47232275D01*
X97980303Y-47210385D01*
X97725316Y-47197307D01*
X97476614Y-47236402D01*
G36*
X173686700Y-114038380D02*
G01*
X171805100Y-114038380D01*
X171805100Y-106316780D01*
X173686700Y-106316780D01*
X173686700Y-114038380D01*
G37*
G36*
X206706700Y-114038380D02*
G01*
X204825100Y-114038380D01*
X204825100Y-106316780D01*
X206706700Y-106316780D01*
X206706700Y-114038380D01*
G37*
G36*
X204166700Y-114038380D02*
G01*
X202285100Y-114038380D01*
X202285100Y-106316780D01*
X204166700Y-106316780D01*
X204166700Y-114038380D01*
G37*
G36*
X201626700Y-114038380D02*
G01*
X199745100Y-114038380D01*
X199745100Y-106316780D01*
X201626700Y-106316780D01*
X201626700Y-114038380D01*
G37*
G36*
X199086700Y-114038380D02*
G01*
X197205100Y-114038380D01*
X197205100Y-106316780D01*
X199086700Y-106316780D01*
X199086700Y-114038380D01*
G37*
G36*
X196546700Y-114038380D02*
G01*
X194665100Y-114038380D01*
X194665100Y-106316780D01*
X196546700Y-106316780D01*
X196546700Y-114038380D01*
G37*
G36*
X194006700Y-114038380D02*
G01*
X192125100Y-114038380D01*
X192125100Y-106316780D01*
X194006700Y-106316780D01*
X194006700Y-114038380D01*
G37*
G36*
X191466700Y-114038380D02*
G01*
X189585100Y-114038380D01*
X189585100Y-106316780D01*
X191466700Y-106316780D01*
X191466700Y-114038380D01*
G37*
G36*
X188926700Y-114038380D02*
G01*
X187045100Y-114038380D01*
X187045100Y-106316780D01*
X188926700Y-106316780D01*
X188926700Y-114038380D01*
G37*
G36*
X186386700Y-114038380D02*
G01*
X184505100Y-114038380D01*
X184505100Y-106316780D01*
X186386700Y-106316780D01*
X186386700Y-114038380D01*
G37*
G36*
X183846700Y-114038380D02*
G01*
X181965100Y-114038380D01*
X181965100Y-106316780D01*
X183846700Y-106316780D01*
X183846700Y-114038380D01*
G37*
G36*
X181306700Y-114038380D02*
G01*
X179425100Y-114038380D01*
X179425100Y-106316780D01*
X181306700Y-106316780D01*
X181306700Y-114038380D01*
G37*
G36*
X178766700Y-114038380D02*
G01*
X176885100Y-114038380D01*
X176885100Y-106316780D01*
X178766700Y-106316780D01*
X178766700Y-114038380D01*
G37*
G36*
X143206700Y-114038380D02*
G01*
X141325100Y-114038380D01*
X141325100Y-106316780D01*
X143206700Y-106316780D01*
X143206700Y-114038380D01*
G37*
G36*
X171146700Y-114038380D02*
G01*
X169265100Y-114038380D01*
X169265100Y-106316780D01*
X171146700Y-106316780D01*
X171146700Y-114038380D01*
G37*
G36*
X168606700Y-114038380D02*
G01*
X166725100Y-114038380D01*
X166725100Y-106316780D01*
X168606700Y-106316780D01*
X168606700Y-114038380D01*
G37*
G36*
X166066700Y-114038380D02*
G01*
X164185100Y-114038380D01*
X164185100Y-106316780D01*
X166066700Y-106316780D01*
X166066700Y-114038380D01*
G37*
G36*
X163526700Y-114038380D02*
G01*
X161645100Y-114038380D01*
X161645100Y-106316780D01*
X163526700Y-106316780D01*
X163526700Y-114038380D01*
G37*
G36*
X160986700Y-114038380D02*
G01*
X159105100Y-114038380D01*
X159105100Y-106316780D01*
X160986700Y-106316780D01*
X160986700Y-114038380D01*
G37*
G36*
X158446700Y-114038380D02*
G01*
X156565100Y-114038380D01*
X156565100Y-106316780D01*
X158446700Y-106316780D01*
X158446700Y-114038380D01*
G37*
G36*
X155906700Y-114038380D02*
G01*
X154025100Y-114038380D01*
X154025100Y-106316780D01*
X155906700Y-106316780D01*
X155906700Y-114038380D01*
G37*
G36*
X153366700Y-114038380D02*
G01*
X151485100Y-114038380D01*
X151485100Y-106316780D01*
X153366700Y-106316780D01*
X153366700Y-114038380D01*
G37*
G36*
X150826700Y-114038380D02*
G01*
X148945100Y-114038380D01*
X148945100Y-106316780D01*
X150826700Y-106316780D01*
X150826700Y-114038380D01*
G37*
G36*
X148286700Y-114038380D02*
G01*
X146405100Y-114038380D01*
X146405100Y-106316780D01*
X148286700Y-106316780D01*
X148286700Y-114038380D01*
G37*
G36*
X105106700Y-114038380D02*
G01*
X103225100Y-114038380D01*
X103225100Y-106316780D01*
X105106700Y-106316780D01*
X105106700Y-114038380D01*
G37*
G36*
X77166700Y-114038380D02*
G01*
X75285100Y-114038380D01*
X75285100Y-106316780D01*
X77166700Y-106316780D01*
X77166700Y-114038380D01*
G37*
G36*
X140666700Y-114038380D02*
G01*
X138785100Y-114038380D01*
X138785100Y-106316780D01*
X140666700Y-106316780D01*
X140666700Y-114038380D01*
G37*
G36*
X138126700Y-114038380D02*
G01*
X136245100Y-114038380D01*
X136245100Y-106316780D01*
X138126700Y-106316780D01*
X138126700Y-114038380D01*
G37*
G36*
X135586700Y-114038380D02*
G01*
X133705100Y-114038380D01*
X133705100Y-106316780D01*
X135586700Y-106316780D01*
X135586700Y-114038380D01*
G37*
G36*
X133046700Y-114038380D02*
G01*
X131165100Y-114038380D01*
X131165100Y-106316780D01*
X133046700Y-106316780D01*
X133046700Y-114038380D01*
G37*
G36*
X130506700Y-114038380D02*
G01*
X128625100Y-114038380D01*
X128625100Y-106316780D01*
X130506700Y-106316780D01*
X130506700Y-114038380D01*
G37*
G36*
X120346700Y-114038380D02*
G01*
X118465100Y-114038380D01*
X118465100Y-106316780D01*
X120346700Y-106316780D01*
X120346700Y-114038380D01*
G37*
G36*
X117806700Y-114038380D02*
G01*
X115925100Y-114038380D01*
X115925100Y-106316780D01*
X117806700Y-106316780D01*
X117806700Y-114038380D01*
G37*
G36*
X115266700Y-114038380D02*
G01*
X113385100Y-114038380D01*
X113385100Y-106316780D01*
X115266700Y-106316780D01*
X115266700Y-114038380D01*
G37*
G36*
X112726700Y-114038380D02*
G01*
X110845100Y-114038380D01*
X110845100Y-106316780D01*
X112726700Y-106316780D01*
X112726700Y-114038380D01*
G37*
G36*
X110186700Y-114038380D02*
G01*
X108305100Y-114038380D01*
X108305100Y-106316780D01*
X110186700Y-106316780D01*
X110186700Y-114038380D01*
G37*
G36*
X107646700Y-114038380D02*
G01*
X105765100Y-114038380D01*
X105765100Y-106316780D01*
X107646700Y-106316780D01*
X107646700Y-114038380D01*
G37*
G36*
X102566700Y-114038380D02*
G01*
X100685100Y-114038380D01*
X100685100Y-106316780D01*
X102566700Y-106316780D01*
X102566700Y-114038380D01*
G37*
G36*
X145746700Y-114038380D02*
G01*
X143865100Y-114038380D01*
X143865100Y-106316780D01*
X145746700Y-106316780D01*
X145746700Y-114038380D01*
G37*
G36*
X176226700Y-114038380D02*
G01*
X174345100Y-114038380D01*
X174345100Y-106316780D01*
X176226700Y-106316780D01*
X176226700Y-114038380D01*
G37*
G36*
X79706700Y-114038380D02*
G01*
X77825100Y-114038380D01*
X77825100Y-106316780D01*
X79706700Y-106316780D01*
X79706700Y-114038380D01*
G37*
G36*
X82246700Y-114038380D02*
G01*
X80365100Y-114038380D01*
X80365100Y-106316780D01*
X82246700Y-106316780D01*
X82246700Y-114038380D01*
G37*
G36*
X84786700Y-114038380D02*
G01*
X82905100Y-114038380D01*
X82905100Y-106316780D01*
X84786700Y-106316780D01*
X84786700Y-114038380D01*
G37*
G36*
X87326700Y-114038380D02*
G01*
X85445100Y-114038380D01*
X85445100Y-106316780D01*
X87326700Y-106316780D01*
X87326700Y-114038380D01*
G37*
G36*
X89866700Y-114038380D02*
G01*
X87985100Y-114038380D01*
X87985100Y-106316780D01*
X89866700Y-106316780D01*
X89866700Y-114038380D01*
G37*
G36*
X92406700Y-114038380D02*
G01*
X90525100Y-114038380D01*
X90525100Y-106316780D01*
X92406700Y-106316780D01*
X92406700Y-114038380D01*
G37*
G36*
X94946700Y-114038380D02*
G01*
X93065100Y-114038380D01*
X93065100Y-106316780D01*
X94946700Y-106316780D01*
X94946700Y-114038380D01*
G37*
G36*
X97486700Y-114038380D02*
G01*
X95605100Y-114038380D01*
X95605100Y-106316780D01*
X97486700Y-106316780D01*
X97486700Y-114038380D01*
G37*
G36*
X100026700Y-114038380D02*
G01*
X98145100Y-114038380D01*
X98145100Y-106316780D01*
X100026700Y-106316780D01*
X100026700Y-114038380D01*
G37*
G36*
X190739614Y-101139767D02*
G01*
X190844034Y-101160537D01*
X191007969Y-101228441D01*
X191155507Y-101327023D01*
X191280977Y-101452493D01*
X191379559Y-101600031D01*
X191447463Y-101763966D01*
X191482080Y-101937999D01*
X191482080Y-102115441D01*
X191447463Y-102289474D01*
X191379559Y-102453409D01*
X191280977Y-102600947D01*
X191155507Y-102726417D01*
X191007969Y-102824999D01*
X190844034Y-102892903D01*
X190739614Y-102913673D01*
X190670003Y-102927520D01*
X190492557Y-102927520D01*
X190422946Y-102913673D01*
X190318526Y-102892903D01*
X190154591Y-102824999D01*
X190007053Y-102726417D01*
X189881583Y-102600947D01*
X189783001Y-102453409D01*
X189715097Y-102289474D01*
X189680480Y-102115441D01*
X189680480Y-101937999D01*
X189715097Y-101763966D01*
X189783001Y-101600031D01*
X189881583Y-101452493D01*
X190007053Y-101327023D01*
X190154591Y-101228441D01*
X190318526Y-101160537D01*
X190422946Y-101139767D01*
X190492557Y-101125920D01*
X190670003Y-101125920D01*
X190739614Y-101139767D01*
G37*
G36*
X187046454Y-101139767D02*
G01*
X187150874Y-101160537D01*
X187314809Y-101228441D01*
X187462347Y-101327023D01*
X187587817Y-101452493D01*
X187686399Y-101600031D01*
X187754303Y-101763966D01*
X187788920Y-101937999D01*
X187788920Y-102115441D01*
X187754303Y-102289474D01*
X187686399Y-102453409D01*
X187587817Y-102600947D01*
X187462347Y-102726417D01*
X187314809Y-102824999D01*
X187150874Y-102892903D01*
X187046454Y-102913673D01*
X186976843Y-102927520D01*
X186799397Y-102927520D01*
X186729786Y-102913673D01*
X186625366Y-102892903D01*
X186461431Y-102824999D01*
X186313893Y-102726417D01*
X186188423Y-102600947D01*
X186089841Y-102453409D01*
X186021937Y-102289474D01*
X185987320Y-102115441D01*
X185987320Y-101937999D01*
X186021937Y-101763966D01*
X186089841Y-101600031D01*
X186188423Y-101452493D01*
X186313893Y-101327023D01*
X186461431Y-101228441D01*
X186625366Y-101160537D01*
X186729786Y-101139767D01*
X186799397Y-101125920D01*
X186976843Y-101125920D01*
X187046454Y-101139767D01*
G37*
G36*
X211647289Y-100813395D02*
G01*
X211647291Y-100813396D01*
X211647292Y-100813396D01*
X211802124Y-100877530D01*
X211802125Y-100877531D01*
X211941474Y-100970640D01*
X212059980Y-101089146D01*
X212084551Y-101125920D01*
X212153090Y-101228496D01*
X212217224Y-101383328D01*
X212217225Y-101383331D01*
X212249920Y-101547703D01*
X212249920Y-101715297D01*
X212240239Y-101763969D01*
X212217224Y-101879672D01*
X212153090Y-102034504D01*
X212153089Y-102034505D01*
X212059980Y-102173854D01*
X211941474Y-102292360D01*
X211836843Y-102362271D01*
X211802124Y-102385470D01*
X211647292Y-102449604D01*
X211647291Y-102449604D01*
X211647289Y-102449605D01*
X211482917Y-102482300D01*
X211315323Y-102482300D01*
X211150951Y-102449605D01*
X211150949Y-102449604D01*
X211150948Y-102449604D01*
X210996116Y-102385470D01*
X210961397Y-102362271D01*
X210856766Y-102292360D01*
X210738260Y-102173854D01*
X210645151Y-102034505D01*
X210645150Y-102034504D01*
X210581016Y-101879672D01*
X210558002Y-101763969D01*
X210548320Y-101715297D01*
X210548320Y-101547703D01*
X210581015Y-101383331D01*
X210581016Y-101383328D01*
X210645150Y-101228496D01*
X210713689Y-101125920D01*
X210738260Y-101089146D01*
X210856766Y-100970640D01*
X210996115Y-100877531D01*
X210996116Y-100877530D01*
X211150948Y-100813396D01*
X211150949Y-100813396D01*
X211150951Y-100813395D01*
X211315323Y-100780700D01*
X211482917Y-100780700D01*
X211647289Y-100813395D01*
G37*
G36*
X123751609Y-99826855D02*
G01*
X123751611Y-99826856D01*
X123751612Y-99826856D01*
X123906444Y-99890990D01*
X123906445Y-99890991D01*
X124045794Y-99984100D01*
X124164300Y-100102606D01*
X124233833Y-100206671D01*
X124257410Y-100241956D01*
X124310700Y-100370609D01*
X124321545Y-100396791D01*
X124354240Y-100561163D01*
X124354240Y-100728757D01*
X124324648Y-100877531D01*
X124321544Y-100893132D01*
X124257410Y-101047964D01*
X124257409Y-101047965D01*
X124164300Y-101187314D01*
X124045794Y-101305820D01*
X123941163Y-101375731D01*
X123906444Y-101398930D01*
X123751612Y-101463064D01*
X123751611Y-101463064D01*
X123751609Y-101463065D01*
X123587237Y-101495760D01*
X123419643Y-101495760D01*
X123255271Y-101463065D01*
X123255269Y-101463064D01*
X123255268Y-101463064D01*
X123100436Y-101398930D01*
X123065717Y-101375731D01*
X122961086Y-101305820D01*
X122842580Y-101187314D01*
X122749471Y-101047965D01*
X122749470Y-101047964D01*
X122685336Y-100893132D01*
X122682233Y-100877531D01*
X122652640Y-100728757D01*
X122652640Y-100561163D01*
X122685335Y-100396791D01*
X122696180Y-100370609D01*
X122749470Y-100241956D01*
X122773047Y-100206671D01*
X122842580Y-100102606D01*
X122961086Y-99984100D01*
X123100435Y-99890991D01*
X123100436Y-99890990D01*
X123255268Y-99826856D01*
X123255269Y-99826856D01*
X123255271Y-99826855D01*
X123419643Y-99794160D01*
X123587237Y-99794160D01*
X123751609Y-99826855D01*
G37*
G36*
X122354240Y-101495760D02*
G01*
X120652640Y-101495760D01*
X120652640Y-99794160D01*
X122354240Y-99794160D01*
X122354240Y-101495760D01*
G37*
G36*
X175830600Y-100844720D02*
G01*
X174029000Y-100844720D01*
X174029000Y-99043120D01*
X175830600Y-99043120D01*
X175830600Y-100844720D01*
G37*
G36*
X180168134Y-99056967D02*
G01*
X180272554Y-99077737D01*
X180436489Y-99145641D01*
X180584027Y-99244223D01*
X180709497Y-99369693D01*
X180808079Y-99517231D01*
X180875983Y-99681166D01*
X180896753Y-99785586D01*
X180904963Y-99826856D01*
X180910600Y-99855199D01*
X180910600Y-100032641D01*
X180875983Y-100206674D01*
X180808079Y-100370609D01*
X180709497Y-100518147D01*
X180584027Y-100643617D01*
X180436489Y-100742199D01*
X180272554Y-100810103D01*
X180168134Y-100830873D01*
X180098523Y-100844720D01*
X179921077Y-100844720D01*
X179851466Y-100830873D01*
X179747046Y-100810103D01*
X179583111Y-100742199D01*
X179435573Y-100643617D01*
X179310103Y-100518147D01*
X179211521Y-100370609D01*
X179143617Y-100206674D01*
X179109000Y-100032641D01*
X179109000Y-99855199D01*
X179114638Y-99826856D01*
X179122847Y-99785586D01*
X179143617Y-99681166D01*
X179211521Y-99517231D01*
X179310103Y-99369693D01*
X179435573Y-99244223D01*
X179583111Y-99145641D01*
X179747046Y-99077737D01*
X179851466Y-99056967D01*
X179921077Y-99043120D01*
X180098523Y-99043120D01*
X180168134Y-99056967D01*
G37*
G36*
X177628134Y-99056967D02*
G01*
X177732554Y-99077737D01*
X177896489Y-99145641D01*
X178044027Y-99244223D01*
X178169497Y-99369693D01*
X178268079Y-99517231D01*
X178335983Y-99681166D01*
X178356753Y-99785586D01*
X178364963Y-99826856D01*
X178370600Y-99855199D01*
X178370600Y-100032641D01*
X178335983Y-100206674D01*
X178268079Y-100370609D01*
X178169497Y-100518147D01*
X178044027Y-100643617D01*
X177896489Y-100742199D01*
X177732554Y-100810103D01*
X177628134Y-100830873D01*
X177558523Y-100844720D01*
X177381077Y-100844720D01*
X177311466Y-100830873D01*
X177207046Y-100810103D01*
X177043111Y-100742199D01*
X176895573Y-100643617D01*
X176770103Y-100518147D01*
X176671521Y-100370609D01*
X176603617Y-100206674D01*
X176569000Y-100032641D01*
X176569000Y-99855199D01*
X176574638Y-99826856D01*
X176582847Y-99785586D01*
X176603617Y-99681166D01*
X176671521Y-99517231D01*
X176770103Y-99369693D01*
X176895573Y-99244223D01*
X177043111Y-99145641D01*
X177207046Y-99077737D01*
X177311466Y-99056967D01*
X177381077Y-99043120D01*
X177558523Y-99043120D01*
X177628134Y-99056967D01*
G37*
G36*
X212249920Y-100482300D02*
G01*
X210548320Y-100482300D01*
X210548320Y-98780700D01*
X212249920Y-98780700D01*
X212249920Y-100482300D01*
G37*
G36*
X187788920Y-100387520D02*
G01*
X185987320Y-100387520D01*
X185987320Y-98585920D01*
X187788920Y-98585920D01*
X187788920Y-100387520D01*
G37*
G36*
X191482080Y-100387520D02*
G01*
X189680480Y-100387520D01*
X189680480Y-98585920D01*
X191482080Y-98585920D01*
X191482080Y-100387520D01*
G37*
G36*
X78017889Y-95122775D02*
G01*
X78017891Y-95122776D01*
X78017892Y-95122776D01*
X78172724Y-95186910D01*
X78172725Y-95186911D01*
X78312074Y-95280020D01*
X78430580Y-95398526D01*
X78500491Y-95503157D01*
X78523690Y-95537876D01*
X78587824Y-95692708D01*
X78620520Y-95857085D01*
X78620520Y-96024675D01*
X78587824Y-96189052D01*
X78523690Y-96343884D01*
X78523689Y-96343885D01*
X78430580Y-96483234D01*
X78312074Y-96601740D01*
X78207443Y-96671651D01*
X78172724Y-96694850D01*
X78017892Y-96758984D01*
X78017891Y-96758984D01*
X78017889Y-96758985D01*
X77853517Y-96791680D01*
X77685923Y-96791680D01*
X77521551Y-96758985D01*
X77521549Y-96758984D01*
X77521548Y-96758984D01*
X77366716Y-96694850D01*
X77331997Y-96671651D01*
X77227366Y-96601740D01*
X77108860Y-96483234D01*
X77015751Y-96343885D01*
X77015750Y-96343884D01*
X76951616Y-96189052D01*
X76918920Y-96024675D01*
X76918920Y-95857085D01*
X76951616Y-95692708D01*
X77015750Y-95537876D01*
X77038949Y-95503157D01*
X77108860Y-95398526D01*
X77227366Y-95280020D01*
X77366715Y-95186911D01*
X77366716Y-95186910D01*
X77521548Y-95122776D01*
X77521549Y-95122776D01*
X77521551Y-95122775D01*
X77685923Y-95090080D01*
X77853517Y-95090080D01*
X78017889Y-95122775D01*
G37*
G36*
X181047407Y-93572403D02*
G01*
X181047409Y-93572404D01*
X181047410Y-93572404D01*
X181186082Y-93629843D01*
X181248485Y-93671540D01*
X181310887Y-93713236D01*
X181417024Y-93819373D01*
X181458720Y-93881776D01*
X181500417Y-93944178D01*
X181557856Y-94082850D01*
X181587140Y-94230071D01*
X181587140Y-94380169D01*
X181557856Y-94527390D01*
X181500417Y-94666062D01*
X181458720Y-94728465D01*
X181417024Y-94790867D01*
X181310887Y-94897004D01*
X181248484Y-94938700D01*
X181186082Y-94980397D01*
X181047410Y-95037836D01*
X181047409Y-95037836D01*
X181047407Y-95037837D01*
X180900190Y-95067120D01*
X180750090Y-95067120D01*
X180602873Y-95037837D01*
X180602871Y-95037836D01*
X180602870Y-95037836D01*
X180464198Y-94980397D01*
X180401796Y-94938700D01*
X180339393Y-94897004D01*
X180233256Y-94790867D01*
X180191560Y-94728465D01*
X180149863Y-94666062D01*
X180092424Y-94527390D01*
X180063140Y-94380169D01*
X180063140Y-94230071D01*
X180092424Y-94082850D01*
X180149863Y-93944178D01*
X180191560Y-93881775D01*
X180233256Y-93819373D01*
X180339393Y-93713236D01*
X180401796Y-93671540D01*
X180464198Y-93629843D01*
X180602870Y-93572404D01*
X180602871Y-93572404D01*
X180602873Y-93572403D01*
X180750090Y-93543120D01*
X180900190Y-93543120D01*
X181047407Y-93572403D01*
G37*
G36*
X186127407Y-93572403D02*
G01*
X186127409Y-93572404D01*
X186127410Y-93572404D01*
X186266082Y-93629843D01*
X186328485Y-93671540D01*
X186390887Y-93713236D01*
X186497024Y-93819373D01*
X186538720Y-93881776D01*
X186580417Y-93944178D01*
X186637856Y-94082850D01*
X186667140Y-94230071D01*
X186667140Y-94380169D01*
X186637856Y-94527390D01*
X186580417Y-94666062D01*
X186538720Y-94728465D01*
X186497024Y-94790867D01*
X186390887Y-94897004D01*
X186328484Y-94938700D01*
X186266082Y-94980397D01*
X186127410Y-95037836D01*
X186127409Y-95037836D01*
X186127407Y-95037837D01*
X185980190Y-95067120D01*
X185830090Y-95067120D01*
X185682873Y-95037837D01*
X185682871Y-95037836D01*
X185682870Y-95037836D01*
X185544198Y-94980397D01*
X185481796Y-94938700D01*
X185419393Y-94897004D01*
X185313256Y-94790867D01*
X185271560Y-94728465D01*
X185229863Y-94666062D01*
X185172424Y-94527390D01*
X185143140Y-94380169D01*
X185143140Y-94230071D01*
X185172424Y-94082850D01*
X185229863Y-93944178D01*
X185271560Y-93881775D01*
X185313256Y-93819373D01*
X185419393Y-93713236D01*
X185481796Y-93671540D01*
X185544198Y-93629843D01*
X185682870Y-93572404D01*
X185682871Y-93572404D01*
X185682873Y-93572403D01*
X185830090Y-93543120D01*
X185980190Y-93543120D01*
X186127407Y-93572403D01*
G37*
G36*
X183587407Y-93572403D02*
G01*
X183587409Y-93572404D01*
X183587410Y-93572404D01*
X183726082Y-93629843D01*
X183788485Y-93671540D01*
X183850887Y-93713236D01*
X183957024Y-93819373D01*
X183998720Y-93881776D01*
X184040417Y-93944178D01*
X184097856Y-94082850D01*
X184127140Y-94230071D01*
X184127140Y-94380169D01*
X184097856Y-94527390D01*
X184040417Y-94666062D01*
X183998720Y-94728465D01*
X183957024Y-94790867D01*
X183850887Y-94897004D01*
X183788484Y-94938700D01*
X183726082Y-94980397D01*
X183587410Y-95037836D01*
X183587409Y-95037836D01*
X183587407Y-95037837D01*
X183440190Y-95067120D01*
X183290090Y-95067120D01*
X183142873Y-95037837D01*
X183142871Y-95037836D01*
X183142870Y-95037836D01*
X183004198Y-94980397D01*
X182941796Y-94938700D01*
X182879393Y-94897004D01*
X182773256Y-94790867D01*
X182731560Y-94728465D01*
X182689863Y-94666062D01*
X182632424Y-94527390D01*
X182603140Y-94380169D01*
X182603140Y-94230071D01*
X182632424Y-94082850D01*
X182689863Y-93944178D01*
X182731560Y-93881775D01*
X182773256Y-93819373D01*
X182879393Y-93713236D01*
X182941796Y-93671540D01*
X183004198Y-93629843D01*
X183142870Y-93572404D01*
X183142871Y-93572404D01*
X183142873Y-93572403D01*
X183290090Y-93543120D01*
X183440190Y-93543120D01*
X183587407Y-93572403D01*
G37*
G36*
X178507407Y-93572403D02*
G01*
X178507409Y-93572404D01*
X178507410Y-93572404D01*
X178646082Y-93629843D01*
X178708485Y-93671540D01*
X178770887Y-93713236D01*
X178877024Y-93819373D01*
X178918720Y-93881776D01*
X178960417Y-93944178D01*
X179017856Y-94082850D01*
X179047140Y-94230071D01*
X179047140Y-94380169D01*
X179017856Y-94527390D01*
X178960417Y-94666062D01*
X178918720Y-94728465D01*
X178877024Y-94790867D01*
X178770887Y-94897004D01*
X178708484Y-94938700D01*
X178646082Y-94980397D01*
X178507410Y-95037836D01*
X178507409Y-95037836D01*
X178507407Y-95037837D01*
X178360190Y-95067120D01*
X178210090Y-95067120D01*
X178062873Y-95037837D01*
X178062871Y-95037836D01*
X178062870Y-95037836D01*
X177924198Y-94980397D01*
X177861796Y-94938700D01*
X177799393Y-94897004D01*
X177693256Y-94790867D01*
X177651560Y-94728465D01*
X177609863Y-94666062D01*
X177552424Y-94527390D01*
X177523140Y-94380169D01*
X177523140Y-94230071D01*
X177552424Y-94082850D01*
X177609863Y-93944178D01*
X177651560Y-93881775D01*
X177693256Y-93819373D01*
X177799393Y-93713236D01*
X177861796Y-93671540D01*
X177924198Y-93629843D01*
X178062870Y-93572404D01*
X178062871Y-93572404D01*
X178062873Y-93572403D01*
X178210090Y-93543120D01*
X178360190Y-93543120D01*
X178507407Y-93572403D01*
G37*
G36*
X175967407Y-93572403D02*
G01*
X175967409Y-93572404D01*
X175967410Y-93572404D01*
X176106082Y-93629843D01*
X176168485Y-93671540D01*
X176230887Y-93713236D01*
X176337024Y-93819373D01*
X176378720Y-93881776D01*
X176420417Y-93944178D01*
X176477856Y-94082850D01*
X176507140Y-94230071D01*
X176507140Y-94380169D01*
X176477856Y-94527390D01*
X176420417Y-94666062D01*
X176378720Y-94728465D01*
X176337024Y-94790867D01*
X176230887Y-94897004D01*
X176168484Y-94938700D01*
X176106082Y-94980397D01*
X175967410Y-95037836D01*
X175967409Y-95037836D01*
X175967407Y-95037837D01*
X175820190Y-95067120D01*
X175670090Y-95067120D01*
X175522873Y-95037837D01*
X175522871Y-95037836D01*
X175522870Y-95037836D01*
X175384198Y-94980397D01*
X175321796Y-94938700D01*
X175259393Y-94897004D01*
X175153256Y-94790867D01*
X175111560Y-94728465D01*
X175069863Y-94666062D01*
X175012424Y-94527390D01*
X174983140Y-94380169D01*
X174983140Y-94230071D01*
X175012424Y-94082850D01*
X175069863Y-93944178D01*
X175111560Y-93881775D01*
X175153256Y-93819373D01*
X175259393Y-93713236D01*
X175321796Y-93671540D01*
X175384198Y-93629843D01*
X175522870Y-93572404D01*
X175522871Y-93572404D01*
X175522873Y-93572403D01*
X175670090Y-93543120D01*
X175820190Y-93543120D01*
X175967407Y-93572403D01*
G37*
G36*
X78620520Y-94791680D02*
G01*
X76918920Y-94791680D01*
X76918920Y-93090080D01*
X78620520Y-93090080D01*
X78620520Y-94791680D01*
G37*
G36*
X175967407Y-91032403D02*
G01*
X175967409Y-91032404D01*
X175967410Y-91032404D01*
X176106082Y-91089843D01*
X176168484Y-91131540D01*
X176230887Y-91173236D01*
X176337024Y-91279373D01*
X176378720Y-91341776D01*
X176420417Y-91404178D01*
X176477856Y-91542850D01*
X176507140Y-91690071D01*
X176507140Y-91840169D01*
X176477856Y-91987390D01*
X176420417Y-92126062D01*
X176378720Y-92188465D01*
X176337024Y-92250867D01*
X176230887Y-92357004D01*
X176168484Y-92398700D01*
X176106082Y-92440397D01*
X175967410Y-92497836D01*
X175967409Y-92497836D01*
X175967407Y-92497837D01*
X175820190Y-92527120D01*
X175670090Y-92527120D01*
X175522873Y-92497837D01*
X175522871Y-92497836D01*
X175522870Y-92497836D01*
X175384198Y-92440397D01*
X175321796Y-92398700D01*
X175259393Y-92357004D01*
X175153256Y-92250867D01*
X175111560Y-92188465D01*
X175069863Y-92126062D01*
X175012424Y-91987390D01*
X174983140Y-91840169D01*
X174983140Y-91690071D01*
X175012424Y-91542850D01*
X175069863Y-91404178D01*
X175111560Y-91341776D01*
X175153256Y-91279373D01*
X175259393Y-91173236D01*
X175321796Y-91131540D01*
X175384198Y-91089843D01*
X175522870Y-91032404D01*
X175522871Y-91032404D01*
X175522873Y-91032403D01*
X175670090Y-91003120D01*
X175820190Y-91003120D01*
X175967407Y-91032403D01*
G37*
G36*
X183587407Y-91032403D02*
G01*
X183587409Y-91032404D01*
X183587410Y-91032404D01*
X183726082Y-91089843D01*
X183788484Y-91131540D01*
X183850887Y-91173236D01*
X183957024Y-91279373D01*
X183998720Y-91341776D01*
X184040417Y-91404178D01*
X184097856Y-91542850D01*
X184127140Y-91690071D01*
X184127140Y-91840169D01*
X184097856Y-91987390D01*
X184040417Y-92126062D01*
X183998720Y-92188465D01*
X183957024Y-92250867D01*
X183850887Y-92357004D01*
X183788484Y-92398700D01*
X183726082Y-92440397D01*
X183587410Y-92497836D01*
X183587409Y-92497836D01*
X183587407Y-92497837D01*
X183440190Y-92527120D01*
X183290090Y-92527120D01*
X183142873Y-92497837D01*
X183142871Y-92497836D01*
X183142870Y-92497836D01*
X183004198Y-92440397D01*
X182941796Y-92398700D01*
X182879393Y-92357004D01*
X182773256Y-92250867D01*
X182731560Y-92188465D01*
X182689863Y-92126062D01*
X182632424Y-91987390D01*
X182603140Y-91840169D01*
X182603140Y-91690071D01*
X182632424Y-91542850D01*
X182689863Y-91404178D01*
X182731560Y-91341776D01*
X182773256Y-91279373D01*
X182879393Y-91173236D01*
X182941796Y-91131540D01*
X183004198Y-91089843D01*
X183142870Y-91032404D01*
X183142871Y-91032404D01*
X183142873Y-91032403D01*
X183290090Y-91003120D01*
X183440190Y-91003120D01*
X183587407Y-91032403D01*
G37*
G36*
X178507407Y-91032403D02*
G01*
X178507409Y-91032404D01*
X178507410Y-91032404D01*
X178646082Y-91089843D01*
X178708484Y-91131540D01*
X178770887Y-91173236D01*
X178877024Y-91279373D01*
X178918720Y-91341776D01*
X178960417Y-91404178D01*
X179017856Y-91542850D01*
X179047140Y-91690071D01*
X179047140Y-91840169D01*
X179017856Y-91987390D01*
X178960417Y-92126062D01*
X178918720Y-92188465D01*
X178877024Y-92250867D01*
X178770887Y-92357004D01*
X178708484Y-92398700D01*
X178646082Y-92440397D01*
X178507410Y-92497836D01*
X178507409Y-92497836D01*
X178507407Y-92497837D01*
X178360190Y-92527120D01*
X178210090Y-92527120D01*
X178062873Y-92497837D01*
X178062871Y-92497836D01*
X178062870Y-92497836D01*
X177924198Y-92440397D01*
X177861796Y-92398700D01*
X177799393Y-92357004D01*
X177693256Y-92250867D01*
X177651560Y-92188465D01*
X177609863Y-92126062D01*
X177552424Y-91987390D01*
X177523140Y-91840169D01*
X177523140Y-91690071D01*
X177552424Y-91542850D01*
X177609863Y-91404178D01*
X177651560Y-91341776D01*
X177693256Y-91279373D01*
X177799393Y-91173236D01*
X177861796Y-91131540D01*
X177924198Y-91089843D01*
X178062870Y-91032404D01*
X178062871Y-91032404D01*
X178062873Y-91032403D01*
X178210090Y-91003120D01*
X178360190Y-91003120D01*
X178507407Y-91032403D01*
G37*
G36*
X181047407Y-91032403D02*
G01*
X181047409Y-91032404D01*
X181047410Y-91032404D01*
X181186082Y-91089843D01*
X181248484Y-91131540D01*
X181310887Y-91173236D01*
X181417024Y-91279373D01*
X181458720Y-91341776D01*
X181500417Y-91404178D01*
X181557856Y-91542850D01*
X181587140Y-91690071D01*
X181587140Y-91840169D01*
X181557856Y-91987390D01*
X181500417Y-92126062D01*
X181458720Y-92188465D01*
X181417024Y-92250867D01*
X181310887Y-92357004D01*
X181248484Y-92398700D01*
X181186082Y-92440397D01*
X181047410Y-92497836D01*
X181047409Y-92497836D01*
X181047407Y-92497837D01*
X180900190Y-92527120D01*
X180750090Y-92527120D01*
X180602873Y-92497837D01*
X180602871Y-92497836D01*
X180602870Y-92497836D01*
X180464198Y-92440397D01*
X180401796Y-92398700D01*
X180339393Y-92357004D01*
X180233256Y-92250867D01*
X180191560Y-92188465D01*
X180149863Y-92126062D01*
X180092424Y-91987390D01*
X180063140Y-91840169D01*
X180063140Y-91690071D01*
X180092424Y-91542850D01*
X180149863Y-91404178D01*
X180191560Y-91341776D01*
X180233256Y-91279373D01*
X180339393Y-91173236D01*
X180401796Y-91131540D01*
X180464198Y-91089843D01*
X180602870Y-91032404D01*
X180602871Y-91032404D01*
X180602873Y-91032403D01*
X180750090Y-91003120D01*
X180900190Y-91003120D01*
X181047407Y-91032403D01*
G37*
G36*
X186127407Y-91032403D02*
G01*
X186127409Y-91032404D01*
X186127410Y-91032404D01*
X186266082Y-91089843D01*
X186328484Y-91131540D01*
X186390887Y-91173236D01*
X186497024Y-91279373D01*
X186538720Y-91341776D01*
X186580417Y-91404178D01*
X186637856Y-91542850D01*
X186667140Y-91690071D01*
X186667140Y-91840169D01*
X186637856Y-91987390D01*
X186580417Y-92126062D01*
X186538720Y-92188465D01*
X186497024Y-92250867D01*
X186390887Y-92357004D01*
X186328484Y-92398700D01*
X186266082Y-92440397D01*
X186127410Y-92497836D01*
X186127409Y-92497836D01*
X186127407Y-92497837D01*
X185980190Y-92527120D01*
X185830090Y-92527120D01*
X185682873Y-92497837D01*
X185682871Y-92497836D01*
X185682870Y-92497836D01*
X185544198Y-92440397D01*
X185481796Y-92398700D01*
X185419393Y-92357004D01*
X185313256Y-92250867D01*
X185271560Y-92188465D01*
X185229863Y-92126062D01*
X185172424Y-91987390D01*
X185143140Y-91840169D01*
X185143140Y-91690071D01*
X185172424Y-91542850D01*
X185229863Y-91404178D01*
X185271560Y-91341776D01*
X185313256Y-91279373D01*
X185419393Y-91173236D01*
X185481796Y-91131540D01*
X185544198Y-91089843D01*
X185682870Y-91032404D01*
X185682871Y-91032404D01*
X185682873Y-91032403D01*
X185830090Y-91003120D01*
X185980190Y-91003120D01*
X186127407Y-91032403D01*
G37*
G36*
X173427407Y-91032403D02*
G01*
X173427409Y-91032404D01*
X173427410Y-91032404D01*
X173566082Y-91089843D01*
X173628484Y-91131540D01*
X173690887Y-91173236D01*
X173797024Y-91279373D01*
X173838720Y-91341776D01*
X173880417Y-91404178D01*
X173937856Y-91542850D01*
X173967140Y-91690071D01*
X173967140Y-91840169D01*
X173937856Y-91987390D01*
X173880417Y-92126062D01*
X173838720Y-92188465D01*
X173797024Y-92250867D01*
X173690887Y-92357004D01*
X173628484Y-92398700D01*
X173566082Y-92440397D01*
X173427410Y-92497836D01*
X173427409Y-92497836D01*
X173427407Y-92497837D01*
X173280190Y-92527120D01*
X173130090Y-92527120D01*
X172982873Y-92497837D01*
X172982871Y-92497836D01*
X172982870Y-92497836D01*
X172844198Y-92440397D01*
X172781796Y-92398700D01*
X172719393Y-92357004D01*
X172613256Y-92250867D01*
X172571560Y-92188465D01*
X172529863Y-92126062D01*
X172472424Y-91987390D01*
X172443140Y-91840169D01*
X172443140Y-91690071D01*
X172472424Y-91542850D01*
X172529863Y-91404178D01*
X172571560Y-91341776D01*
X172613256Y-91279373D01*
X172719393Y-91173236D01*
X172781796Y-91131540D01*
X172844198Y-91089843D01*
X172982870Y-91032404D01*
X172982871Y-91032404D01*
X172982873Y-91032403D01*
X173130090Y-91003120D01*
X173280190Y-91003120D01*
X173427407Y-91032403D01*
G37*
G36*
X188667407Y-91032403D02*
G01*
X188667409Y-91032404D01*
X188667410Y-91032404D01*
X188806082Y-91089843D01*
X188868484Y-91131540D01*
X188930887Y-91173236D01*
X189037024Y-91279373D01*
X189078720Y-91341776D01*
X189120417Y-91404178D01*
X189177856Y-91542850D01*
X189207140Y-91690071D01*
X189207140Y-91840169D01*
X189177856Y-91987390D01*
X189120417Y-92126062D01*
X189078720Y-92188465D01*
X189037024Y-92250867D01*
X188930887Y-92357004D01*
X188868484Y-92398700D01*
X188806082Y-92440397D01*
X188667410Y-92497836D01*
X188667409Y-92497836D01*
X188667407Y-92497837D01*
X188520190Y-92527120D01*
X188370090Y-92527120D01*
X188222873Y-92497837D01*
X188222871Y-92497836D01*
X188222870Y-92497836D01*
X188084198Y-92440397D01*
X188021796Y-92398700D01*
X187959393Y-92357004D01*
X187853256Y-92250867D01*
X187811560Y-92188465D01*
X187769863Y-92126062D01*
X187712424Y-91987390D01*
X187683140Y-91840169D01*
X187683140Y-91690071D01*
X187712424Y-91542850D01*
X187769863Y-91404178D01*
X187811560Y-91341776D01*
X187853256Y-91279373D01*
X187959393Y-91173236D01*
X188021796Y-91131540D01*
X188084198Y-91089843D01*
X188222870Y-91032404D01*
X188222871Y-91032404D01*
X188222873Y-91032403D01*
X188370090Y-91003120D01*
X188520190Y-91003120D01*
X188667407Y-91032403D01*
G37*
G36*
X188667407Y-88492403D02*
G01*
X188667409Y-88492404D01*
X188667410Y-88492404D01*
X188806082Y-88549843D01*
X188868484Y-88591540D01*
X188930887Y-88633236D01*
X189037024Y-88739373D01*
X189078720Y-88801775D01*
X189120417Y-88864178D01*
X189177856Y-89002850D01*
X189207140Y-89150071D01*
X189207140Y-89300169D01*
X189177856Y-89447390D01*
X189120417Y-89586062D01*
X189078720Y-89648464D01*
X189037024Y-89710867D01*
X188930887Y-89817004D01*
X188868484Y-89858700D01*
X188806082Y-89900397D01*
X188667410Y-89957836D01*
X188667409Y-89957836D01*
X188667407Y-89957837D01*
X188520190Y-89987120D01*
X188370090Y-89987120D01*
X188222873Y-89957837D01*
X188222871Y-89957836D01*
X188222870Y-89957836D01*
X188084198Y-89900397D01*
X188021795Y-89858700D01*
X187959393Y-89817004D01*
X187853256Y-89710867D01*
X187811560Y-89648465D01*
X187769863Y-89586062D01*
X187712424Y-89447390D01*
X187683140Y-89300169D01*
X187683140Y-89150071D01*
X187712424Y-89002850D01*
X187769863Y-88864178D01*
X187811560Y-88801775D01*
X187853256Y-88739373D01*
X187959393Y-88633236D01*
X188021796Y-88591540D01*
X188084198Y-88549843D01*
X188222870Y-88492404D01*
X188222871Y-88492404D01*
X188222873Y-88492403D01*
X188370090Y-88463120D01*
X188520190Y-88463120D01*
X188667407Y-88492403D01*
G37*
G36*
X173427407Y-88492403D02*
G01*
X173427409Y-88492404D01*
X173427410Y-88492404D01*
X173566082Y-88549843D01*
X173628484Y-88591540D01*
X173690887Y-88633236D01*
X173797024Y-88739373D01*
X173838720Y-88801775D01*
X173880417Y-88864178D01*
X173937856Y-89002850D01*
X173967140Y-89150071D01*
X173967140Y-89300169D01*
X173937856Y-89447390D01*
X173880417Y-89586062D01*
X173838720Y-89648464D01*
X173797024Y-89710867D01*
X173690887Y-89817004D01*
X173628484Y-89858700D01*
X173566082Y-89900397D01*
X173427410Y-89957836D01*
X173427409Y-89957836D01*
X173427407Y-89957837D01*
X173280190Y-89987120D01*
X173130090Y-89987120D01*
X172982873Y-89957837D01*
X172982871Y-89957836D01*
X172982870Y-89957836D01*
X172844198Y-89900397D01*
X172781795Y-89858700D01*
X172719393Y-89817004D01*
X172613256Y-89710867D01*
X172571560Y-89648465D01*
X172529863Y-89586062D01*
X172472424Y-89447390D01*
X172443140Y-89300169D01*
X172443140Y-89150071D01*
X172472424Y-89002850D01*
X172529863Y-88864178D01*
X172571560Y-88801775D01*
X172613256Y-88739373D01*
X172719393Y-88633236D01*
X172781796Y-88591540D01*
X172844198Y-88549843D01*
X172982870Y-88492404D01*
X172982871Y-88492404D01*
X172982873Y-88492403D01*
X173130090Y-88463120D01*
X173280190Y-88463120D01*
X173427407Y-88492403D01*
G37*
G36*
X175967407Y-88492403D02*
G01*
X175967409Y-88492404D01*
X175967410Y-88492404D01*
X176106082Y-88549843D01*
X176168484Y-88591540D01*
X176230887Y-88633236D01*
X176337024Y-88739373D01*
X176378720Y-88801775D01*
X176420417Y-88864178D01*
X176477856Y-89002850D01*
X176507140Y-89150071D01*
X176507140Y-89300169D01*
X176477856Y-89447390D01*
X176420417Y-89586062D01*
X176378720Y-89648464D01*
X176337024Y-89710867D01*
X176230887Y-89817004D01*
X176168484Y-89858700D01*
X176106082Y-89900397D01*
X175967410Y-89957836D01*
X175967409Y-89957836D01*
X175967407Y-89957837D01*
X175820190Y-89987120D01*
X175670090Y-89987120D01*
X175522873Y-89957837D01*
X175522871Y-89957836D01*
X175522870Y-89957836D01*
X175384198Y-89900397D01*
X175321795Y-89858700D01*
X175259393Y-89817004D01*
X175153256Y-89710867D01*
X175111560Y-89648465D01*
X175069863Y-89586062D01*
X175012424Y-89447390D01*
X174983140Y-89300169D01*
X174983140Y-89150071D01*
X175012424Y-89002850D01*
X175069863Y-88864178D01*
X175111560Y-88801775D01*
X175153256Y-88739373D01*
X175259393Y-88633236D01*
X175321796Y-88591540D01*
X175384198Y-88549843D01*
X175522870Y-88492404D01*
X175522871Y-88492404D01*
X175522873Y-88492403D01*
X175670090Y-88463120D01*
X175820190Y-88463120D01*
X175967407Y-88492403D01*
G37*
G36*
X186127407Y-88492403D02*
G01*
X186127409Y-88492404D01*
X186127410Y-88492404D01*
X186266082Y-88549843D01*
X186328484Y-88591540D01*
X186390887Y-88633236D01*
X186497024Y-88739373D01*
X186538720Y-88801775D01*
X186580417Y-88864178D01*
X186637856Y-89002850D01*
X186667140Y-89150071D01*
X186667140Y-89300169D01*
X186637856Y-89447390D01*
X186580417Y-89586062D01*
X186538720Y-89648464D01*
X186497024Y-89710867D01*
X186390887Y-89817004D01*
X186328484Y-89858700D01*
X186266082Y-89900397D01*
X186127410Y-89957836D01*
X186127409Y-89957836D01*
X186127407Y-89957837D01*
X185980190Y-89987120D01*
X185830090Y-89987120D01*
X185682873Y-89957837D01*
X185682871Y-89957836D01*
X185682870Y-89957836D01*
X185544198Y-89900397D01*
X185481795Y-89858700D01*
X185419393Y-89817004D01*
X185313256Y-89710867D01*
X185271560Y-89648465D01*
X185229863Y-89586062D01*
X185172424Y-89447390D01*
X185143140Y-89300169D01*
X185143140Y-89150071D01*
X185172424Y-89002850D01*
X185229863Y-88864178D01*
X185271560Y-88801775D01*
X185313256Y-88739373D01*
X185419393Y-88633236D01*
X185481796Y-88591540D01*
X185544198Y-88549843D01*
X185682870Y-88492404D01*
X185682871Y-88492404D01*
X185682873Y-88492403D01*
X185830090Y-88463120D01*
X185980190Y-88463120D01*
X186127407Y-88492403D01*
G37*
G36*
X188667407Y-85952403D02*
G01*
X188667409Y-85952404D01*
X188667410Y-85952404D01*
X188806082Y-86009843D01*
X188868485Y-86051540D01*
X188930887Y-86093236D01*
X189037024Y-86199373D01*
X189078720Y-86261776D01*
X189120417Y-86324178D01*
X189177856Y-86462850D01*
X189207140Y-86610071D01*
X189207140Y-86760169D01*
X189177856Y-86907390D01*
X189120417Y-87046062D01*
X189078720Y-87108465D01*
X189037024Y-87170867D01*
X188930887Y-87277004D01*
X188868485Y-87318700D01*
X188806082Y-87360397D01*
X188667410Y-87417836D01*
X188667409Y-87417836D01*
X188667407Y-87417837D01*
X188520190Y-87447120D01*
X188370090Y-87447120D01*
X188222873Y-87417837D01*
X188222871Y-87417836D01*
X188222870Y-87417836D01*
X188084198Y-87360397D01*
X188021795Y-87318700D01*
X187959393Y-87277004D01*
X187853256Y-87170867D01*
X187811560Y-87108465D01*
X187769863Y-87046062D01*
X187712424Y-86907390D01*
X187683140Y-86760169D01*
X187683140Y-86610071D01*
X187712424Y-86462850D01*
X187769863Y-86324178D01*
X187811560Y-86261776D01*
X187853256Y-86199373D01*
X187959393Y-86093236D01*
X188021795Y-86051540D01*
X188084198Y-86009843D01*
X188222870Y-85952404D01*
X188222871Y-85952404D01*
X188222873Y-85952403D01*
X188370090Y-85923120D01*
X188520190Y-85923120D01*
X188667407Y-85952403D01*
G37*
G36*
X176507140Y-87447120D02*
G01*
X174983140Y-87447120D01*
X174983140Y-85923120D01*
X176507140Y-85923120D01*
X176507140Y-87447120D01*
G37*
G36*
X173427407Y-85952403D02*
G01*
X173427409Y-85952404D01*
X173427410Y-85952404D01*
X173566082Y-86009843D01*
X173628485Y-86051540D01*
X173690887Y-86093236D01*
X173797024Y-86199373D01*
X173838720Y-86261776D01*
X173880417Y-86324178D01*
X173937856Y-86462850D01*
X173967140Y-86610071D01*
X173967140Y-86760169D01*
X173937856Y-86907390D01*
X173880417Y-87046062D01*
X173838720Y-87108465D01*
X173797024Y-87170867D01*
X173690887Y-87277004D01*
X173628485Y-87318700D01*
X173566082Y-87360397D01*
X173427410Y-87417836D01*
X173427409Y-87417836D01*
X173427407Y-87417837D01*
X173280190Y-87447120D01*
X173130090Y-87447120D01*
X172982873Y-87417837D01*
X172982871Y-87417836D01*
X172982870Y-87417836D01*
X172844198Y-87360397D01*
X172781795Y-87318700D01*
X172719393Y-87277004D01*
X172613256Y-87170867D01*
X172571560Y-87108465D01*
X172529863Y-87046062D01*
X172472424Y-86907390D01*
X172443140Y-86760169D01*
X172443140Y-86610071D01*
X172472424Y-86462850D01*
X172529863Y-86324178D01*
X172571560Y-86261776D01*
X172613256Y-86199373D01*
X172719393Y-86093236D01*
X172781795Y-86051540D01*
X172844198Y-86009843D01*
X172982870Y-85952404D01*
X172982871Y-85952404D01*
X172982873Y-85952403D01*
X173130090Y-85923120D01*
X173280190Y-85923120D01*
X173427407Y-85952403D01*
G37*
G36*
X186127407Y-85952403D02*
G01*
X186127409Y-85952404D01*
X186127410Y-85952404D01*
X186266082Y-86009843D01*
X186328485Y-86051540D01*
X186390887Y-86093236D01*
X186497024Y-86199373D01*
X186538720Y-86261776D01*
X186580417Y-86324178D01*
X186637856Y-86462850D01*
X186667140Y-86610071D01*
X186667140Y-86760169D01*
X186637856Y-86907390D01*
X186580417Y-87046062D01*
X186538720Y-87108465D01*
X186497024Y-87170867D01*
X186390887Y-87277004D01*
X186328485Y-87318700D01*
X186266082Y-87360397D01*
X186127410Y-87417836D01*
X186127409Y-87417836D01*
X186127407Y-87417837D01*
X185980190Y-87447120D01*
X185830090Y-87447120D01*
X185682873Y-87417837D01*
X185682871Y-87417836D01*
X185682870Y-87417836D01*
X185544198Y-87360397D01*
X185481795Y-87318700D01*
X185419393Y-87277004D01*
X185313256Y-87170867D01*
X185271560Y-87108465D01*
X185229863Y-87046062D01*
X185172424Y-86907390D01*
X185143140Y-86760169D01*
X185143140Y-86610071D01*
X185172424Y-86462850D01*
X185229863Y-86324178D01*
X185271560Y-86261776D01*
X185313256Y-86199373D01*
X185419393Y-86093236D01*
X185481795Y-86051540D01*
X185544198Y-86009843D01*
X185682870Y-85952404D01*
X185682871Y-85952404D01*
X185682873Y-85952403D01*
X185830090Y-85923120D01*
X185980190Y-85923120D01*
X186127407Y-85952403D01*
G37*
G36*
X175967407Y-83412403D02*
G01*
X175967409Y-83412404D01*
X175967410Y-83412404D01*
X176106082Y-83469843D01*
X176168485Y-83511540D01*
X176230887Y-83553236D01*
X176337024Y-83659373D01*
X176378720Y-83721776D01*
X176420417Y-83784178D01*
X176477856Y-83922850D01*
X176507140Y-84070071D01*
X176507140Y-84220169D01*
X176477856Y-84367390D01*
X176420417Y-84506062D01*
X176378720Y-84568465D01*
X176337024Y-84630867D01*
X176230887Y-84737004D01*
X176168485Y-84778700D01*
X176106082Y-84820397D01*
X175967410Y-84877836D01*
X175967409Y-84877836D01*
X175967407Y-84877837D01*
X175820190Y-84907120D01*
X175670090Y-84907120D01*
X175522873Y-84877837D01*
X175522871Y-84877836D01*
X175522870Y-84877836D01*
X175384198Y-84820397D01*
X175321795Y-84778700D01*
X175259393Y-84737004D01*
X175153256Y-84630867D01*
X175111560Y-84568465D01*
X175069863Y-84506062D01*
X175012424Y-84367390D01*
X174983140Y-84220169D01*
X174983140Y-84070071D01*
X175012424Y-83922850D01*
X175069863Y-83784178D01*
X175111560Y-83721775D01*
X175153256Y-83659373D01*
X175259393Y-83553236D01*
X175321795Y-83511540D01*
X175384198Y-83469843D01*
X175522870Y-83412404D01*
X175522871Y-83412404D01*
X175522873Y-83412403D01*
X175670090Y-83383120D01*
X175820190Y-83383120D01*
X175967407Y-83412403D01*
G37*
G36*
X188667407Y-83412403D02*
G01*
X188667409Y-83412404D01*
X188667410Y-83412404D01*
X188806082Y-83469843D01*
X188868485Y-83511540D01*
X188930887Y-83553236D01*
X189037024Y-83659373D01*
X189078720Y-83721776D01*
X189120417Y-83784178D01*
X189177856Y-83922850D01*
X189207140Y-84070071D01*
X189207140Y-84220169D01*
X189177856Y-84367390D01*
X189120417Y-84506062D01*
X189078720Y-84568465D01*
X189037024Y-84630867D01*
X188930887Y-84737004D01*
X188868485Y-84778700D01*
X188806082Y-84820397D01*
X188667410Y-84877836D01*
X188667409Y-84877836D01*
X188667407Y-84877837D01*
X188520190Y-84907120D01*
X188370090Y-84907120D01*
X188222873Y-84877837D01*
X188222871Y-84877836D01*
X188222870Y-84877836D01*
X188084198Y-84820397D01*
X188021795Y-84778700D01*
X187959393Y-84737004D01*
X187853256Y-84630867D01*
X187811560Y-84568465D01*
X187769863Y-84506062D01*
X187712424Y-84367390D01*
X187683140Y-84220169D01*
X187683140Y-84070071D01*
X187712424Y-83922850D01*
X187769863Y-83784178D01*
X187811560Y-83721775D01*
X187853256Y-83659373D01*
X187959393Y-83553236D01*
X188021795Y-83511540D01*
X188084198Y-83469843D01*
X188222870Y-83412404D01*
X188222871Y-83412404D01*
X188222873Y-83412403D01*
X188370090Y-83383120D01*
X188520190Y-83383120D01*
X188667407Y-83412403D01*
G37*
G36*
X173427407Y-83412403D02*
G01*
X173427409Y-83412404D01*
X173427410Y-83412404D01*
X173566082Y-83469843D01*
X173628485Y-83511540D01*
X173690887Y-83553236D01*
X173797024Y-83659373D01*
X173838720Y-83721776D01*
X173880417Y-83784178D01*
X173937856Y-83922850D01*
X173967140Y-84070071D01*
X173967140Y-84220169D01*
X173937856Y-84367390D01*
X173880417Y-84506062D01*
X173838720Y-84568465D01*
X173797024Y-84630867D01*
X173690887Y-84737004D01*
X173628485Y-84778700D01*
X173566082Y-84820397D01*
X173427410Y-84877836D01*
X173427409Y-84877836D01*
X173427407Y-84877837D01*
X173280190Y-84907120D01*
X173130090Y-84907120D01*
X172982873Y-84877837D01*
X172982871Y-84877836D01*
X172982870Y-84877836D01*
X172844198Y-84820397D01*
X172781795Y-84778700D01*
X172719393Y-84737004D01*
X172613256Y-84630867D01*
X172571560Y-84568465D01*
X172529863Y-84506062D01*
X172472424Y-84367390D01*
X172443140Y-84220169D01*
X172443140Y-84070071D01*
X172472424Y-83922850D01*
X172529863Y-83784178D01*
X172571560Y-83721775D01*
X172613256Y-83659373D01*
X172719393Y-83553236D01*
X172781795Y-83511540D01*
X172844198Y-83469843D01*
X172982870Y-83412404D01*
X172982871Y-83412404D01*
X172982873Y-83412403D01*
X173130090Y-83383120D01*
X173280190Y-83383120D01*
X173427407Y-83412403D01*
G37*
G36*
X178507407Y-83412403D02*
G01*
X178507409Y-83412404D01*
X178507410Y-83412404D01*
X178646082Y-83469843D01*
X178708485Y-83511540D01*
X178770887Y-83553236D01*
X178877024Y-83659373D01*
X178918720Y-83721776D01*
X178960417Y-83784178D01*
X179017856Y-83922850D01*
X179047140Y-84070071D01*
X179047140Y-84220169D01*
X179017856Y-84367390D01*
X178960417Y-84506062D01*
X178918720Y-84568465D01*
X178877024Y-84630867D01*
X178770887Y-84737004D01*
X178708485Y-84778700D01*
X178646082Y-84820397D01*
X178507410Y-84877836D01*
X178507409Y-84877836D01*
X178507407Y-84877837D01*
X178360190Y-84907120D01*
X178210090Y-84907120D01*
X178062873Y-84877837D01*
X178062871Y-84877836D01*
X178062870Y-84877836D01*
X177924198Y-84820397D01*
X177861795Y-84778700D01*
X177799393Y-84737004D01*
X177693256Y-84630867D01*
X177651560Y-84568465D01*
X177609863Y-84506062D01*
X177552424Y-84367390D01*
X177523140Y-84220169D01*
X177523140Y-84070071D01*
X177552424Y-83922850D01*
X177609863Y-83784178D01*
X177651560Y-83721775D01*
X177693256Y-83659373D01*
X177799393Y-83553236D01*
X177861795Y-83511540D01*
X177924198Y-83469843D01*
X178062870Y-83412404D01*
X178062871Y-83412404D01*
X178062873Y-83412403D01*
X178210090Y-83383120D01*
X178360190Y-83383120D01*
X178507407Y-83412403D01*
G37*
G36*
X181047407Y-83412403D02*
G01*
X181047409Y-83412404D01*
X181047410Y-83412404D01*
X181186082Y-83469843D01*
X181248485Y-83511540D01*
X181310887Y-83553236D01*
X181417024Y-83659373D01*
X181458720Y-83721776D01*
X181500417Y-83784178D01*
X181557856Y-83922850D01*
X181587140Y-84070071D01*
X181587140Y-84220169D01*
X181557856Y-84367390D01*
X181500417Y-84506062D01*
X181458720Y-84568465D01*
X181417024Y-84630867D01*
X181310887Y-84737004D01*
X181248485Y-84778700D01*
X181186082Y-84820397D01*
X181047410Y-84877836D01*
X181047409Y-84877836D01*
X181047407Y-84877837D01*
X180900190Y-84907120D01*
X180750090Y-84907120D01*
X180602873Y-84877837D01*
X180602871Y-84877836D01*
X180602870Y-84877836D01*
X180464198Y-84820397D01*
X180401795Y-84778700D01*
X180339393Y-84737004D01*
X180233256Y-84630867D01*
X180191560Y-84568465D01*
X180149863Y-84506062D01*
X180092424Y-84367390D01*
X180063140Y-84220169D01*
X180063140Y-84070071D01*
X180092424Y-83922850D01*
X180149863Y-83784178D01*
X180191560Y-83721775D01*
X180233256Y-83659373D01*
X180339393Y-83553236D01*
X180401795Y-83511540D01*
X180464198Y-83469843D01*
X180602870Y-83412404D01*
X180602871Y-83412404D01*
X180602873Y-83412403D01*
X180750090Y-83383120D01*
X180900190Y-83383120D01*
X181047407Y-83412403D01*
G37*
G36*
X183587407Y-83412403D02*
G01*
X183587409Y-83412404D01*
X183587410Y-83412404D01*
X183726082Y-83469843D01*
X183788485Y-83511540D01*
X183850887Y-83553236D01*
X183957024Y-83659373D01*
X183998720Y-83721776D01*
X184040417Y-83784178D01*
X184097856Y-83922850D01*
X184127140Y-84070071D01*
X184127140Y-84220169D01*
X184097856Y-84367390D01*
X184040417Y-84506062D01*
X183998720Y-84568465D01*
X183957024Y-84630867D01*
X183850887Y-84737004D01*
X183788485Y-84778700D01*
X183726082Y-84820397D01*
X183587410Y-84877836D01*
X183587409Y-84877836D01*
X183587407Y-84877837D01*
X183440190Y-84907120D01*
X183290090Y-84907120D01*
X183142873Y-84877837D01*
X183142871Y-84877836D01*
X183142870Y-84877836D01*
X183004198Y-84820397D01*
X182941795Y-84778700D01*
X182879393Y-84737004D01*
X182773256Y-84630867D01*
X182731560Y-84568465D01*
X182689863Y-84506062D01*
X182632424Y-84367390D01*
X182603140Y-84220169D01*
X182603140Y-84070071D01*
X182632424Y-83922850D01*
X182689863Y-83784178D01*
X182731560Y-83721775D01*
X182773256Y-83659373D01*
X182879393Y-83553236D01*
X182941795Y-83511540D01*
X183004198Y-83469843D01*
X183142870Y-83412404D01*
X183142871Y-83412404D01*
X183142873Y-83412403D01*
X183290090Y-83383120D01*
X183440190Y-83383120D01*
X183587407Y-83412403D01*
G37*
G36*
X186127407Y-83412403D02*
G01*
X186127409Y-83412404D01*
X186127410Y-83412404D01*
X186266082Y-83469843D01*
X186328485Y-83511540D01*
X186390887Y-83553236D01*
X186497024Y-83659373D01*
X186538720Y-83721776D01*
X186580417Y-83784178D01*
X186637856Y-83922850D01*
X186667140Y-84070071D01*
X186667140Y-84220169D01*
X186637856Y-84367390D01*
X186580417Y-84506062D01*
X186538720Y-84568465D01*
X186497024Y-84630867D01*
X186390887Y-84737004D01*
X186328485Y-84778700D01*
X186266082Y-84820397D01*
X186127410Y-84877836D01*
X186127409Y-84877836D01*
X186127407Y-84877837D01*
X185980190Y-84907120D01*
X185830090Y-84907120D01*
X185682873Y-84877837D01*
X185682871Y-84877836D01*
X185682870Y-84877836D01*
X185544198Y-84820397D01*
X185481795Y-84778700D01*
X185419393Y-84737004D01*
X185313256Y-84630867D01*
X185271560Y-84568465D01*
X185229863Y-84506062D01*
X185172424Y-84367390D01*
X185143140Y-84220169D01*
X185143140Y-84070071D01*
X185172424Y-83922850D01*
X185229863Y-83784178D01*
X185271560Y-83721775D01*
X185313256Y-83659373D01*
X185419393Y-83553236D01*
X185481795Y-83511540D01*
X185544198Y-83469843D01*
X185682870Y-83412404D01*
X185682871Y-83412404D01*
X185682873Y-83412403D01*
X185830090Y-83383120D01*
X185980190Y-83383120D01*
X186127407Y-83412403D01*
G37*
G36*
X181047407Y-80872403D02*
G01*
X181047409Y-80872404D01*
X181047410Y-80872404D01*
X181186082Y-80929843D01*
X181248484Y-80971540D01*
X181310887Y-81013236D01*
X181417024Y-81119373D01*
X181458720Y-81181776D01*
X181500417Y-81244178D01*
X181557856Y-81382850D01*
X181587140Y-81530071D01*
X181587140Y-81680169D01*
X181557856Y-81827390D01*
X181500417Y-81966062D01*
X181458720Y-82028465D01*
X181417024Y-82090867D01*
X181310887Y-82197004D01*
X181248484Y-82238700D01*
X181186082Y-82280397D01*
X181047410Y-82337836D01*
X181047409Y-82337836D01*
X181047407Y-82337837D01*
X180900190Y-82367120D01*
X180750090Y-82367120D01*
X180602873Y-82337837D01*
X180602871Y-82337836D01*
X180602870Y-82337836D01*
X180464198Y-82280397D01*
X180401795Y-82238700D01*
X180339393Y-82197004D01*
X180233256Y-82090867D01*
X180191560Y-82028465D01*
X180149863Y-81966062D01*
X180092424Y-81827390D01*
X180063140Y-81680169D01*
X180063140Y-81530071D01*
X180092424Y-81382850D01*
X180149863Y-81244178D01*
X180191560Y-81181776D01*
X180233256Y-81119373D01*
X180339393Y-81013236D01*
X180401796Y-80971540D01*
X180464198Y-80929843D01*
X180602870Y-80872404D01*
X180602871Y-80872404D01*
X180602873Y-80872403D01*
X180750090Y-80843120D01*
X180900190Y-80843120D01*
X181047407Y-80872403D01*
G37*
G36*
X175967407Y-80872403D02*
G01*
X175967409Y-80872404D01*
X175967410Y-80872404D01*
X176106082Y-80929843D01*
X176168484Y-80971540D01*
X176230887Y-81013236D01*
X176337024Y-81119373D01*
X176378720Y-81181776D01*
X176420417Y-81244178D01*
X176477856Y-81382850D01*
X176507140Y-81530071D01*
X176507140Y-81680169D01*
X176477856Y-81827390D01*
X176420417Y-81966062D01*
X176378720Y-82028465D01*
X176337024Y-82090867D01*
X176230887Y-82197004D01*
X176168484Y-82238700D01*
X176106082Y-82280397D01*
X175967410Y-82337836D01*
X175967409Y-82337836D01*
X175967407Y-82337837D01*
X175820190Y-82367120D01*
X175670090Y-82367120D01*
X175522873Y-82337837D01*
X175522871Y-82337836D01*
X175522870Y-82337836D01*
X175384198Y-82280397D01*
X175321795Y-82238700D01*
X175259393Y-82197004D01*
X175153256Y-82090867D01*
X175111560Y-82028465D01*
X175069863Y-81966062D01*
X175012424Y-81827390D01*
X174983140Y-81680169D01*
X174983140Y-81530071D01*
X175012424Y-81382850D01*
X175069863Y-81244178D01*
X175111560Y-81181776D01*
X175153256Y-81119373D01*
X175259393Y-81013236D01*
X175321796Y-80971540D01*
X175384198Y-80929843D01*
X175522870Y-80872404D01*
X175522871Y-80872404D01*
X175522873Y-80872403D01*
X175670090Y-80843120D01*
X175820190Y-80843120D01*
X175967407Y-80872403D01*
G37*
G36*
X178507407Y-80872403D02*
G01*
X178507409Y-80872404D01*
X178507410Y-80872404D01*
X178646082Y-80929843D01*
X178708484Y-80971540D01*
X178770887Y-81013236D01*
X178877024Y-81119373D01*
X178918720Y-81181776D01*
X178960417Y-81244178D01*
X179017856Y-81382850D01*
X179047140Y-81530071D01*
X179047140Y-81680169D01*
X179017856Y-81827390D01*
X178960417Y-81966062D01*
X178918720Y-82028465D01*
X178877024Y-82090867D01*
X178770887Y-82197004D01*
X178708484Y-82238700D01*
X178646082Y-82280397D01*
X178507410Y-82337836D01*
X178507409Y-82337836D01*
X178507407Y-82337837D01*
X178360190Y-82367120D01*
X178210090Y-82367120D01*
X178062873Y-82337837D01*
X178062871Y-82337836D01*
X178062870Y-82337836D01*
X177924198Y-82280397D01*
X177861795Y-82238700D01*
X177799393Y-82197004D01*
X177693256Y-82090867D01*
X177651560Y-82028465D01*
X177609863Y-81966062D01*
X177552424Y-81827390D01*
X177523140Y-81680169D01*
X177523140Y-81530071D01*
X177552424Y-81382850D01*
X177609863Y-81244178D01*
X177651560Y-81181776D01*
X177693256Y-81119373D01*
X177799393Y-81013236D01*
X177861796Y-80971540D01*
X177924198Y-80929843D01*
X178062870Y-80872404D01*
X178062871Y-80872404D01*
X178062873Y-80872403D01*
X178210090Y-80843120D01*
X178360190Y-80843120D01*
X178507407Y-80872403D01*
G37*
G36*
X183587407Y-80872403D02*
G01*
X183587409Y-80872404D01*
X183587410Y-80872404D01*
X183726082Y-80929843D01*
X183788484Y-80971540D01*
X183850887Y-81013236D01*
X183957024Y-81119373D01*
X183998720Y-81181776D01*
X184040417Y-81244178D01*
X184097856Y-81382850D01*
X184127140Y-81530071D01*
X184127140Y-81680169D01*
X184097856Y-81827390D01*
X184040417Y-81966062D01*
X183998720Y-82028465D01*
X183957024Y-82090867D01*
X183850887Y-82197004D01*
X183788484Y-82238700D01*
X183726082Y-82280397D01*
X183587410Y-82337836D01*
X183587409Y-82337836D01*
X183587407Y-82337837D01*
X183440190Y-82367120D01*
X183290090Y-82367120D01*
X183142873Y-82337837D01*
X183142871Y-82337836D01*
X183142870Y-82337836D01*
X183004198Y-82280397D01*
X182941795Y-82238700D01*
X182879393Y-82197004D01*
X182773256Y-82090867D01*
X182731560Y-82028465D01*
X182689863Y-81966062D01*
X182632424Y-81827390D01*
X182603140Y-81680169D01*
X182603140Y-81530071D01*
X182632424Y-81382850D01*
X182689863Y-81244178D01*
X182731560Y-81181776D01*
X182773256Y-81119373D01*
X182879393Y-81013236D01*
X182941796Y-80971540D01*
X183004198Y-80929843D01*
X183142870Y-80872404D01*
X183142871Y-80872404D01*
X183142873Y-80872403D01*
X183290090Y-80843120D01*
X183440190Y-80843120D01*
X183587407Y-80872403D01*
G37*
G36*
X186127407Y-80872403D02*
G01*
X186127409Y-80872404D01*
X186127410Y-80872404D01*
X186266082Y-80929843D01*
X186328484Y-80971540D01*
X186390887Y-81013236D01*
X186497024Y-81119373D01*
X186538720Y-81181776D01*
X186580417Y-81244178D01*
X186637856Y-81382850D01*
X186667140Y-81530071D01*
X186667140Y-81680169D01*
X186637856Y-81827390D01*
X186580417Y-81966062D01*
X186538720Y-82028465D01*
X186497024Y-82090867D01*
X186390887Y-82197004D01*
X186328484Y-82238700D01*
X186266082Y-82280397D01*
X186127410Y-82337836D01*
X186127409Y-82337836D01*
X186127407Y-82337837D01*
X185980190Y-82367120D01*
X185830090Y-82367120D01*
X185682873Y-82337837D01*
X185682871Y-82337836D01*
X185682870Y-82337836D01*
X185544198Y-82280397D01*
X185481795Y-82238700D01*
X185419393Y-82197004D01*
X185313256Y-82090867D01*
X185271560Y-82028465D01*
X185229863Y-81966062D01*
X185172424Y-81827390D01*
X185143140Y-81680169D01*
X185143140Y-81530071D01*
X185172424Y-81382850D01*
X185229863Y-81244178D01*
X185271560Y-81181776D01*
X185313256Y-81119373D01*
X185419393Y-81013236D01*
X185481796Y-80971540D01*
X185544198Y-80929843D01*
X185682870Y-80872404D01*
X185682871Y-80872404D01*
X185682873Y-80872403D01*
X185830090Y-80843120D01*
X185980190Y-80843120D01*
X186127407Y-80872403D01*
G37*
G36*
X220969096Y-74334691D02*
G01*
X220969098Y-74334692D01*
X220969099Y-74334692D01*
X221342319Y-74489285D01*
X221678208Y-74713718D01*
X221963862Y-74999372D01*
X222188295Y-75335261D01*
X222342888Y-75708481D01*
X222421700Y-76104696D01*
X222421700Y-76508664D01*
X222342888Y-76904879D01*
X222188295Y-77278099D01*
X221963862Y-77613988D01*
X221678208Y-77899642D01*
X221342319Y-78124075D01*
X220969099Y-78278668D01*
X220969098Y-78278668D01*
X220969096Y-78278669D01*
X220572886Y-78357480D01*
X220168914Y-78357480D01*
X219772704Y-78278669D01*
X219772702Y-78278668D01*
X219772701Y-78278668D01*
X219399481Y-78124075D01*
X219063592Y-77899642D01*
X218777938Y-77613988D01*
X218553505Y-77278099D01*
X218398912Y-76904879D01*
X218320100Y-76508664D01*
X218320100Y-76104696D01*
X218398912Y-75708481D01*
X218553505Y-75335261D01*
X218777938Y-74999372D01*
X219063592Y-74713718D01*
X219399481Y-74489285D01*
X219772701Y-74334692D01*
X219772702Y-74334692D01*
X219772704Y-74334691D01*
X220168914Y-74255880D01*
X220572886Y-74255880D01*
X220969096Y-74334691D01*
G37*
G36*
X223159069Y-67833575D02*
G01*
X223159071Y-67833576D01*
X223159072Y-67833576D01*
X223313904Y-67897710D01*
X223313905Y-67897711D01*
X223453254Y-67990820D01*
X223571760Y-68109326D01*
X223641671Y-68213957D01*
X223664870Y-68248676D01*
X223729004Y-68403508D01*
X223761700Y-68567885D01*
X223761700Y-68735475D01*
X223729004Y-68899852D01*
X223664870Y-69054684D01*
X223664869Y-69054685D01*
X223571760Y-69194034D01*
X223453254Y-69312540D01*
X223348623Y-69382451D01*
X223313904Y-69405650D01*
X223159072Y-69469784D01*
X223159071Y-69469784D01*
X223159069Y-69469785D01*
X222994697Y-69502480D01*
X222827103Y-69502480D01*
X222662731Y-69469785D01*
X222662729Y-69469784D01*
X222662728Y-69469784D01*
X222507896Y-69405650D01*
X222473177Y-69382451D01*
X222368546Y-69312540D01*
X222250040Y-69194034D01*
X222156931Y-69054685D01*
X222156930Y-69054684D01*
X222092796Y-68899852D01*
X222060100Y-68735475D01*
X222060100Y-68567885D01*
X222092796Y-68403508D01*
X222156930Y-68248676D01*
X222180129Y-68213957D01*
X222250040Y-68109326D01*
X222368546Y-67990820D01*
X222507895Y-67897711D01*
X222507896Y-67897710D01*
X222662728Y-67833576D01*
X222662729Y-67833576D01*
X222662731Y-67833575D01*
X222827103Y-67800880D01*
X222994697Y-67800880D01*
X223159069Y-67833575D01*
G37*
G36*
X218079069Y-67833575D02*
G01*
X218079071Y-67833576D01*
X218079072Y-67833576D01*
X218233904Y-67897710D01*
X218233905Y-67897711D01*
X218373254Y-67990820D01*
X218491760Y-68109326D01*
X218561671Y-68213957D01*
X218584870Y-68248676D01*
X218649004Y-68403508D01*
X218681700Y-68567885D01*
X218681700Y-68735475D01*
X218649004Y-68899852D01*
X218584870Y-69054684D01*
X218584869Y-69054685D01*
X218491760Y-69194034D01*
X218373254Y-69312540D01*
X218268623Y-69382451D01*
X218233904Y-69405650D01*
X218079072Y-69469784D01*
X218079071Y-69469784D01*
X218079069Y-69469785D01*
X217914697Y-69502480D01*
X217747103Y-69502480D01*
X217582731Y-69469785D01*
X217582729Y-69469784D01*
X217582728Y-69469784D01*
X217427896Y-69405650D01*
X217393177Y-69382451D01*
X217288546Y-69312540D01*
X217170040Y-69194034D01*
X217076931Y-69054685D01*
X217076930Y-69054684D01*
X217012796Y-68899852D01*
X216980100Y-68735475D01*
X216980100Y-68567885D01*
X217012796Y-68403508D01*
X217076930Y-68248676D01*
X217100129Y-68213957D01*
X217170040Y-68109326D01*
X217288546Y-67990820D01*
X217427895Y-67897711D01*
X217427896Y-67897710D01*
X217582728Y-67833576D01*
X217582729Y-67833576D01*
X217582731Y-67833575D01*
X217747103Y-67800880D01*
X217914697Y-67800880D01*
X218079069Y-67833575D01*
G37*
G36*
X220619069Y-66688575D02*
G01*
X220619071Y-66688576D01*
X220619072Y-66688576D01*
X220773904Y-66752710D01*
X220773905Y-66752711D01*
X220913254Y-66845820D01*
X221031760Y-66964326D01*
X221101671Y-67068957D01*
X221124870Y-67103676D01*
X221189004Y-67258508D01*
X221221700Y-67422885D01*
X221221700Y-67590475D01*
X221189004Y-67754852D01*
X221124870Y-67909684D01*
X221124869Y-67909685D01*
X221031760Y-68049034D01*
X220913254Y-68167540D01*
X220808623Y-68237451D01*
X220773904Y-68260650D01*
X220619072Y-68324784D01*
X220619071Y-68324784D01*
X220619069Y-68324785D01*
X220454697Y-68357480D01*
X220287103Y-68357480D01*
X220122731Y-68324785D01*
X220122729Y-68324784D01*
X220122728Y-68324784D01*
X219967896Y-68260650D01*
X219933177Y-68237451D01*
X219828546Y-68167540D01*
X219710040Y-68049034D01*
X219616931Y-67909685D01*
X219616930Y-67909684D01*
X219552796Y-67754852D01*
X219520100Y-67590475D01*
X219520100Y-67422885D01*
X219552796Y-67258508D01*
X219616930Y-67103676D01*
X219640129Y-67068957D01*
X219710040Y-66964326D01*
X219828546Y-66845820D01*
X219967895Y-66752711D01*
X219967896Y-66752710D01*
X220122728Y-66688576D01*
X220122729Y-66688576D01*
X220122731Y-66688575D01*
X220287103Y-66655880D01*
X220454697Y-66655880D01*
X220619069Y-66688575D01*
G37*
G36*
X218079069Y-65543575D02*
G01*
X218079071Y-65543576D01*
X218079072Y-65543576D01*
X218233904Y-65607710D01*
X218233905Y-65607711D01*
X218373254Y-65700820D01*
X218491760Y-65819326D01*
X218561671Y-65923957D01*
X218584870Y-65958676D01*
X218649004Y-66113508D01*
X218681700Y-66277885D01*
X218681700Y-66445475D01*
X218649004Y-66609852D01*
X218584870Y-66764684D01*
X218584869Y-66764685D01*
X218491760Y-66904034D01*
X218373254Y-67022540D01*
X218268623Y-67092451D01*
X218233904Y-67115650D01*
X218079072Y-67179784D01*
X218079071Y-67179784D01*
X218079069Y-67179785D01*
X217914697Y-67212480D01*
X217747103Y-67212480D01*
X217582731Y-67179785D01*
X217582729Y-67179784D01*
X217582728Y-67179784D01*
X217427896Y-67115650D01*
X217393177Y-67092451D01*
X217288546Y-67022540D01*
X217170040Y-66904034D01*
X217076931Y-66764685D01*
X217076930Y-66764684D01*
X217012796Y-66609852D01*
X216980100Y-66445475D01*
X216980100Y-66277885D01*
X217012796Y-66113508D01*
X217076930Y-65958676D01*
X217100129Y-65923957D01*
X217170040Y-65819326D01*
X217288546Y-65700820D01*
X217427895Y-65607711D01*
X217427896Y-65607710D01*
X217582728Y-65543576D01*
X217582729Y-65543576D01*
X217582731Y-65543575D01*
X217747103Y-65510880D01*
X217914697Y-65510880D01*
X218079069Y-65543575D01*
G37*
G36*
X223159069Y-65543575D02*
G01*
X223159071Y-65543576D01*
X223159072Y-65543576D01*
X223313904Y-65607710D01*
X223313905Y-65607711D01*
X223453254Y-65700820D01*
X223571760Y-65819326D01*
X223641671Y-65923957D01*
X223664870Y-65958676D01*
X223729004Y-66113508D01*
X223761700Y-66277885D01*
X223761700Y-66445475D01*
X223729004Y-66609852D01*
X223664870Y-66764684D01*
X223664869Y-66764685D01*
X223571760Y-66904034D01*
X223453254Y-67022540D01*
X223348623Y-67092451D01*
X223313904Y-67115650D01*
X223159072Y-67179784D01*
X223159071Y-67179784D01*
X223159069Y-67179785D01*
X222994697Y-67212480D01*
X222827103Y-67212480D01*
X222662731Y-67179785D01*
X222662729Y-67179784D01*
X222662728Y-67179784D01*
X222507896Y-67115650D01*
X222473177Y-67092451D01*
X222368546Y-67022540D01*
X222250040Y-66904034D01*
X222156931Y-66764685D01*
X222156930Y-66764684D01*
X222092796Y-66609852D01*
X222060100Y-66445475D01*
X222060100Y-66277885D01*
X222092796Y-66113508D01*
X222156930Y-65958676D01*
X222180129Y-65923957D01*
X222250040Y-65819326D01*
X222368546Y-65700820D01*
X222507895Y-65607711D01*
X222507896Y-65607710D01*
X222662728Y-65543576D01*
X222662729Y-65543576D01*
X222662731Y-65543575D01*
X222827103Y-65510880D01*
X222994697Y-65510880D01*
X223159069Y-65543575D01*
G37*
G36*
X220619069Y-64398575D02*
G01*
X220619071Y-64398576D01*
X220619072Y-64398576D01*
X220773904Y-64462710D01*
X220773905Y-64462711D01*
X220913254Y-64555820D01*
X221031760Y-64674326D01*
X221101671Y-64778957D01*
X221124870Y-64813676D01*
X221189004Y-64968508D01*
X221221700Y-65132885D01*
X221221700Y-65300475D01*
X221189004Y-65464852D01*
X221124870Y-65619684D01*
X221124869Y-65619685D01*
X221031760Y-65759034D01*
X220913254Y-65877540D01*
X220808623Y-65947451D01*
X220773904Y-65970650D01*
X220619072Y-66034784D01*
X220619071Y-66034784D01*
X220619069Y-66034785D01*
X220454697Y-66067480D01*
X220287103Y-66067480D01*
X220122731Y-66034785D01*
X220122729Y-66034784D01*
X220122728Y-66034784D01*
X219967896Y-65970650D01*
X219933177Y-65947451D01*
X219828546Y-65877540D01*
X219710040Y-65759034D01*
X219616931Y-65619685D01*
X219616930Y-65619684D01*
X219552796Y-65464852D01*
X219520100Y-65300475D01*
X219520100Y-65132885D01*
X219552796Y-64968508D01*
X219616930Y-64813676D01*
X219640129Y-64778957D01*
X219710040Y-64674326D01*
X219828546Y-64555820D01*
X219967895Y-64462711D01*
X219967896Y-64462710D01*
X220122728Y-64398576D01*
X220122729Y-64398576D01*
X220122731Y-64398575D01*
X220287103Y-64365880D01*
X220454697Y-64365880D01*
X220619069Y-64398575D01*
G37*
G36*
X223159069Y-63253575D02*
G01*
X223159071Y-63253576D01*
X223159072Y-63253576D01*
X223313904Y-63317710D01*
X223313905Y-63317711D01*
X223453254Y-63410820D01*
X223571760Y-63529326D01*
X223641671Y-63633957D01*
X223664870Y-63668676D01*
X223729004Y-63823508D01*
X223761700Y-63987885D01*
X223761700Y-64155475D01*
X223729004Y-64319852D01*
X223664870Y-64474684D01*
X223664869Y-64474685D01*
X223571760Y-64614034D01*
X223453254Y-64732540D01*
X223348623Y-64802451D01*
X223313904Y-64825650D01*
X223159072Y-64889784D01*
X223159071Y-64889784D01*
X223159069Y-64889785D01*
X222994697Y-64922480D01*
X222827103Y-64922480D01*
X222662731Y-64889785D01*
X222662729Y-64889784D01*
X222662728Y-64889784D01*
X222507896Y-64825650D01*
X222473177Y-64802451D01*
X222368546Y-64732540D01*
X222250040Y-64614034D01*
X222156931Y-64474685D01*
X222156930Y-64474684D01*
X222092796Y-64319852D01*
X222060100Y-64155475D01*
X222060100Y-63987885D01*
X222092796Y-63823508D01*
X222156930Y-63668676D01*
X222180129Y-63633957D01*
X222250040Y-63529326D01*
X222368546Y-63410820D01*
X222507895Y-63317711D01*
X222507896Y-63317710D01*
X222662728Y-63253576D01*
X222662729Y-63253576D01*
X222662731Y-63253575D01*
X222827103Y-63220880D01*
X222994697Y-63220880D01*
X223159069Y-63253575D01*
G37*
G36*
X218079069Y-63253575D02*
G01*
X218079071Y-63253576D01*
X218079072Y-63253576D01*
X218233904Y-63317710D01*
X218233905Y-63317711D01*
X218373254Y-63410820D01*
X218491760Y-63529326D01*
X218561671Y-63633957D01*
X218584870Y-63668676D01*
X218649004Y-63823508D01*
X218681700Y-63987885D01*
X218681700Y-64155475D01*
X218649004Y-64319852D01*
X218584870Y-64474684D01*
X218584869Y-64474685D01*
X218491760Y-64614034D01*
X218373254Y-64732540D01*
X218268623Y-64802451D01*
X218233904Y-64825650D01*
X218079072Y-64889784D01*
X218079071Y-64889784D01*
X218079069Y-64889785D01*
X217914697Y-64922480D01*
X217747103Y-64922480D01*
X217582731Y-64889785D01*
X217582729Y-64889784D01*
X217582728Y-64889784D01*
X217427896Y-64825650D01*
X217393177Y-64802451D01*
X217288546Y-64732540D01*
X217170040Y-64614034D01*
X217076931Y-64474685D01*
X217076930Y-64474684D01*
X217012796Y-64319852D01*
X216980100Y-64155475D01*
X216980100Y-63987885D01*
X217012796Y-63823508D01*
X217076930Y-63668676D01*
X217100129Y-63633957D01*
X217170040Y-63529326D01*
X217288546Y-63410820D01*
X217427895Y-63317711D01*
X217427896Y-63317710D01*
X217582728Y-63253576D01*
X217582729Y-63253576D01*
X217582731Y-63253575D01*
X217747103Y-63220880D01*
X217914697Y-63220880D01*
X218079069Y-63253575D01*
G37*
G36*
X220619069Y-62108575D02*
G01*
X220619071Y-62108576D01*
X220619072Y-62108576D01*
X220773904Y-62172710D01*
X220773905Y-62172711D01*
X220913254Y-62265820D01*
X221031760Y-62384326D01*
X221101671Y-62488957D01*
X221124870Y-62523676D01*
X221189004Y-62678508D01*
X221221700Y-62842885D01*
X221221700Y-63010475D01*
X221189004Y-63174852D01*
X221124870Y-63329684D01*
X221124869Y-63329685D01*
X221031760Y-63469034D01*
X220913254Y-63587540D01*
X220808623Y-63657451D01*
X220773904Y-63680650D01*
X220619072Y-63744784D01*
X220619071Y-63744784D01*
X220619069Y-63744785D01*
X220454697Y-63777480D01*
X220287103Y-63777480D01*
X220122731Y-63744785D01*
X220122729Y-63744784D01*
X220122728Y-63744784D01*
X219967896Y-63680650D01*
X219933177Y-63657451D01*
X219828546Y-63587540D01*
X219710040Y-63469034D01*
X219616931Y-63329685D01*
X219616930Y-63329684D01*
X219552796Y-63174852D01*
X219520100Y-63010475D01*
X219520100Y-62842885D01*
X219552796Y-62678508D01*
X219616930Y-62523676D01*
X219640129Y-62488957D01*
X219710040Y-62384326D01*
X219828546Y-62265820D01*
X219967895Y-62172711D01*
X219967896Y-62172710D01*
X220122728Y-62108576D01*
X220122729Y-62108576D01*
X220122731Y-62108575D01*
X220287103Y-62075880D01*
X220454697Y-62075880D01*
X220619069Y-62108575D01*
G37*
G36*
X218079069Y-60963575D02*
G01*
X218079071Y-60963576D01*
X218079072Y-60963576D01*
X218233904Y-61027710D01*
X218233905Y-61027711D01*
X218373254Y-61120820D01*
X218491760Y-61239326D01*
X218561671Y-61343957D01*
X218584870Y-61378676D01*
X218649004Y-61533508D01*
X218681700Y-61697885D01*
X218681700Y-61865475D01*
X218649004Y-62029852D01*
X218584870Y-62184684D01*
X218584869Y-62184685D01*
X218491760Y-62324034D01*
X218373254Y-62442540D01*
X218268623Y-62512451D01*
X218233904Y-62535650D01*
X218079072Y-62599784D01*
X218079071Y-62599784D01*
X218079069Y-62599785D01*
X217914697Y-62632480D01*
X217747103Y-62632480D01*
X217582731Y-62599785D01*
X217582729Y-62599784D01*
X217582728Y-62599784D01*
X217427896Y-62535650D01*
X217393177Y-62512451D01*
X217288546Y-62442540D01*
X217170040Y-62324034D01*
X217076931Y-62184685D01*
X217076930Y-62184684D01*
X217012796Y-62029852D01*
X216980100Y-61865475D01*
X216980100Y-61697885D01*
X217012796Y-61533508D01*
X217076930Y-61378676D01*
X217100129Y-61343957D01*
X217170040Y-61239326D01*
X217288546Y-61120820D01*
X217427895Y-61027711D01*
X217427896Y-61027710D01*
X217582728Y-60963576D01*
X217582729Y-60963576D01*
X217582731Y-60963575D01*
X217747103Y-60930880D01*
X217914697Y-60930880D01*
X218079069Y-60963575D01*
G37*
G36*
X223159069Y-60963575D02*
G01*
X223159071Y-60963576D01*
X223159072Y-60963576D01*
X223313904Y-61027710D01*
X223313905Y-61027711D01*
X223453254Y-61120820D01*
X223571760Y-61239326D01*
X223641671Y-61343957D01*
X223664870Y-61378676D01*
X223729004Y-61533508D01*
X223761700Y-61697885D01*
X223761700Y-61865475D01*
X223729004Y-62029852D01*
X223664870Y-62184684D01*
X223664869Y-62184685D01*
X223571760Y-62324034D01*
X223453254Y-62442540D01*
X223348623Y-62512451D01*
X223313904Y-62535650D01*
X223159072Y-62599784D01*
X223159071Y-62599784D01*
X223159069Y-62599785D01*
X222994697Y-62632480D01*
X222827103Y-62632480D01*
X222662731Y-62599785D01*
X222662729Y-62599784D01*
X222662728Y-62599784D01*
X222507896Y-62535650D01*
X222473177Y-62512451D01*
X222368546Y-62442540D01*
X222250040Y-62324034D01*
X222156931Y-62184685D01*
X222156930Y-62184684D01*
X222092796Y-62029852D01*
X222060100Y-61865475D01*
X222060100Y-61697885D01*
X222092796Y-61533508D01*
X222156930Y-61378676D01*
X222180129Y-61343957D01*
X222250040Y-61239326D01*
X222368546Y-61120820D01*
X222507895Y-61027711D01*
X222507896Y-61027710D01*
X222662728Y-60963576D01*
X222662729Y-60963576D01*
X222662731Y-60963575D01*
X222827103Y-60930880D01*
X222994697Y-60930880D01*
X223159069Y-60963575D01*
G37*
G36*
X220619069Y-59818575D02*
G01*
X220619071Y-59818576D01*
X220619072Y-59818576D01*
X220773904Y-59882710D01*
X220773905Y-59882711D01*
X220913254Y-59975820D01*
X221031760Y-60094326D01*
X221101671Y-60198957D01*
X221124870Y-60233676D01*
X221189004Y-60388508D01*
X221221700Y-60552885D01*
X221221700Y-60720475D01*
X221189004Y-60884852D01*
X221124870Y-61039684D01*
X221124869Y-61039685D01*
X221031760Y-61179034D01*
X220913254Y-61297540D01*
X220808623Y-61367451D01*
X220773904Y-61390650D01*
X220619072Y-61454784D01*
X220619071Y-61454784D01*
X220619069Y-61454785D01*
X220454697Y-61487480D01*
X220287103Y-61487480D01*
X220122731Y-61454785D01*
X220122729Y-61454784D01*
X220122728Y-61454784D01*
X219967896Y-61390650D01*
X219933177Y-61367451D01*
X219828546Y-61297540D01*
X219710040Y-61179034D01*
X219616931Y-61039685D01*
X219616930Y-61039684D01*
X219552796Y-60884852D01*
X219520100Y-60720475D01*
X219520100Y-60552885D01*
X219552796Y-60388508D01*
X219616930Y-60233676D01*
X219640129Y-60198957D01*
X219710040Y-60094326D01*
X219828546Y-59975820D01*
X219967895Y-59882711D01*
X219967896Y-59882710D01*
X220122728Y-59818576D01*
X220122729Y-59818576D01*
X220122731Y-59818575D01*
X220287103Y-59785880D01*
X220454697Y-59785880D01*
X220619069Y-59818575D01*
G37*
G36*
X223159069Y-58673575D02*
G01*
X223159071Y-58673576D01*
X223159072Y-58673576D01*
X223313904Y-58737710D01*
X223313905Y-58737711D01*
X223453254Y-58830820D01*
X223571760Y-58949326D01*
X223641671Y-59053957D01*
X223664870Y-59088676D01*
X223729004Y-59243508D01*
X223761700Y-59407885D01*
X223761700Y-59575475D01*
X223729004Y-59739852D01*
X223664870Y-59894684D01*
X223664869Y-59894685D01*
X223571760Y-60034034D01*
X223453254Y-60152540D01*
X223348623Y-60222451D01*
X223313904Y-60245650D01*
X223159072Y-60309784D01*
X223159071Y-60309784D01*
X223159069Y-60309785D01*
X222994697Y-60342480D01*
X222827103Y-60342480D01*
X222662731Y-60309785D01*
X222662729Y-60309784D01*
X222662728Y-60309784D01*
X222507896Y-60245650D01*
X222473177Y-60222451D01*
X222368546Y-60152540D01*
X222250040Y-60034034D01*
X222156931Y-59894685D01*
X222156930Y-59894684D01*
X222092796Y-59739852D01*
X222060100Y-59575475D01*
X222060100Y-59407885D01*
X222092796Y-59243508D01*
X222156930Y-59088676D01*
X222180129Y-59053957D01*
X222250040Y-58949326D01*
X222368546Y-58830820D01*
X222507895Y-58737711D01*
X222507896Y-58737710D01*
X222662728Y-58673576D01*
X222662729Y-58673576D01*
X222662731Y-58673575D01*
X222827103Y-58640880D01*
X222994697Y-58640880D01*
X223159069Y-58673575D01*
G37*
G36*
X218681700Y-60342480D02*
G01*
X216980100Y-60342480D01*
X216980100Y-58640880D01*
X218681700Y-58640880D01*
X218681700Y-60342480D01*
G37*
G36*
X220619069Y-57528575D02*
G01*
X220619071Y-57528576D01*
X220619072Y-57528576D01*
X220773904Y-57592710D01*
X220773905Y-57592711D01*
X220913254Y-57685820D01*
X221031760Y-57804326D01*
X221101671Y-57908957D01*
X221124870Y-57943676D01*
X221189004Y-58098508D01*
X221221700Y-58262885D01*
X221221700Y-58430475D01*
X221189004Y-58594852D01*
X221124870Y-58749684D01*
X221124869Y-58749685D01*
X221031760Y-58889034D01*
X220913254Y-59007540D01*
X220808623Y-59077451D01*
X220773904Y-59100650D01*
X220619072Y-59164784D01*
X220619071Y-59164784D01*
X220619069Y-59164785D01*
X220454697Y-59197480D01*
X220287103Y-59197480D01*
X220122731Y-59164785D01*
X220122729Y-59164784D01*
X220122728Y-59164784D01*
X219967896Y-59100650D01*
X219933177Y-59077451D01*
X219828546Y-59007540D01*
X219710040Y-58889034D01*
X219616931Y-58749685D01*
X219616930Y-58749684D01*
X219552796Y-58594852D01*
X219520100Y-58430475D01*
X219520100Y-58262885D01*
X219552796Y-58098508D01*
X219616930Y-57943676D01*
X219640129Y-57908957D01*
X219710040Y-57804326D01*
X219828546Y-57685820D01*
X219967895Y-57592711D01*
X219967896Y-57592710D01*
X220122728Y-57528576D01*
X220122729Y-57528576D01*
X220122731Y-57528575D01*
X220287103Y-57495880D01*
X220454697Y-57495880D01*
X220619069Y-57528575D01*
G37*
G36*
X220969096Y-49334691D02*
G01*
X220969098Y-49334692D01*
X220969099Y-49334692D01*
X221342319Y-49489285D01*
X221678208Y-49713718D01*
X221963862Y-49999372D01*
X222188295Y-50335261D01*
X222342888Y-50708481D01*
X222421700Y-51104696D01*
X222421700Y-51508664D01*
X222342888Y-51904879D01*
X222188295Y-52278099D01*
X221963862Y-52613988D01*
X221678208Y-52899642D01*
X221342319Y-53124075D01*
X220969099Y-53278668D01*
X220969098Y-53278668D01*
X220969096Y-53278669D01*
X220572886Y-53357480D01*
X220168914Y-53357480D01*
X219772704Y-53278669D01*
X219772702Y-53278668D01*
X219772701Y-53278668D01*
X219399481Y-53124075D01*
X219063592Y-52899642D01*
X218777938Y-52613988D01*
X218553505Y-52278099D01*
X218398912Y-51904879D01*
X218320100Y-51508664D01*
X218320100Y-51104696D01*
X218398912Y-50708481D01*
X218553505Y-50335261D01*
X218777938Y-49999372D01*
X219063592Y-49713718D01*
X219399481Y-49489285D01*
X219772701Y-49334692D01*
X219772702Y-49334692D01*
X219772704Y-49334691D01*
X220168914Y-49255880D01*
X220572886Y-49255880D01*
X220969096Y-49334691D01*
G37*
G36*
X163865581Y-34218460D02*
G01*
X163865584Y-34218461D01*
X163865583Y-34218461D01*
X164031990Y-34287389D01*
X164181757Y-34387460D01*
X164309120Y-34514823D01*
X164409191Y-34664590D01*
X164462505Y-34793300D01*
X164478120Y-34830999D01*
X164513260Y-35007659D01*
X164513260Y-35187781D01*
X164478120Y-35364441D01*
X164478119Y-35364443D01*
X164409191Y-35530850D01*
X164309120Y-35680617D01*
X164181757Y-35807980D01*
X164031990Y-35908051D01*
X163903280Y-35961365D01*
X163865581Y-35976980D01*
X163688921Y-36012120D01*
X163508799Y-36012120D01*
X163332139Y-35976980D01*
X163294440Y-35961365D01*
X163165730Y-35908051D01*
X163015963Y-35807980D01*
X162888600Y-35680617D01*
X162788529Y-35530850D01*
X162719601Y-35364443D01*
X162719600Y-35364441D01*
X162684460Y-35187781D01*
X162684460Y-35007659D01*
X162719600Y-34830999D01*
X162735215Y-34793300D01*
X162788529Y-34664590D01*
X162888600Y-34514823D01*
X163015963Y-34387460D01*
X163165730Y-34287389D01*
X163332137Y-34218461D01*
X163332136Y-34218461D01*
X163332139Y-34218460D01*
X163508799Y-34183320D01*
X163688921Y-34183320D01*
X163865581Y-34218460D01*
G37*
G36*
X143545581Y-34218460D02*
G01*
X143545584Y-34218461D01*
X143545583Y-34218461D01*
X143711990Y-34287389D01*
X143861757Y-34387460D01*
X143989120Y-34514823D01*
X144089191Y-34664590D01*
X144142505Y-34793300D01*
X144158120Y-34830999D01*
X144193260Y-35007659D01*
X144193260Y-35187781D01*
X144158120Y-35364441D01*
X144158119Y-35364443D01*
X144089191Y-35530850D01*
X143989120Y-35680617D01*
X143861757Y-35807980D01*
X143711990Y-35908051D01*
X143583280Y-35961365D01*
X143545581Y-35976980D01*
X143368921Y-36012120D01*
X143188799Y-36012120D01*
X143012139Y-35976980D01*
X142974440Y-35961365D01*
X142845730Y-35908051D01*
X142695963Y-35807980D01*
X142568600Y-35680617D01*
X142468529Y-35530850D01*
X142399601Y-35364443D01*
X142399600Y-35364441D01*
X142364460Y-35187781D01*
X142364460Y-35007659D01*
X142399600Y-34830999D01*
X142415215Y-34793300D01*
X142468529Y-34664590D01*
X142568600Y-34514823D01*
X142695963Y-34387460D01*
X142845730Y-34287389D01*
X143012137Y-34218461D01*
X143012136Y-34218461D01*
X143012139Y-34218460D01*
X143188799Y-34183320D01*
X143368921Y-34183320D01*
X143545581Y-34218460D01*
G37*
G36*
X158785581Y-34218460D02*
G01*
X158785584Y-34218461D01*
X158785583Y-34218461D01*
X158951990Y-34287389D01*
X159101757Y-34387460D01*
X159229120Y-34514823D01*
X159329191Y-34664590D01*
X159382505Y-34793300D01*
X159398120Y-34830999D01*
X159433260Y-35007659D01*
X159433260Y-35187781D01*
X159398120Y-35364441D01*
X159398119Y-35364443D01*
X159329191Y-35530850D01*
X159229120Y-35680617D01*
X159101757Y-35807980D01*
X158951990Y-35908051D01*
X158823280Y-35961365D01*
X158785581Y-35976980D01*
X158608921Y-36012120D01*
X158428799Y-36012120D01*
X158252139Y-35976980D01*
X158214440Y-35961365D01*
X158085730Y-35908051D01*
X157935963Y-35807980D01*
X157808600Y-35680617D01*
X157708529Y-35530850D01*
X157639601Y-35364443D01*
X157639600Y-35364441D01*
X157604460Y-35187781D01*
X157604460Y-35007659D01*
X157639600Y-34830999D01*
X157655215Y-34793300D01*
X157708529Y-34664590D01*
X157808600Y-34514823D01*
X157935963Y-34387460D01*
X158085730Y-34287389D01*
X158252137Y-34218461D01*
X158252136Y-34218461D01*
X158252139Y-34218460D01*
X158428799Y-34183320D01*
X158608921Y-34183320D01*
X158785581Y-34218460D01*
G37*
G36*
X166405581Y-34218460D02*
G01*
X166405584Y-34218461D01*
X166405583Y-34218461D01*
X166571990Y-34287389D01*
X166721757Y-34387460D01*
X166849120Y-34514823D01*
X166949191Y-34664590D01*
X167002505Y-34793300D01*
X167018120Y-34830999D01*
X167053260Y-35007659D01*
X167053260Y-35187781D01*
X167018120Y-35364441D01*
X167018119Y-35364443D01*
X166949191Y-35530850D01*
X166849120Y-35680617D01*
X166721757Y-35807980D01*
X166571990Y-35908051D01*
X166443280Y-35961365D01*
X166405581Y-35976980D01*
X166228921Y-36012120D01*
X166048799Y-36012120D01*
X165872139Y-35976980D01*
X165834440Y-35961365D01*
X165705730Y-35908051D01*
X165555963Y-35807980D01*
X165428600Y-35680617D01*
X165328529Y-35530850D01*
X165259601Y-35364443D01*
X165259600Y-35364441D01*
X165224460Y-35187781D01*
X165224460Y-35007659D01*
X165259600Y-34830999D01*
X165275215Y-34793300D01*
X165328529Y-34664590D01*
X165428600Y-34514823D01*
X165555963Y-34387460D01*
X165705730Y-34287389D01*
X165872137Y-34218461D01*
X165872136Y-34218461D01*
X165872139Y-34218460D01*
X166048799Y-34183320D01*
X166228921Y-34183320D01*
X166405581Y-34218460D01*
G37*
G36*
X156245581Y-34218460D02*
G01*
X156245584Y-34218461D01*
X156245583Y-34218461D01*
X156411990Y-34287389D01*
X156561757Y-34387460D01*
X156689120Y-34514823D01*
X156789191Y-34664590D01*
X156842505Y-34793300D01*
X156858120Y-34830999D01*
X156893260Y-35007659D01*
X156893260Y-35187781D01*
X156858120Y-35364441D01*
X156858119Y-35364443D01*
X156789191Y-35530850D01*
X156689120Y-35680617D01*
X156561757Y-35807980D01*
X156411990Y-35908051D01*
X156283280Y-35961365D01*
X156245581Y-35976980D01*
X156068921Y-36012120D01*
X155888799Y-36012120D01*
X155712139Y-35976980D01*
X155674440Y-35961365D01*
X155545730Y-35908051D01*
X155395963Y-35807980D01*
X155268600Y-35680617D01*
X155168529Y-35530850D01*
X155099601Y-35364443D01*
X155099600Y-35364441D01*
X155064460Y-35187781D01*
X155064460Y-35007659D01*
X155099600Y-34830999D01*
X155115215Y-34793300D01*
X155168529Y-34664590D01*
X155268600Y-34514823D01*
X155395963Y-34387460D01*
X155545730Y-34287389D01*
X155712137Y-34218461D01*
X155712136Y-34218461D01*
X155712139Y-34218460D01*
X155888799Y-34183320D01*
X156068921Y-34183320D01*
X156245581Y-34218460D01*
G37*
G36*
X168945581Y-34218460D02*
G01*
X168945584Y-34218461D01*
X168945583Y-34218461D01*
X169111990Y-34287389D01*
X169261757Y-34387460D01*
X169389120Y-34514823D01*
X169489191Y-34664590D01*
X169542505Y-34793300D01*
X169558120Y-34830999D01*
X169593260Y-35007659D01*
X169593260Y-35187781D01*
X169558120Y-35364441D01*
X169558119Y-35364443D01*
X169489191Y-35530850D01*
X169389120Y-35680617D01*
X169261757Y-35807980D01*
X169111990Y-35908051D01*
X168983280Y-35961365D01*
X168945581Y-35976980D01*
X168768921Y-36012120D01*
X168588799Y-36012120D01*
X168412139Y-35976980D01*
X168374440Y-35961365D01*
X168245730Y-35908051D01*
X168095963Y-35807980D01*
X167968600Y-35680617D01*
X167868529Y-35530850D01*
X167799601Y-35364443D01*
X167799600Y-35364441D01*
X167764460Y-35187781D01*
X167764460Y-35007659D01*
X167799600Y-34830999D01*
X167815215Y-34793300D01*
X167868529Y-34664590D01*
X167968600Y-34514823D01*
X168095963Y-34387460D01*
X168245730Y-34287389D01*
X168412137Y-34218461D01*
X168412136Y-34218461D01*
X168412139Y-34218460D01*
X168588799Y-34183320D01*
X168768921Y-34183320D01*
X168945581Y-34218460D01*
G37*
G36*
X153705581Y-34218460D02*
G01*
X153705584Y-34218461D01*
X153705583Y-34218461D01*
X153871990Y-34287389D01*
X154021757Y-34387460D01*
X154149120Y-34514823D01*
X154249191Y-34664590D01*
X154302505Y-34793300D01*
X154318120Y-34830999D01*
X154353260Y-35007659D01*
X154353260Y-35187781D01*
X154318120Y-35364441D01*
X154318119Y-35364443D01*
X154249191Y-35530850D01*
X154149120Y-35680617D01*
X154021757Y-35807980D01*
X153871990Y-35908051D01*
X153743280Y-35961365D01*
X153705581Y-35976980D01*
X153528921Y-36012120D01*
X153348799Y-36012120D01*
X153172139Y-35976980D01*
X153134440Y-35961365D01*
X153005730Y-35908051D01*
X152855963Y-35807980D01*
X152728600Y-35680617D01*
X152628529Y-35530850D01*
X152559601Y-35364443D01*
X152559600Y-35364441D01*
X152524460Y-35187781D01*
X152524460Y-35007659D01*
X152559600Y-34830999D01*
X152575215Y-34793300D01*
X152628529Y-34664590D01*
X152728600Y-34514823D01*
X152855963Y-34387460D01*
X153005730Y-34287389D01*
X153172137Y-34218461D01*
X153172136Y-34218461D01*
X153172139Y-34218460D01*
X153348799Y-34183320D01*
X153528921Y-34183320D01*
X153705581Y-34218460D01*
G37*
G36*
X174025581Y-34218460D02*
G01*
X174025584Y-34218461D01*
X174025583Y-34218461D01*
X174191990Y-34287389D01*
X174341757Y-34387460D01*
X174469120Y-34514823D01*
X174569191Y-34664590D01*
X174622505Y-34793300D01*
X174638120Y-34830999D01*
X174673260Y-35007659D01*
X174673260Y-35187781D01*
X174638120Y-35364441D01*
X174638119Y-35364443D01*
X174569191Y-35530850D01*
X174469120Y-35680617D01*
X174341757Y-35807980D01*
X174191990Y-35908051D01*
X174063280Y-35961365D01*
X174025581Y-35976980D01*
X173848921Y-36012120D01*
X173668799Y-36012120D01*
X173492139Y-35976980D01*
X173454440Y-35961365D01*
X173325730Y-35908051D01*
X173175963Y-35807980D01*
X173048600Y-35680617D01*
X172948529Y-35530850D01*
X172879601Y-35364443D01*
X172879600Y-35364441D01*
X172844460Y-35187781D01*
X172844460Y-35007659D01*
X172879600Y-34830999D01*
X172895215Y-34793300D01*
X172948529Y-34664590D01*
X173048600Y-34514823D01*
X173175963Y-34387460D01*
X173325730Y-34287389D01*
X173492137Y-34218461D01*
X173492136Y-34218461D01*
X173492139Y-34218460D01*
X173668799Y-34183320D01*
X173848921Y-34183320D01*
X174025581Y-34218460D01*
G37*
G36*
X146085581Y-34218460D02*
G01*
X146085584Y-34218461D01*
X146085583Y-34218461D01*
X146251990Y-34287389D01*
X146401757Y-34387460D01*
X146529120Y-34514823D01*
X146629191Y-34664590D01*
X146682505Y-34793300D01*
X146698120Y-34830999D01*
X146733260Y-35007659D01*
X146733260Y-35187781D01*
X146698120Y-35364441D01*
X146698119Y-35364443D01*
X146629191Y-35530850D01*
X146529120Y-35680617D01*
X146401757Y-35807980D01*
X146251990Y-35908051D01*
X146123280Y-35961365D01*
X146085581Y-35976980D01*
X145908921Y-36012120D01*
X145728799Y-36012120D01*
X145552139Y-35976980D01*
X145514440Y-35961365D01*
X145385730Y-35908051D01*
X145235963Y-35807980D01*
X145108600Y-35680617D01*
X145008529Y-35530850D01*
X144939601Y-35364443D01*
X144939600Y-35364441D01*
X144904460Y-35187781D01*
X144904460Y-35007659D01*
X144939600Y-34830999D01*
X144955215Y-34793300D01*
X145008529Y-34664590D01*
X145108600Y-34514823D01*
X145235963Y-34387460D01*
X145385730Y-34287389D01*
X145552137Y-34218461D01*
X145552136Y-34218461D01*
X145552139Y-34218460D01*
X145728799Y-34183320D01*
X145908921Y-34183320D01*
X146085581Y-34218460D01*
G37*
G36*
X161325581Y-34218460D02*
G01*
X161325584Y-34218461D01*
X161325583Y-34218461D01*
X161491990Y-34287389D01*
X161641757Y-34387460D01*
X161769120Y-34514823D01*
X161869191Y-34664590D01*
X161922505Y-34793300D01*
X161938120Y-34830999D01*
X161973260Y-35007659D01*
X161973260Y-35187781D01*
X161938120Y-35364441D01*
X161938119Y-35364443D01*
X161869191Y-35530850D01*
X161769120Y-35680617D01*
X161641757Y-35807980D01*
X161491990Y-35908051D01*
X161363280Y-35961365D01*
X161325581Y-35976980D01*
X161148921Y-36012120D01*
X160968799Y-36012120D01*
X160792139Y-35976980D01*
X160754440Y-35961365D01*
X160625730Y-35908051D01*
X160475963Y-35807980D01*
X160348600Y-35680617D01*
X160248529Y-35530850D01*
X160179601Y-35364443D01*
X160179600Y-35364441D01*
X160144460Y-35187781D01*
X160144460Y-35007659D01*
X160179600Y-34830999D01*
X160195215Y-34793300D01*
X160248529Y-34664590D01*
X160348600Y-34514823D01*
X160475963Y-34387460D01*
X160625730Y-34287389D01*
X160792137Y-34218461D01*
X160792136Y-34218461D01*
X160792139Y-34218460D01*
X160968799Y-34183320D01*
X161148921Y-34183320D01*
X161325581Y-34218460D01*
G37*
G36*
X148625581Y-34218460D02*
G01*
X148625584Y-34218461D01*
X148625583Y-34218461D01*
X148791990Y-34287389D01*
X148941757Y-34387460D01*
X149069120Y-34514823D01*
X149169191Y-34664590D01*
X149222505Y-34793300D01*
X149238120Y-34830999D01*
X149273260Y-35007659D01*
X149273260Y-35187781D01*
X149238120Y-35364441D01*
X149238119Y-35364443D01*
X149169191Y-35530850D01*
X149069120Y-35680617D01*
X148941757Y-35807980D01*
X148791990Y-35908051D01*
X148663280Y-35961365D01*
X148625581Y-35976980D01*
X148448921Y-36012120D01*
X148268799Y-36012120D01*
X148092139Y-35976980D01*
X148054440Y-35961365D01*
X147925730Y-35908051D01*
X147775963Y-35807980D01*
X147648600Y-35680617D01*
X147548529Y-35530850D01*
X147479601Y-35364443D01*
X147479600Y-35364441D01*
X147444460Y-35187781D01*
X147444460Y-35007659D01*
X147479600Y-34830999D01*
X147495215Y-34793300D01*
X147548529Y-34664590D01*
X147648600Y-34514823D01*
X147775963Y-34387460D01*
X147925730Y-34287389D01*
X148092137Y-34218461D01*
X148092136Y-34218461D01*
X148092139Y-34218460D01*
X148268799Y-34183320D01*
X148448921Y-34183320D01*
X148625581Y-34218460D01*
G37*
G36*
X151165581Y-34218460D02*
G01*
X151165584Y-34218461D01*
X151165583Y-34218461D01*
X151331990Y-34287389D01*
X151481757Y-34387460D01*
X151609120Y-34514823D01*
X151709191Y-34664590D01*
X151762505Y-34793300D01*
X151778120Y-34830999D01*
X151813260Y-35007659D01*
X151813260Y-35187781D01*
X151778120Y-35364441D01*
X151778119Y-35364443D01*
X151709191Y-35530850D01*
X151609120Y-35680617D01*
X151481757Y-35807980D01*
X151331990Y-35908051D01*
X151203280Y-35961365D01*
X151165581Y-35976980D01*
X150988921Y-36012120D01*
X150808799Y-36012120D01*
X150632139Y-35976980D01*
X150594440Y-35961365D01*
X150465730Y-35908051D01*
X150315963Y-35807980D01*
X150188600Y-35680617D01*
X150088529Y-35530850D01*
X150019601Y-35364443D01*
X150019600Y-35364441D01*
X149984460Y-35187781D01*
X149984460Y-35007659D01*
X150019600Y-34830999D01*
X150035215Y-34793300D01*
X150088529Y-34664590D01*
X150188600Y-34514823D01*
X150315963Y-34387460D01*
X150465730Y-34287389D01*
X150632137Y-34218461D01*
X150632136Y-34218461D01*
X150632139Y-34218460D01*
X150808799Y-34183320D01*
X150988921Y-34183320D01*
X151165581Y-34218460D01*
G37*
G36*
X171485581Y-34218460D02*
G01*
X171485584Y-34218461D01*
X171485583Y-34218461D01*
X171651990Y-34287389D01*
X171801757Y-34387460D01*
X171929120Y-34514823D01*
X172029191Y-34664590D01*
X172082505Y-34793300D01*
X172098120Y-34830999D01*
X172133260Y-35007659D01*
X172133260Y-35187781D01*
X172098120Y-35364441D01*
X172098119Y-35364443D01*
X172029191Y-35530850D01*
X171929120Y-35680617D01*
X171801757Y-35807980D01*
X171651990Y-35908051D01*
X171523280Y-35961365D01*
X171485581Y-35976980D01*
X171308921Y-36012120D01*
X171128799Y-36012120D01*
X170952139Y-35976980D01*
X170914440Y-35961365D01*
X170785730Y-35908051D01*
X170635963Y-35807980D01*
X170508600Y-35680617D01*
X170408529Y-35530850D01*
X170339601Y-35364443D01*
X170339600Y-35364441D01*
X170304460Y-35187781D01*
X170304460Y-35007659D01*
X170339600Y-34830999D01*
X170355215Y-34793300D01*
X170408529Y-34664590D01*
X170508600Y-34514823D01*
X170635963Y-34387460D01*
X170785730Y-34287389D01*
X170952137Y-34218461D01*
X170952136Y-34218461D01*
X170952139Y-34218460D01*
X171128799Y-34183320D01*
X171308921Y-34183320D01*
X171485581Y-34218460D01*
G37*
G36*
X171485581Y-31678460D02*
G01*
X171485584Y-31678461D01*
X171485583Y-31678461D01*
X171651990Y-31747389D01*
X171801757Y-31847460D01*
X171929120Y-31974823D01*
X172029191Y-32124590D01*
X172082505Y-32253300D01*
X172098120Y-32290999D01*
X172133260Y-32467659D01*
X172133260Y-32647781D01*
X172098120Y-32824441D01*
X172098119Y-32824443D01*
X172029191Y-32990850D01*
X171929120Y-33140617D01*
X171801757Y-33267980D01*
X171651990Y-33368051D01*
X171523280Y-33421365D01*
X171485581Y-33436980D01*
X171308921Y-33472120D01*
X171128799Y-33472120D01*
X170952139Y-33436980D01*
X170914440Y-33421365D01*
X170785730Y-33368051D01*
X170635963Y-33267980D01*
X170508600Y-33140617D01*
X170408529Y-32990850D01*
X170339601Y-32824443D01*
X170339600Y-32824441D01*
X170304460Y-32647781D01*
X170304460Y-32467659D01*
X170339600Y-32290999D01*
X170355215Y-32253300D01*
X170408529Y-32124590D01*
X170508600Y-31974823D01*
X170635963Y-31847460D01*
X170785730Y-31747389D01*
X170952137Y-31678461D01*
X170952136Y-31678461D01*
X170952139Y-31678460D01*
X171128799Y-31643320D01*
X171308921Y-31643320D01*
X171485581Y-31678460D01*
G37*
G36*
X158785581Y-31678460D02*
G01*
X158785584Y-31678461D01*
X158785583Y-31678461D01*
X158951990Y-31747389D01*
X159101757Y-31847460D01*
X159229120Y-31974823D01*
X159329191Y-32124590D01*
X159382505Y-32253300D01*
X159398120Y-32290999D01*
X159433260Y-32467659D01*
X159433260Y-32647781D01*
X159398120Y-32824441D01*
X159398119Y-32824443D01*
X159329191Y-32990850D01*
X159229120Y-33140617D01*
X159101757Y-33267980D01*
X158951990Y-33368051D01*
X158823280Y-33421365D01*
X158785581Y-33436980D01*
X158608921Y-33472120D01*
X158428799Y-33472120D01*
X158252139Y-33436980D01*
X158214440Y-33421365D01*
X158085730Y-33368051D01*
X157935963Y-33267980D01*
X157808600Y-33140617D01*
X157708529Y-32990850D01*
X157639601Y-32824443D01*
X157639600Y-32824441D01*
X157604460Y-32647781D01*
X157604460Y-32467659D01*
X157639600Y-32290999D01*
X157655215Y-32253300D01*
X157708529Y-32124590D01*
X157808600Y-31974823D01*
X157935963Y-31847460D01*
X158085730Y-31747389D01*
X158252137Y-31678461D01*
X158252136Y-31678461D01*
X158252139Y-31678460D01*
X158428799Y-31643320D01*
X158608921Y-31643320D01*
X158785581Y-31678460D01*
G37*
G36*
X161325581Y-31678460D02*
G01*
X161325584Y-31678461D01*
X161325583Y-31678461D01*
X161491990Y-31747389D01*
X161641757Y-31847460D01*
X161769120Y-31974823D01*
X161869191Y-32124590D01*
X161922505Y-32253300D01*
X161938120Y-32290999D01*
X161973260Y-32467659D01*
X161973260Y-32647781D01*
X161938120Y-32824441D01*
X161938119Y-32824443D01*
X161869191Y-32990850D01*
X161769120Y-33140617D01*
X161641757Y-33267980D01*
X161491990Y-33368051D01*
X161363280Y-33421365D01*
X161325581Y-33436980D01*
X161148921Y-33472120D01*
X160968799Y-33472120D01*
X160792139Y-33436980D01*
X160754440Y-33421365D01*
X160625730Y-33368051D01*
X160475963Y-33267980D01*
X160348600Y-33140617D01*
X160248529Y-32990850D01*
X160179601Y-32824443D01*
X160179600Y-32824441D01*
X160144460Y-32647781D01*
X160144460Y-32467659D01*
X160179600Y-32290999D01*
X160195215Y-32253300D01*
X160248529Y-32124590D01*
X160348600Y-31974823D01*
X160475963Y-31847460D01*
X160625730Y-31747389D01*
X160792137Y-31678461D01*
X160792136Y-31678461D01*
X160792139Y-31678460D01*
X160968799Y-31643320D01*
X161148921Y-31643320D01*
X161325581Y-31678460D01*
G37*
G36*
X163865581Y-31678460D02*
G01*
X163865584Y-31678461D01*
X163865583Y-31678461D01*
X164031990Y-31747389D01*
X164181757Y-31847460D01*
X164309120Y-31974823D01*
X164409191Y-32124590D01*
X164462505Y-32253300D01*
X164478120Y-32290999D01*
X164513260Y-32467659D01*
X164513260Y-32647781D01*
X164478120Y-32824441D01*
X164478119Y-32824443D01*
X164409191Y-32990850D01*
X164309120Y-33140617D01*
X164181757Y-33267980D01*
X164031990Y-33368051D01*
X163903280Y-33421365D01*
X163865581Y-33436980D01*
X163688921Y-33472120D01*
X163508799Y-33472120D01*
X163332139Y-33436980D01*
X163294440Y-33421365D01*
X163165730Y-33368051D01*
X163015963Y-33267980D01*
X162888600Y-33140617D01*
X162788529Y-32990850D01*
X162719601Y-32824443D01*
X162719600Y-32824441D01*
X162684460Y-32647781D01*
X162684460Y-32467659D01*
X162719600Y-32290999D01*
X162735215Y-32253300D01*
X162788529Y-32124590D01*
X162888600Y-31974823D01*
X163015963Y-31847460D01*
X163165730Y-31747389D01*
X163332137Y-31678461D01*
X163332136Y-31678461D01*
X163332139Y-31678460D01*
X163508799Y-31643320D01*
X163688921Y-31643320D01*
X163865581Y-31678460D01*
G37*
G36*
X166405581Y-31678460D02*
G01*
X166405584Y-31678461D01*
X166405583Y-31678461D01*
X166571990Y-31747389D01*
X166721757Y-31847460D01*
X166849120Y-31974823D01*
X166949191Y-32124590D01*
X167002505Y-32253300D01*
X167018120Y-32290999D01*
X167053260Y-32467659D01*
X167053260Y-32647781D01*
X167018120Y-32824441D01*
X167018119Y-32824443D01*
X166949191Y-32990850D01*
X166849120Y-33140617D01*
X166721757Y-33267980D01*
X166571990Y-33368051D01*
X166443280Y-33421365D01*
X166405581Y-33436980D01*
X166228921Y-33472120D01*
X166048799Y-33472120D01*
X165872139Y-33436980D01*
X165834440Y-33421365D01*
X165705730Y-33368051D01*
X165555963Y-33267980D01*
X165428600Y-33140617D01*
X165328529Y-32990850D01*
X165259601Y-32824443D01*
X165259600Y-32824441D01*
X165224460Y-32647781D01*
X165224460Y-32467659D01*
X165259600Y-32290999D01*
X165275215Y-32253300D01*
X165328529Y-32124590D01*
X165428600Y-31974823D01*
X165555963Y-31847460D01*
X165705730Y-31747389D01*
X165872137Y-31678461D01*
X165872136Y-31678461D01*
X165872139Y-31678460D01*
X166048799Y-31643320D01*
X166228921Y-31643320D01*
X166405581Y-31678460D01*
G37*
G36*
X168945581Y-31678460D02*
G01*
X168945584Y-31678461D01*
X168945583Y-31678461D01*
X169111990Y-31747389D01*
X169261757Y-31847460D01*
X169389120Y-31974823D01*
X169489191Y-32124590D01*
X169542505Y-32253300D01*
X169558120Y-32290999D01*
X169593260Y-32467659D01*
X169593260Y-32647781D01*
X169558120Y-32824441D01*
X169558119Y-32824443D01*
X169489191Y-32990850D01*
X169389120Y-33140617D01*
X169261757Y-33267980D01*
X169111990Y-33368051D01*
X168983280Y-33421365D01*
X168945581Y-33436980D01*
X168768921Y-33472120D01*
X168588799Y-33472120D01*
X168412139Y-33436980D01*
X168374440Y-33421365D01*
X168245730Y-33368051D01*
X168095963Y-33267980D01*
X167968600Y-33140617D01*
X167868529Y-32990850D01*
X167799601Y-32824443D01*
X167799600Y-32824441D01*
X167764460Y-32647781D01*
X167764460Y-32467659D01*
X167799600Y-32290999D01*
X167815215Y-32253300D01*
X167868529Y-32124590D01*
X167968600Y-31974823D01*
X168095963Y-31847460D01*
X168245730Y-31747389D01*
X168412137Y-31678461D01*
X168412136Y-31678461D01*
X168412139Y-31678460D01*
X168588799Y-31643320D01*
X168768921Y-31643320D01*
X168945581Y-31678460D01*
G37*
G36*
X174673260Y-33472120D02*
G01*
X172844460Y-33472120D01*
X172844460Y-31643320D01*
X174673260Y-31643320D01*
X174673260Y-33472120D01*
G37*
G36*
X146085581Y-31678460D02*
G01*
X146085584Y-31678461D01*
X146085583Y-31678461D01*
X146251990Y-31747389D01*
X146401757Y-31847460D01*
X146529120Y-31974823D01*
X146629191Y-32124590D01*
X146682505Y-32253300D01*
X146698120Y-32290999D01*
X146733260Y-32467659D01*
X146733260Y-32647781D01*
X146698120Y-32824441D01*
X146698119Y-32824443D01*
X146629191Y-32990850D01*
X146529120Y-33140617D01*
X146401757Y-33267980D01*
X146251990Y-33368051D01*
X146123280Y-33421365D01*
X146085581Y-33436980D01*
X145908921Y-33472120D01*
X145728799Y-33472120D01*
X145552139Y-33436980D01*
X145514440Y-33421365D01*
X145385730Y-33368051D01*
X145235963Y-33267980D01*
X145108600Y-33140617D01*
X145008529Y-32990850D01*
X144939601Y-32824443D01*
X144939600Y-32824441D01*
X144904460Y-32647781D01*
X144904460Y-32467659D01*
X144939600Y-32290999D01*
X144955215Y-32253300D01*
X145008529Y-32124590D01*
X145108600Y-31974823D01*
X145235963Y-31847460D01*
X145385730Y-31747389D01*
X145552137Y-31678461D01*
X145552136Y-31678461D01*
X145552139Y-31678460D01*
X145728799Y-31643320D01*
X145908921Y-31643320D01*
X146085581Y-31678460D01*
G37*
G36*
X151165581Y-31678460D02*
G01*
X151165584Y-31678461D01*
X151165583Y-31678461D01*
X151331990Y-31747389D01*
X151481757Y-31847460D01*
X151609120Y-31974823D01*
X151709191Y-32124590D01*
X151762505Y-32253300D01*
X151778120Y-32290999D01*
X151813260Y-32467659D01*
X151813260Y-32647781D01*
X151778120Y-32824441D01*
X151778119Y-32824443D01*
X151709191Y-32990850D01*
X151609120Y-33140617D01*
X151481757Y-33267980D01*
X151331990Y-33368051D01*
X151203280Y-33421365D01*
X151165581Y-33436980D01*
X150988921Y-33472120D01*
X150808799Y-33472120D01*
X150632139Y-33436980D01*
X150594440Y-33421365D01*
X150465730Y-33368051D01*
X150315963Y-33267980D01*
X150188600Y-33140617D01*
X150088529Y-32990850D01*
X150019601Y-32824443D01*
X150019600Y-32824441D01*
X149984460Y-32647781D01*
X149984460Y-32467659D01*
X150019600Y-32290999D01*
X150035215Y-32253300D01*
X150088529Y-32124590D01*
X150188600Y-31974823D01*
X150315963Y-31847460D01*
X150465730Y-31747389D01*
X150632137Y-31678461D01*
X150632136Y-31678461D01*
X150632139Y-31678460D01*
X150808799Y-31643320D01*
X150988921Y-31643320D01*
X151165581Y-31678460D01*
G37*
G36*
X153705581Y-31678460D02*
G01*
X153705584Y-31678461D01*
X153705583Y-31678461D01*
X153871990Y-31747389D01*
X154021757Y-31847460D01*
X154149120Y-31974823D01*
X154249191Y-32124590D01*
X154302505Y-32253300D01*
X154318120Y-32290999D01*
X154353260Y-32467659D01*
X154353260Y-32647781D01*
X154318120Y-32824441D01*
X154318119Y-32824443D01*
X154249191Y-32990850D01*
X154149120Y-33140617D01*
X154021757Y-33267980D01*
X153871990Y-33368051D01*
X153743280Y-33421365D01*
X153705581Y-33436980D01*
X153528921Y-33472120D01*
X153348799Y-33472120D01*
X153172139Y-33436980D01*
X153134440Y-33421365D01*
X153005730Y-33368051D01*
X152855963Y-33267980D01*
X152728600Y-33140617D01*
X152628529Y-32990850D01*
X152559601Y-32824443D01*
X152559600Y-32824441D01*
X152524460Y-32647781D01*
X152524460Y-32467659D01*
X152559600Y-32290999D01*
X152575215Y-32253300D01*
X152628529Y-32124590D01*
X152728600Y-31974823D01*
X152855963Y-31847460D01*
X153005730Y-31747389D01*
X153172137Y-31678461D01*
X153172136Y-31678461D01*
X153172139Y-31678460D01*
X153348799Y-31643320D01*
X153528921Y-31643320D01*
X153705581Y-31678460D01*
G37*
G36*
X143545581Y-31678460D02*
G01*
X143545584Y-31678461D01*
X143545583Y-31678461D01*
X143711990Y-31747389D01*
X143861757Y-31847460D01*
X143989120Y-31974823D01*
X144089191Y-32124590D01*
X144142505Y-32253300D01*
X144158120Y-32290999D01*
X144193260Y-32467659D01*
X144193260Y-32647781D01*
X144158120Y-32824441D01*
X144158119Y-32824443D01*
X144089191Y-32990850D01*
X143989120Y-33140617D01*
X143861757Y-33267980D01*
X143711990Y-33368051D01*
X143583280Y-33421365D01*
X143545581Y-33436980D01*
X143368921Y-33472120D01*
X143188799Y-33472120D01*
X143012139Y-33436980D01*
X142974440Y-33421365D01*
X142845730Y-33368051D01*
X142695963Y-33267980D01*
X142568600Y-33140617D01*
X142468529Y-32990850D01*
X142399601Y-32824443D01*
X142399600Y-32824441D01*
X142364460Y-32647781D01*
X142364460Y-32467659D01*
X142399600Y-32290999D01*
X142415215Y-32253300D01*
X142468529Y-32124590D01*
X142568600Y-31974823D01*
X142695963Y-31847460D01*
X142845730Y-31747389D01*
X143012137Y-31678461D01*
X143012136Y-31678461D01*
X143012139Y-31678460D01*
X143188799Y-31643320D01*
X143368921Y-31643320D01*
X143545581Y-31678460D01*
G37*
G36*
X156245581Y-31678460D02*
G01*
X156245584Y-31678461D01*
X156245583Y-31678461D01*
X156411990Y-31747389D01*
X156561757Y-31847460D01*
X156689120Y-31974823D01*
X156789191Y-32124590D01*
X156842505Y-32253300D01*
X156858120Y-32290999D01*
X156893260Y-32467659D01*
X156893260Y-32647781D01*
X156858120Y-32824441D01*
X156858119Y-32824443D01*
X156789191Y-32990850D01*
X156689120Y-33140617D01*
X156561757Y-33267980D01*
X156411990Y-33368051D01*
X156283280Y-33421365D01*
X156245581Y-33436980D01*
X156068921Y-33472120D01*
X155888799Y-33472120D01*
X155712139Y-33436980D01*
X155674440Y-33421365D01*
X155545730Y-33368051D01*
X155395963Y-33267980D01*
X155268600Y-33140617D01*
X155168529Y-32990850D01*
X155099601Y-32824443D01*
X155099600Y-32824441D01*
X155064460Y-32647781D01*
X155064460Y-32467659D01*
X155099600Y-32290999D01*
X155115215Y-32253300D01*
X155168529Y-32124590D01*
X155268600Y-31974823D01*
X155395963Y-31847460D01*
X155545730Y-31747389D01*
X155712137Y-31678461D01*
X155712136Y-31678461D01*
X155712139Y-31678460D01*
X155888799Y-31643320D01*
X156068921Y-31643320D01*
X156245581Y-31678460D01*
G37*
G36*
X148625581Y-31678460D02*
G01*
X148625584Y-31678461D01*
X148625583Y-31678461D01*
X148791990Y-31747389D01*
X148941757Y-31847460D01*
X149069120Y-31974823D01*
X149169191Y-32124590D01*
X149222505Y-32253300D01*
X149238120Y-32290999D01*
X149273260Y-32467659D01*
X149273260Y-32647781D01*
X149238120Y-32824441D01*
X149238119Y-32824443D01*
X149169191Y-32990850D01*
X149069120Y-33140617D01*
X148941757Y-33267980D01*
X148791990Y-33368051D01*
X148663280Y-33421365D01*
X148625581Y-33436980D01*
X148448921Y-33472120D01*
X148268799Y-33472120D01*
X148092139Y-33436980D01*
X148054440Y-33421365D01*
X147925730Y-33368051D01*
X147775963Y-33267980D01*
X147648600Y-33140617D01*
X147548529Y-32990850D01*
X147479601Y-32824443D01*
X147479600Y-32824441D01*
X147444460Y-32647781D01*
X147444460Y-32467659D01*
X147479600Y-32290999D01*
X147495215Y-32253300D01*
X147548529Y-32124590D01*
X147648600Y-31974823D01*
X147775963Y-31847460D01*
X147925730Y-31747389D01*
X148092137Y-31678461D01*
X148092136Y-31678461D01*
X148092139Y-31678460D01*
X148268799Y-31643320D01*
X148448921Y-31643320D01*
X148625581Y-31678460D01*
G37*
M02*
