G04 #@! TF.GenerationSoftware,KiCad,Pcbnew,(5.1.6)-1*
G04 #@! TF.CreationDate,2020-07-06T23:29:03+03:00*
G04 #@! TF.ProjectId,GD5434,47443534-3334-42e6-9b69-6361645f7063,rev?*
G04 #@! TF.SameCoordinates,Original*
G04 #@! TF.FileFunction,Legend,Bot*
G04 #@! TF.FilePolarity,Positive*
%FSLAX46Y46*%
G04 Gerber Fmt 4.6, Leading zero omitted, Abs format (unit mm)*
G04 Created by KiCad (PCBNEW (5.1.6)-1) date 2020-07-06 23:29:03*
%MOMM*%
%LPD*%
G01*
G04 APERTURE LIST*
%ADD10C,0.300000*%
%ADD11C,0.010000*%
G04 APERTURE END LIST*
D10*
X229094066Y-85625533D02*
X229094066Y-86625533D01*
X229160733Y-86825533D01*
X229294066Y-86958866D01*
X229494066Y-87025533D01*
X229627400Y-87025533D01*
X228427400Y-87025533D02*
X228427400Y-85625533D01*
X227894066Y-85625533D01*
X227760733Y-85692200D01*
X227694066Y-85758866D01*
X227627400Y-85892200D01*
X227627400Y-86092200D01*
X227694066Y-86225533D01*
X227760733Y-86292200D01*
X227894066Y-86358866D01*
X228427400Y-86358866D01*
X226294066Y-87025533D02*
X227094066Y-87025533D01*
X226694066Y-87025533D02*
X226694066Y-85625533D01*
X226827400Y-85825533D01*
X226960733Y-85958866D01*
X227094066Y-86025533D01*
X224627400Y-86492200D02*
X223560733Y-86492200D01*
X221827400Y-87025533D02*
X221827400Y-85625533D01*
X220360733Y-87025533D02*
X220827400Y-86358866D01*
X221160733Y-87025533D02*
X221160733Y-85625533D01*
X220627400Y-85625533D01*
X220494066Y-85692200D01*
X220427400Y-85758866D01*
X220360733Y-85892200D01*
X220360733Y-86092200D01*
X220427400Y-86225533D01*
X220494066Y-86292200D01*
X220627400Y-86358866D01*
X221160733Y-86358866D01*
X218827400Y-87158866D02*
X218960733Y-87092200D01*
X219094066Y-86958866D01*
X219294066Y-86758866D01*
X219427400Y-86692200D01*
X219560733Y-86692200D01*
X219494066Y-87025533D02*
X219627400Y-86958866D01*
X219760733Y-86825533D01*
X219827400Y-86558866D01*
X219827400Y-86092200D01*
X219760733Y-85825533D01*
X219627400Y-85692200D01*
X219494066Y-85625533D01*
X219227400Y-85625533D01*
X219094066Y-85692200D01*
X218960733Y-85825533D01*
X218894066Y-86092200D01*
X218894066Y-86558866D01*
X218960733Y-86825533D01*
X219094066Y-86958866D01*
X219227400Y-87025533D01*
X219494066Y-87025533D01*
X218360733Y-85758866D02*
X218294066Y-85692200D01*
X218160733Y-85625533D01*
X217827400Y-85625533D01*
X217694066Y-85692200D01*
X217627400Y-85758866D01*
X217560733Y-85892200D01*
X217560733Y-86025533D01*
X217627400Y-86225533D01*
X218427400Y-87025533D01*
X217560733Y-87025533D01*
X215960733Y-85558866D02*
X217160733Y-87358866D01*
X215427400Y-87025533D02*
X215160733Y-87025533D01*
X215027400Y-86958866D01*
X214960733Y-86892200D01*
X214827400Y-86692200D01*
X214760733Y-86425533D01*
X214760733Y-85892200D01*
X214827400Y-85758866D01*
X214894066Y-85692200D01*
X215027400Y-85625533D01*
X215294066Y-85625533D01*
X215427400Y-85692200D01*
X215494066Y-85758866D01*
X215560733Y-85892200D01*
X215560733Y-86225533D01*
X215494066Y-86358866D01*
X215427400Y-86425533D01*
X215294066Y-86492200D01*
X215027400Y-86492200D01*
X214894066Y-86425533D01*
X214827400Y-86358866D01*
X214760733Y-86225533D01*
X212560733Y-86958866D02*
X212694066Y-87025533D01*
X212960733Y-87025533D01*
X213094066Y-86958866D01*
X213160733Y-86825533D01*
X213160733Y-86292200D01*
X213094066Y-86158866D01*
X212960733Y-86092200D01*
X212694066Y-86092200D01*
X212560733Y-86158866D01*
X212494066Y-86292200D01*
X212494066Y-86425533D01*
X213160733Y-86558866D01*
X211894066Y-86092200D02*
X211894066Y-87025533D01*
X211894066Y-86225533D02*
X211827400Y-86158866D01*
X211694066Y-86092200D01*
X211494066Y-86092200D01*
X211360733Y-86158866D01*
X211294066Y-86292200D01*
X211294066Y-87025533D01*
X210027400Y-87025533D02*
X210027400Y-86292200D01*
X210094066Y-86158866D01*
X210227400Y-86092200D01*
X210494066Y-86092200D01*
X210627400Y-86158866D01*
X210027400Y-86958866D02*
X210160733Y-87025533D01*
X210494066Y-87025533D01*
X210627400Y-86958866D01*
X210694066Y-86825533D01*
X210694066Y-86692200D01*
X210627400Y-86558866D01*
X210494066Y-86492200D01*
X210160733Y-86492200D01*
X210027400Y-86425533D01*
X209360733Y-87025533D02*
X209360733Y-85625533D01*
X209360733Y-86158866D02*
X209227400Y-86092200D01*
X208960733Y-86092200D01*
X208827400Y-86158866D01*
X208760733Y-86225533D01*
X208694066Y-86358866D01*
X208694066Y-86758866D01*
X208760733Y-86892200D01*
X208827400Y-86958866D01*
X208960733Y-87025533D01*
X209227400Y-87025533D01*
X209360733Y-86958866D01*
X207894066Y-87025533D02*
X208027400Y-86958866D01*
X208094066Y-86825533D01*
X208094066Y-85625533D01*
X206827400Y-86958866D02*
X206960733Y-87025533D01*
X207227400Y-87025533D01*
X207360733Y-86958866D01*
X207427400Y-86825533D01*
X207427400Y-86292200D01*
X207360733Y-86158866D01*
X207227400Y-86092200D01*
X206960733Y-86092200D01*
X206827400Y-86158866D01*
X206760733Y-86292200D01*
X206760733Y-86425533D01*
X207427400Y-86558866D01*
X229094066Y-88025533D02*
X229094066Y-89025533D01*
X229160733Y-89225533D01*
X229294066Y-89358866D01*
X229494066Y-89425533D01*
X229627400Y-89425533D01*
X228427400Y-89425533D02*
X228427400Y-88025533D01*
X227894066Y-88025533D01*
X227760733Y-88092200D01*
X227694066Y-88158866D01*
X227627400Y-88292200D01*
X227627400Y-88492200D01*
X227694066Y-88625533D01*
X227760733Y-88692200D01*
X227894066Y-88758866D01*
X228427400Y-88758866D01*
X227094066Y-88158866D02*
X227027400Y-88092200D01*
X226894066Y-88025533D01*
X226560733Y-88025533D01*
X226427400Y-88092200D01*
X226360733Y-88158866D01*
X226294066Y-88292200D01*
X226294066Y-88425533D01*
X226360733Y-88625533D01*
X227160733Y-89425533D01*
X226294066Y-89425533D01*
X224627400Y-88892200D02*
X223560733Y-88892200D01*
X221960733Y-88025533D02*
X221027400Y-88025533D01*
X221960733Y-89425533D01*
X221027400Y-89425533D01*
X219960733Y-89358866D02*
X220094066Y-89425533D01*
X220360733Y-89425533D01*
X220494066Y-89358866D01*
X220560733Y-89225533D01*
X220560733Y-88692200D01*
X220494066Y-88558866D01*
X220360733Y-88492200D01*
X220094066Y-88492200D01*
X219960733Y-88558866D01*
X219894066Y-88692200D01*
X219894066Y-88825533D01*
X220560733Y-88958866D01*
X219294066Y-89425533D02*
X219294066Y-88492200D01*
X219294066Y-88758866D02*
X219227400Y-88625533D01*
X219160733Y-88558866D01*
X219027400Y-88492200D01*
X218894066Y-88492200D01*
X218227400Y-89425533D02*
X218360733Y-89358866D01*
X218427400Y-89292200D01*
X218494066Y-89158866D01*
X218494066Y-88758866D01*
X218427400Y-88625533D01*
X218360733Y-88558866D01*
X218227400Y-88492200D01*
X218027400Y-88492200D01*
X217894066Y-88558866D01*
X217827400Y-88625533D01*
X217760733Y-88758866D01*
X217760733Y-89158866D01*
X217827400Y-89292200D01*
X217894066Y-89358866D01*
X218027400Y-89425533D01*
X218227400Y-89425533D01*
X216227400Y-88025533D02*
X215894066Y-89425533D01*
X215627400Y-88425533D01*
X215360733Y-89425533D01*
X215027400Y-88025533D01*
X214560733Y-89358866D02*
X214360733Y-89425533D01*
X214027400Y-89425533D01*
X213894066Y-89358866D01*
X213827400Y-89292200D01*
X213760733Y-89158866D01*
X213760733Y-89025533D01*
X213827400Y-88892200D01*
X213894066Y-88825533D01*
X214027400Y-88758866D01*
X214294066Y-88692200D01*
X214427400Y-88625533D01*
X214494066Y-88558866D01*
X214560733Y-88425533D01*
X214560733Y-88292200D01*
X214494066Y-88158866D01*
X214427400Y-88092200D01*
X214294066Y-88025533D01*
X213960733Y-88025533D01*
X213760733Y-88092200D01*
X229094066Y-90425533D02*
X229094066Y-91425533D01*
X229160733Y-91625533D01*
X229294066Y-91758866D01*
X229494066Y-91825533D01*
X229627400Y-91825533D01*
X228427400Y-91825533D02*
X228427400Y-90425533D01*
X227894066Y-90425533D01*
X227760733Y-90492200D01*
X227694066Y-90558866D01*
X227627400Y-90692200D01*
X227627400Y-90892200D01*
X227694066Y-91025533D01*
X227760733Y-91092200D01*
X227894066Y-91158866D01*
X228427400Y-91158866D01*
X227160733Y-90425533D02*
X226294066Y-90425533D01*
X226760733Y-90958866D01*
X226560733Y-90958866D01*
X226427400Y-91025533D01*
X226360733Y-91092200D01*
X226294066Y-91225533D01*
X226294066Y-91558866D01*
X226360733Y-91692200D01*
X226427400Y-91758866D01*
X226560733Y-91825533D01*
X226960733Y-91825533D01*
X227094066Y-91758866D01*
X227160733Y-91692200D01*
X224627400Y-91292200D02*
X223560733Y-91292200D01*
X221027400Y-91825533D02*
X221494066Y-91158866D01*
X221827400Y-91825533D02*
X221827400Y-90425533D01*
X221294066Y-90425533D01*
X221160733Y-90492200D01*
X221094066Y-90558866D01*
X221027400Y-90692200D01*
X221027400Y-90892200D01*
X221094066Y-91025533D01*
X221160733Y-91092200D01*
X221294066Y-91158866D01*
X221827400Y-91158866D01*
X220160733Y-90425533D02*
X219894066Y-90425533D01*
X219760733Y-90492200D01*
X219627400Y-90625533D01*
X219560733Y-90892200D01*
X219560733Y-91358866D01*
X219627400Y-91625533D01*
X219760733Y-91758866D01*
X219894066Y-91825533D01*
X220160733Y-91825533D01*
X220294066Y-91758866D01*
X220427400Y-91625533D01*
X220494066Y-91358866D01*
X220494066Y-90892200D01*
X220427400Y-90625533D01*
X220294066Y-90492200D01*
X220160733Y-90425533D01*
X218960733Y-91825533D02*
X218960733Y-90425533D01*
X218494066Y-91425533D01*
X218027400Y-90425533D01*
X218027400Y-91825533D01*
X216360733Y-91758866D02*
X216227400Y-91825533D01*
X215960733Y-91825533D01*
X215827400Y-91758866D01*
X215760733Y-91625533D01*
X215760733Y-91558866D01*
X215827400Y-91425533D01*
X215960733Y-91358866D01*
X216160733Y-91358866D01*
X216294066Y-91292200D01*
X216360733Y-91158866D01*
X216360733Y-91092200D01*
X216294066Y-90958866D01*
X216160733Y-90892200D01*
X215960733Y-90892200D01*
X215827400Y-90958866D01*
X214627400Y-91758866D02*
X214760733Y-91825533D01*
X215027400Y-91825533D01*
X215160733Y-91758866D01*
X215227400Y-91625533D01*
X215227400Y-91092200D01*
X215160733Y-90958866D01*
X215027400Y-90892200D01*
X214760733Y-90892200D01*
X214627400Y-90958866D01*
X214560733Y-91092200D01*
X214560733Y-91225533D01*
X215227400Y-91358866D01*
X213360733Y-91758866D02*
X213494066Y-91825533D01*
X213760733Y-91825533D01*
X213894066Y-91758866D01*
X213960733Y-91692200D01*
X214027400Y-91558866D01*
X214027400Y-91158866D01*
X213960733Y-91025533D01*
X213894066Y-90958866D01*
X213760733Y-90892200D01*
X213494066Y-90892200D01*
X213360733Y-90958866D01*
X212960733Y-90892200D02*
X212427400Y-90892200D01*
X212760733Y-90425533D02*
X212760733Y-91625533D01*
X212694066Y-91758866D01*
X212560733Y-91825533D01*
X212427400Y-91825533D01*
X211960733Y-91825533D02*
X211960733Y-90892200D01*
X211960733Y-90425533D02*
X212027400Y-90492200D01*
X211960733Y-90558866D01*
X211894066Y-90492200D01*
X211960733Y-90425533D01*
X211960733Y-90558866D01*
X211094066Y-91825533D02*
X211227400Y-91758866D01*
X211294066Y-91692200D01*
X211360733Y-91558866D01*
X211360733Y-91158866D01*
X211294066Y-91025533D01*
X211227400Y-90958866D01*
X211094066Y-90892200D01*
X210894066Y-90892200D01*
X210760733Y-90958866D01*
X210694066Y-91025533D01*
X210627400Y-91158866D01*
X210627400Y-91558866D01*
X210694066Y-91692200D01*
X210760733Y-91758866D01*
X210894066Y-91825533D01*
X211094066Y-91825533D01*
X210027400Y-90892200D02*
X210027400Y-91825533D01*
X210027400Y-91025533D02*
X209960733Y-90958866D01*
X209827400Y-90892200D01*
X209627400Y-90892200D01*
X209494066Y-90958866D01*
X209427400Y-91092200D01*
X209427400Y-91825533D01*
X207760733Y-91758866D02*
X207627400Y-91825533D01*
X207360733Y-91825533D01*
X207227400Y-91758866D01*
X207160733Y-91625533D01*
X207160733Y-91558866D01*
X207227400Y-91425533D01*
X207360733Y-91358866D01*
X207560733Y-91358866D01*
X207694066Y-91292200D01*
X207760733Y-91158866D01*
X207760733Y-91092200D01*
X207694066Y-90958866D01*
X207560733Y-90892200D01*
X207360733Y-90892200D01*
X207227400Y-90958866D01*
X206027400Y-91758866D02*
X206160733Y-91825533D01*
X206427400Y-91825533D01*
X206560733Y-91758866D01*
X206627400Y-91625533D01*
X206627400Y-91092200D01*
X206560733Y-90958866D01*
X206427400Y-90892200D01*
X206160733Y-90892200D01*
X206027400Y-90958866D01*
X205960733Y-91092200D01*
X205960733Y-91225533D01*
X206627400Y-91358866D01*
X205160733Y-91825533D02*
X205294066Y-91758866D01*
X205360733Y-91625533D01*
X205360733Y-90425533D01*
X204094066Y-91758866D02*
X204227400Y-91825533D01*
X204494066Y-91825533D01*
X204627400Y-91758866D01*
X204694066Y-91625533D01*
X204694066Y-91092200D01*
X204627400Y-90958866D01*
X204494066Y-90892200D01*
X204227400Y-90892200D01*
X204094066Y-90958866D01*
X204027400Y-91092200D01*
X204027400Y-91225533D01*
X204694066Y-91358866D01*
X202827400Y-91758866D02*
X202960733Y-91825533D01*
X203227400Y-91825533D01*
X203360733Y-91758866D01*
X203427400Y-91692200D01*
X203494066Y-91558866D01*
X203494066Y-91158866D01*
X203427400Y-91025533D01*
X203360733Y-90958866D01*
X203227400Y-90892200D01*
X202960733Y-90892200D01*
X202827400Y-90958866D01*
X202427400Y-90892200D02*
X201894066Y-90892200D01*
X202227400Y-90425533D02*
X202227400Y-91625533D01*
X202160733Y-91758866D01*
X202027400Y-91825533D01*
X201894066Y-91825533D01*
X229094066Y-92825533D02*
X229094066Y-93825533D01*
X229160733Y-94025533D01*
X229294066Y-94158866D01*
X229494066Y-94225533D01*
X229627400Y-94225533D01*
X228427400Y-94225533D02*
X228427400Y-92825533D01*
X227894066Y-92825533D01*
X227760733Y-92892200D01*
X227694066Y-92958866D01*
X227627400Y-93092200D01*
X227627400Y-93292200D01*
X227694066Y-93425533D01*
X227760733Y-93492200D01*
X227894066Y-93558866D01*
X228427400Y-93558866D01*
X226427400Y-93292200D02*
X226427400Y-94225533D01*
X226760733Y-92758866D02*
X227094066Y-93758866D01*
X226227400Y-93758866D01*
X223494066Y-94225533D02*
X223560733Y-94225533D01*
X223694066Y-94158866D01*
X223894066Y-93958866D01*
X224227400Y-93558866D01*
X224360733Y-93358866D01*
X224427400Y-93158866D01*
X224427400Y-93025533D01*
X224360733Y-92892200D01*
X224227400Y-92825533D01*
X224160733Y-92825533D01*
X224027400Y-92892200D01*
X223960733Y-93025533D01*
X223960733Y-93092200D01*
X224027400Y-93225533D01*
X224094066Y-93292200D01*
X224494066Y-93558866D01*
X224560733Y-93625533D01*
X224627400Y-93758866D01*
X224627400Y-93958866D01*
X224560733Y-94092200D01*
X224494066Y-94158866D01*
X224360733Y-94225533D01*
X224160733Y-94225533D01*
X224027400Y-94158866D01*
X223960733Y-94092200D01*
X223760733Y-93825533D01*
X223694066Y-93625533D01*
X223694066Y-93492200D01*
X221027400Y-94225533D02*
X221494066Y-93558866D01*
X221827400Y-94225533D02*
X221827400Y-92825533D01*
X221294066Y-92825533D01*
X221160733Y-92892200D01*
X221094066Y-92958866D01*
X221027400Y-93092200D01*
X221027400Y-93292200D01*
X221094066Y-93425533D01*
X221160733Y-93492200D01*
X221294066Y-93558866D01*
X221827400Y-93558866D01*
X219760733Y-92825533D02*
X220427400Y-92825533D01*
X220494066Y-93492200D01*
X220427400Y-93425533D01*
X220294066Y-93358866D01*
X219960733Y-93358866D01*
X219827400Y-93425533D01*
X219760733Y-93492200D01*
X219694066Y-93625533D01*
X219694066Y-93958866D01*
X219760733Y-94092200D01*
X219827400Y-94158866D01*
X219960733Y-94225533D01*
X220294066Y-94225533D01*
X220427400Y-94158866D01*
X220494066Y-94092200D01*
X218027400Y-93692200D02*
X216960733Y-93692200D01*
X214627400Y-92825533D02*
X214894066Y-92825533D01*
X215027400Y-92892200D01*
X215094066Y-92958866D01*
X215227400Y-93158866D01*
X215294066Y-93425533D01*
X215294066Y-93958866D01*
X215227400Y-94092200D01*
X215160733Y-94158866D01*
X215027400Y-94225533D01*
X214760733Y-94225533D01*
X214627400Y-94158866D01*
X214560733Y-94092200D01*
X214494066Y-93958866D01*
X214494066Y-93625533D01*
X214560733Y-93492200D01*
X214627400Y-93425533D01*
X214760733Y-93358866D01*
X215027400Y-93358866D01*
X215160733Y-93425533D01*
X215227400Y-93492200D01*
X215294066Y-93625533D01*
X213294066Y-93292200D02*
X213294066Y-94225533D01*
X213627400Y-92758866D02*
X213960733Y-93758866D01*
X213094066Y-93758866D01*
X212560733Y-94225533D02*
X212560733Y-92825533D01*
X211760733Y-94225533D02*
X212360733Y-93425533D01*
X211760733Y-92825533D02*
X212560733Y-93625533D01*
X209294066Y-94225533D02*
X209760733Y-93558866D01*
X210094066Y-94225533D02*
X210094066Y-92825533D01*
X209560733Y-92825533D01*
X209427400Y-92892200D01*
X209360733Y-92958866D01*
X209294066Y-93092200D01*
X209294066Y-93292200D01*
X209360733Y-93425533D01*
X209427400Y-93492200D01*
X209560733Y-93558866D01*
X210094066Y-93558866D01*
X208427400Y-92825533D02*
X208160733Y-92825533D01*
X208027400Y-92892200D01*
X207894066Y-93025533D01*
X207827400Y-93292200D01*
X207827400Y-93758866D01*
X207894066Y-94025533D01*
X208027400Y-94158866D01*
X208160733Y-94225533D01*
X208427400Y-94225533D01*
X208560733Y-94158866D01*
X208694066Y-94025533D01*
X208760733Y-93758866D01*
X208760733Y-93292200D01*
X208694066Y-93025533D01*
X208560733Y-92892200D01*
X208427400Y-92825533D01*
X207227400Y-94225533D02*
X207227400Y-92825533D01*
X206760733Y-93825533D01*
X206294066Y-92825533D01*
X206294066Y-94225533D01*
D11*
G36*
X94454869Y-43373306D02*
G01*
X94173703Y-43395369D01*
X93919108Y-43435689D01*
X93827035Y-43457341D01*
X93625405Y-43515557D01*
X93431294Y-43581029D01*
X93252768Y-43650189D01*
X93097892Y-43719468D01*
X92974733Y-43785297D01*
X92891356Y-43844106D01*
X92857653Y-43886260D01*
X92866129Y-43922436D01*
X92898550Y-43993516D01*
X92948784Y-44086643D01*
X92972630Y-44127416D01*
X93122924Y-44396816D01*
X93246852Y-44656355D01*
X93339194Y-44894483D01*
X93377254Y-45022240D01*
X93397730Y-45119160D01*
X93416960Y-45240571D01*
X93433952Y-45375134D01*
X93447716Y-45511515D01*
X93457260Y-45638377D01*
X93461593Y-45744384D01*
X93459724Y-45818200D01*
X93450661Y-45848489D01*
X93449517Y-45848693D01*
X93419110Y-45832437D01*
X93358399Y-45789933D01*
X93284882Y-45733776D01*
X93187229Y-45661774D01*
X93086619Y-45595646D01*
X93025422Y-45560660D01*
X92932836Y-45524955D01*
X92832895Y-45503712D01*
X92744357Y-45499233D01*
X92685980Y-45513819D01*
X92680441Y-45518324D01*
X92688704Y-45546584D01*
X92730367Y-45601184D01*
X92796714Y-45670886D01*
X92804866Y-45678727D01*
X92911101Y-45804460D01*
X93023880Y-45984671D01*
X93142532Y-46217854D01*
X93266384Y-46502505D01*
X93394767Y-46837120D01*
X93527009Y-47220195D01*
X93614270Y-47493029D01*
X93659722Y-47628884D01*
X93706367Y-47750873D01*
X93748613Y-47845345D01*
X93779915Y-47897562D01*
X93861792Y-47962430D01*
X93986829Y-48024413D01*
X94141753Y-48079452D01*
X94313292Y-48123486D01*
X94488172Y-48152457D01*
X94645480Y-48162328D01*
X94768401Y-48157469D01*
X94884537Y-48140059D01*
X95014719Y-48106005D01*
X95139368Y-48065269D01*
X95310517Y-47999949D01*
X95428125Y-47940367D01*
X95484429Y-47895384D01*
X95521086Y-47835405D01*
X95564562Y-47738290D01*
X95607347Y-47621498D01*
X95621588Y-47576500D01*
X95756466Y-47150024D01*
X95888972Y-46771411D01*
X96018466Y-46442103D01*
X96144310Y-46163541D01*
X96265867Y-45937165D01*
X96382499Y-45764418D01*
X96464147Y-45673020D01*
X96530738Y-45603793D01*
X96573208Y-45548540D01*
X96582729Y-45518822D01*
X96582296Y-45518324D01*
X96530894Y-45500296D01*
X96446321Y-45501688D01*
X96347499Y-45520181D01*
X96253348Y-45553455D01*
X96239270Y-45560362D01*
X96155847Y-45609080D01*
X96053236Y-45676702D01*
X95971924Y-45735086D01*
X95816702Y-45851908D01*
X95808332Y-45665768D01*
X95813435Y-45470459D01*
X95841824Y-45247329D01*
X95889621Y-45018039D01*
X95952950Y-44804248D01*
X95971646Y-44753444D01*
X96020854Y-44639363D01*
X96089868Y-44496820D01*
X96168884Y-44345404D01*
X96235683Y-44225915D01*
X96302956Y-44106345D01*
X96356980Y-44003233D01*
X96392672Y-43926816D01*
X96404953Y-43887326D01*
X96404621Y-43885579D01*
X96362514Y-43836764D01*
X96274227Y-43778210D01*
X96148438Y-43713454D01*
X95993828Y-43646033D01*
X95819077Y-43579484D01*
X95632865Y-43517346D01*
X95443872Y-43463154D01*
X95265732Y-43421452D01*
X95020090Y-43385869D01*
X94743400Y-43369980D01*
X94454869Y-43373306D01*
G37*
X94454869Y-43373306D02*
X94173703Y-43395369D01*
X93919108Y-43435689D01*
X93827035Y-43457341D01*
X93625405Y-43515557D01*
X93431294Y-43581029D01*
X93252768Y-43650189D01*
X93097892Y-43719468D01*
X92974733Y-43785297D01*
X92891356Y-43844106D01*
X92857653Y-43886260D01*
X92866129Y-43922436D01*
X92898550Y-43993516D01*
X92948784Y-44086643D01*
X92972630Y-44127416D01*
X93122924Y-44396816D01*
X93246852Y-44656355D01*
X93339194Y-44894483D01*
X93377254Y-45022240D01*
X93397730Y-45119160D01*
X93416960Y-45240571D01*
X93433952Y-45375134D01*
X93447716Y-45511515D01*
X93457260Y-45638377D01*
X93461593Y-45744384D01*
X93459724Y-45818200D01*
X93450661Y-45848489D01*
X93449517Y-45848693D01*
X93419110Y-45832437D01*
X93358399Y-45789933D01*
X93284882Y-45733776D01*
X93187229Y-45661774D01*
X93086619Y-45595646D01*
X93025422Y-45560660D01*
X92932836Y-45524955D01*
X92832895Y-45503712D01*
X92744357Y-45499233D01*
X92685980Y-45513819D01*
X92680441Y-45518324D01*
X92688704Y-45546584D01*
X92730367Y-45601184D01*
X92796714Y-45670886D01*
X92804866Y-45678727D01*
X92911101Y-45804460D01*
X93023880Y-45984671D01*
X93142532Y-46217854D01*
X93266384Y-46502505D01*
X93394767Y-46837120D01*
X93527009Y-47220195D01*
X93614270Y-47493029D01*
X93659722Y-47628884D01*
X93706367Y-47750873D01*
X93748613Y-47845345D01*
X93779915Y-47897562D01*
X93861792Y-47962430D01*
X93986829Y-48024413D01*
X94141753Y-48079452D01*
X94313292Y-48123486D01*
X94488172Y-48152457D01*
X94645480Y-48162328D01*
X94768401Y-48157469D01*
X94884537Y-48140059D01*
X95014719Y-48106005D01*
X95139368Y-48065269D01*
X95310517Y-47999949D01*
X95428125Y-47940367D01*
X95484429Y-47895384D01*
X95521086Y-47835405D01*
X95564562Y-47738290D01*
X95607347Y-47621498D01*
X95621588Y-47576500D01*
X95756466Y-47150024D01*
X95888972Y-46771411D01*
X96018466Y-46442103D01*
X96144310Y-46163541D01*
X96265867Y-45937165D01*
X96382499Y-45764418D01*
X96464147Y-45673020D01*
X96530738Y-45603793D01*
X96573208Y-45548540D01*
X96582729Y-45518822D01*
X96582296Y-45518324D01*
X96530894Y-45500296D01*
X96446321Y-45501688D01*
X96347499Y-45520181D01*
X96253348Y-45553455D01*
X96239270Y-45560362D01*
X96155847Y-45609080D01*
X96053236Y-45676702D01*
X95971924Y-45735086D01*
X95816702Y-45851908D01*
X95808332Y-45665768D01*
X95813435Y-45470459D01*
X95841824Y-45247329D01*
X95889621Y-45018039D01*
X95952950Y-44804248D01*
X95971646Y-44753444D01*
X96020854Y-44639363D01*
X96089868Y-44496820D01*
X96168884Y-44345404D01*
X96235683Y-44225915D01*
X96302956Y-44106345D01*
X96356980Y-44003233D01*
X96392672Y-43926816D01*
X96404953Y-43887326D01*
X96404621Y-43885579D01*
X96362514Y-43836764D01*
X96274227Y-43778210D01*
X96148438Y-43713454D01*
X95993828Y-43646033D01*
X95819077Y-43579484D01*
X95632865Y-43517346D01*
X95443872Y-43463154D01*
X95265732Y-43421452D01*
X95020090Y-43385869D01*
X94743400Y-43369980D01*
X94454869Y-43373306D01*
G36*
X99612591Y-45405475D02*
G01*
X99209893Y-45452136D01*
X98817131Y-45552491D01*
X98431917Y-45707370D01*
X98051864Y-45917602D01*
X97951362Y-45982932D01*
X97816995Y-46078555D01*
X97682925Y-46183778D01*
X97555771Y-46292235D01*
X97442153Y-46397559D01*
X97348691Y-46493385D01*
X97282005Y-46573345D01*
X97248714Y-46631074D01*
X97250532Y-46656931D01*
X97281207Y-46653875D01*
X97354989Y-46635202D01*
X97461662Y-46603798D01*
X97591007Y-46562551D01*
X97627556Y-46550414D01*
X97778352Y-46500837D01*
X97892853Y-46467033D01*
X97988007Y-46446036D01*
X98080759Y-46434880D01*
X98188059Y-46430596D01*
X98314368Y-46430175D01*
X98649857Y-46452547D01*
X98998017Y-46514503D01*
X99341785Y-46611423D01*
X99664098Y-46738689D01*
X99891412Y-46857101D01*
X100139765Y-47027115D01*
X100383803Y-47237388D01*
X100611868Y-47475386D01*
X100812302Y-47728572D01*
X100973449Y-47984413D01*
X101015072Y-48065327D01*
X101138355Y-48382296D01*
X101216231Y-48724469D01*
X101248656Y-49083460D01*
X101235584Y-49450882D01*
X101176969Y-49818349D01*
X101072767Y-50177473D01*
X101027132Y-50295730D01*
X100857572Y-50639827D01*
X100647211Y-50946724D01*
X100395239Y-51217082D01*
X100100843Y-51451560D01*
X99763214Y-51650819D01*
X99381540Y-51815519D01*
X99019674Y-51929429D01*
X98687155Y-51998237D01*
X98370890Y-52019843D01*
X98057560Y-51995124D01*
X98046257Y-51993395D01*
X97929874Y-51977181D01*
X97833011Y-51967136D01*
X97770365Y-51964635D01*
X97757142Y-51966376D01*
X97733268Y-51990345D01*
X97757087Y-52024403D01*
X97821505Y-52065068D01*
X97919427Y-52108858D01*
X98043757Y-52152289D01*
X98187401Y-52191879D01*
X98242094Y-52204437D01*
X98377033Y-52226817D01*
X98551555Y-52245387D01*
X98754169Y-52259897D01*
X98973384Y-52270098D01*
X99197711Y-52275740D01*
X99415659Y-52276575D01*
X99615738Y-52272351D01*
X99786458Y-52262821D01*
X99916329Y-52247734D01*
X99948305Y-52241484D01*
X100355487Y-52123941D01*
X100743863Y-51961977D01*
X101107175Y-51759676D01*
X101439163Y-51521121D01*
X101733570Y-51250394D01*
X101984136Y-50951580D01*
X102033822Y-50880906D01*
X102260659Y-50500127D01*
X102432752Y-50108087D01*
X102550125Y-49707181D01*
X102612801Y-49299805D01*
X102620805Y-48888354D01*
X102574159Y-48475225D01*
X102472888Y-48062812D01*
X102317015Y-47653511D01*
X102106564Y-47249717D01*
X101996205Y-47073688D01*
X101774924Y-46768897D01*
X101546624Y-46515679D01*
X101306562Y-46309209D01*
X101125070Y-46187564D01*
X100873661Y-46037066D01*
X100937697Y-45985213D01*
X101029699Y-45944054D01*
X101163578Y-45936372D01*
X101340585Y-45962209D01*
X101509731Y-46005761D01*
X101656260Y-46044306D01*
X101753890Y-46059141D01*
X101802084Y-46052314D01*
X101816648Y-46034240D01*
X101801192Y-46006739D01*
X101749679Y-45963615D01*
X101656071Y-45898674D01*
X101645326Y-45891515D01*
X101352942Y-45727051D01*
X101021170Y-45593640D01*
X100659123Y-45493462D01*
X100275912Y-45428695D01*
X99880650Y-45401518D01*
X99612591Y-45405475D01*
G37*
X99612591Y-45405475D02*
X99209893Y-45452136D01*
X98817131Y-45552491D01*
X98431917Y-45707370D01*
X98051864Y-45917602D01*
X97951362Y-45982932D01*
X97816995Y-46078555D01*
X97682925Y-46183778D01*
X97555771Y-46292235D01*
X97442153Y-46397559D01*
X97348691Y-46493385D01*
X97282005Y-46573345D01*
X97248714Y-46631074D01*
X97250532Y-46656931D01*
X97281207Y-46653875D01*
X97354989Y-46635202D01*
X97461662Y-46603798D01*
X97591007Y-46562551D01*
X97627556Y-46550414D01*
X97778352Y-46500837D01*
X97892853Y-46467033D01*
X97988007Y-46446036D01*
X98080759Y-46434880D01*
X98188059Y-46430596D01*
X98314368Y-46430175D01*
X98649857Y-46452547D01*
X98998017Y-46514503D01*
X99341785Y-46611423D01*
X99664098Y-46738689D01*
X99891412Y-46857101D01*
X100139765Y-47027115D01*
X100383803Y-47237388D01*
X100611868Y-47475386D01*
X100812302Y-47728572D01*
X100973449Y-47984413D01*
X101015072Y-48065327D01*
X101138355Y-48382296D01*
X101216231Y-48724469D01*
X101248656Y-49083460D01*
X101235584Y-49450882D01*
X101176969Y-49818349D01*
X101072767Y-50177473D01*
X101027132Y-50295730D01*
X100857572Y-50639827D01*
X100647211Y-50946724D01*
X100395239Y-51217082D01*
X100100843Y-51451560D01*
X99763214Y-51650819D01*
X99381540Y-51815519D01*
X99019674Y-51929429D01*
X98687155Y-51998237D01*
X98370890Y-52019843D01*
X98057560Y-51995124D01*
X98046257Y-51993395D01*
X97929874Y-51977181D01*
X97833011Y-51967136D01*
X97770365Y-51964635D01*
X97757142Y-51966376D01*
X97733268Y-51990345D01*
X97757087Y-52024403D01*
X97821505Y-52065068D01*
X97919427Y-52108858D01*
X98043757Y-52152289D01*
X98187401Y-52191879D01*
X98242094Y-52204437D01*
X98377033Y-52226817D01*
X98551555Y-52245387D01*
X98754169Y-52259897D01*
X98973384Y-52270098D01*
X99197711Y-52275740D01*
X99415659Y-52276575D01*
X99615738Y-52272351D01*
X99786458Y-52262821D01*
X99916329Y-52247734D01*
X99948305Y-52241484D01*
X100355487Y-52123941D01*
X100743863Y-51961977D01*
X101107175Y-51759676D01*
X101439163Y-51521121D01*
X101733570Y-51250394D01*
X101984136Y-50951580D01*
X102033822Y-50880906D01*
X102260659Y-50500127D01*
X102432752Y-50108087D01*
X102550125Y-49707181D01*
X102612801Y-49299805D01*
X102620805Y-48888354D01*
X102574159Y-48475225D01*
X102472888Y-48062812D01*
X102317015Y-47653511D01*
X102106564Y-47249717D01*
X101996205Y-47073688D01*
X101774924Y-46768897D01*
X101546624Y-46515679D01*
X101306562Y-46309209D01*
X101125070Y-46187564D01*
X100873661Y-46037066D01*
X100937697Y-45985213D01*
X101029699Y-45944054D01*
X101163578Y-45936372D01*
X101340585Y-45962209D01*
X101509731Y-46005761D01*
X101656260Y-46044306D01*
X101753890Y-46059141D01*
X101802084Y-46052314D01*
X101816648Y-46034240D01*
X101801192Y-46006739D01*
X101749679Y-45963615D01*
X101656071Y-45898674D01*
X101645326Y-45891515D01*
X101352942Y-45727051D01*
X101021170Y-45593640D01*
X100659123Y-45493462D01*
X100275912Y-45428695D01*
X99880650Y-45401518D01*
X99612591Y-45405475D01*
G36*
X100562343Y-41734637D02*
G01*
X100502706Y-41799501D01*
X100480837Y-41829629D01*
X100406181Y-41932609D01*
X100323504Y-42040505D01*
X100289924Y-42082306D01*
X100128751Y-42278523D01*
X99991474Y-42444495D01*
X99872121Y-42585749D01*
X99764718Y-42707812D01*
X99663293Y-42816211D01*
X99561872Y-42916474D01*
X99454484Y-43014128D01*
X99335154Y-43114700D01*
X99197909Y-43223718D01*
X99036777Y-43346709D01*
X98845785Y-43489200D01*
X98618960Y-43656719D01*
X98469591Y-43766817D01*
X98295164Y-43897189D01*
X98163698Y-43999919D01*
X98071200Y-44078688D01*
X98013672Y-44137174D01*
X97987118Y-44179055D01*
X97987543Y-44208010D01*
X97988522Y-44209715D01*
X98025001Y-44233019D01*
X98096710Y-44234572D01*
X98210229Y-44214048D01*
X98286146Y-44195028D01*
X98499906Y-44121033D01*
X98736333Y-44009636D01*
X98983830Y-43868285D01*
X99230797Y-43704433D01*
X99465638Y-43525529D01*
X99676753Y-43339023D01*
X99777510Y-43237020D01*
X99916316Y-43075984D01*
X100057393Y-42890089D01*
X100194805Y-42689252D01*
X100322618Y-42483395D01*
X100434898Y-42282435D01*
X100525711Y-42096294D01*
X100589122Y-41934889D01*
X100614895Y-41837314D01*
X100621297Y-41753708D01*
X100602827Y-41719427D01*
X100562343Y-41734637D01*
G37*
X100562343Y-41734637D02*
X100502706Y-41799501D01*
X100480837Y-41829629D01*
X100406181Y-41932609D01*
X100323504Y-42040505D01*
X100289924Y-42082306D01*
X100128751Y-42278523D01*
X99991474Y-42444495D01*
X99872121Y-42585749D01*
X99764718Y-42707812D01*
X99663293Y-42816211D01*
X99561872Y-42916474D01*
X99454484Y-43014128D01*
X99335154Y-43114700D01*
X99197909Y-43223718D01*
X99036777Y-43346709D01*
X98845785Y-43489200D01*
X98618960Y-43656719D01*
X98469591Y-43766817D01*
X98295164Y-43897189D01*
X98163698Y-43999919D01*
X98071200Y-44078688D01*
X98013672Y-44137174D01*
X97987118Y-44179055D01*
X97987543Y-44208010D01*
X97988522Y-44209715D01*
X98025001Y-44233019D01*
X98096710Y-44234572D01*
X98210229Y-44214048D01*
X98286146Y-44195028D01*
X98499906Y-44121033D01*
X98736333Y-44009636D01*
X98983830Y-43868285D01*
X99230797Y-43704433D01*
X99465638Y-43525529D01*
X99676753Y-43339023D01*
X99777510Y-43237020D01*
X99916316Y-43075984D01*
X100057393Y-42890089D01*
X100194805Y-42689252D01*
X100322618Y-42483395D01*
X100434898Y-42282435D01*
X100525711Y-42096294D01*
X100589122Y-41934889D01*
X100614895Y-41837314D01*
X100621297Y-41753708D01*
X100602827Y-41719427D01*
X100562343Y-41734637D01*
G36*
X89166047Y-45410959D02*
G01*
X88790823Y-45457295D01*
X88426601Y-45537694D01*
X88084092Y-45650566D01*
X87774005Y-45794322D01*
X87628063Y-45881447D01*
X87526311Y-45949614D01*
X87466737Y-45995237D01*
X87443045Y-46024693D01*
X87448939Y-46044354D01*
X87459768Y-46051818D01*
X87506175Y-46061003D01*
X87584724Y-46050488D01*
X87703997Y-46018909D01*
X87744430Y-46006553D01*
X87939947Y-45956441D01*
X88106597Y-45935891D01*
X88237889Y-45945226D01*
X88318359Y-45977950D01*
X88382020Y-46022540D01*
X88317583Y-46071694D01*
X88260368Y-46111388D01*
X88173751Y-46167135D01*
X88082088Y-46223464D01*
X87892308Y-46351412D01*
X87721410Y-46499348D01*
X87554855Y-46680670D01*
X87466805Y-46790440D01*
X87199409Y-47174368D01*
X86982399Y-47567825D01*
X86816703Y-47967663D01*
X86703249Y-48370734D01*
X86642963Y-48773892D01*
X86636773Y-49173988D01*
X86671379Y-49489656D01*
X86770495Y-49919291D01*
X86918537Y-50322639D01*
X87113240Y-50697188D01*
X87352338Y-51040431D01*
X87633567Y-51349858D01*
X87954662Y-51622960D01*
X88313356Y-51857229D01*
X88707386Y-52050154D01*
X89111478Y-52192590D01*
X89198864Y-52216777D01*
X89279411Y-52234960D01*
X89363690Y-52248122D01*
X89462272Y-52257244D01*
X89585727Y-52263308D01*
X89744625Y-52267297D01*
X89946480Y-52270156D01*
X90130302Y-52271674D01*
X90300692Y-52271936D01*
X90447470Y-52271016D01*
X90560460Y-52268988D01*
X90629484Y-52265926D01*
X90637924Y-52265101D01*
X90848343Y-52234205D01*
X91045320Y-52194955D01*
X91219894Y-52149909D01*
X91363105Y-52101626D01*
X91465992Y-52052661D01*
X91512645Y-52015451D01*
X91526998Y-51986908D01*
X91508679Y-51970651D01*
X91452238Y-51966379D01*
X91352224Y-51973789D01*
X91203184Y-51992577D01*
X91174146Y-51996659D01*
X90895826Y-52019877D01*
X90622464Y-52007239D01*
X90338401Y-51957151D01*
X90081449Y-51885410D01*
X89675835Y-51733889D01*
X89317011Y-51551716D01*
X89003392Y-51337316D01*
X88733388Y-51089113D01*
X88505413Y-50805532D01*
X88317879Y-50484997D01*
X88169198Y-50125933D01*
X88107636Y-49926804D01*
X88060695Y-49707668D01*
X88029813Y-49457259D01*
X88015799Y-49194922D01*
X88019458Y-48940002D01*
X88041599Y-48711845D01*
X88053988Y-48641282D01*
X88137868Y-48325530D01*
X88259402Y-48034207D01*
X88424130Y-47756744D01*
X88637595Y-47482570D01*
X88695888Y-47416971D01*
X88958936Y-47158527D01*
X89242291Y-46942219D01*
X89552119Y-46764895D01*
X89894590Y-46623401D01*
X90275872Y-46514584D01*
X90578675Y-46454567D01*
X90787902Y-46426369D01*
X90974460Y-46418482D01*
X91155375Y-46432480D01*
X91347675Y-46469937D01*
X91568388Y-46532427D01*
X91628174Y-46551550D01*
X91761291Y-46594409D01*
X91874725Y-46630078D01*
X91957887Y-46655288D01*
X92000187Y-46666775D01*
X92002843Y-46667138D01*
X92012757Y-46648906D01*
X91988405Y-46599816D01*
X91936069Y-46528277D01*
X91862031Y-46442698D01*
X91772573Y-46351488D01*
X91753635Y-46333545D01*
X91488101Y-46111935D01*
X91188425Y-45908222D01*
X90869507Y-45730746D01*
X90546249Y-45587849D01*
X90250640Y-45492222D01*
X89906665Y-45426833D01*
X89541564Y-45400275D01*
X89166047Y-45410959D01*
G37*
X89166047Y-45410959D02*
X88790823Y-45457295D01*
X88426601Y-45537694D01*
X88084092Y-45650566D01*
X87774005Y-45794322D01*
X87628063Y-45881447D01*
X87526311Y-45949614D01*
X87466737Y-45995237D01*
X87443045Y-46024693D01*
X87448939Y-46044354D01*
X87459768Y-46051818D01*
X87506175Y-46061003D01*
X87584724Y-46050488D01*
X87703997Y-46018909D01*
X87744430Y-46006553D01*
X87939947Y-45956441D01*
X88106597Y-45935891D01*
X88237889Y-45945226D01*
X88318359Y-45977950D01*
X88382020Y-46022540D01*
X88317583Y-46071694D01*
X88260368Y-46111388D01*
X88173751Y-46167135D01*
X88082088Y-46223464D01*
X87892308Y-46351412D01*
X87721410Y-46499348D01*
X87554855Y-46680670D01*
X87466805Y-46790440D01*
X87199409Y-47174368D01*
X86982399Y-47567825D01*
X86816703Y-47967663D01*
X86703249Y-48370734D01*
X86642963Y-48773892D01*
X86636773Y-49173988D01*
X86671379Y-49489656D01*
X86770495Y-49919291D01*
X86918537Y-50322639D01*
X87113240Y-50697188D01*
X87352338Y-51040431D01*
X87633567Y-51349858D01*
X87954662Y-51622960D01*
X88313356Y-51857229D01*
X88707386Y-52050154D01*
X89111478Y-52192590D01*
X89198864Y-52216777D01*
X89279411Y-52234960D01*
X89363690Y-52248122D01*
X89462272Y-52257244D01*
X89585727Y-52263308D01*
X89744625Y-52267297D01*
X89946480Y-52270156D01*
X90130302Y-52271674D01*
X90300692Y-52271936D01*
X90447470Y-52271016D01*
X90560460Y-52268988D01*
X90629484Y-52265926D01*
X90637924Y-52265101D01*
X90848343Y-52234205D01*
X91045320Y-52194955D01*
X91219894Y-52149909D01*
X91363105Y-52101626D01*
X91465992Y-52052661D01*
X91512645Y-52015451D01*
X91526998Y-51986908D01*
X91508679Y-51970651D01*
X91452238Y-51966379D01*
X91352224Y-51973789D01*
X91203184Y-51992577D01*
X91174146Y-51996659D01*
X90895826Y-52019877D01*
X90622464Y-52007239D01*
X90338401Y-51957151D01*
X90081449Y-51885410D01*
X89675835Y-51733889D01*
X89317011Y-51551716D01*
X89003392Y-51337316D01*
X88733388Y-51089113D01*
X88505413Y-50805532D01*
X88317879Y-50484997D01*
X88169198Y-50125933D01*
X88107636Y-49926804D01*
X88060695Y-49707668D01*
X88029813Y-49457259D01*
X88015799Y-49194922D01*
X88019458Y-48940002D01*
X88041599Y-48711845D01*
X88053988Y-48641282D01*
X88137868Y-48325530D01*
X88259402Y-48034207D01*
X88424130Y-47756744D01*
X88637595Y-47482570D01*
X88695888Y-47416971D01*
X88958936Y-47158527D01*
X89242291Y-46942219D01*
X89552119Y-46764895D01*
X89894590Y-46623401D01*
X90275872Y-46514584D01*
X90578675Y-46454567D01*
X90787902Y-46426369D01*
X90974460Y-46418482D01*
X91155375Y-46432480D01*
X91347675Y-46469937D01*
X91568388Y-46532427D01*
X91628174Y-46551550D01*
X91761291Y-46594409D01*
X91874725Y-46630078D01*
X91957887Y-46655288D01*
X92000187Y-46666775D01*
X92002843Y-46667138D01*
X92012757Y-46648906D01*
X91988405Y-46599816D01*
X91936069Y-46528277D01*
X91862031Y-46442698D01*
X91772573Y-46351488D01*
X91753635Y-46333545D01*
X91488101Y-46111935D01*
X91188425Y-45908222D01*
X90869507Y-45730746D01*
X90546249Y-45587849D01*
X90250640Y-45492222D01*
X89906665Y-45426833D01*
X89541564Y-45400275D01*
X89166047Y-45410959D01*
G36*
X100676804Y-43637604D02*
G01*
X100613967Y-43687536D01*
X100530676Y-43760734D01*
X100459570Y-43827056D01*
X100344994Y-43929000D01*
X100219910Y-44028350D01*
X100104141Y-44109783D01*
X100056301Y-44138792D01*
X99973433Y-44178836D01*
X99847806Y-44231493D01*
X99690522Y-44292495D01*
X99512683Y-44357578D01*
X99325394Y-44422476D01*
X99268902Y-44441312D01*
X99093656Y-44499905D01*
X98936095Y-44553968D01*
X98804271Y-44600625D01*
X98706234Y-44637001D01*
X98650034Y-44660221D01*
X98640335Y-44665798D01*
X98643714Y-44683122D01*
X98695880Y-44690535D01*
X98790104Y-44688304D01*
X98919652Y-44676697D01*
X99077795Y-44655980D01*
X99143556Y-44645843D01*
X99381642Y-44619741D01*
X99643369Y-44611412D01*
X99909496Y-44620188D01*
X100160780Y-44645399D01*
X100377981Y-44686376D01*
X100388702Y-44689112D01*
X100504304Y-44725698D01*
X100650451Y-44781556D01*
X100808109Y-44848979D01*
X100953146Y-44917693D01*
X101108289Y-44994329D01*
X101220189Y-45046116D01*
X101295148Y-45075252D01*
X101339465Y-45083932D01*
X101359442Y-45074352D01*
X101362368Y-45060334D01*
X101347280Y-45027873D01*
X101306257Y-44959344D01*
X101245666Y-44864971D01*
X101176024Y-44761052D01*
X101000352Y-44483493D01*
X100871108Y-44232507D01*
X100786891Y-44004702D01*
X100746298Y-43796684D01*
X100741897Y-43710860D01*
X100732969Y-43648438D01*
X100711781Y-43619402D01*
X100709338Y-43619138D01*
X100676804Y-43637604D01*
G37*
X100676804Y-43637604D02*
X100613967Y-43687536D01*
X100530676Y-43760734D01*
X100459570Y-43827056D01*
X100344994Y-43929000D01*
X100219910Y-44028350D01*
X100104141Y-44109783D01*
X100056301Y-44138792D01*
X99973433Y-44178836D01*
X99847806Y-44231493D01*
X99690522Y-44292495D01*
X99512683Y-44357578D01*
X99325394Y-44422476D01*
X99268902Y-44441312D01*
X99093656Y-44499905D01*
X98936095Y-44553968D01*
X98804271Y-44600625D01*
X98706234Y-44637001D01*
X98650034Y-44660221D01*
X98640335Y-44665798D01*
X98643714Y-44683122D01*
X98695880Y-44690535D01*
X98790104Y-44688304D01*
X98919652Y-44676697D01*
X99077795Y-44655980D01*
X99143556Y-44645843D01*
X99381642Y-44619741D01*
X99643369Y-44611412D01*
X99909496Y-44620188D01*
X100160780Y-44645399D01*
X100377981Y-44686376D01*
X100388702Y-44689112D01*
X100504304Y-44725698D01*
X100650451Y-44781556D01*
X100808109Y-44848979D01*
X100953146Y-44917693D01*
X101108289Y-44994329D01*
X101220189Y-45046116D01*
X101295148Y-45075252D01*
X101339465Y-45083932D01*
X101359442Y-45074352D01*
X101362368Y-45060334D01*
X101347280Y-45027873D01*
X101306257Y-44959344D01*
X101245666Y-44864971D01*
X101176024Y-44761052D01*
X101000352Y-44483493D01*
X100871108Y-44232507D01*
X100786891Y-44004702D01*
X100746298Y-43796684D01*
X100741897Y-43710860D01*
X100732969Y-43648438D01*
X100711781Y-43619402D01*
X100709338Y-43619138D01*
X100676804Y-43637604D01*
G36*
X88530941Y-43643829D02*
G01*
X88521366Y-43704068D01*
X88521257Y-43711986D01*
X88498665Y-43902955D01*
X88432312Y-44121618D01*
X88324337Y-44362814D01*
X88176881Y-44621384D01*
X88088168Y-44756813D01*
X88014592Y-44866781D01*
X87954541Y-44960728D01*
X87914360Y-45028438D01*
X87900368Y-45059284D01*
X87913454Y-45080689D01*
X87955841Y-45079250D01*
X88032225Y-45053362D01*
X88147301Y-45001421D01*
X88305763Y-44921824D01*
X88311736Y-44918733D01*
X88460507Y-44846856D01*
X88619679Y-44778398D01*
X88767859Y-44722157D01*
X88862069Y-44692423D01*
X89086518Y-44646744D01*
X89345872Y-44618975D01*
X89621279Y-44609814D01*
X89893887Y-44619961D01*
X90119181Y-44645843D01*
X90281757Y-44669261D01*
X90421136Y-44684293D01*
X90530049Y-44690630D01*
X90601228Y-44687960D01*
X90627404Y-44675975D01*
X90622402Y-44667312D01*
X90588878Y-44651693D01*
X90509732Y-44621315D01*
X90392965Y-44579048D01*
X90246577Y-44527759D01*
X90078567Y-44470318D01*
X89989356Y-44440321D01*
X89734267Y-44352955D01*
X89525001Y-44275727D01*
X89352865Y-44204149D01*
X89209162Y-44133736D01*
X89085201Y-44060000D01*
X88972286Y-43978454D01*
X88861724Y-43884613D01*
X88798211Y-43825603D01*
X88706250Y-43740626D01*
X88627573Y-43672630D01*
X88571979Y-43629807D01*
X88551267Y-43619138D01*
X88530941Y-43643829D01*
G37*
X88530941Y-43643829D02*
X88521366Y-43704068D01*
X88521257Y-43711986D01*
X88498665Y-43902955D01*
X88432312Y-44121618D01*
X88324337Y-44362814D01*
X88176881Y-44621384D01*
X88088168Y-44756813D01*
X88014592Y-44866781D01*
X87954541Y-44960728D01*
X87914360Y-45028438D01*
X87900368Y-45059284D01*
X87913454Y-45080689D01*
X87955841Y-45079250D01*
X88032225Y-45053362D01*
X88147301Y-45001421D01*
X88305763Y-44921824D01*
X88311736Y-44918733D01*
X88460507Y-44846856D01*
X88619679Y-44778398D01*
X88767859Y-44722157D01*
X88862069Y-44692423D01*
X89086518Y-44646744D01*
X89345872Y-44618975D01*
X89621279Y-44609814D01*
X89893887Y-44619961D01*
X90119181Y-44645843D01*
X90281757Y-44669261D01*
X90421136Y-44684293D01*
X90530049Y-44690630D01*
X90601228Y-44687960D01*
X90627404Y-44675975D01*
X90622402Y-44667312D01*
X90588878Y-44651693D01*
X90509732Y-44621315D01*
X90392965Y-44579048D01*
X90246577Y-44527759D01*
X90078567Y-44470318D01*
X89989356Y-44440321D01*
X89734267Y-44352955D01*
X89525001Y-44275727D01*
X89352865Y-44204149D01*
X89209162Y-44133736D01*
X89085201Y-44060000D01*
X88972286Y-43978454D01*
X88861724Y-43884613D01*
X88798211Y-43825603D01*
X88706250Y-43740626D01*
X88627573Y-43672630D01*
X88571979Y-43629807D01*
X88551267Y-43619138D01*
X88530941Y-43643829D01*
G36*
X88866743Y-39126043D02*
G01*
X88726100Y-39195596D01*
X88600347Y-39314841D01*
X88491433Y-39480939D01*
X88401308Y-39691055D01*
X88331923Y-39942351D01*
X88293242Y-40166715D01*
X88275118Y-40380649D01*
X88279691Y-40595858D01*
X88308261Y-40827081D01*
X88362131Y-41089061D01*
X88381743Y-41169209D01*
X88413887Y-41298076D01*
X88440243Y-41406007D01*
X88458116Y-41481801D01*
X88464811Y-41514258D01*
X88464813Y-41514358D01*
X88442119Y-41535232D01*
X88385079Y-41569699D01*
X88357054Y-41584520D01*
X88218012Y-41682808D01*
X88097825Y-41819284D01*
X88011768Y-41975803D01*
X87999583Y-42009156D01*
X87974937Y-42101598D01*
X87962132Y-42203511D01*
X87959719Y-42332233D01*
X87963249Y-42443387D01*
X87971816Y-42586050D01*
X87986198Y-42699471D01*
X88011163Y-42804599D01*
X88051477Y-42922381D01*
X88100192Y-43045203D01*
X88117305Y-43097861D01*
X88118249Y-43148431D01*
X88100355Y-43214252D01*
X88060956Y-43312660D01*
X88057946Y-43319752D01*
X87976814Y-43490089D01*
X87869741Y-43685407D01*
X87747542Y-43887853D01*
X87621033Y-44079571D01*
X87501030Y-44242707D01*
X87491915Y-44254138D01*
X87414865Y-44346316D01*
X87310389Y-44466082D01*
X87190159Y-44600310D01*
X87065846Y-44735876D01*
X87017079Y-44788084D01*
X86831172Y-44989181D01*
X86682299Y-45158019D01*
X86565803Y-45300390D01*
X86477029Y-45422089D01*
X86411322Y-45528908D01*
X86391599Y-45566471D01*
X86336411Y-45694278D01*
X86311264Y-45808549D01*
X86313185Y-45933015D01*
X86331049Y-46049716D01*
X86346246Y-46153409D01*
X86351447Y-46240687D01*
X86346200Y-46289591D01*
X86320044Y-46335028D01*
X86267563Y-46410365D01*
X86198404Y-46502002D01*
X86170603Y-46537210D01*
X85973854Y-46808771D01*
X85819394Y-47081930D01*
X85723471Y-47302138D01*
X85582599Y-47738281D01*
X85491233Y-48185626D01*
X85448554Y-48638494D01*
X85453746Y-49091208D01*
X85505993Y-49538090D01*
X85604478Y-49973462D01*
X85748382Y-50391647D01*
X85936891Y-50786967D01*
X86169186Y-51153743D01*
X86302345Y-51325676D01*
X86498096Y-51536996D01*
X86728293Y-51744549D01*
X86972579Y-51931045D01*
X87147893Y-52043830D01*
X87257479Y-52110280D01*
X87355235Y-52173372D01*
X87425895Y-52223100D01*
X87444551Y-52238244D01*
X87506939Y-52311846D01*
X87576073Y-52428626D01*
X87654105Y-52592647D01*
X87733154Y-52782582D01*
X87882106Y-53082827D01*
X88080860Y-53363884D01*
X88324716Y-53621253D01*
X88608977Y-53850433D01*
X88928943Y-54046925D01*
X89175902Y-54164412D01*
X89448646Y-54265392D01*
X89742692Y-54349440D01*
X90030713Y-54409175D01*
X90140302Y-54424875D01*
X90247674Y-54440381D01*
X90332828Y-54457272D01*
X90380544Y-54472407D01*
X90384629Y-54475316D01*
X90406009Y-54511704D01*
X90440926Y-54584878D01*
X90481940Y-54679222D01*
X90483201Y-54682249D01*
X90645977Y-55012826D01*
X90845580Y-55314853D01*
X91075231Y-55578883D01*
X91223324Y-55714050D01*
X91339872Y-55806321D01*
X91462315Y-55892888D01*
X91598631Y-55978261D01*
X91756800Y-56066949D01*
X91944804Y-56163463D01*
X92170621Y-56272313D01*
X92396573Y-56377131D01*
X92716622Y-56527057D01*
X93008936Y-56670622D01*
X93268173Y-56804997D01*
X93488989Y-56927350D01*
X93666041Y-57034850D01*
X93762191Y-57100563D01*
X93913616Y-57218433D01*
X94075507Y-57356057D01*
X94232496Y-57499535D01*
X94369216Y-57634966D01*
X94445842Y-57718949D01*
X94523870Y-57800708D01*
X94591247Y-57854113D01*
X94631368Y-57870035D01*
X94680986Y-57847545D01*
X94754561Y-57783499D01*
X94842242Y-57687435D01*
X94914033Y-57604229D01*
X94971896Y-57540606D01*
X95006527Y-57506666D01*
X95011575Y-57503655D01*
X95037343Y-57485670D01*
X95096005Y-57437464D01*
X95178542Y-57366624D01*
X95265220Y-57290289D01*
X95415470Y-57166944D01*
X95591809Y-57042291D01*
X95799333Y-56913406D01*
X96043136Y-56777364D01*
X96328315Y-56631240D01*
X96659964Y-56472111D01*
X96818591Y-56398747D01*
X97006102Y-56311447D01*
X97190649Y-56222977D01*
X97361193Y-56138820D01*
X97506697Y-56064457D01*
X97616122Y-56005370D01*
X97647498Y-55987131D01*
X97917279Y-55807531D01*
X98147312Y-55614170D01*
X98346883Y-55396742D01*
X98525279Y-55144939D01*
X98691790Y-54848456D01*
X98714656Y-54802846D01*
X98782335Y-54665196D01*
X98832895Y-54568658D01*
X98876649Y-54505014D01*
X98923907Y-54466047D01*
X98984983Y-54443537D01*
X99070188Y-54429268D01*
X99189835Y-54415020D01*
X99203368Y-54413369D01*
X99396633Y-54379777D01*
X99617216Y-54325428D01*
X99842782Y-54256410D01*
X100025468Y-54189262D01*
X100319598Y-54055609D01*
X100576601Y-53903573D01*
X100815489Y-53720611D01*
X101010651Y-53539249D01*
X101159397Y-53383991D01*
X101277260Y-53241613D01*
X101374401Y-53096358D01*
X101460984Y-52932470D01*
X101547171Y-52734194D01*
X101574975Y-52664360D01*
X101658679Y-52475442D01*
X101746030Y-52332101D01*
X101844612Y-52223606D01*
X101934038Y-52156360D01*
X102029360Y-52095559D01*
X102145171Y-52021937D01*
X102241738Y-51960718D01*
X102566195Y-51722522D01*
X102857484Y-51441735D01*
X103113755Y-51122727D01*
X103333155Y-50769869D01*
X103513834Y-50387530D01*
X103653939Y-49980081D01*
X103751618Y-49551891D01*
X103805021Y-49107331D01*
X103809749Y-48810598D01*
X103729007Y-48810598D01*
X103725408Y-48978555D01*
X103682128Y-49444040D01*
X103592312Y-49887566D01*
X103457780Y-50305964D01*
X103280353Y-50696061D01*
X103061849Y-51054686D01*
X102804089Y-51378667D01*
X102508893Y-51664834D01*
X102178079Y-51910015D01*
X101974293Y-52030204D01*
X101867418Y-52093517D01*
X101774421Y-52158734D01*
X101711413Y-52214259D01*
X101701047Y-52226899D01*
X101668488Y-52282772D01*
X101620387Y-52378054D01*
X101562888Y-52500044D01*
X101502136Y-52636042D01*
X101493930Y-52654991D01*
X101385063Y-52895277D01*
X101282625Y-53091787D01*
X101178935Y-53255399D01*
X101066311Y-53396990D01*
X100937073Y-53527436D01*
X100788946Y-53653312D01*
X100501313Y-53853345D01*
X100181081Y-54024417D01*
X99842601Y-54160617D01*
X99500226Y-54256032D01*
X99217480Y-54300594D01*
X99059153Y-54321916D01*
X98944182Y-54355675D01*
X98859659Y-54409764D01*
X98792679Y-54492079D01*
X98738160Y-54593790D01*
X98669607Y-54736466D01*
X98613855Y-54846047D01*
X98560629Y-54940951D01*
X98499656Y-55039597D01*
X98429909Y-55146432D01*
X98319277Y-55304060D01*
X98204209Y-55445917D01*
X98078973Y-55575998D01*
X97937838Y-55698298D01*
X97775071Y-55816808D01*
X97584943Y-55935523D01*
X97361721Y-56058437D01*
X97099675Y-56189544D01*
X96793072Y-56332836D01*
X96606924Y-56416703D01*
X96294420Y-56560210D01*
X96026565Y-56692546D01*
X95793927Y-56818697D01*
X95587072Y-56943646D01*
X95493958Y-57004801D01*
X95361512Y-57102491D01*
X95213408Y-57225221D01*
X95062761Y-57360852D01*
X94922684Y-57497244D01*
X94806291Y-57622260D01*
X94744257Y-57698763D01*
X94690493Y-57764615D01*
X94646724Y-57805953D01*
X94631368Y-57813180D01*
X94599994Y-57792253D01*
X94548376Y-57738620D01*
X94504368Y-57685062D01*
X94389062Y-57550833D01*
X94241696Y-57400999D01*
X94077967Y-57250048D01*
X93913569Y-57112467D01*
X93767653Y-57005050D01*
X93604462Y-56899949D01*
X93435342Y-56800302D01*
X93249484Y-56700387D01*
X93036081Y-56594482D01*
X92784325Y-56476866D01*
X92684035Y-56431372D01*
X92365106Y-56285388D01*
X92093444Y-56155760D01*
X91863418Y-56039159D01*
X91669396Y-55932253D01*
X91505745Y-55831712D01*
X91366833Y-55734205D01*
X91247029Y-55636403D01*
X91140700Y-55534973D01*
X91105535Y-55497901D01*
X90994285Y-55367201D01*
X90877181Y-55211891D01*
X90764685Y-55047450D01*
X90667260Y-54889358D01*
X90595371Y-54753094D01*
X90582627Y-54724283D01*
X90513284Y-54570127D01*
X90448481Y-54461120D01*
X90376812Y-54388264D01*
X90286876Y-54342561D01*
X90167270Y-54315015D01*
X90045257Y-54300267D01*
X89718929Y-54246585D01*
X89391573Y-54152148D01*
X89072840Y-54022015D01*
X88772380Y-53861247D01*
X88499844Y-53674903D01*
X88264881Y-53468042D01*
X88103799Y-53282379D01*
X88027907Y-53168584D01*
X87942266Y-53019736D01*
X87856748Y-52853705D01*
X87801395Y-52734915D01*
X87719338Y-52551046D01*
X87653960Y-52410701D01*
X87599318Y-52305690D01*
X87549468Y-52227823D01*
X87498469Y-52168912D01*
X87440376Y-52120767D01*
X87369248Y-52075198D01*
X87289861Y-52030004D01*
X86922896Y-51794548D01*
X86597998Y-51521653D01*
X86314848Y-51210932D01*
X86073123Y-50862000D01*
X85872504Y-50474469D01*
X85758596Y-50186420D01*
X85637153Y-49760655D01*
X85561609Y-49312532D01*
X85532271Y-48852972D01*
X85549448Y-48392897D01*
X85613448Y-47943227D01*
X85686768Y-47638756D01*
X85754928Y-47435032D01*
X85843494Y-47223129D01*
X85946655Y-47013207D01*
X86058601Y-46815424D01*
X86173519Y-46639938D01*
X86285600Y-46496908D01*
X86389031Y-46396494D01*
X86403641Y-46385592D01*
X86483893Y-46328447D01*
X86441459Y-46166181D01*
X86416667Y-46025019D01*
X86408453Y-45873685D01*
X86409935Y-45831717D01*
X86424081Y-45726752D01*
X86455726Y-45623599D01*
X86509227Y-45515538D01*
X86588940Y-45395847D01*
X86699221Y-45257806D01*
X86844427Y-45094694D01*
X86983146Y-44947398D01*
X87197640Y-44720414D01*
X87376851Y-44523074D01*
X87527100Y-44346871D01*
X87654706Y-44183301D01*
X87765988Y-44023857D01*
X87867265Y-43860035D01*
X87964857Y-43683329D01*
X88056503Y-43502712D01*
X88123992Y-43364239D01*
X88168394Y-43261664D01*
X88190924Y-43179940D01*
X88192798Y-43104021D01*
X88175231Y-43018861D01*
X88139440Y-42909412D01*
X88110924Y-42829195D01*
X88075116Y-42721513D01*
X88053779Y-42631263D01*
X88044219Y-42537800D01*
X88043742Y-42420478D01*
X88046491Y-42335306D01*
X88053746Y-42196916D01*
X88065421Y-42097266D01*
X88085346Y-42018655D01*
X88117347Y-41943381D01*
X88141163Y-41897582D01*
X88192323Y-41810326D01*
X88241610Y-41754279D01*
X88308100Y-41713036D01*
X88401313Y-41673894D01*
X88513173Y-41623245D01*
X88569813Y-41579434D01*
X88577702Y-41558466D01*
X88568818Y-41512054D01*
X88545038Y-41427353D01*
X88510666Y-41319152D01*
X88492124Y-41264521D01*
X88412022Y-40959457D01*
X88371506Y-40628117D01*
X88372161Y-40285964D01*
X88380903Y-40180792D01*
X88423958Y-39896821D01*
X88490339Y-39662660D01*
X88581454Y-39476103D01*
X88698718Y-39334944D01*
X88843540Y-39236975D01*
X89017334Y-39179990D01*
X89021635Y-39179154D01*
X89112790Y-39161664D01*
X89199868Y-39450123D01*
X89273875Y-39693571D01*
X89335466Y-39891353D01*
X89387736Y-40052074D01*
X89433785Y-40184338D01*
X89476710Y-40296749D01*
X89519609Y-40397914D01*
X89565580Y-40496434D01*
X89605565Y-40576987D01*
X89825653Y-40968281D01*
X90093690Y-41369576D01*
X90403883Y-41773628D01*
X90750435Y-42173192D01*
X91127553Y-42561024D01*
X91387044Y-42804040D01*
X91570333Y-42968021D01*
X91719280Y-43096098D01*
X91840675Y-43191023D01*
X91941307Y-43255547D01*
X92027964Y-43292423D01*
X92107435Y-43304402D01*
X92186510Y-43294235D01*
X92271977Y-43264676D01*
X92370626Y-43218474D01*
X92388010Y-43209760D01*
X92608358Y-43109038D01*
X92835198Y-43027355D01*
X93078131Y-42962617D01*
X93346752Y-42912725D01*
X93650661Y-42875584D01*
X93999454Y-42849096D01*
X94052813Y-42846097D01*
X94357515Y-42832985D01*
X94637519Y-42828946D01*
X94919819Y-42834020D01*
X95224035Y-42847835D01*
X95541682Y-42869392D01*
X95813882Y-42897290D01*
X96051491Y-42933883D01*
X96265367Y-42981522D01*
X96466365Y-43042563D01*
X96665344Y-43119356D01*
X96839192Y-43197914D01*
X96954731Y-43248104D01*
X97062594Y-43286435D01*
X97144988Y-43306873D01*
X97165835Y-43308693D01*
X97222069Y-43301322D01*
X97286669Y-43276625D01*
X97365029Y-43230726D01*
X97462546Y-43159749D01*
X97584612Y-43059818D01*
X97736623Y-42927055D01*
X97891198Y-42787513D01*
X98292754Y-42400234D01*
X98664228Y-41999189D01*
X99000390Y-41590961D01*
X99296010Y-41182130D01*
X99545859Y-40779281D01*
X99667250Y-40551940D01*
X99718099Y-40447554D01*
X99763693Y-40346377D01*
X99807202Y-40239581D01*
X99851797Y-40118337D01*
X99900648Y-39973814D01*
X99956926Y-39797183D01*
X100023801Y-39579616D01*
X100063328Y-39448997D01*
X100102298Y-39319191D01*
X100131872Y-39235061D01*
X100161401Y-39189041D01*
X100200239Y-39173569D01*
X100257740Y-39181078D01*
X100343257Y-39204007D01*
X100360480Y-39208685D01*
X100465898Y-39259625D01*
X100575627Y-39351465D01*
X100659626Y-39450610D01*
X100748538Y-39612017D01*
X100816587Y-39815439D01*
X100863115Y-40050186D01*
X100887462Y-40305569D01*
X100888969Y-40570898D01*
X100866977Y-40835483D01*
X100820827Y-41088634D01*
X100771248Y-41260821D01*
X100733472Y-41376042D01*
X100704110Y-41474546D01*
X100687364Y-41541781D01*
X100685035Y-41559244D01*
X100712809Y-41599185D01*
X100795413Y-41646202D01*
X100861424Y-41673894D01*
X100958788Y-41714660D01*
X101021218Y-41754269D01*
X101067233Y-41809588D01*
X101115351Y-41897487D01*
X101122480Y-41911693D01*
X101170558Y-42020198D01*
X101198844Y-42122771D01*
X101213393Y-42244965D01*
X101216950Y-42310260D01*
X101211140Y-42561672D01*
X101172349Y-42784100D01*
X101107083Y-42958437D01*
X101070956Y-43039971D01*
X101056764Y-43111957D01*
X101065909Y-43189836D01*
X101099793Y-43289049D01*
X101146902Y-43396892D01*
X101271882Y-43651115D01*
X101409898Y-43891014D01*
X101567593Y-44125764D01*
X101751610Y-44364545D01*
X101968588Y-44616532D01*
X102225172Y-44890903D01*
X102237103Y-44903249D01*
X102421346Y-45097599D01*
X102566970Y-45261405D01*
X102678013Y-45401083D01*
X102758514Y-45523049D01*
X102812512Y-45633723D01*
X102844046Y-45739520D01*
X102857155Y-45846858D01*
X102858146Y-45889988D01*
X102849346Y-46010069D01*
X102827270Y-46135244D01*
X102817068Y-46173770D01*
X102775990Y-46310262D01*
X102920294Y-46452308D01*
X103122905Y-46688185D01*
X103300014Y-46968797D01*
X103449507Y-47287507D01*
X103569267Y-47637679D01*
X103657181Y-48012676D01*
X103711133Y-48405861D01*
X103729007Y-48810598D01*
X103809749Y-48810598D01*
X103812296Y-48650770D01*
X103787434Y-48312580D01*
X103714051Y-47869860D01*
X103594721Y-47456969D01*
X103426879Y-47067632D01*
X103207964Y-46695572D01*
X103024522Y-46444027D01*
X102947749Y-46340179D01*
X102906798Y-46266995D01*
X102897098Y-46215715D01*
X102899345Y-46204138D01*
X102910355Y-46146844D01*
X102922625Y-46053457D01*
X102933499Y-45944193D01*
X102933501Y-45944173D01*
X102937366Y-45837761D01*
X102927883Y-45737818D01*
X102901575Y-45638615D01*
X102854967Y-45534423D01*
X102784583Y-45419510D01*
X102686947Y-45288148D01*
X102558584Y-45134606D01*
X102396017Y-44953155D01*
X102212959Y-44756324D01*
X102083340Y-44614824D01*
X101948403Y-44461233D01*
X101821482Y-44311124D01*
X101715911Y-44180070D01*
X101685433Y-44140200D01*
X101603228Y-44023313D01*
X101514343Y-43884897D01*
X101424066Y-43734605D01*
X101337682Y-43582089D01*
X101260478Y-43437005D01*
X101197740Y-43309003D01*
X101154756Y-43207739D01*
X101136810Y-43142865D01*
X101136591Y-43138001D01*
X101149055Y-43076517D01*
X101179965Y-42995869D01*
X101189558Y-42975958D01*
X101253470Y-42803419D01*
X101293087Y-42591993D01*
X101305924Y-42366982D01*
X101287855Y-42132898D01*
X101232084Y-41938126D01*
X101136267Y-41777980D01*
X100998062Y-41647774D01*
X100921053Y-41597488D01*
X100850577Y-41551903D01*
X100806021Y-41514849D01*
X100797924Y-41501696D01*
X100804580Y-41466455D01*
X100822674Y-41388368D01*
X100849393Y-41279205D01*
X100879890Y-41158656D01*
X100942059Y-40883090D01*
X100976987Y-40639990D01*
X100986102Y-40413198D01*
X100970828Y-40186558D01*
X100967843Y-40161915D01*
X100919199Y-39891326D01*
X100847045Y-39654675D01*
X100753947Y-39455678D01*
X100642468Y-39298051D01*
X100515176Y-39185512D01*
X100374636Y-39121776D01*
X100241032Y-39109074D01*
X100187791Y-39113885D01*
X100144912Y-39125044D01*
X100108736Y-39149108D01*
X100075606Y-39192637D01*
X100041866Y-39262189D01*
X100003856Y-39364323D01*
X99957921Y-39505598D01*
X99900402Y-39692572D01*
X99882123Y-39752693D01*
X99730288Y-40187450D01*
X99543901Y-40600721D01*
X99317442Y-41002729D01*
X99045394Y-41403698D01*
X98861538Y-41643582D01*
X98781822Y-41737590D01*
X98668907Y-41862532D01*
X98530555Y-42010511D01*
X98374530Y-42173628D01*
X98208597Y-42343987D01*
X98040520Y-42513690D01*
X97878062Y-42674838D01*
X97728988Y-42819536D01*
X97601061Y-42939885D01*
X97502046Y-43027987D01*
X97493423Y-43035228D01*
X97398791Y-43108225D01*
X97305074Y-43170997D01*
X97235772Y-43208409D01*
X97185684Y-43227107D01*
X97142210Y-43232617D01*
X97091056Y-43221960D01*
X97017929Y-43192159D01*
X96908560Y-43140249D01*
X96614002Y-43015672D01*
X96286206Y-42908300D01*
X95947466Y-42825225D01*
X95873146Y-42810814D01*
X95738112Y-42792581D01*
X95556553Y-42777826D01*
X95338285Y-42766551D01*
X95093120Y-42758755D01*
X94830872Y-42754438D01*
X94561354Y-42753601D01*
X94294380Y-42756242D01*
X94039763Y-42762363D01*
X93807317Y-42771962D01*
X93606856Y-42785041D01*
X93448192Y-42801599D01*
X93389591Y-42810814D01*
X93051443Y-42887544D01*
X92719299Y-42990143D01*
X92415452Y-43111519D01*
X92354177Y-43140249D01*
X92244818Y-43192162D01*
X92171722Y-43221965D01*
X92120586Y-43232628D01*
X92077107Y-43227122D01*
X92026983Y-43208416D01*
X92026640Y-43208273D01*
X91969301Y-43180742D01*
X91907022Y-43142558D01*
X91835134Y-43089603D01*
X91748967Y-43017762D01*
X91643851Y-42922918D01*
X91515117Y-42800953D01*
X91358096Y-42647752D01*
X91168117Y-42459198D01*
X91102137Y-42393261D01*
X90750574Y-42028837D01*
X90445085Y-41683686D01*
X90181510Y-41351352D01*
X89955683Y-41025376D01*
X89763441Y-40699301D01*
X89600622Y-40366671D01*
X89463062Y-40021028D01*
X89354120Y-39682138D01*
X89310808Y-39536794D01*
X89268473Y-39402529D01*
X89231620Y-39293142D01*
X89204755Y-39222432D01*
X89202078Y-39216471D01*
X89168459Y-39155789D01*
X89128007Y-39125040D01*
X89060072Y-39112015D01*
X89020324Y-39109017D01*
X88866743Y-39126043D01*
G37*
X88866743Y-39126043D02*
X88726100Y-39195596D01*
X88600347Y-39314841D01*
X88491433Y-39480939D01*
X88401308Y-39691055D01*
X88331923Y-39942351D01*
X88293242Y-40166715D01*
X88275118Y-40380649D01*
X88279691Y-40595858D01*
X88308261Y-40827081D01*
X88362131Y-41089061D01*
X88381743Y-41169209D01*
X88413887Y-41298076D01*
X88440243Y-41406007D01*
X88458116Y-41481801D01*
X88464811Y-41514258D01*
X88464813Y-41514358D01*
X88442119Y-41535232D01*
X88385079Y-41569699D01*
X88357054Y-41584520D01*
X88218012Y-41682808D01*
X88097825Y-41819284D01*
X88011768Y-41975803D01*
X87999583Y-42009156D01*
X87974937Y-42101598D01*
X87962132Y-42203511D01*
X87959719Y-42332233D01*
X87963249Y-42443387D01*
X87971816Y-42586050D01*
X87986198Y-42699471D01*
X88011163Y-42804599D01*
X88051477Y-42922381D01*
X88100192Y-43045203D01*
X88117305Y-43097861D01*
X88118249Y-43148431D01*
X88100355Y-43214252D01*
X88060956Y-43312660D01*
X88057946Y-43319752D01*
X87976814Y-43490089D01*
X87869741Y-43685407D01*
X87747542Y-43887853D01*
X87621033Y-44079571D01*
X87501030Y-44242707D01*
X87491915Y-44254138D01*
X87414865Y-44346316D01*
X87310389Y-44466082D01*
X87190159Y-44600310D01*
X87065846Y-44735876D01*
X87017079Y-44788084D01*
X86831172Y-44989181D01*
X86682299Y-45158019D01*
X86565803Y-45300390D01*
X86477029Y-45422089D01*
X86411322Y-45528908D01*
X86391599Y-45566471D01*
X86336411Y-45694278D01*
X86311264Y-45808549D01*
X86313185Y-45933015D01*
X86331049Y-46049716D01*
X86346246Y-46153409D01*
X86351447Y-46240687D01*
X86346200Y-46289591D01*
X86320044Y-46335028D01*
X86267563Y-46410365D01*
X86198404Y-46502002D01*
X86170603Y-46537210D01*
X85973854Y-46808771D01*
X85819394Y-47081930D01*
X85723471Y-47302138D01*
X85582599Y-47738281D01*
X85491233Y-48185626D01*
X85448554Y-48638494D01*
X85453746Y-49091208D01*
X85505993Y-49538090D01*
X85604478Y-49973462D01*
X85748382Y-50391647D01*
X85936891Y-50786967D01*
X86169186Y-51153743D01*
X86302345Y-51325676D01*
X86498096Y-51536996D01*
X86728293Y-51744549D01*
X86972579Y-51931045D01*
X87147893Y-52043830D01*
X87257479Y-52110280D01*
X87355235Y-52173372D01*
X87425895Y-52223100D01*
X87444551Y-52238244D01*
X87506939Y-52311846D01*
X87576073Y-52428626D01*
X87654105Y-52592647D01*
X87733154Y-52782582D01*
X87882106Y-53082827D01*
X88080860Y-53363884D01*
X88324716Y-53621253D01*
X88608977Y-53850433D01*
X88928943Y-54046925D01*
X89175902Y-54164412D01*
X89448646Y-54265392D01*
X89742692Y-54349440D01*
X90030713Y-54409175D01*
X90140302Y-54424875D01*
X90247674Y-54440381D01*
X90332828Y-54457272D01*
X90380544Y-54472407D01*
X90384629Y-54475316D01*
X90406009Y-54511704D01*
X90440926Y-54584878D01*
X90481940Y-54679222D01*
X90483201Y-54682249D01*
X90645977Y-55012826D01*
X90845580Y-55314853D01*
X91075231Y-55578883D01*
X91223324Y-55714050D01*
X91339872Y-55806321D01*
X91462315Y-55892888D01*
X91598631Y-55978261D01*
X91756800Y-56066949D01*
X91944804Y-56163463D01*
X92170621Y-56272313D01*
X92396573Y-56377131D01*
X92716622Y-56527057D01*
X93008936Y-56670622D01*
X93268173Y-56804997D01*
X93488989Y-56927350D01*
X93666041Y-57034850D01*
X93762191Y-57100563D01*
X93913616Y-57218433D01*
X94075507Y-57356057D01*
X94232496Y-57499535D01*
X94369216Y-57634966D01*
X94445842Y-57718949D01*
X94523870Y-57800708D01*
X94591247Y-57854113D01*
X94631368Y-57870035D01*
X94680986Y-57847545D01*
X94754561Y-57783499D01*
X94842242Y-57687435D01*
X94914033Y-57604229D01*
X94971896Y-57540606D01*
X95006527Y-57506666D01*
X95011575Y-57503655D01*
X95037343Y-57485670D01*
X95096005Y-57437464D01*
X95178542Y-57366624D01*
X95265220Y-57290289D01*
X95415470Y-57166944D01*
X95591809Y-57042291D01*
X95799333Y-56913406D01*
X96043136Y-56777364D01*
X96328315Y-56631240D01*
X96659964Y-56472111D01*
X96818591Y-56398747D01*
X97006102Y-56311447D01*
X97190649Y-56222977D01*
X97361193Y-56138820D01*
X97506697Y-56064457D01*
X97616122Y-56005370D01*
X97647498Y-55987131D01*
X97917279Y-55807531D01*
X98147312Y-55614170D01*
X98346883Y-55396742D01*
X98525279Y-55144939D01*
X98691790Y-54848456D01*
X98714656Y-54802846D01*
X98782335Y-54665196D01*
X98832895Y-54568658D01*
X98876649Y-54505014D01*
X98923907Y-54466047D01*
X98984983Y-54443537D01*
X99070188Y-54429268D01*
X99189835Y-54415020D01*
X99203368Y-54413369D01*
X99396633Y-54379777D01*
X99617216Y-54325428D01*
X99842782Y-54256410D01*
X100025468Y-54189262D01*
X100319598Y-54055609D01*
X100576601Y-53903573D01*
X100815489Y-53720611D01*
X101010651Y-53539249D01*
X101159397Y-53383991D01*
X101277260Y-53241613D01*
X101374401Y-53096358D01*
X101460984Y-52932470D01*
X101547171Y-52734194D01*
X101574975Y-52664360D01*
X101658679Y-52475442D01*
X101746030Y-52332101D01*
X101844612Y-52223606D01*
X101934038Y-52156360D01*
X102029360Y-52095559D01*
X102145171Y-52021937D01*
X102241738Y-51960718D01*
X102566195Y-51722522D01*
X102857484Y-51441735D01*
X103113755Y-51122727D01*
X103333155Y-50769869D01*
X103513834Y-50387530D01*
X103653939Y-49980081D01*
X103751618Y-49551891D01*
X103805021Y-49107331D01*
X103809749Y-48810598D01*
X103729007Y-48810598D01*
X103725408Y-48978555D01*
X103682128Y-49444040D01*
X103592312Y-49887566D01*
X103457780Y-50305964D01*
X103280353Y-50696061D01*
X103061849Y-51054686D01*
X102804089Y-51378667D01*
X102508893Y-51664834D01*
X102178079Y-51910015D01*
X101974293Y-52030204D01*
X101867418Y-52093517D01*
X101774421Y-52158734D01*
X101711413Y-52214259D01*
X101701047Y-52226899D01*
X101668488Y-52282772D01*
X101620387Y-52378054D01*
X101562888Y-52500044D01*
X101502136Y-52636042D01*
X101493930Y-52654991D01*
X101385063Y-52895277D01*
X101282625Y-53091787D01*
X101178935Y-53255399D01*
X101066311Y-53396990D01*
X100937073Y-53527436D01*
X100788946Y-53653312D01*
X100501313Y-53853345D01*
X100181081Y-54024417D01*
X99842601Y-54160617D01*
X99500226Y-54256032D01*
X99217480Y-54300594D01*
X99059153Y-54321916D01*
X98944182Y-54355675D01*
X98859659Y-54409764D01*
X98792679Y-54492079D01*
X98738160Y-54593790D01*
X98669607Y-54736466D01*
X98613855Y-54846047D01*
X98560629Y-54940951D01*
X98499656Y-55039597D01*
X98429909Y-55146432D01*
X98319277Y-55304060D01*
X98204209Y-55445917D01*
X98078973Y-55575998D01*
X97937838Y-55698298D01*
X97775071Y-55816808D01*
X97584943Y-55935523D01*
X97361721Y-56058437D01*
X97099675Y-56189544D01*
X96793072Y-56332836D01*
X96606924Y-56416703D01*
X96294420Y-56560210D01*
X96026565Y-56692546D01*
X95793927Y-56818697D01*
X95587072Y-56943646D01*
X95493958Y-57004801D01*
X95361512Y-57102491D01*
X95213408Y-57225221D01*
X95062761Y-57360852D01*
X94922684Y-57497244D01*
X94806291Y-57622260D01*
X94744257Y-57698763D01*
X94690493Y-57764615D01*
X94646724Y-57805953D01*
X94631368Y-57813180D01*
X94599994Y-57792253D01*
X94548376Y-57738620D01*
X94504368Y-57685062D01*
X94389062Y-57550833D01*
X94241696Y-57400999D01*
X94077967Y-57250048D01*
X93913569Y-57112467D01*
X93767653Y-57005050D01*
X93604462Y-56899949D01*
X93435342Y-56800302D01*
X93249484Y-56700387D01*
X93036081Y-56594482D01*
X92784325Y-56476866D01*
X92684035Y-56431372D01*
X92365106Y-56285388D01*
X92093444Y-56155760D01*
X91863418Y-56039159D01*
X91669396Y-55932253D01*
X91505745Y-55831712D01*
X91366833Y-55734205D01*
X91247029Y-55636403D01*
X91140700Y-55534973D01*
X91105535Y-55497901D01*
X90994285Y-55367201D01*
X90877181Y-55211891D01*
X90764685Y-55047450D01*
X90667260Y-54889358D01*
X90595371Y-54753094D01*
X90582627Y-54724283D01*
X90513284Y-54570127D01*
X90448481Y-54461120D01*
X90376812Y-54388264D01*
X90286876Y-54342561D01*
X90167270Y-54315015D01*
X90045257Y-54300267D01*
X89718929Y-54246585D01*
X89391573Y-54152148D01*
X89072840Y-54022015D01*
X88772380Y-53861247D01*
X88499844Y-53674903D01*
X88264881Y-53468042D01*
X88103799Y-53282379D01*
X88027907Y-53168584D01*
X87942266Y-53019736D01*
X87856748Y-52853705D01*
X87801395Y-52734915D01*
X87719338Y-52551046D01*
X87653960Y-52410701D01*
X87599318Y-52305690D01*
X87549468Y-52227823D01*
X87498469Y-52168912D01*
X87440376Y-52120767D01*
X87369248Y-52075198D01*
X87289861Y-52030004D01*
X86922896Y-51794548D01*
X86597998Y-51521653D01*
X86314848Y-51210932D01*
X86073123Y-50862000D01*
X85872504Y-50474469D01*
X85758596Y-50186420D01*
X85637153Y-49760655D01*
X85561609Y-49312532D01*
X85532271Y-48852972D01*
X85549448Y-48392897D01*
X85613448Y-47943227D01*
X85686768Y-47638756D01*
X85754928Y-47435032D01*
X85843494Y-47223129D01*
X85946655Y-47013207D01*
X86058601Y-46815424D01*
X86173519Y-46639938D01*
X86285600Y-46496908D01*
X86389031Y-46396494D01*
X86403641Y-46385592D01*
X86483893Y-46328447D01*
X86441459Y-46166181D01*
X86416667Y-46025019D01*
X86408453Y-45873685D01*
X86409935Y-45831717D01*
X86424081Y-45726752D01*
X86455726Y-45623599D01*
X86509227Y-45515538D01*
X86588940Y-45395847D01*
X86699221Y-45257806D01*
X86844427Y-45094694D01*
X86983146Y-44947398D01*
X87197640Y-44720414D01*
X87376851Y-44523074D01*
X87527100Y-44346871D01*
X87654706Y-44183301D01*
X87765988Y-44023857D01*
X87867265Y-43860035D01*
X87964857Y-43683329D01*
X88056503Y-43502712D01*
X88123992Y-43364239D01*
X88168394Y-43261664D01*
X88190924Y-43179940D01*
X88192798Y-43104021D01*
X88175231Y-43018861D01*
X88139440Y-42909412D01*
X88110924Y-42829195D01*
X88075116Y-42721513D01*
X88053779Y-42631263D01*
X88044219Y-42537800D01*
X88043742Y-42420478D01*
X88046491Y-42335306D01*
X88053746Y-42196916D01*
X88065421Y-42097266D01*
X88085346Y-42018655D01*
X88117347Y-41943381D01*
X88141163Y-41897582D01*
X88192323Y-41810326D01*
X88241610Y-41754279D01*
X88308100Y-41713036D01*
X88401313Y-41673894D01*
X88513173Y-41623245D01*
X88569813Y-41579434D01*
X88577702Y-41558466D01*
X88568818Y-41512054D01*
X88545038Y-41427353D01*
X88510666Y-41319152D01*
X88492124Y-41264521D01*
X88412022Y-40959457D01*
X88371506Y-40628117D01*
X88372161Y-40285964D01*
X88380903Y-40180792D01*
X88423958Y-39896821D01*
X88490339Y-39662660D01*
X88581454Y-39476103D01*
X88698718Y-39334944D01*
X88843540Y-39236975D01*
X89017334Y-39179990D01*
X89021635Y-39179154D01*
X89112790Y-39161664D01*
X89199868Y-39450123D01*
X89273875Y-39693571D01*
X89335466Y-39891353D01*
X89387736Y-40052074D01*
X89433785Y-40184338D01*
X89476710Y-40296749D01*
X89519609Y-40397914D01*
X89565580Y-40496434D01*
X89605565Y-40576987D01*
X89825653Y-40968281D01*
X90093690Y-41369576D01*
X90403883Y-41773628D01*
X90750435Y-42173192D01*
X91127553Y-42561024D01*
X91387044Y-42804040D01*
X91570333Y-42968021D01*
X91719280Y-43096098D01*
X91840675Y-43191023D01*
X91941307Y-43255547D01*
X92027964Y-43292423D01*
X92107435Y-43304402D01*
X92186510Y-43294235D01*
X92271977Y-43264676D01*
X92370626Y-43218474D01*
X92388010Y-43209760D01*
X92608358Y-43109038D01*
X92835198Y-43027355D01*
X93078131Y-42962617D01*
X93346752Y-42912725D01*
X93650661Y-42875584D01*
X93999454Y-42849096D01*
X94052813Y-42846097D01*
X94357515Y-42832985D01*
X94637519Y-42828946D01*
X94919819Y-42834020D01*
X95224035Y-42847835D01*
X95541682Y-42869392D01*
X95813882Y-42897290D01*
X96051491Y-42933883D01*
X96265367Y-42981522D01*
X96466365Y-43042563D01*
X96665344Y-43119356D01*
X96839192Y-43197914D01*
X96954731Y-43248104D01*
X97062594Y-43286435D01*
X97144988Y-43306873D01*
X97165835Y-43308693D01*
X97222069Y-43301322D01*
X97286669Y-43276625D01*
X97365029Y-43230726D01*
X97462546Y-43159749D01*
X97584612Y-43059818D01*
X97736623Y-42927055D01*
X97891198Y-42787513D01*
X98292754Y-42400234D01*
X98664228Y-41999189D01*
X99000390Y-41590961D01*
X99296010Y-41182130D01*
X99545859Y-40779281D01*
X99667250Y-40551940D01*
X99718099Y-40447554D01*
X99763693Y-40346377D01*
X99807202Y-40239581D01*
X99851797Y-40118337D01*
X99900648Y-39973814D01*
X99956926Y-39797183D01*
X100023801Y-39579616D01*
X100063328Y-39448997D01*
X100102298Y-39319191D01*
X100131872Y-39235061D01*
X100161401Y-39189041D01*
X100200239Y-39173569D01*
X100257740Y-39181078D01*
X100343257Y-39204007D01*
X100360480Y-39208685D01*
X100465898Y-39259625D01*
X100575627Y-39351465D01*
X100659626Y-39450610D01*
X100748538Y-39612017D01*
X100816587Y-39815439D01*
X100863115Y-40050186D01*
X100887462Y-40305569D01*
X100888969Y-40570898D01*
X100866977Y-40835483D01*
X100820827Y-41088634D01*
X100771248Y-41260821D01*
X100733472Y-41376042D01*
X100704110Y-41474546D01*
X100687364Y-41541781D01*
X100685035Y-41559244D01*
X100712809Y-41599185D01*
X100795413Y-41646202D01*
X100861424Y-41673894D01*
X100958788Y-41714660D01*
X101021218Y-41754269D01*
X101067233Y-41809588D01*
X101115351Y-41897487D01*
X101122480Y-41911693D01*
X101170558Y-42020198D01*
X101198844Y-42122771D01*
X101213393Y-42244965D01*
X101216950Y-42310260D01*
X101211140Y-42561672D01*
X101172349Y-42784100D01*
X101107083Y-42958437D01*
X101070956Y-43039971D01*
X101056764Y-43111957D01*
X101065909Y-43189836D01*
X101099793Y-43289049D01*
X101146902Y-43396892D01*
X101271882Y-43651115D01*
X101409898Y-43891014D01*
X101567593Y-44125764D01*
X101751610Y-44364545D01*
X101968588Y-44616532D01*
X102225172Y-44890903D01*
X102237103Y-44903249D01*
X102421346Y-45097599D01*
X102566970Y-45261405D01*
X102678013Y-45401083D01*
X102758514Y-45523049D01*
X102812512Y-45633723D01*
X102844046Y-45739520D01*
X102857155Y-45846858D01*
X102858146Y-45889988D01*
X102849346Y-46010069D01*
X102827270Y-46135244D01*
X102817068Y-46173770D01*
X102775990Y-46310262D01*
X102920294Y-46452308D01*
X103122905Y-46688185D01*
X103300014Y-46968797D01*
X103449507Y-47287507D01*
X103569267Y-47637679D01*
X103657181Y-48012676D01*
X103711133Y-48405861D01*
X103729007Y-48810598D01*
X103809749Y-48810598D01*
X103812296Y-48650770D01*
X103787434Y-48312580D01*
X103714051Y-47869860D01*
X103594721Y-47456969D01*
X103426879Y-47067632D01*
X103207964Y-46695572D01*
X103024522Y-46444027D01*
X102947749Y-46340179D01*
X102906798Y-46266995D01*
X102897098Y-46215715D01*
X102899345Y-46204138D01*
X102910355Y-46146844D01*
X102922625Y-46053457D01*
X102933499Y-45944193D01*
X102933501Y-45944173D01*
X102937366Y-45837761D01*
X102927883Y-45737818D01*
X102901575Y-45638615D01*
X102854967Y-45534423D01*
X102784583Y-45419510D01*
X102686947Y-45288148D01*
X102558584Y-45134606D01*
X102396017Y-44953155D01*
X102212959Y-44756324D01*
X102083340Y-44614824D01*
X101948403Y-44461233D01*
X101821482Y-44311124D01*
X101715911Y-44180070D01*
X101685433Y-44140200D01*
X101603228Y-44023313D01*
X101514343Y-43884897D01*
X101424066Y-43734605D01*
X101337682Y-43582089D01*
X101260478Y-43437005D01*
X101197740Y-43309003D01*
X101154756Y-43207739D01*
X101136810Y-43142865D01*
X101136591Y-43138001D01*
X101149055Y-43076517D01*
X101179965Y-42995869D01*
X101189558Y-42975958D01*
X101253470Y-42803419D01*
X101293087Y-42591993D01*
X101305924Y-42366982D01*
X101287855Y-42132898D01*
X101232084Y-41938126D01*
X101136267Y-41777980D01*
X100998062Y-41647774D01*
X100921053Y-41597488D01*
X100850577Y-41551903D01*
X100806021Y-41514849D01*
X100797924Y-41501696D01*
X100804580Y-41466455D01*
X100822674Y-41388368D01*
X100849393Y-41279205D01*
X100879890Y-41158656D01*
X100942059Y-40883090D01*
X100976987Y-40639990D01*
X100986102Y-40413198D01*
X100970828Y-40186558D01*
X100967843Y-40161915D01*
X100919199Y-39891326D01*
X100847045Y-39654675D01*
X100753947Y-39455678D01*
X100642468Y-39298051D01*
X100515176Y-39185512D01*
X100374636Y-39121776D01*
X100241032Y-39109074D01*
X100187791Y-39113885D01*
X100144912Y-39125044D01*
X100108736Y-39149108D01*
X100075606Y-39192637D01*
X100041866Y-39262189D01*
X100003856Y-39364323D01*
X99957921Y-39505598D01*
X99900402Y-39692572D01*
X99882123Y-39752693D01*
X99730288Y-40187450D01*
X99543901Y-40600721D01*
X99317442Y-41002729D01*
X99045394Y-41403698D01*
X98861538Y-41643582D01*
X98781822Y-41737590D01*
X98668907Y-41862532D01*
X98530555Y-42010511D01*
X98374530Y-42173628D01*
X98208597Y-42343987D01*
X98040520Y-42513690D01*
X97878062Y-42674838D01*
X97728988Y-42819536D01*
X97601061Y-42939885D01*
X97502046Y-43027987D01*
X97493423Y-43035228D01*
X97398791Y-43108225D01*
X97305074Y-43170997D01*
X97235772Y-43208409D01*
X97185684Y-43227107D01*
X97142210Y-43232617D01*
X97091056Y-43221960D01*
X97017929Y-43192159D01*
X96908560Y-43140249D01*
X96614002Y-43015672D01*
X96286206Y-42908300D01*
X95947466Y-42825225D01*
X95873146Y-42810814D01*
X95738112Y-42792581D01*
X95556553Y-42777826D01*
X95338285Y-42766551D01*
X95093120Y-42758755D01*
X94830872Y-42754438D01*
X94561354Y-42753601D01*
X94294380Y-42756242D01*
X94039763Y-42762363D01*
X93807317Y-42771962D01*
X93606856Y-42785041D01*
X93448192Y-42801599D01*
X93389591Y-42810814D01*
X93051443Y-42887544D01*
X92719299Y-42990143D01*
X92415452Y-43111519D01*
X92354177Y-43140249D01*
X92244818Y-43192162D01*
X92171722Y-43221965D01*
X92120586Y-43232628D01*
X92077107Y-43227122D01*
X92026983Y-43208416D01*
X92026640Y-43208273D01*
X91969301Y-43180742D01*
X91907022Y-43142558D01*
X91835134Y-43089603D01*
X91748967Y-43017762D01*
X91643851Y-42922918D01*
X91515117Y-42800953D01*
X91358096Y-42647752D01*
X91168117Y-42459198D01*
X91102137Y-42393261D01*
X90750574Y-42028837D01*
X90445085Y-41683686D01*
X90181510Y-41351352D01*
X89955683Y-41025376D01*
X89763441Y-40699301D01*
X89600622Y-40366671D01*
X89463062Y-40021028D01*
X89354120Y-39682138D01*
X89310808Y-39536794D01*
X89268473Y-39402529D01*
X89231620Y-39293142D01*
X89204755Y-39222432D01*
X89202078Y-39216471D01*
X89168459Y-39155789D01*
X89128007Y-39125040D01*
X89060072Y-39112015D01*
X89020324Y-39109017D01*
X88866743Y-39126043D01*
G36*
X88669867Y-41757591D02*
G01*
X88668040Y-41763755D01*
X88672490Y-41847020D01*
X88707840Y-41966545D01*
X88769655Y-42114573D01*
X88853500Y-42283349D01*
X88954940Y-42465116D01*
X89069540Y-42652118D01*
X89192865Y-42836598D01*
X89320481Y-43010801D01*
X89447952Y-43166969D01*
X89509035Y-43234579D01*
X89701900Y-43419249D01*
X89930800Y-43605344D01*
X90177326Y-43779389D01*
X90423071Y-43927909D01*
X90536667Y-43986818D01*
X90698529Y-44060466D01*
X90853866Y-44121939D01*
X90994716Y-44169036D01*
X91113119Y-44199557D01*
X91201115Y-44211300D01*
X91250743Y-44202063D01*
X91258813Y-44186506D01*
X91248675Y-44163356D01*
X91215615Y-44126724D01*
X91155667Y-44073396D01*
X91064864Y-44000158D01*
X90939238Y-43903798D01*
X90774822Y-43781101D01*
X90595344Y-43649117D01*
X90360656Y-43476330D01*
X90164185Y-43328555D01*
X89997902Y-43198446D01*
X89853772Y-43078660D01*
X89723766Y-42961852D01*
X89599851Y-42840677D01*
X89473995Y-42707790D01*
X89338167Y-42555846D01*
X89184335Y-42377501D01*
X89112724Y-42293310D01*
X89014222Y-42173953D01*
X88915392Y-42048719D01*
X88830795Y-41936291D01*
X88793832Y-41884087D01*
X88729866Y-41795924D01*
X88689533Y-41754705D01*
X88669867Y-41757591D01*
G37*
X88669867Y-41757591D02*
X88668040Y-41763755D01*
X88672490Y-41847020D01*
X88707840Y-41966545D01*
X88769655Y-42114573D01*
X88853500Y-42283349D01*
X88954940Y-42465116D01*
X89069540Y-42652118D01*
X89192865Y-42836598D01*
X89320481Y-43010801D01*
X89447952Y-43166969D01*
X89509035Y-43234579D01*
X89701900Y-43419249D01*
X89930800Y-43605344D01*
X90177326Y-43779389D01*
X90423071Y-43927909D01*
X90536667Y-43986818D01*
X90698529Y-44060466D01*
X90853866Y-44121939D01*
X90994716Y-44169036D01*
X91113119Y-44199557D01*
X91201115Y-44211300D01*
X91250743Y-44202063D01*
X91258813Y-44186506D01*
X91248675Y-44163356D01*
X91215615Y-44126724D01*
X91155667Y-44073396D01*
X91064864Y-44000158D01*
X90939238Y-43903798D01*
X90774822Y-43781101D01*
X90595344Y-43649117D01*
X90360656Y-43476330D01*
X90164185Y-43328555D01*
X89997902Y-43198446D01*
X89853772Y-43078660D01*
X89723766Y-42961852D01*
X89599851Y-42840677D01*
X89473995Y-42707790D01*
X89338167Y-42555846D01*
X89184335Y-42377501D01*
X89112724Y-42293310D01*
X89014222Y-42173953D01*
X88915392Y-42048719D01*
X88830795Y-41936291D01*
X88793832Y-41884087D01*
X88729866Y-41795924D01*
X88689533Y-41754705D01*
X88669867Y-41757591D01*
G36*
X96603361Y-52085056D02*
G01*
X96608619Y-52124841D01*
X96614091Y-52173395D01*
X96619235Y-52268342D01*
X96623710Y-52399630D01*
X96627178Y-52557206D01*
X96629299Y-52731019D01*
X96629355Y-52738675D01*
X96629188Y-52974145D01*
X96623425Y-53168433D01*
X96609694Y-53336708D01*
X96585624Y-53494140D01*
X96548844Y-53655898D01*
X96496982Y-53837152D01*
X96427669Y-54053071D01*
X96420555Y-54074536D01*
X96342388Y-54286047D01*
X96239521Y-54528531D01*
X96119323Y-54786508D01*
X95989160Y-55044500D01*
X95856400Y-55287028D01*
X95788770Y-55401915D01*
X95734008Y-55490343D01*
X95654509Y-55616071D01*
X95556581Y-55769260D01*
X95446531Y-55940069D01*
X95330665Y-56118658D01*
X95260713Y-56225856D01*
X95098436Y-56477160D01*
X94967379Y-56687080D01*
X94868003Y-56854807D01*
X94800770Y-56979532D01*
X94766139Y-57060445D01*
X94764310Y-57096486D01*
X94789387Y-57084772D01*
X94847727Y-57044486D01*
X94929038Y-56982956D01*
X94975762Y-56945974D01*
X95093364Y-56853291D01*
X95232475Y-56746193D01*
X95368833Y-56643296D01*
X95411963Y-56611316D01*
X95579076Y-56483462D01*
X95766041Y-56332519D01*
X95962729Y-56167346D01*
X96159015Y-55996807D01*
X96344768Y-55829763D01*
X96509862Y-55675076D01*
X96644169Y-55541607D01*
X96689165Y-55493786D01*
X96977768Y-55157906D01*
X97215308Y-54836175D01*
X97404218Y-54524743D01*
X97546932Y-54219763D01*
X97613001Y-54033138D01*
X97656102Y-53844919D01*
X97679211Y-53633787D01*
X97682282Y-53417530D01*
X97665270Y-53213935D01*
X97628131Y-53040790D01*
X97615615Y-53004131D01*
X97493054Y-52750958D01*
X97327760Y-52522013D01*
X97128077Y-52326741D01*
X96902347Y-52174588D01*
X96866289Y-52155833D01*
X96743740Y-52097097D01*
X96663370Y-52066239D01*
X96618727Y-52062484D01*
X96603361Y-52085056D01*
G37*
X96603361Y-52085056D02*
X96608619Y-52124841D01*
X96614091Y-52173395D01*
X96619235Y-52268342D01*
X96623710Y-52399630D01*
X96627178Y-52557206D01*
X96629299Y-52731019D01*
X96629355Y-52738675D01*
X96629188Y-52974145D01*
X96623425Y-53168433D01*
X96609694Y-53336708D01*
X96585624Y-53494140D01*
X96548844Y-53655898D01*
X96496982Y-53837152D01*
X96427669Y-54053071D01*
X96420555Y-54074536D01*
X96342388Y-54286047D01*
X96239521Y-54528531D01*
X96119323Y-54786508D01*
X95989160Y-55044500D01*
X95856400Y-55287028D01*
X95788770Y-55401915D01*
X95734008Y-55490343D01*
X95654509Y-55616071D01*
X95556581Y-55769260D01*
X95446531Y-55940069D01*
X95330665Y-56118658D01*
X95260713Y-56225856D01*
X95098436Y-56477160D01*
X94967379Y-56687080D01*
X94868003Y-56854807D01*
X94800770Y-56979532D01*
X94766139Y-57060445D01*
X94764310Y-57096486D01*
X94789387Y-57084772D01*
X94847727Y-57044486D01*
X94929038Y-56982956D01*
X94975762Y-56945974D01*
X95093364Y-56853291D01*
X95232475Y-56746193D01*
X95368833Y-56643296D01*
X95411963Y-56611316D01*
X95579076Y-56483462D01*
X95766041Y-56332519D01*
X95962729Y-56167346D01*
X96159015Y-55996807D01*
X96344768Y-55829763D01*
X96509862Y-55675076D01*
X96644169Y-55541607D01*
X96689165Y-55493786D01*
X96977768Y-55157906D01*
X97215308Y-54836175D01*
X97404218Y-54524743D01*
X97546932Y-54219763D01*
X97613001Y-54033138D01*
X97656102Y-53844919D01*
X97679211Y-53633787D01*
X97682282Y-53417530D01*
X97665270Y-53213935D01*
X97628131Y-53040790D01*
X97615615Y-53004131D01*
X97493054Y-52750958D01*
X97327760Y-52522013D01*
X97128077Y-52326741D01*
X96902347Y-52174588D01*
X96866289Y-52155833D01*
X96743740Y-52097097D01*
X96663370Y-52066239D01*
X96618727Y-52062484D01*
X96603361Y-52085056D01*
G36*
X92568800Y-52072199D02*
G01*
X92476434Y-52110920D01*
X92368618Y-52166050D01*
X92260945Y-52229892D01*
X92206234Y-52266787D01*
X92016133Y-52425582D01*
X91857401Y-52612172D01*
X91744061Y-52791360D01*
X91637434Y-53037429D01*
X91580518Y-53304722D01*
X91572742Y-53588811D01*
X91613538Y-53885270D01*
X91702336Y-54189674D01*
X91838565Y-54497596D01*
X91998790Y-54770337D01*
X92215685Y-55072484D01*
X92471492Y-55377814D01*
X92769041Y-55689090D01*
X93111165Y-56009073D01*
X93500694Y-56340528D01*
X93940459Y-56686216D01*
X94036342Y-56758543D01*
X94161013Y-56852129D01*
X94274769Y-56937802D01*
X94367461Y-57007900D01*
X94428938Y-57054756D01*
X94441954Y-57064835D01*
X94511260Y-57119087D01*
X94490128Y-57050724D01*
X94474021Y-57004075D01*
X94452069Y-56953121D01*
X94420736Y-56891947D01*
X94376486Y-56814640D01*
X94315782Y-56715286D01*
X94235087Y-56587970D01*
X94130866Y-56426779D01*
X93999582Y-56225800D01*
X93968270Y-56178026D01*
X93750589Y-55842310D01*
X93563464Y-55544898D01*
X93403336Y-55279128D01*
X93266648Y-55038334D01*
X93149842Y-54815854D01*
X93049361Y-54605022D01*
X92961645Y-54399174D01*
X92883139Y-54191646D01*
X92838244Y-54061360D01*
X92772425Y-53859121D01*
X92721991Y-53688609D01*
X92685024Y-53536749D01*
X92659604Y-53390461D01*
X92643815Y-53236670D01*
X92635738Y-53062297D01*
X92633454Y-52854266D01*
X92634362Y-52671415D01*
X92635495Y-52492131D01*
X92635697Y-52333490D01*
X92635025Y-52203593D01*
X92633534Y-52110541D01*
X92631281Y-52062435D01*
X92630124Y-52057582D01*
X92568800Y-52072199D01*
G37*
X92568800Y-52072199D02*
X92476434Y-52110920D01*
X92368618Y-52166050D01*
X92260945Y-52229892D01*
X92206234Y-52266787D01*
X92016133Y-52425582D01*
X91857401Y-52612172D01*
X91744061Y-52791360D01*
X91637434Y-53037429D01*
X91580518Y-53304722D01*
X91572742Y-53588811D01*
X91613538Y-53885270D01*
X91702336Y-54189674D01*
X91838565Y-54497596D01*
X91998790Y-54770337D01*
X92215685Y-55072484D01*
X92471492Y-55377814D01*
X92769041Y-55689090D01*
X93111165Y-56009073D01*
X93500694Y-56340528D01*
X93940459Y-56686216D01*
X94036342Y-56758543D01*
X94161013Y-56852129D01*
X94274769Y-56937802D01*
X94367461Y-57007900D01*
X94428938Y-57054756D01*
X94441954Y-57064835D01*
X94511260Y-57119087D01*
X94490128Y-57050724D01*
X94474021Y-57004075D01*
X94452069Y-56953121D01*
X94420736Y-56891947D01*
X94376486Y-56814640D01*
X94315782Y-56715286D01*
X94235087Y-56587970D01*
X94130866Y-56426779D01*
X93999582Y-56225800D01*
X93968270Y-56178026D01*
X93750589Y-55842310D01*
X93563464Y-55544898D01*
X93403336Y-55279128D01*
X93266648Y-55038334D01*
X93149842Y-54815854D01*
X93049361Y-54605022D01*
X92961645Y-54399174D01*
X92883139Y-54191646D01*
X92838244Y-54061360D01*
X92772425Y-53859121D01*
X92721991Y-53688609D01*
X92685024Y-53536749D01*
X92659604Y-53390461D01*
X92643815Y-53236670D01*
X92635738Y-53062297D01*
X92633454Y-52854266D01*
X92634362Y-52671415D01*
X92635495Y-52492131D01*
X92635697Y-52333490D01*
X92635025Y-52203593D01*
X92633534Y-52110541D01*
X92631281Y-52062435D01*
X92630124Y-52057582D01*
X92568800Y-52072199D01*
G36*
X100845005Y-52600412D02*
G01*
X100768215Y-52611446D01*
X100667456Y-52630061D01*
X100651999Y-52633208D01*
X100328470Y-52687398D01*
X99997630Y-52719830D01*
X99672132Y-52730380D01*
X99364629Y-52718924D01*
X99087777Y-52685338D01*
X98924782Y-52650140D01*
X98820554Y-52624364D01*
X98739085Y-52607710D01*
X98694094Y-52602864D01*
X98689754Y-52604122D01*
X98694501Y-52633937D01*
X98718230Y-52702472D01*
X98756399Y-52797140D01*
X98774587Y-52839263D01*
X98852014Y-53035267D01*
X98900865Y-53214586D01*
X98925394Y-53399654D01*
X98929856Y-53612905D01*
X98928939Y-53653103D01*
X98921146Y-53934360D01*
X98991702Y-53938701D01*
X99060860Y-53936486D01*
X99156953Y-53925956D01*
X99208032Y-53918110D01*
X99474096Y-53851967D01*
X99741617Y-53747480D01*
X100001354Y-53611009D01*
X100244067Y-53448913D01*
X100460516Y-53267550D01*
X100641460Y-53073279D01*
X100777659Y-52872460D01*
X100804989Y-52819146D01*
X100848349Y-52721749D01*
X100876377Y-52645850D01*
X100884756Y-52603737D01*
X100882252Y-52599255D01*
X100845005Y-52600412D01*
G37*
X100845005Y-52600412D02*
X100768215Y-52611446D01*
X100667456Y-52630061D01*
X100651999Y-52633208D01*
X100328470Y-52687398D01*
X99997630Y-52719830D01*
X99672132Y-52730380D01*
X99364629Y-52718924D01*
X99087777Y-52685338D01*
X98924782Y-52650140D01*
X98820554Y-52624364D01*
X98739085Y-52607710D01*
X98694094Y-52602864D01*
X98689754Y-52604122D01*
X98694501Y-52633937D01*
X98718230Y-52702472D01*
X98756399Y-52797140D01*
X98774587Y-52839263D01*
X98852014Y-53035267D01*
X98900865Y-53214586D01*
X98925394Y-53399654D01*
X98929856Y-53612905D01*
X98928939Y-53653103D01*
X98921146Y-53934360D01*
X98991702Y-53938701D01*
X99060860Y-53936486D01*
X99156953Y-53925956D01*
X99208032Y-53918110D01*
X99474096Y-53851967D01*
X99741617Y-53747480D01*
X100001354Y-53611009D01*
X100244067Y-53448913D01*
X100460516Y-53267550D01*
X100641460Y-53073279D01*
X100777659Y-52872460D01*
X100804989Y-52819146D01*
X100848349Y-52721749D01*
X100876377Y-52645850D01*
X100884756Y-52603737D01*
X100882252Y-52599255D01*
X100845005Y-52600412D01*
G36*
X90494755Y-52604270D02*
G01*
X90423492Y-52625284D01*
X90168173Y-52688321D01*
X89871771Y-52724370D01*
X89542797Y-52733394D01*
X89189764Y-52715357D01*
X88821183Y-52670221D01*
X88611589Y-52633179D01*
X88504045Y-52613414D01*
X88419950Y-52600515D01*
X88372744Y-52596441D01*
X88367333Y-52597547D01*
X88373966Y-52625917D01*
X88400372Y-52692442D01*
X88441450Y-52784610D01*
X88457860Y-52819582D01*
X88585195Y-53029463D01*
X88760283Y-53231664D01*
X88974455Y-53420089D01*
X89219043Y-53588638D01*
X89485379Y-53731216D01*
X89764792Y-53841725D01*
X90000808Y-53904804D01*
X90142427Y-53932104D01*
X90238836Y-53945135D01*
X90299334Y-53944280D01*
X90333220Y-53929921D01*
X90342454Y-53918851D01*
X90348626Y-53879110D01*
X90349815Y-53797484D01*
X90346026Y-53688309D01*
X90342386Y-53629574D01*
X90336122Y-53424707D01*
X90351971Y-53246883D01*
X90393941Y-53073612D01*
X90466040Y-52882407D01*
X90482245Y-52844992D01*
X90526927Y-52740881D01*
X90561168Y-52656366D01*
X90579671Y-52604724D01*
X90581480Y-52596228D01*
X90557372Y-52591974D01*
X90494755Y-52604270D01*
G37*
X90494755Y-52604270D02*
X90423492Y-52625284D01*
X90168173Y-52688321D01*
X89871771Y-52724370D01*
X89542797Y-52733394D01*
X89189764Y-52715357D01*
X88821183Y-52670221D01*
X88611589Y-52633179D01*
X88504045Y-52613414D01*
X88419950Y-52600515D01*
X88372744Y-52596441D01*
X88367333Y-52597547D01*
X88373966Y-52625917D01*
X88400372Y-52692442D01*
X88441450Y-52784610D01*
X88457860Y-52819582D01*
X88585195Y-53029463D01*
X88760283Y-53231664D01*
X88974455Y-53420089D01*
X89219043Y-53588638D01*
X89485379Y-53731216D01*
X89764792Y-53841725D01*
X90000808Y-53904804D01*
X90142427Y-53932104D01*
X90238836Y-53945135D01*
X90299334Y-53944280D01*
X90333220Y-53929921D01*
X90342454Y-53918851D01*
X90348626Y-53879110D01*
X90349815Y-53797484D01*
X90346026Y-53688309D01*
X90342386Y-53629574D01*
X90336122Y-53424707D01*
X90351971Y-53246883D01*
X90393941Y-53073612D01*
X90466040Y-52882407D01*
X90482245Y-52844992D01*
X90526927Y-52740881D01*
X90561168Y-52656366D01*
X90579671Y-52604724D01*
X90581480Y-52596228D01*
X90557372Y-52591974D01*
X90494755Y-52604270D01*
M02*
