M48
; DRILL file {KiCad (5.1.6)-1} date 07/06/20 23:29:06
; FORMAT={-:-/ absolute / inch / decimal}
; #@! TF.CreationDate,2020-07-06T23:29:06+03:00
; #@! TF.GenerationSoftware,Kicad,Pcbnew,(5.1.6)-1
FMAT,2
INCH
T1C0.0079
T2C0.0118
T3C0.0236
T4C0.0315
T5C0.0394
T6C0.0400
T7C0.1201
%
G90
G05
T1
X3.001Y-4.0202
X3.1012Y-4.0202
X3.2014Y-4.0202
X3.3012Y-4.0202
X3.4012Y-4.0202
X3.428Y-2.8646
X3.4528Y-2.9997
X3.4916Y-2.8332
X3.501Y-4.0202
X3.5028Y-2.9755
X3.5528Y-2.802
X3.5528Y-2.9495
X3.6012Y-4.0202
X3.6028Y-2.644
X3.6028Y-2.926
X3.6528Y-2.8962
X3.7014Y-4.0202
X4.0018Y-4.0617
X4.1009Y-4.0617
X4.2009Y-4.0617
X4.3017Y-4.0617
X4.4017Y-4.0617
X4.5014Y-4.0617
X4.6015Y-4.0617
X4.9558Y-2.802
X4.956Y-2.8332
X4.9562Y-2.8648
X4.9562Y-2.8962
X5.1632Y-2.8408
X5.1632Y-2.8718
X5.1632Y-2.9034
X5.1632Y-2.9348
X5.8099Y-3.405
X5.8297Y-3.8101
X5.8501Y-3.8495
X5.8698Y-3.8692
X5.9Y-1.2
X5.9086Y-3.8101
X5.9283Y-3.8298
X5.948Y-3.7708
X5.9676Y-3.7904
X5.9873Y-3.7313
X6.007Y-3.7511
X6.0267Y-3.6133
X6.0464Y-3.692
X6.1013Y-3.6723
X6.1417Y-2.8602
X6.1893Y-2.8405
X6.2Y-1.1687
X6.201Y-3.6526
X6.2237Y-3.1663
X6.2369Y-2.8208
X6.2436Y-3.186
X6.2598Y-3.5936
X6.2633Y-3.2057
X6.2713Y-3.6329
X6.301Y-3.7117
X6.3023Y-3.2254
X6.3045Y-2.7814
X6.3221Y-3.245
X6.3417Y-3.5739
X6.352Y-2.7618
X6.381Y-3.2647
X6.4001Y-2.7421
X6.4204Y-3.2844
X6.4402Y-3.2596
X6.4477Y-2.7224
X6.4627Y-3.2789
X6.4914Y-2.8011
X6.4953Y-2.7027
X6.6Y-1.1687
X6.6481Y-2.2272
X6.6481Y-2.2757
X6.6481Y-2.3242
X6.6481Y-2.3726
X6.6999Y-3.4219
X6.7016Y-2.4698
X6.7017Y-2.4209
X6.9481Y-2.2272
X6.9481Y-2.2757
X6.9481Y-2.3242
X6.9481Y-2.3726
X7.0Y-1.1687
X7.0016Y-2.4698
X7.0017Y-2.4209
X7.2481Y-2.2272
X7.2481Y-2.2757
X7.2481Y-2.3242
X7.2481Y-2.3726
X7.3175Y-2.4698
X7.3176Y-2.4209
X7.4Y-1.1687
X7.4847Y-3.2448
X7.5481Y-2.2272
X7.5481Y-2.2757
X7.5481Y-2.3242
X7.5481Y-2.3726
X7.5664Y-2.5161
X7.6553Y-2.6944
X7.7666Y-2.2757
X7.7666Y-2.36
X7.8Y-1.1687
X7.8548Y-2.7158
X7.9393Y-2.5626
X7.9394Y-2.2514
X7.9394Y-2.4062
X8.0691Y-1.1697
X8.09Y-2.2515
X8.0903Y-2.406
X8.0903Y-2.5628
X8.0986Y-2.7155
X8.1626Y-2.2514
X8.1626Y-2.406
X8.1626Y-2.5628
X8.4128Y-1.512
X8.655Y-1.7541
X8.8388Y-2.4294
X8.8628Y-2.5168
X8.8966Y-1.997
X8.8975Y-2.2734
T2
X2.9528Y-1.4764
X2.9528Y-1.8701
X2.9528Y-2.2638
X2.9528Y-2.6575
X2.9528Y-3.0512
X2.9528Y-3.4449
X2.9528Y-3.8386
X3.0375Y-1.2711
X3.0375Y-1.9516
X3.0375Y-2.7305
X3.0375Y-3.411
X3.1496Y-1.1811
X3.1496Y-1.6732
X3.1496Y-2.0669
X3.1496Y-2.4606
X3.1496Y-2.8543
X3.1496Y-3.248
X3.1496Y-3.6417
X3.2863Y-1.2713
X3.2863Y-1.9512
X3.2863Y-2.7305
X3.2863Y-3.411
X3.3465Y-1.4764
X3.3465Y-1.8701
X3.3465Y-2.2638
X3.3465Y-2.6575
X3.3465Y-3.0512
X3.3465Y-3.4449
X3.3465Y-3.8386
X3.4014Y-1.6261
X3.4014Y-2.3061
X3.4015Y-3.0853
X3.4034Y-3.7615
X3.5433Y-1.1811
X3.7028Y-2.5646
X3.703Y-3.7634
X3.7045Y-1.6209
X3.7045Y-2.3004
X3.7046Y-3.0809
X3.8037Y-3.5067
X3.8511Y-4.1166
X3.9064Y-2.6019
X3.937Y-1.1811
X3.9751Y-3.2957
X4.1027Y-1.1849
X4.1027Y-3.3395
X4.1028Y-1.8779
X4.1028Y-2.6168
X4.1182Y-3.7678
X4.1202Y-1.6261
X4.1203Y-2.3059
X4.1229Y-3.0853
X4.2379Y-1.836
X4.2385Y-1.1187
X4.2534Y-2.6012
X4.3805Y-1.7008
X4.3806Y-2.3804
X4.3862Y-3.1011
X4.3953Y-3.8171
X4.4655Y-2.7305
X4.4664Y-1.2713
X4.4683Y-1.9511
X4.4685Y-3.4109
X4.5797Y-2.4189
X4.6934Y-1.3071
X4.7001Y-3.2046
X4.7056Y-2.4192
X4.7063Y-1.951
X4.714Y-3.4114
X4.7144Y-2.7301
X4.7156Y-2.6728
X4.8228Y-1.1811
X5.0197Y-1.378
X5.0362Y-2.7042
X5.0732Y-2.4684
X5.2078Y-2.737
X5.2165Y-1.1811
X5.2428Y-3.3606
X5.2647Y-3.9326
X5.2858Y-3.8177
X5.3146Y-3.3037
X5.4134Y-1.378
X5.4167Y-3.3607
X5.4238Y-2.684
X5.4238Y-2.7418
X5.4244Y-2.9956
X5.4259Y-2.4271
X5.5166Y-3.844
X5.5166Y-3.8716
X5.55Y-1.9698
X5.5705Y-1.9903
X5.574Y-2.2344
X5.6059Y-3.7362
X5.6059Y-3.8049
X5.6085Y-2.0169
X5.6102Y-1.1811
X5.6524Y-2.2346
X5.6971Y-3.446
X5.7087Y-2.5591
X5.7087Y-2.9528
X5.7355Y-3.4085
X5.7673Y-3.6598
X5.7676Y-3.5756
X5.7907Y-3.3072
X5.8494Y-2.2401
X5.9055Y-2.7559
X5.9628Y-4.0078
X6.0039Y-1.0827
X6.0747Y-4.0079
X6.0858Y-2.2323
X6.1024Y-2.5591
X6.1439Y-1.9923
X6.1448Y-2.2326
X6.1517Y-3.9298
X6.1549Y-1.5745
X6.155Y-1.7584
X6.1552Y-1.8004
X6.1739Y-1.9786
X6.2228Y-2.2567
X6.2462Y-4.0078
X6.2598Y-2.4016
X6.3545Y-4.0078
X6.3976Y-2.9528
X6.4006Y-3.1018
X6.4173Y-2.2835
X6.4271Y-3.4135
X6.4566Y-4.0078
X6.4856Y-1.8936
X6.4857Y-1.9657
X6.4865Y-2.4072
X6.4866Y-2.6239
X6.4878Y-2.9978
X6.4961Y-1.0827
X6.5194Y-1.5756
X6.5482Y-4.0078
X6.55Y-4.125
X6.5662Y-2.0
X6.5662Y-2.0251
X6.5973Y-3.057
X6.6001Y-4.0077
X6.6117Y-2.4953
X6.6166Y-2.8714
X6.647Y-2.0197
X6.6482Y-3.6584
X6.6604Y-2.779
X6.6722Y-2.819
X6.68Y-3.0736
X6.7138Y-3.167
X6.714Y-3.2112
X6.7217Y-2.5241
X6.751Y-3.1444
X6.7672Y-1.8941
X6.7672Y-1.9241
X6.78Y-3.2109
X6.801Y-3.9163
X6.8186Y-2.6041
X6.8627Y-2.742
X6.8898Y-1.0827
X6.901Y-4.1202
X6.913Y-2.6048
X6.9568Y-4.0474
X6.9668Y-2.6778
X6.9676Y-1.8465
X6.977Y-1.934
X6.9992Y-1.697
X6.9995Y-1.3827
X7.0745Y-1.4735
X7.0745Y-1.5235
X7.0745Y-1.5731
X7.0866Y-2.8543
X7.1315Y-2.5558
X7.1364Y-2.6778
X7.2434Y-2.5558
X7.2835Y-1.0827
X7.3291Y-1.6975
X7.3458Y-2.561
X7.3863Y-1.2937
X7.4062Y-1.624
X7.4288Y-1.4282
X7.439Y-2.561
X7.4726Y-1.7457
X7.4727Y-1.9346
X7.4796Y-1.5555
X7.4803Y-2.8543
X7.5113Y-1.2473
X7.5324Y-1.6838
X7.5326Y-1.8075
X7.5468Y-2.7287
X7.5849Y-3.2003
X7.6015Y-3.7675
X7.6076Y-4.0176
X7.644Y-4.0902
X7.6597Y-1.7457
X7.6754Y-4.0902
X7.6772Y-1.0827
X7.683Y-1.575
X7.683Y-1.6245
X7.7067Y-4.0902
X7.735Y-2.5052
X7.7381Y-4.0902
X7.7393Y-1.3743
X7.7454Y-1.4744
X7.7583Y-2.1709
X7.7694Y-4.0902
X7.8008Y-4.0902
X7.8234Y-2.6196
X7.8236Y-2.1123
X7.8321Y-4.0902
X7.8634Y-4.0902
X7.869Y-1.306
X7.874Y-1.9685
X7.874Y-2.8543
X7.8768Y-1.6501
X7.9604Y-3.1992
X7.9604Y-3.2305
X7.9604Y-3.2618
X7.9604Y-3.2932
X7.9604Y-3.3245
X7.9604Y-3.3559
X7.9604Y-3.3872
X7.9604Y-3.4186
X7.9764Y-2.6196
X8.0262Y-4.0608
X8.0349Y-3.1992
X8.0371Y-1.344
X8.0709Y-1.378
X8.0709Y-1.7717
X8.1157Y-3.3776
X8.1236Y-3.861
X8.1277Y-2.6196
X8.1677Y-3.504
X8.1751Y-3.7987
X8.1755Y-3.7181
X8.205Y-2.6196
X8.2556Y-2.715
X8.259Y-2.2517
X8.26Y-2.4003
X8.2621Y-2.5626
X8.2677Y-1.1811
X8.2677Y-1.5748
X8.2677Y-1.9685
X8.2677Y-3.5433
X8.3587Y-2.8738
X8.3587Y-2.9545
X8.4247Y-3.0333
X8.4511Y-3.0333
X8.4646Y-1.378
X8.4646Y-1.7717
X8.4646Y-3.3465
X8.4646Y-3.7402
X8.4646Y-4.1339
X8.5071Y-2.4643
X8.5074Y-2.3937
X8.5082Y-2.2812
X8.5083Y-2.6061
X8.6614Y-1.1811
X8.6614Y-1.5748
X8.6614Y-3.5433
X8.6614Y-3.937
X8.8583Y-1.378
X8.8583Y-1.7717
X8.8583Y-2.9528
X8.8583Y-3.3465
X8.8583Y-3.7402
X8.8583Y-4.1339
X9.0551Y-1.1811
X9.0551Y-1.5748
X9.0551Y-1.9685
X9.0551Y-2.3622
X9.0551Y-2.7559
X9.0551Y-3.1496
X9.0551Y-3.5433
X9.0551Y-3.937
T3
X2.95Y-4.0525
X2.95Y-4.1175
X3.05Y-4.0525
X3.05Y-4.1175
X3.2516Y-4.1184
X3.3516Y-4.1184
X3.4516Y-4.1184
X4.9513Y-4.123
X5.0263Y-4.123
X5.1013Y-4.123
X5.1892Y-1.9332
X5.2505Y-1.9339
X5.35Y-4.125
X5.395Y-4.08
X5.4059Y-3.689
X5.4635Y-3.689
X6.5074Y-3.3525
X6.569Y-3.5344
X6.5694Y-3.4866
X7.201Y-4.044
X7.201Y-4.099
X7.201Y-4.154
X7.9257Y-4.1473
X7.9806Y-4.0924
X8.1025Y-4.11
X8.165Y-4.11
X8.225Y-4.11
T4
X3.0618Y-3.6985
X3.0618Y-3.7772
X6.8191Y-3.3128
X6.8191Y-3.4128
X6.8191Y-3.5128
X6.8191Y-3.6128
X6.9191Y-3.2128
X6.9191Y-3.3128
X6.9191Y-3.4128
X6.9191Y-3.5128
X6.9191Y-3.6128
X6.9191Y-3.7128
X7.0191Y-3.2128
X7.0191Y-3.3128
X7.0191Y-3.6128
X7.0191Y-3.7128
X7.1191Y-3.2128
X7.1191Y-3.3128
X7.1191Y-3.6128
X7.1191Y-3.7128
X7.2191Y-3.2128
X7.2191Y-3.3128
X7.2191Y-3.6128
X7.2191Y-3.7128
X7.3191Y-3.2128
X7.3191Y-3.3128
X7.3191Y-3.4128
X7.3191Y-3.5128
X7.3191Y-3.6128
X7.3191Y-3.7128
X7.4191Y-3.3128
X7.4191Y-3.4128
X7.4191Y-3.5128
X7.4191Y-3.6128
X4.7836Y-3.9624
X4.8623Y-3.9624
X8.3228Y-3.9225
X8.3228Y-4.0012
T5
X6.887Y-3.9348
X6.987Y-3.9348
X7.087Y-3.9348
X7.3578Y-3.9168
X7.3578Y-4.0168
X8.576Y-2.3422
X8.576Y-2.4323
X8.576Y-2.5225
X8.576Y-2.6127
X8.576Y-2.7028
X8.676Y-2.2971
X8.676Y-2.3873
X8.676Y-2.4774
X8.676Y-2.5676
X8.676Y-2.6577
X8.776Y-2.3422
X8.776Y-2.4323
X8.776Y-2.5225
X8.776Y-2.6127
X8.776Y-2.7028
X7.5032Y-3.9168
X7.5032Y-4.0168
T6
X5.6409Y-1.2818
X5.6409Y-1.3818
X5.7409Y-1.2818
X5.7409Y-1.3818
X5.8409Y-1.2818
X5.8409Y-1.3818
X5.9409Y-1.2818
X5.9409Y-1.3818
X6.0409Y-1.2818
X6.0409Y-1.3818
X6.1409Y-1.2818
X6.1409Y-1.3818
X6.2409Y-1.2818
X6.2409Y-1.3818
X6.3409Y-1.2818
X6.3409Y-1.3818
X6.4409Y-1.2818
X6.4409Y-1.3818
X6.5409Y-1.2818
X6.5409Y-1.3818
X6.6409Y-1.2818
X6.6409Y-1.3818
X6.7409Y-1.2818
X6.7409Y-1.3818
X6.8409Y-1.2818
X6.8409Y-1.3818
T7
X8.676Y-2.0199
X8.676Y-3.0042
T0
M30
